<?xml version="1.0" encoding="UTF-8" standalone="no"?>
<svg
   height="686.65mm"
   viewBox="0.0 0.0 448.08 686.65"
   width="448.08mm"
   version="1.1"
   id="svg63"
   sodipodi:docname="PortablePower.svg"
   inkscape:version="1.1 (c68e22c387, 2021-05-23)"
   xmlns:inkscape="http://www.inkscape.org/namespaces/inkscape"
   xmlns:sodipodi="http://sodipodi.sourceforge.net/DTD/sodipodi-0.dtd"
   xmlns="http://www.w3.org/2000/svg"
   xmlns:svg="http://www.w3.org/2000/svg"
   xmlns:rdf="http://www.w3.org/1999/02/22-rdf-syntax-ns#"
   xmlns:cc="http://creativecommons.org/ns#"
   xmlns:dc="http://purl.org/dc/elements/1.1/">
  <defs
     id="defs67" />
  <sodipodi:namedview
     id="namedview65"
     pagecolor="#ffffff"
     bordercolor="#666666"
     borderopacity="1.0"
     inkscape:pageshadow="2"
     inkscape:pageopacity="0.0"
     inkscape:pagecheckerboard="0"
     inkscape:document-units="mm"
     showgrid="false"
     inkscape:zoom="0.20080732"
     inkscape:cx="42.329134"
     inkscape:cy="1581.1177"
     inkscape:window-width="1680"
     inkscape:window-height="987"
     inkscape:window-x="-8"
     inkscape:window-y="18"
     inkscape:window-maximized="1"
     inkscape:current-layer="svg63" />
  <!--
TrayLayout2 - Generate a typetray from a layout file


Edit the layout text graphics to adjust your tray.
Put in the sizes for each column and row. You can replace the hyphens and
vertial bars representing the walls with a space character to remove the walls.
You can replace the space characters representing the floor by a "X" to remove the floor for this compartment.



Created with Boxes.py (https://festi.info/boxes.py)
Creation date: 2021-11-26 01:28:41
Command line (remove spaces between dashes): boxes TrayLayout2 - -FingerJoint_angle=90.0 - -FingerJoint_style=rectangular - -FingerJoint_surroundingspaces=2.0 - -FingerJoint_edge_width=1.0 - -FingerJoint_finger=2.5 - -FingerJoint_play=0.0 - -FingerJoint_space=2.5 - -FingerJoint_width=1 - -h=304.0 - -hi=0.0 - -outside=0 - -outside=1 '- -layout= ,> 203.0mm\n | ,> 203.0mm\n+ + +\n  |   332.0mm\n+ + +\n' - -thickness=10.8 - -format=svg - -tabs=0.0 - -debug=0 - -labels=0 - -labels=1 - -reference=0 - -burn=3.175
Url: http://www.festi.info/TrayLayout2?FingerJoint_angle=90.0&FingerJoint_style=rectangular&FingerJoint_surroundingspaces=2.0&FingerJoint_edge_width=1.0&FingerJoint_finger=2.5&FingerJoint_play=0.0&FingerJoint_space=2.5&FingerJoint_width=1&h=304.0&hi=0.0&outside=0&outside=1&layout=+%2C%3E+203.0mm%0D%0A+%7C+%2C%3E+203.0mm%0D%0A%2B+%2B+%2B%0D%0A++%7C+++332.0mm%0D%0A%2B+%2B+%2B%0D%0A&thickness=10.8&format=svg&tabs=0.0&debug=0&labels=0&labels=1&reference=0&burn=3.175&render=1
SettingsUrl: http://www.festi.info/TrayLayout2?FingerJoint_angle=90.0&FingerJoint_style=rectangular&FingerJoint_surroundingspaces=2.0&FingerJoint_edge_width=1.0&FingerJoint_finger=2.5&FingerJoint_play=0.0&FingerJoint_space=2.5&FingerJoint_width=1&h=304.0&hi=0.0&outside=0&outside=1&layout=+%2C%3E+203.0mm%0D%0A+%7C+%2C%3E+203.0mm%0D%0A%2B+%2B+%2B%0D%0A++%7C+++332.0mm%0D%0A%2B+%2B+%2B%0D%0A&thickness=10.8&format=svg&tabs=0.0&debug=0&labels=0&labels=1&reference=0&burn=3.175
-->
  <title
     id="title39">TrayLayout2</title>
  <metadata
     id="metadata41">
    <rdf:RDF>
      <cc:Work>
        <dc:title>Tray - TrayLayout2</dc:title>
        <dc:date>2021-11-26 01:28:41</dc:date>
        <dc:source>http://www.festi.info/TrayLayout2?FingerJoint_angle=90.0&amp;FingerJoint_style=rectangular&amp;FingerJoint_surroundingspaces=2.0&amp;FingerJoint_edge_width=1.0&amp;FingerJoint_finger=2.5&amp;FingerJoint_play=0.0&amp;FingerJoint_space=2.5&amp;FingerJoint_width=1&amp;h=304.0&amp;hi=0.0&amp;outside=0&amp;outside=1&amp;layout=+%2C%3E+203.0mm%0D%0A+%7C+%2C%3E+203.0mm%0D%0A%2B+%2B+%2B%0D%0A++%7C+++332.0mm%0D%0A%2B+%2B+%2B%0D%0A&amp;thickness=10.8&amp;format=svg&amp;tabs=0.0&amp;debug=0&amp;labels=0&amp;labels=1&amp;reference=0&amp;burn=3.175&amp;render=1</dc:source>
        <dc:description>Generate a typetray from a layout file

Edit the layout text graphics to adjust your tray.
Put in the sizes for each column and row. You can replace the hyphens and
vertial bars representing the walls with a space character to remove the walls.
You can replace the space characters representing the floor by a &quot;X&quot; to remove the floor for this compartment.


Created with Boxes.py (https://festi.info/boxes.py)
Command line: boxes TrayLayout2 --FingerJoint_angle=90.0 --FingerJoint_style=rectangular --FingerJoint_surroundingspaces=2.0 --FingerJoint_edge_width=1.0 --FingerJoint_finger=2.5 --FingerJoint_play=0.0 --FingerJoint_space=2.5 --FingerJoint_width=1 --h=304.0 --hi=0.0 --outside=0 --outside=1 '--layout= ,&gt; 203.0mm\n | ,&gt; 203.0mm\n+ + +\n  |   332.0mm\n+ + +\n' --thickness=10.8 --format=svg --tabs=0.0 --debug=0 --labels=0 --labels=1 --reference=0 --burn=3.175
Url: http://www.festi.info/TrayLayout2?FingerJoint_angle=90.0&amp;FingerJoint_style=rectangular&amp;FingerJoint_surroundingspaces=2.0&amp;FingerJoint_edge_width=1.0&amp;FingerJoint_finger=2.5&amp;FingerJoint_play=0.0&amp;FingerJoint_space=2.5&amp;FingerJoint_width=1&amp;h=304.0&amp;hi=0.0&amp;outside=0&amp;outside=1&amp;layout=+%2C%3E+203.0mm%0D%0A+%7C+%2C%3E+203.0mm%0D%0A%2B+%2B+%2B%0D%0A++%7C+++332.0mm%0D%0A%2B+%2B+%2B%0D%0A&amp;thickness=10.8&amp;format=svg&amp;tabs=0.0&amp;debug=0&amp;labels=0&amp;labels=1&amp;reference=0&amp;burn=3.175&amp;render=1
SettingsUrl: http://www.festi.info/TrayLayout2?FingerJoint_angle=90.0&amp;FingerJoint_style=rectangular&amp;FingerJoint_surroundingspaces=2.0&amp;FingerJoint_edge_width=1.0&amp;FingerJoint_finger=2.5&amp;FingerJoint_play=0.0&amp;FingerJoint_space=2.5&amp;FingerJoint_width=1&amp;h=304.0&amp;hi=0.0&amp;outside=0&amp;outside=1&amp;layout=+%2C%3E+203.0mm%0D%0A+%7C+%2C%3E+203.0mm%0D%0A%2B+%2B+%2B%0D%0A++%7C+++332.0mm%0D%0A%2B+%2B+%2B%0D%0A&amp;thickness=10.8&amp;format=svg&amp;tabs=0.0&amp;debug=0&amp;labels=0&amp;labels=1&amp;reference=0&amp;burn=3.175
</dc:description>
      </cc:Work>
    </rdf:RDF>
  </metadata>
  <text
     alignment-baseline="hanging"
     font-size="4px"
     style="font-style:normal;font-weight:normal;font-family:sans-serif;fill:#ff0000;stroke-linecap:round;stroke-linejoin:round"
     text-anchor="middle"
     id="text43"
     x="171.01019"
     y="579.3067" />
  <path
     d="m 332.0849,13.936756 -33.55297,-0.29115 c -3.17488,-0.0276 0,3.175 0,0 V 6.0206069 c 0,-1.754 -1.421,-3.175 -3.175,-3.175 h -27 c -1.754,0 -3.175,1.421 -3.175,3.175 v 7.6249991 c 0,3.175 3.175,0 0,0 h -20.65 c -3.175,0 0,3.175 0,0 V 6.0206069 c 0,-1.754 -1.421,-3.175 -3.175,-3.175 h -27 c -1.754,0 -3.175,1.421 -3.175,3.175 v 7.6249991 c 0,3.175 3.175,0 0,0 h -20.65 c -3.175,0 0,3.175 0,0 V 6.0206069 c 0,-1.754 -1.421,-3.175 -3.175,-3.175 h -27 c -1.754,0 -3.175,1.421 -3.175,3.175 v 7.6249991 c 0,3.175 3.175,0 0,0 h -20.65 c -3.175,0 0,3.175 0,0 V 6.0206069 c 0,-1.754 -1.421,-3.175 -3.175,-3.175 h -27 c -1.754,0 -3.175,1.421 -3.175,3.175 v 7.6249991 c 0,3.175 3.175,0 0,0 H 82.531928 c -3.175,0 0,3.175 0,0 V 6.0206069 c 0,-1.754 -1.421,-3.175 -3.175,-3.175 H 52.356932 c -1.754,0 -3.175,1.421 -3.175,3.175 v 7.6249991 c 0,3.175 3.175,0 0,0 h -30.525 c -1.754,0 -12.3364198,0.10449 -15.1157298,0.12805 l -0.24705,299.129204 c 3.14071,0.0232 13.6087798,0.29112 15.3627798,0.29275 l 313.427968,0.29115 c 1.754,0.002 7.4258,-0.19817 9.28917,-0.0888 L 341.12702,13.980536 c -1.93523,0.0577 -7.04107,-0.003 -9.04212,-0.0438"
     stroke="#000000"
     stroke-width="6.35"
     id="path45"
     sodipodi:nodetypes="csssssssssssssssssssssssssssssssssssssssssccssccc"
     style="fill:none;stroke-linecap:round;stroke-linejoin:round" />
  <rect
     style="fill:none;stroke:#000000;stroke-width:6.53309"
     id="rect171"
     width="120.23688"
     height="24.040659"
     x="-229.72652"
     y="-292.01712"
     rx="8.9590759"
     transform="scale(-1)" />
  <path
     style="fill:none;stroke:#000000;stroke-width:0.26538px;stroke-linecap:butt;stroke-linejoin:miter;stroke-opacity:1"
     d="M 344.43261,320.97132 H -5.2977178"
     id="path2135" />
  <circle
     id="path2137"
     style="fill:#000000;stroke:none;stroke-width:0.264583"
     cx="5.2977352"
     cy="-320.97128"
     r="0.39687499"
     transform="scale(-1)" />
  <path
     d="m 64.333982,522.5451 h -10.325 c -3.175,0 0,3.175 0,0 v -4.45 c 0,-3.175 -3.175,0 0,0 h 20.649996 c 3.175,0 0,-3.175 0,0 v 4.45 c 0,3.175 3.175,0 0,0 z"
     stroke="#0000ff"
     stroke-width="6.35"
     id="path20"
     style="fill:none;stroke-linecap:round;stroke-linejoin:round" />
  <path
     d="m 118.33398,522.5451 h -10.325 c -3.175,0 0,3.175 0,0 v -4.45 c 0,-3.175 -3.175,0 0,0 h 20.65 c 3.175,0 0,-3.175 0,0 v 4.45 c 0,3.175 3.175,0 0,0 z"
     stroke="#0000ff"
     stroke-width="6.35"
     id="path22"
     style="fill:none;stroke-linecap:round;stroke-linejoin:round" />
  <path
     d="m 172.33398,522.5451 h -10.325 c -3.175,0 0,3.175 0,0 v -4.45 c 0,-3.175 -3.175,0 0,0 h 20.65 c 3.175,0 0,-3.175 0,0 v 4.45 c 0,3.175 3.175,0 0,0 z"
     stroke="#0000ff"
     stroke-width="6.35"
     id="path24"
     style="fill:none;stroke-linecap:round;stroke-linejoin:round" />
  <path
     d="m 226.33398,522.5451 h -10.325 c -3.175,0 0,3.175 0,0 v -4.45 c 0,-3.175 -3.175,0 0,0 h 20.65 c 3.175,0 0,-3.175 0,0 v 4.45 c 0,3.175 3.175,0 0,0 z"
     stroke="#0000ff"
     stroke-width="6.35"
     id="path26"
     style="fill:none;stroke-linecap:round;stroke-linejoin:round" />
  <path
     d="m 280.33398,522.5451 h -10.325 c -3.175,0 0,3.175 0,0 v -4.45 c 0,-3.175 -3.175,0 0,0 h 20.65 c 3.175,0 0,-3.175 0,0 v 4.45 c 0,3.175 3.175,0 0,0 z"
     stroke="#0000ff"
     stroke-width="6.35"
     id="path28"
     style="fill:none;stroke-linecap:round;stroke-linejoin:round" />
</svg>
