<?xml version="1.0" encoding="UTF-8" standalone="no"?>
<svg
   height="812.79999mm"
   viewBox="0 0 330.20001 812.79997"
   width="330.20001mm"
   version="1.1"
   id="svg932"
   sodipodi:docname="0p5In_BoxSides_x2_32by13.svg"
   inkscape:version="1.1 (c68e22c387, 2021-05-23)"
   xmlns:inkscape="http://www.inkscape.org/namespaces/inkscape"
   xmlns:sodipodi="http://sodipodi.sourceforge.net/DTD/sodipodi-0.dtd"
   xmlns="http://www.w3.org/2000/svg"
   xmlns:svg="http://www.w3.org/2000/svg"
   xmlns:rdf="http://www.w3.org/1999/02/22-rdf-syntax-ns#"
   xmlns:cc="http://creativecommons.org/ns#"
   xmlns:dc="http://purl.org/dc/elements/1.1/">
  <defs
     id="defs936" />
  <sodipodi:namedview
     pagecolor="#ffffff"
     bordercolor="#666666"
     borderopacity="1"
     objecttolerance="10"
     gridtolerance="10"
     guidetolerance="10"
     inkscape:pageopacity="0"
     inkscape:pageshadow="2"
     inkscape:window-width="1680"
     inkscape:window-height="987"
     id="namedview934"
     showgrid="false"
     inkscape:zoom="0.5"
     inkscape:cx="597"
     inkscape:cy="1663"
     inkscape:window-x="-8"
     inkscape:window-y="18"
     inkscape:window-maximized="1"
     inkscape:current-layer="svg932"
     inkscape:document-rotation="0"
     inkscape:pagecheckerboard="0"
     inkscape:document-units="mm" />
  <!--
TypeTray - Type tray - allows only continuous walls

Created with Boxes.py (https://festi.info/boxes.py)
Creation date: 2021-08-20 16:58:03
Command line (remove spaces between dashes): boxes TypeTray - -FingerJoint_angle=90.0 - -FingerJoint_style=rectangular - -FingerJoint_surroundingspaces=0.5 - -FingerJoint_edge_width=1.0 - -FingerJoint_finger=8 - -FingerJoint_play=1 - -FingerJoint_space=8 - -FingerJoint_width=1 - -Stackable_angle=60 - -Stackable_height=2.0 - -Stackable_holedistance=1.0 - -Stackable_width=4.0 - -Hinge_grip_percentage=0 - -Hinge_outset=0 - -Hinge_pinwidth=0.5 - -Hinge_style=outset - -Hinge_axle=2 - -Hinge_grip_length=0 - -Hinge_hingestrength=1 - -CabinetHinge_bore=3.2 - -CabinetHinge_eyes_per_hinge=5 - -CabinetHinge_hinges=2 - -CabinetHinge_style=inside - -CabinetHinge_eye=1.5 - -CabinetHinge_play=0.05 - -CabinetHinge_spacing=2.0 - -Lid_angle=90.0 - -Lid_hole_width=0 - -Lid_second_pin=0 - -Lid_second_pin=1 - -Lid_spring=both - -Lid_style=rectangular - -Lid_surroundingspaces=2.0 - -Lid_edge_width=1.0 - -Lid_finger=3.0 - -Lid_play=0.05 - -Lid_space=2.0 - -Lid_width=1.0 - -Click_angle=5.0 - -Click_bottom_radius=0.1 - -Click_depth=3.0 - -RoundedTriangleEdge_height=150.0 - -RoundedTriangleEdge_r_hole=2.0 - -RoundedTriangleEdge_radius=30.0 - -RoundedTriangleEdge_outset=1 '- -sx=381*1' '- -sy=381*1' - -h=279 - -hi=0.0 - -outside=0 - -outside=1 - -bottom_edge=F - -top_edge=e - -gripheight=30 - -gripwidth=0 - -thickness=6.35 - -format=svg - -tabs=0.0 - -debug=0 - -labels=0 - -labels=1 - -reference=0 - -burn=3.175
Url: http://www.festi.info/TypeTray?FingerJoint_angle=90.0&FingerJoint_style=rectangular&FingerJoint_surroundingspaces=0.5&FingerJoint_edge_width=1.0&FingerJoint_finger=8&FingerJoint_play=1&FingerJoint_space=8&FingerJoint_width=1&Stackable_angle=60&Stackable_height=2.0&Stackable_holedistance=1.0&Stackable_width=4.0&Hinge_grip_percentage=0&Hinge_outset=0&Hinge_pinwidth=0.5&Hinge_style=outset&Hinge_axle=2&Hinge_grip_length=0&Hinge_hingestrength=1&CabinetHinge_bore=3.2&CabinetHinge_eyes_per_hinge=5&CabinetHinge_hinges=2&CabinetHinge_style=inside&CabinetHinge_eye=1.5&CabinetHinge_play=0.05&CabinetHinge_spacing=2.0&Lid_angle=90.0&Lid_hole_width=0&Lid_second_pin=0&Lid_second_pin=1&Lid_spring=both&Lid_style=rectangular&Lid_surroundingspaces=2.0&Lid_edge_width=1.0&Lid_finger=3.0&Lid_play=0.05&Lid_space=2.0&Lid_width=1.0&Click_angle=5.0&Click_bottom_radius=0.1&Click_depth=3.0&RoundedTriangleEdge_height=150.0&RoundedTriangleEdge_r_hole=2.0&RoundedTriangleEdge_radius=30.0&RoundedTriangleEdge_outset=1&sx=381*1&sy=381*1&h=279&hi=0.0&outside=0&outside=1&bottom_edge=F&top_edge=e&gripheight=30&gripwidth=0&thickness=6.35&format=svg&tabs=0.0&debug=0&labels=0&labels=1&reference=0&burn=3.175&render=1
SettingsUrl: http://www.festi.info/TypeTray?FingerJoint_angle=90.0&FingerJoint_style=rectangular&FingerJoint_surroundingspaces=0.5&FingerJoint_edge_width=1.0&FingerJoint_finger=8&FingerJoint_play=1&FingerJoint_space=8&FingerJoint_width=1&Stackable_angle=60&Stackable_height=2.0&Stackable_holedistance=1.0&Stackable_width=4.0&Hinge_grip_percentage=0&Hinge_outset=0&Hinge_pinwidth=0.5&Hinge_style=outset&Hinge_axle=2&Hinge_grip_length=0&Hinge_hingestrength=1&CabinetHinge_bore=3.2&CabinetHinge_eyes_per_hinge=5&CabinetHinge_hinges=2&CabinetHinge_style=inside&CabinetHinge_eye=1.5&CabinetHinge_play=0.05&CabinetHinge_spacing=2.0&Lid_angle=90.0&Lid_hole_width=0&Lid_second_pin=0&Lid_second_pin=1&Lid_spring=both&Lid_style=rectangular&Lid_surroundingspaces=2.0&Lid_edge_width=1.0&Lid_finger=3.0&Lid_play=0.05&Lid_space=2.0&Lid_width=1.0&Click_angle=5.0&Click_bottom_radius=0.1&Click_depth=3.0&RoundedTriangleEdge_height=150.0&RoundedTriangleEdge_r_hole=2.0&RoundedTriangleEdge_radius=30.0&RoundedTriangleEdge_outset=1&sx=381*1&sy=381*1&h=279&hi=0.0&outside=0&outside=1&bottom_edge=F&top_edge=e&gripheight=30&gripwidth=0&thickness=6.35&format=svg&tabs=0.0&debug=0&labels=0&labels=1&reference=0&burn=3.175
-->
  <title
     id="title903">TypeTray</title>
  <metadata
     id="metadata905">
    <rdf:RDF>
      <cc:Work>
        <dc:title>TypeTray</dc:title>
        <dc:date>2021-08-20 16:58:03</dc:date>
        <dc:source>http://www.festi.info/TypeTray?FingerJoint_angle=90.0&amp;FingerJoint_style=rectangular&amp;FingerJoint_surroundingspaces=0.5&amp;FingerJoint_edge_width=1.0&amp;FingerJoint_finger=8&amp;FingerJoint_play=1&amp;FingerJoint_space=8&amp;FingerJoint_width=1&amp;Stackable_angle=60&amp;Stackable_height=2.0&amp;Stackable_holedistance=1.0&amp;Stackable_width=4.0&amp;Hinge_grip_percentage=0&amp;Hinge_outset=0&amp;Hinge_pinwidth=0.5&amp;Hinge_style=outset&amp;Hinge_axle=2&amp;Hinge_grip_length=0&amp;Hinge_hingestrength=1&amp;CabinetHinge_bore=3.2&amp;CabinetHinge_eyes_per_hinge=5&amp;CabinetHinge_hinges=2&amp;CabinetHinge_style=inside&amp;CabinetHinge_eye=1.5&amp;CabinetHinge_play=0.05&amp;CabinetHinge_spacing=2.0&amp;Lid_angle=90.0&amp;Lid_hole_width=0&amp;Lid_second_pin=0&amp;Lid_second_pin=1&amp;Lid_spring=both&amp;Lid_style=rectangular&amp;Lid_surroundingspaces=2.0&amp;Lid_edge_width=1.0&amp;Lid_finger=3.0&amp;Lid_play=0.05&amp;Lid_space=2.0&amp;Lid_width=1.0&amp;Click_angle=5.0&amp;Click_bottom_radius=0.1&amp;Click_depth=3.0&amp;RoundedTriangleEdge_height=150.0&amp;RoundedTriangleEdge_r_hole=2.0&amp;RoundedTriangleEdge_radius=30.0&amp;RoundedTriangleEdge_outset=1&amp;sx=381*1&amp;sy=381*1&amp;h=279&amp;hi=0.0&amp;outside=0&amp;outside=1&amp;bottom_edge=F&amp;top_edge=e&amp;gripheight=30&amp;gripwidth=0&amp;thickness=6.35&amp;format=svg&amp;tabs=0.0&amp;debug=0&amp;labels=0&amp;labels=1&amp;reference=0&amp;burn=3.175&amp;render=1</dc:source>
        <dc:description>Type tray - allows only continuous walls

Created with Boxes.py (https://festi.info/boxes.py)
Command line: boxes TypeTray --FingerJoint_angle=90.0 --FingerJoint_style=rectangular --FingerJoint_surroundingspaces=0.5 --FingerJoint_edge_width=1.0 --FingerJoint_finger=8 --FingerJoint_play=1 --FingerJoint_space=8 --FingerJoint_width=1 --Stackable_angle=60 --Stackable_height=2.0 --Stackable_holedistance=1.0 --Stackable_width=4.0 --Hinge_grip_percentage=0 --Hinge_outset=0 --Hinge_pinwidth=0.5 --Hinge_style=outset --Hinge_axle=2 --Hinge_grip_length=0 --Hinge_hingestrength=1 --CabinetHinge_bore=3.2 --CabinetHinge_eyes_per_hinge=5 --CabinetHinge_hinges=2 --CabinetHinge_style=inside --CabinetHinge_eye=1.5 --CabinetHinge_play=0.05 --CabinetHinge_spacing=2.0 --Lid_angle=90.0 --Lid_hole_width=0 --Lid_second_pin=0 --Lid_second_pin=1 --Lid_spring=both --Lid_style=rectangular --Lid_surroundingspaces=2.0 --Lid_edge_width=1.0 --Lid_finger=3.0 --Lid_play=0.05 --Lid_space=2.0 --Lid_width=1.0 --Click_angle=5.0 --Click_bottom_radius=0.1 --Click_depth=3.0 --RoundedTriangleEdge_height=150.0 --RoundedTriangleEdge_r_hole=2.0 --RoundedTriangleEdge_radius=30.0 --RoundedTriangleEdge_outset=1 '--sx=381*1' '--sy=381*1' --h=279 --hi=0.0 --outside=0 --outside=1 --bottom_edge=F --top_edge=e --gripheight=30 --gripwidth=0 --thickness=6.35 --format=svg --tabs=0.0 --debug=0 --labels=0 --labels=1 --reference=0 --burn=3.175
Url: http://www.festi.info/TypeTray?FingerJoint_angle=90.0&amp;FingerJoint_style=rectangular&amp;FingerJoint_surroundingspaces=0.5&amp;FingerJoint_edge_width=1.0&amp;FingerJoint_finger=8&amp;FingerJoint_play=1&amp;FingerJoint_space=8&amp;FingerJoint_width=1&amp;Stackable_angle=60&amp;Stackable_height=2.0&amp;Stackable_holedistance=1.0&amp;Stackable_width=4.0&amp;Hinge_grip_percentage=0&amp;Hinge_outset=0&amp;Hinge_pinwidth=0.5&amp;Hinge_style=outset&amp;Hinge_axle=2&amp;Hinge_grip_length=0&amp;Hinge_hingestrength=1&amp;CabinetHinge_bore=3.2&amp;CabinetHinge_eyes_per_hinge=5&amp;CabinetHinge_hinges=2&amp;CabinetHinge_style=inside&amp;CabinetHinge_eye=1.5&amp;CabinetHinge_play=0.05&amp;CabinetHinge_spacing=2.0&amp;Lid_angle=90.0&amp;Lid_hole_width=0&amp;Lid_second_pin=0&amp;Lid_second_pin=1&amp;Lid_spring=both&amp;Lid_style=rectangular&amp;Lid_surroundingspaces=2.0&amp;Lid_edge_width=1.0&amp;Lid_finger=3.0&amp;Lid_play=0.05&amp;Lid_space=2.0&amp;Lid_width=1.0&amp;Click_angle=5.0&amp;Click_bottom_radius=0.1&amp;Click_depth=3.0&amp;RoundedTriangleEdge_height=150.0&amp;RoundedTriangleEdge_r_hole=2.0&amp;RoundedTriangleEdge_radius=30.0&amp;RoundedTriangleEdge_outset=1&amp;sx=381*1&amp;sy=381*1&amp;h=279&amp;hi=0.0&amp;outside=0&amp;outside=1&amp;bottom_edge=F&amp;top_edge=e&amp;gripheight=30&amp;gripwidth=0&amp;thickness=6.35&amp;format=svg&amp;tabs=0.0&amp;debug=0&amp;labels=0&amp;labels=1&amp;reference=0&amp;burn=3.175&amp;render=1
SettingsUrl: http://www.festi.info/TypeTray?FingerJoint_angle=90.0&amp;FingerJoint_style=rectangular&amp;FingerJoint_surroundingspaces=0.5&amp;FingerJoint_edge_width=1.0&amp;FingerJoint_finger=8&amp;FingerJoint_play=1&amp;FingerJoint_space=8&amp;FingerJoint_width=1&amp;Stackable_angle=60&amp;Stackable_height=2.0&amp;Stackable_holedistance=1.0&amp;Stackable_width=4.0&amp;Hinge_grip_percentage=0&amp;Hinge_outset=0&amp;Hinge_pinwidth=0.5&amp;Hinge_style=outset&amp;Hinge_axle=2&amp;Hinge_grip_length=0&amp;Hinge_hingestrength=1&amp;CabinetHinge_bore=3.2&amp;CabinetHinge_eyes_per_hinge=5&amp;CabinetHinge_hinges=2&amp;CabinetHinge_style=inside&amp;CabinetHinge_eye=1.5&amp;CabinetHinge_play=0.05&amp;CabinetHinge_spacing=2.0&amp;Lid_angle=90.0&amp;Lid_hole_width=0&amp;Lid_second_pin=0&amp;Lid_second_pin=1&amp;Lid_spring=both&amp;Lid_style=rectangular&amp;Lid_surroundingspaces=2.0&amp;Lid_edge_width=1.0&amp;Lid_finger=3.0&amp;Lid_play=0.05&amp;Lid_space=2.0&amp;Lid_width=1.0&amp;Click_angle=5.0&amp;Click_bottom_radius=0.1&amp;Click_depth=3.0&amp;RoundedTriangleEdge_height=150.0&amp;RoundedTriangleEdge_r_hole=2.0&amp;RoundedTriangleEdge_radius=30.0&amp;RoundedTriangleEdge_outset=1&amp;sx=381*1&amp;sy=381*1&amp;h=279&amp;hi=0.0&amp;outside=0&amp;outside=1&amp;bottom_edge=F&amp;top_edge=e&amp;gripheight=30&amp;gripwidth=0&amp;thickness=6.35&amp;format=svg&amp;tabs=0.0&amp;debug=0&amp;labels=0&amp;labels=1&amp;reference=0&amp;burn=3.175
</dc:description>
        <dc:format>image/svg+xml</dc:format>
        <dc:type
           rdf:resource="http://purl.org/dc/dcmitype/StillImage" />
      </cc:Work>
    </rdf:RDF>
  </metadata>
  <text
     alignment-baseline="hanging"
     font-size="4px"
     style="font-style:normal;font-weight:normal;font-family:sans-serif;fill:#ff0000;stroke-width:0.264583;stroke-linecap:round;stroke-linejoin:round;stroke-miterlimit:4;stroke-dasharray:none"
     text-anchor="middle"
     id="text917-6"
     x="13.292686"
     y="122.06451" />
  <g
     id="p-4-5-8"
     style="fill:none;stroke-width:0.264583;stroke-linecap:round;stroke-linejoin:round;stroke-miterlimit:4;stroke-dasharray:none"
     transform="translate(168.09131,785.54884)">
    <text
       alignment-baseline="hanging"
       font-size="4px"
       style="font-style:normal;font-weight:normal;font-family:sans-serif;fill:#ff0000;stroke-width:0.264583;stroke-miterlimit:4;stroke-dasharray:none"
       text-anchor="middle"
       transform="translate(594.2,544.375)"
       id="text927-6-8" />
  </g>
  <text
     alignment-baseline="hanging"
     font-size="4px"
     style="font-style:normal;font-weight:normal;font-family:sans-serif;fill:#ff0000;stroke-width:0.264583;stroke-linecap:round;stroke-linejoin:round;stroke-miterlimit:4;stroke-dasharray:none"
     text-anchor="middle"
     transform="rotate(90)"
     id="text927-6-9"
     x="189.40312"
     y="206.26527" />
  <text
     alignment-baseline="hanging"
     font-size="4px"
     style="font-style:normal;font-weight:normal;font-family:sans-serif;fill:#ff0000;stroke-width:0.264583;stroke-linecap:round;stroke-linejoin:round;stroke-miterlimit:4;stroke-dasharray:none"
     text-anchor="middle"
     transform="rotate(90)"
     id="text927-6-0-3"
     x="583.60614"
     y="206.17148" />
  <text
     alignment-baseline="hanging"
     font-size="4px"
     style="font-style:normal;font-weight:normal;font-family:sans-serif;fill:#ff0000;stroke-linecap:round;stroke-linejoin:round"
     text-anchor="middle"
     transform="rotate(90)"
     id="text1146"
     x="192.42155"
     y="201.81319" />
  <text
     alignment-baseline="hanging"
     font-size="4px"
     style="font-style:normal;font-weight:normal;font-family:sans-serif;fill:#ff0000;stroke-linecap:round;stroke-linejoin:round"
     text-anchor="middle"
     transform="rotate(90)"
     id="text1146-0"
     x="584.54248"
     y="201.8132" />
  <text
     alignment-baseline="hanging"
     font-size="4px"
     style="font-style:normal;font-weight:normal;font-family:sans-serif;fill:#ff0000;stroke-linecap:round;stroke-linejoin:round"
     text-anchor="middle"
     transform="rotate(90)"
     id="text868"
     x="196.85001"
     y="-144.675" />
  <rect
     style="fill:none;stroke:#008000;stroke-width:0.0856986;stroke-opacity:1"
     id="rect994"
     width="286.31631"
     height="4.6783013"
     x="2.8013759"
     y="88.75885" />
  <rect
     style="fill:none;stroke:#008000;stroke-width:0.0856985;stroke-opacity:1"
     id="rect994-2"
     width="286.3158"
     height="4.6783013"
     x="2.8211238"
     y="194.08685" />
  <rect
     style="fill:none;stroke:#008000;stroke-width:0.0856985;stroke-opacity:1"
     id="rect994-3"
     width="286.3158"
     height="4.6783013"
     x="2.9614403"
     y="300.0722" />
  <text
     alignment-baseline="hanging"
     font-size="4px"
     style="font-style:normal;font-weight:normal;font-family:sans-serif;fill:#ff0000;stroke-linecap:round;stroke-linejoin:round"
     text-anchor="middle"
     transform="rotate(90)"
     id="text53"
     x="196.84999"
     y="-144.67499" />
  <path
     d="m 3.17499,17.14499 v 28.521 c 0,1.754 1.421,3.175 3.175,3.175 h 7.62 c 3.175,0 0,-3.175 0,0 v 36.938 c 0,3.175 3.175,0 0,0 h -7.62 c -1.754,0 -3.175,1.421 -3.175,3.175 v 43.072 c 0,1.754 1.421,3.175 3.175,3.175 h 7.62 c 3.175,0 0,-3.175 0,0 v 36.938 c 0,3.175 3.175,0 0,0 h -7.62 c -1.754,0 -3.175,1.421 -3.175,3.175 v 43.072 c 0,1.754 1.421,3.175 3.175,3.175 h 7.62 c 3.175,0 0,-3.175 0,0 v 36.938 c 0,3.175 3.175,0 0,0 h -7.62 c -1.754,0 -3.175,1.421 -3.175,3.175 v 43.072 c 0,1.754 1.421,3.175 3.175,3.175 h 7.62 c 3.175,0 0,-3.175 0,0 v 36.938 c 0,3.175 3.175,0 0,0 h -7.62 c -1.754,0 -3.175,1.421 -3.175,3.175 v 28.521 10.795 c 0,1.754 1.421,3.175 3.175,3.175 h 31.496 c 1.753,0 3.175,-1.421 3.175,-3.175 v -7.62 c 0,-3.175 -3.175,0 0,0 h 36.937 c 3.175,0 0,-3.175 0,0 v 7.62 c 0,1.754 1.422,3.175 3.175,3.175 h 43.073 c 1.753,0 3.175,-1.421 3.175,-3.175 v -7.62 c 0,-3.175 -3.175,0 0,0 h 36.937 c 3.175,0 0,-3.175 0,0 v 7.62 c 0,1.754 1.422,3.175 3.175,3.175 h 43.073 c 1.753,0 3.175,-1.421 3.175,-3.175 v -7.62 c 0,-3.175 -3.175,0 0,0 h 36.937 c 3.175,0 0,-3.175 0,0 v 7.62 c 0,1.754 1.422,3.175 3.175,3.175 h 31.497 c 1.753,0 3.175,-1.421 3.175,-3.175 v -10.795 -359.41 -10.795 c 0,-1.754 -1.422,-3.175 -3.175,-3.175 h -31.497 c -1.753,0 -3.175,1.421 -3.175,3.175 v 7.62 c 0,3.175 3.175,0 0,0 h -36.937 c -3.175,0 0,3.175 0,0 v -7.62 c 0,-1.754 -1.422,-3.175 -3.175,-3.175 h -43.073 c -1.753,0 -3.175,1.421 -3.175,3.175 v 7.62 c 0,3.175 3.175,0 0,0 h -36.937 c -3.175,0 0,3.175 0,0 v -7.62 c 0,-1.754 -1.422,-3.175 -3.175,-3.175 h -43.073 c -1.753,0 -3.175,1.421 -3.175,3.175 v 7.62 c 0,3.175 3.175,0 0,0 h -36.937 c -3.175,0 0,3.175 0,0 v -7.62 c 0,-1.754 -1.422,-3.175 -3.175,-3.175 h -31.496 c -1.754,0 -3.175,1.421 -3.175,3.175 v 10.795"
     stroke="#000000"
     stroke-width="6.35"
     id="path55"
     style="fill:none;stroke-linecap:round;stroke-linejoin:round" />
  <text
     alignment-baseline="hanging"
     font-size="4px"
     style="font-style:normal;font-weight:normal;font-family:sans-serif;fill:#ff0000;stroke-linecap:round;stroke-linejoin:round"
     text-anchor="middle"
     transform="rotate(90)"
     id="text68"
     x="584.32666"
     y="-144.67499" />
  <path
     d="m 3.17499,404.62169 v 28.521 c 0,1.753 1.421,3.175 3.175,3.175 h 7.62 c 3.175,0 0,-3.175 0,0 v 36.937 c 0,3.175 3.175,0 0,0 h -7.62 c -1.754,0 -3.175,1.422 -3.175,3.175 v 43.073 c 0,1.753 1.421,3.175 3.175,3.175 h 7.62 c 3.175,0 0,-3.175 0,0 v 36.937 c 0,3.175 3.175,0 0,0 h -7.62 c -1.754,0 -3.175,1.422 -3.175,3.175 v 43.073 c 0,1.753 1.421,3.175 3.175,3.175 h 7.619 c 3.176,0 10e-4,-3.175 0,0 v 36.937 c 10e-4,3.175 3.176,0 10e-4,0 h -7.62 c -1.754,0 -3.175,1.422 -3.175,3.175 v 43.073 c 0,1.753 1.421,3.175 3.175,3.175 h 7.619 c 3.176,0 10e-4,-3.175 0,0 v 36.937 c 10e-4,3.175 3.176,0 10e-4,0 h -7.62 c -1.754,0 -3.175,1.422 -3.175,3.175 v 28.522 c 0,1.753 1.421,3.175 3.175,3.175 h 28.375 c 3.175,0 0,-3.175 0,-10e-4 v 7.621 c 0,1.753 1.421,3.175 3.175,3.175 h 43.18 c 1.753,0 3.175,-1.422 3.175,-3.175 v -7.62 c 0,-3.175 -3.175,0 -0.001,0 h 36.83 c 3.176,0 0.001,-3.175 0,0 v 7.62 c 0.001,1.753 1.422,3.175 3.176,3.175 h 43.18 c 1.753,0 3.175,-1.422 3.175,-3.175 v -7.62 c 0,-3.175 -3.175,0 -0.001,0 h 36.831 c 3.175,0 0,-3.175 0,-10e-4 v 7.621 c 0,1.753 1.421,3.175 3.175,3.175 h 43.18 c 1.753,0 3.175,-1.422 3.175,-3.175 v -7.621 c 0,-3.174 -3.175,10e-4 0,0 h 28.375 c 1.753,10e-4 3.175,-1.421 3.175,-3.174 v -359.41 c 0,-1.754 -1.422,-3.175 -3.175,-3.175 h -28.376 c -3.174,0 10e-4,3.175 0,0 v -7.62 c 10e-4,-1.754 -1.421,-3.175 -3.174,-3.175 h -43.18 c -1.754,0 -3.175,1.421 -3.175,3.175 v 7.62 c 0,3.175 3.175,0 0,0 h -36.831 c -3.174,0 0.001,3.175 0,0 v -7.62 c 0.001,-1.754 -1.421,-3.175 -3.174,-3.175 h -43.18 c -1.754,0 -3.175,1.421 -3.175,3.175 v 7.62 c 0,3.175 3.175,0 -0.001,0 h -36.83 c -3.174,0 0.001,3.175 0,0 v -7.62 c 0.001,-1.754 -1.421,-3.175 -3.174,-3.175 h -43.18 c -1.754,0 -3.175,1.421 -3.175,3.175 v 7.619 c 0,3.176 3.175,10e-4 0,0 h -28.375 c -1.754,10e-4 -3.175,1.422 -3.175,3.176"
     stroke="#000000"
     stroke-width="6.35"
     id="path70"
     style="fill:none;stroke-linecap:round;stroke-linejoin:round" />
</svg>
