<?xml version="1.0" encoding="UTF-8" standalone="no"?>
<svg
   height="812.79999mm"
   viewBox="0 0 888.99999 812.79997"
   width="889mm"
   version="1.1"
   id="svg932"
   sodipodi:docname="0p5In_BoxSides_x6_35by32.svg"
   inkscape:version="1.1 (c68e22c387, 2021-05-23)"
   xmlns:inkscape="http://www.inkscape.org/namespaces/inkscape"
   xmlns:sodipodi="http://sodipodi.sourceforge.net/DTD/sodipodi-0.dtd"
   xmlns="http://www.w3.org/2000/svg"
   xmlns:svg="http://www.w3.org/2000/svg"
   xmlns:rdf="http://www.w3.org/1999/02/22-rdf-syntax-ns#"
   xmlns:cc="http://creativecommons.org/ns#"
   xmlns:dc="http://purl.org/dc/elements/1.1/">
  <defs
     id="defs936" />
  <sodipodi:namedview
     pagecolor="#ffffff"
     bordercolor="#666666"
     borderopacity="1"
     objecttolerance="10"
     gridtolerance="10"
     guidetolerance="10"
     inkscape:pageopacity="0"
     inkscape:pageshadow="2"
     inkscape:window-width="1680"
     inkscape:window-height="987"
     id="namedview934"
     showgrid="false"
     inkscape:zoom="0.1767767"
     inkscape:cx="1507.5516"
     inkscape:cy="692.96462"
     inkscape:window-x="-8"
     inkscape:window-y="18"
     inkscape:window-maximized="1"
     inkscape:current-layer="svg932"
     inkscape:document-rotation="0"
     inkscape:pagecheckerboard="0"
     inkscape:document-units="mm"
     inkscape:lockguides="true"
     showguides="true" />
  <!--
TypeTray - Type tray - allows only continuous walls

Created with Boxes.py (https://festi.info/boxes.py)
Creation date: 2021-08-20 16:58:03
Command line (remove spaces between dashes): boxes TypeTray - -FingerJoint_angle=90.0 - -FingerJoint_style=rectangular - -FingerJoint_surroundingspaces=0.5 - -FingerJoint_edge_width=1.0 - -FingerJoint_finger=8 - -FingerJoint_play=1 - -FingerJoint_space=8 - -FingerJoint_width=1 - -Stackable_angle=60 - -Stackable_height=2.0 - -Stackable_holedistance=1.0 - -Stackable_width=4.0 - -Hinge_grip_percentage=0 - -Hinge_outset=0 - -Hinge_pinwidth=0.5 - -Hinge_style=outset - -Hinge_axle=2 - -Hinge_grip_length=0 - -Hinge_hingestrength=1 - -CabinetHinge_bore=3.2 - -CabinetHinge_eyes_per_hinge=5 - -CabinetHinge_hinges=2 - -CabinetHinge_style=inside - -CabinetHinge_eye=1.5 - -CabinetHinge_play=0.05 - -CabinetHinge_spacing=2.0 - -Lid_angle=90.0 - -Lid_hole_width=0 - -Lid_second_pin=0 - -Lid_second_pin=1 - -Lid_spring=both - -Lid_style=rectangular - -Lid_surroundingspaces=2.0 - -Lid_edge_width=1.0 - -Lid_finger=3.0 - -Lid_play=0.05 - -Lid_space=2.0 - -Lid_width=1.0 - -Click_angle=5.0 - -Click_bottom_radius=0.1 - -Click_depth=3.0 - -RoundedTriangleEdge_height=150.0 - -RoundedTriangleEdge_r_hole=2.0 - -RoundedTriangleEdge_radius=30.0 - -RoundedTriangleEdge_outset=1 '- -sx=381*1' '- -sy=381*1' - -h=279 - -hi=0.0 - -outside=0 - -outside=1 - -bottom_edge=F - -top_edge=e - -gripheight=30 - -gripwidth=0 - -thickness=6.35 - -format=svg - -tabs=0.0 - -debug=0 - -labels=0 - -labels=1 - -reference=0 - -burn=3.175
Url: http://www.festi.info/TypeTray?FingerJoint_angle=90.0&FingerJoint_style=rectangular&FingerJoint_surroundingspaces=0.5&FingerJoint_edge_width=1.0&FingerJoint_finger=8&FingerJoint_play=1&FingerJoint_space=8&FingerJoint_width=1&Stackable_angle=60&Stackable_height=2.0&Stackable_holedistance=1.0&Stackable_width=4.0&Hinge_grip_percentage=0&Hinge_outset=0&Hinge_pinwidth=0.5&Hinge_style=outset&Hinge_axle=2&Hinge_grip_length=0&Hinge_hingestrength=1&CabinetHinge_bore=3.2&CabinetHinge_eyes_per_hinge=5&CabinetHinge_hinges=2&CabinetHinge_style=inside&CabinetHinge_eye=1.5&CabinetHinge_play=0.05&CabinetHinge_spacing=2.0&Lid_angle=90.0&Lid_hole_width=0&Lid_second_pin=0&Lid_second_pin=1&Lid_spring=both&Lid_style=rectangular&Lid_surroundingspaces=2.0&Lid_edge_width=1.0&Lid_finger=3.0&Lid_play=0.05&Lid_space=2.0&Lid_width=1.0&Click_angle=5.0&Click_bottom_radius=0.1&Click_depth=3.0&RoundedTriangleEdge_height=150.0&RoundedTriangleEdge_r_hole=2.0&RoundedTriangleEdge_radius=30.0&RoundedTriangleEdge_outset=1&sx=381*1&sy=381*1&h=279&hi=0.0&outside=0&outside=1&bottom_edge=F&top_edge=e&gripheight=30&gripwidth=0&thickness=6.35&format=svg&tabs=0.0&debug=0&labels=0&labels=1&reference=0&burn=3.175&render=1
SettingsUrl: http://www.festi.info/TypeTray?FingerJoint_angle=90.0&FingerJoint_style=rectangular&FingerJoint_surroundingspaces=0.5&FingerJoint_edge_width=1.0&FingerJoint_finger=8&FingerJoint_play=1&FingerJoint_space=8&FingerJoint_width=1&Stackable_angle=60&Stackable_height=2.0&Stackable_holedistance=1.0&Stackable_width=4.0&Hinge_grip_percentage=0&Hinge_outset=0&Hinge_pinwidth=0.5&Hinge_style=outset&Hinge_axle=2&Hinge_grip_length=0&Hinge_hingestrength=1&CabinetHinge_bore=3.2&CabinetHinge_eyes_per_hinge=5&CabinetHinge_hinges=2&CabinetHinge_style=inside&CabinetHinge_eye=1.5&CabinetHinge_play=0.05&CabinetHinge_spacing=2.0&Lid_angle=90.0&Lid_hole_width=0&Lid_second_pin=0&Lid_second_pin=1&Lid_spring=both&Lid_style=rectangular&Lid_surroundingspaces=2.0&Lid_edge_width=1.0&Lid_finger=3.0&Lid_play=0.05&Lid_space=2.0&Lid_width=1.0&Click_angle=5.0&Click_bottom_radius=0.1&Click_depth=3.0&RoundedTriangleEdge_height=150.0&RoundedTriangleEdge_r_hole=2.0&RoundedTriangleEdge_radius=30.0&RoundedTriangleEdge_outset=1&sx=381*1&sy=381*1&h=279&hi=0.0&outside=0&outside=1&bottom_edge=F&top_edge=e&gripheight=30&gripwidth=0&thickness=6.35&format=svg&tabs=0.0&debug=0&labels=0&labels=1&reference=0&burn=3.175
-->
  <title
     id="title903">TypeTray</title>
  <metadata
     id="metadata905">
    <rdf:RDF>
      <cc:Work>
        <dc:title>TypeTray</dc:title>
        <dc:date>2021-08-20 16:58:03</dc:date>
        <dc:source>http://www.festi.info/TypeTray?FingerJoint_angle=90.0&amp;FingerJoint_style=rectangular&amp;FingerJoint_surroundingspaces=0.5&amp;FingerJoint_edge_width=1.0&amp;FingerJoint_finger=8&amp;FingerJoint_play=1&amp;FingerJoint_space=8&amp;FingerJoint_width=1&amp;Stackable_angle=60&amp;Stackable_height=2.0&amp;Stackable_holedistance=1.0&amp;Stackable_width=4.0&amp;Hinge_grip_percentage=0&amp;Hinge_outset=0&amp;Hinge_pinwidth=0.5&amp;Hinge_style=outset&amp;Hinge_axle=2&amp;Hinge_grip_length=0&amp;Hinge_hingestrength=1&amp;CabinetHinge_bore=3.2&amp;CabinetHinge_eyes_per_hinge=5&amp;CabinetHinge_hinges=2&amp;CabinetHinge_style=inside&amp;CabinetHinge_eye=1.5&amp;CabinetHinge_play=0.05&amp;CabinetHinge_spacing=2.0&amp;Lid_angle=90.0&amp;Lid_hole_width=0&amp;Lid_second_pin=0&amp;Lid_second_pin=1&amp;Lid_spring=both&amp;Lid_style=rectangular&amp;Lid_surroundingspaces=2.0&amp;Lid_edge_width=1.0&amp;Lid_finger=3.0&amp;Lid_play=0.05&amp;Lid_space=2.0&amp;Lid_width=1.0&amp;Click_angle=5.0&amp;Click_bottom_radius=0.1&amp;Click_depth=3.0&amp;RoundedTriangleEdge_height=150.0&amp;RoundedTriangleEdge_r_hole=2.0&amp;RoundedTriangleEdge_radius=30.0&amp;RoundedTriangleEdge_outset=1&amp;sx=381*1&amp;sy=381*1&amp;h=279&amp;hi=0.0&amp;outside=0&amp;outside=1&amp;bottom_edge=F&amp;top_edge=e&amp;gripheight=30&amp;gripwidth=0&amp;thickness=6.35&amp;format=svg&amp;tabs=0.0&amp;debug=0&amp;labels=0&amp;labels=1&amp;reference=0&amp;burn=3.175&amp;render=1</dc:source>
        <dc:description>Type tray - allows only continuous walls

Created with Boxes.py (https://festi.info/boxes.py)
Command line: boxes TypeTray --FingerJoint_angle=90.0 --FingerJoint_style=rectangular --FingerJoint_surroundingspaces=0.5 --FingerJoint_edge_width=1.0 --FingerJoint_finger=8 --FingerJoint_play=1 --FingerJoint_space=8 --FingerJoint_width=1 --Stackable_angle=60 --Stackable_height=2.0 --Stackable_holedistance=1.0 --Stackable_width=4.0 --Hinge_grip_percentage=0 --Hinge_outset=0 --Hinge_pinwidth=0.5 --Hinge_style=outset --Hinge_axle=2 --Hinge_grip_length=0 --Hinge_hingestrength=1 --CabinetHinge_bore=3.2 --CabinetHinge_eyes_per_hinge=5 --CabinetHinge_hinges=2 --CabinetHinge_style=inside --CabinetHinge_eye=1.5 --CabinetHinge_play=0.05 --CabinetHinge_spacing=2.0 --Lid_angle=90.0 --Lid_hole_width=0 --Lid_second_pin=0 --Lid_second_pin=1 --Lid_spring=both --Lid_style=rectangular --Lid_surroundingspaces=2.0 --Lid_edge_width=1.0 --Lid_finger=3.0 --Lid_play=0.05 --Lid_space=2.0 --Lid_width=1.0 --Click_angle=5.0 --Click_bottom_radius=0.1 --Click_depth=3.0 --RoundedTriangleEdge_height=150.0 --RoundedTriangleEdge_r_hole=2.0 --RoundedTriangleEdge_radius=30.0 --RoundedTriangleEdge_outset=1 '--sx=381*1' '--sy=381*1' --h=279 --hi=0.0 --outside=0 --outside=1 --bottom_edge=F --top_edge=e --gripheight=30 --gripwidth=0 --thickness=6.35 --format=svg --tabs=0.0 --debug=0 --labels=0 --labels=1 --reference=0 --burn=3.175
Url: http://www.festi.info/TypeTray?FingerJoint_angle=90.0&amp;FingerJoint_style=rectangular&amp;FingerJoint_surroundingspaces=0.5&amp;FingerJoint_edge_width=1.0&amp;FingerJoint_finger=8&amp;FingerJoint_play=1&amp;FingerJoint_space=8&amp;FingerJoint_width=1&amp;Stackable_angle=60&amp;Stackable_height=2.0&amp;Stackable_holedistance=1.0&amp;Stackable_width=4.0&amp;Hinge_grip_percentage=0&amp;Hinge_outset=0&amp;Hinge_pinwidth=0.5&amp;Hinge_style=outset&amp;Hinge_axle=2&amp;Hinge_grip_length=0&amp;Hinge_hingestrength=1&amp;CabinetHinge_bore=3.2&amp;CabinetHinge_eyes_per_hinge=5&amp;CabinetHinge_hinges=2&amp;CabinetHinge_style=inside&amp;CabinetHinge_eye=1.5&amp;CabinetHinge_play=0.05&amp;CabinetHinge_spacing=2.0&amp;Lid_angle=90.0&amp;Lid_hole_width=0&amp;Lid_second_pin=0&amp;Lid_second_pin=1&amp;Lid_spring=both&amp;Lid_style=rectangular&amp;Lid_surroundingspaces=2.0&amp;Lid_edge_width=1.0&amp;Lid_finger=3.0&amp;Lid_play=0.05&amp;Lid_space=2.0&amp;Lid_width=1.0&amp;Click_angle=5.0&amp;Click_bottom_radius=0.1&amp;Click_depth=3.0&amp;RoundedTriangleEdge_height=150.0&amp;RoundedTriangleEdge_r_hole=2.0&amp;RoundedTriangleEdge_radius=30.0&amp;RoundedTriangleEdge_outset=1&amp;sx=381*1&amp;sy=381*1&amp;h=279&amp;hi=0.0&amp;outside=0&amp;outside=1&amp;bottom_edge=F&amp;top_edge=e&amp;gripheight=30&amp;gripwidth=0&amp;thickness=6.35&amp;format=svg&amp;tabs=0.0&amp;debug=0&amp;labels=0&amp;labels=1&amp;reference=0&amp;burn=3.175&amp;render=1
SettingsUrl: http://www.festi.info/TypeTray?FingerJoint_angle=90.0&amp;FingerJoint_style=rectangular&amp;FingerJoint_surroundingspaces=0.5&amp;FingerJoint_edge_width=1.0&amp;FingerJoint_finger=8&amp;FingerJoint_play=1&amp;FingerJoint_space=8&amp;FingerJoint_width=1&amp;Stackable_angle=60&amp;Stackable_height=2.0&amp;Stackable_holedistance=1.0&amp;Stackable_width=4.0&amp;Hinge_grip_percentage=0&amp;Hinge_outset=0&amp;Hinge_pinwidth=0.5&amp;Hinge_style=outset&amp;Hinge_axle=2&amp;Hinge_grip_length=0&amp;Hinge_hingestrength=1&amp;CabinetHinge_bore=3.2&amp;CabinetHinge_eyes_per_hinge=5&amp;CabinetHinge_hinges=2&amp;CabinetHinge_style=inside&amp;CabinetHinge_eye=1.5&amp;CabinetHinge_play=0.05&amp;CabinetHinge_spacing=2.0&amp;Lid_angle=90.0&amp;Lid_hole_width=0&amp;Lid_second_pin=0&amp;Lid_second_pin=1&amp;Lid_spring=both&amp;Lid_style=rectangular&amp;Lid_surroundingspaces=2.0&amp;Lid_edge_width=1.0&amp;Lid_finger=3.0&amp;Lid_play=0.05&amp;Lid_space=2.0&amp;Lid_width=1.0&amp;Click_angle=5.0&amp;Click_bottom_radius=0.1&amp;Click_depth=3.0&amp;RoundedTriangleEdge_height=150.0&amp;RoundedTriangleEdge_r_hole=2.0&amp;RoundedTriangleEdge_radius=30.0&amp;RoundedTriangleEdge_outset=1&amp;sx=381*1&amp;sy=381*1&amp;h=279&amp;hi=0.0&amp;outside=0&amp;outside=1&amp;bottom_edge=F&amp;top_edge=e&amp;gripheight=30&amp;gripwidth=0&amp;thickness=6.35&amp;format=svg&amp;tabs=0.0&amp;debug=0&amp;labels=0&amp;labels=1&amp;reference=0&amp;burn=3.175
</dc:description>
        <dc:format>image/svg+xml</dc:format>
        <dc:type
           rdf:resource="http://purl.org/dc/dcmitype/StillImage" />
      </cc:Work>
    </rdf:RDF>
  </metadata>
  <text
     alignment-baseline="hanging"
     font-size="4px"
     style="font-style:normal;font-weight:normal;font-family:sans-serif;fill:#ff0000;stroke-width:0.264583;stroke-linecap:round;stroke-linejoin:round;stroke-miterlimit:4;stroke-dasharray:none"
     text-anchor="middle"
     id="text917-6"
     x="360.32166"
     y="126.46867" />
  <g
     id="p-4-5-8"
     style="fill:none;stroke-width:0.264583;stroke-linecap:round;stroke-linejoin:round;stroke-miterlimit:4;stroke-dasharray:none"
     transform="translate(515.12028,789.95301)">
    <text
       alignment-baseline="hanging"
       font-size="4px"
       style="font-style:normal;font-weight:normal;font-family:sans-serif;fill:#ff0000;stroke-width:0.264583;stroke-miterlimit:4;stroke-dasharray:none"
       text-anchor="middle"
       transform="translate(594.2,544.375)"
       id="text927-6-8" />
  </g>
  <text
     alignment-baseline="hanging"
     font-size="4px"
     style="font-style:normal;font-weight:normal;font-family:sans-serif;fill:#ff0000;stroke-width:0.264583;stroke-linecap:round;stroke-linejoin:round;stroke-miterlimit:4;stroke-dasharray:none"
     text-anchor="middle"
     transform="rotate(90)"
     id="text927-6"
     x="194.80022"
     y="-726.30902" />
  <text
     alignment-baseline="hanging"
     font-size="4px"
     style="font-style:normal;font-weight:normal;font-family:sans-serif;fill:#ff0000;stroke-width:0.264583;stroke-linecap:round;stroke-linejoin:round;stroke-miterlimit:4;stroke-dasharray:none"
     text-anchor="middle"
     transform="rotate(90)"
     id="text927-6-8-6"
     x="194.80019"
     y="-142.16147" />
  <text
     alignment-baseline="hanging"
     font-size="4px"
     style="font-style:normal;font-weight:normal;font-family:sans-serif;fill:#ff0000;stroke-width:0.264583;stroke-linecap:round;stroke-linejoin:round;stroke-miterlimit:4;stroke-dasharray:none"
     text-anchor="middle"
     transform="rotate(90)"
     id="text927-6-0"
     x="589.00323"
     y="-726.40289" />
  <text
     alignment-baseline="hanging"
     font-size="4px"
     style="font-style:normal;font-weight:normal;font-family:sans-serif;fill:#ff0000;stroke-width:0.264583;stroke-linecap:round;stroke-linejoin:round;stroke-miterlimit:4;stroke-dasharray:none"
     text-anchor="middle"
     transform="rotate(90)"
     id="text927-6-8-6-2"
     x="589.00317"
     y="-142.25526" />
  <g
     transform="rotate(90,-26.0875,170.7625)"
     id="text1146"
     style="font-size:4px;text-anchor:middle;fill:#ff0000;stroke-linecap:round;stroke-linejoin:round" />
  <g
     transform="rotate(90,118.57163,315.42162)"
     id="text1146-9"
     style="font-size:4px;text-anchor:middle;fill:#ff0000;stroke-linecap:round;stroke-linejoin:round" />
  <g
     transform="rotate(90,263.65888,460.50888)"
     id="text1146-9-2"
     style="font-size:4px;text-anchor:middle;fill:#ff0000;stroke-linecap:round;stroke-linejoin:round" />
  <g
     transform="rotate(90,-222.14798,366.82297)"
     id="text1146-0"
     style="font-size:4px;text-anchor:middle;fill:#ff0000;stroke-linecap:round;stroke-linejoin:round" />
  <g
     transform="rotate(90,-77.489,511.482)"
     id="text1146-9-8"
     style="font-size:4px;text-anchor:middle;fill:#ff0000;stroke-linecap:round;stroke-linejoin:round" />
  <g
     transform="rotate(90,67.5985,656.56949)"
     id="text1146-9-2-8"
     style="font-size:4px;text-anchor:middle;fill:#ff0000;stroke-linecap:round;stroke-linejoin:round" />
  <text
     alignment-baseline="hanging"
     font-size="4px"
     style="font-style:normal;font-weight:normal;font-family:sans-serif;fill:#ff0000;stroke-linecap:round;stroke-linejoin:round"
     text-anchor="middle"
     transform="rotate(90)"
     id="text868"
     x="196.84999"
     y="-144.67499" />
  <path
     d="m 3.17499,17.14499 v 28.548 c 0,1.754 1.421,3.175 3.175,3.175 h 7.62 c 3.175,0 0,-3.175 0,0 v 36.884 c 0,3.175 3.175,0 0,0 h -7.62 c -1.754,0 -3.175,1.421 -3.175,3.175 v 43.126 c 0,1.754 1.421,3.175 3.175,3.175 h 7.62 c 3.175,0 0,-3.175 0,0 v 36.884 c 0,3.175 3.175,0 0,0 h -7.62 c -1.754,0 -3.175,1.421 -3.175,3.175 v 43.126 c 0,1.754 1.421,3.175 3.175,3.175 h 7.62 c 3.175,0 0,-3.175 0,0 v 36.884 c 0,3.175 3.175,0 0,0 h -7.62 c -1.754,0 -3.175,1.421 -3.175,3.175 v 43.126 c 0,1.754 1.421,3.175 3.175,3.175 h 7.62 c 3.175,0 0,-3.175 0,0 v 36.884 c 0,3.175 3.175,0 0,0 h -7.62 c -1.754,0 -3.175,1.421 -3.175,3.175 v 28.548 10.795 c 0,1.754 1.421,3.175 3.175,3.175 h 31.523 c 1.753,0 3.175,-1.421 3.175,-3.175 v -7.62 c 0,-3.175 -3.175,0 0,0 h 36.883 c 3.175,0 0,-3.175 0,0 v 7.62 c 0,1.754 1.422,3.175 3.175,3.175 h 43.127 c 1.753,0 3.175,-1.421 3.175,-3.175 v -7.62 c 0,-3.175 -3.175,0 0,0 h 36.883 c 3.175,0 0,-3.175 0,0 v 7.62 c 0,1.754 1.422,3.175 3.175,3.175 h 43.127 c 1.753,0 3.175,-1.421 3.175,-3.175 v -7.62 c 0,-3.175 -3.175,0 0,0 h 36.883 c 3.175,0 0,-3.175 0,0 v 7.62 c 0,1.754 1.422,3.175 3.175,3.175 h 31.524 c 1.753,0 3.175,-1.421 3.175,-3.175 v -10.795 -359.41 -10.795 c 0,-1.754 -1.422,-3.175 -3.175,-3.175 h -31.524 c -1.753,0 -3.175,1.421 -3.175,3.175 v 7.62 c 0,3.175 3.175,0 0,0 h -36.883 c -3.175,0 0,3.175 0,0 v -7.62 c 0,-1.754 -1.422,-3.175 -3.175,-3.175 h -43.127 c -1.753,0 -3.175,1.421 -3.175,3.175 v 7.62 c 0,3.175 3.175,0 0,0 h -36.883 c -3.175,0 0,3.175 0,0 v -7.62 c 0,-1.754 -1.422,-3.175 -3.175,-3.175 h -43.127 c -1.753,0 -3.175,1.421 -3.175,3.175 v 7.62 c 0,3.175 3.175,0 0,0 h -36.883 c -3.175,0 0,3.175 0,0 v -7.62 c 0,-1.754 -1.422,-3.175 -3.175,-3.175 h -31.523 c -1.754,0 -3.175,1.421 -3.175,3.175 v 10.795"
     stroke="#000000"
     stroke-width="6.35"
     id="path870-2"
     style="fill:none;stroke-linecap:round;stroke-linejoin:round" />
  <path
     d="m 3.175,405.11868 v 28.548 c 0,1.753 1.421,3.175 3.175,3.175 h 7.62 c 3.175,0 0,-3.175 0,0 v 36.883 c 0,3.175 3.175,0 0,0 H 6.35 c -1.754,0 -3.175,1.422 -3.175,3.175 v 43.127 c 0,1.753 1.421,3.175 3.175,3.175 h 7.62 c 3.175,0 0,-3.175 0,0 v 36.883 c 0,3.175 3.175,0 0,0 H 6.35 c -1.754,0 -3.175,1.422 -3.175,3.175 v 43.127 c 0,1.753 1.421,3.175 3.175,3.175 h 7.62 c 3.175,0 0,-3.175 0,0 v 36.883 c 0,3.175 3.175,0 -0.001,0 H 6.35 c -1.754,0 -3.175,1.422 -3.175,3.175 v 43.127 c 0,1.753 1.421,3.175 3.175,3.175 h 7.62 c 3.175,0 0,-3.175 0,0 v 36.883 c 0,3.175 3.175,0 -0.001,0 H 6.35 c -1.754,0 -3.175,1.422 -3.175,3.175 v 28.549 c 0,1.753 1.421,3.175 3.175,3.175 h 28.375 c 3.175,0 0,-3.175 0,0 v 7.621 c 0,1.753 1.421,3.174 3.175,3.174 h 43.18 c 1.753,0 3.175,-1.421 3.175,-3.174 v -7.62 c 0,-3.175 -3.175,0 -10e-4,0 h 36.83 c 3.176,0 10e-4,-3.175 0,0 v 7.62 c 10e-4,1.753 1.422,3.174 3.176,3.174 h 43.18 c 1.753,0 3.175,-1.421 3.175,-3.174 v -7.62 c 0,-3.175 -3.175,0 -0.001,0 h 36.831 c 3.175,0 0,-3.175 0,0 v 7.621 c 0,1.753 1.421,3.174 3.175,3.174 h 43.18 c 1.753,0 3.175,-1.421 3.175,-3.174 v -7.62 c 0,-3.175 -3.175,0 0,0 h 28.375 c 1.753,0 3.175,-1.422 3.175,-3.175 v -359.41 c 0,-1.754 -1.422,-3.175 -3.175,-3.175 h -28.376 c -3.174,0 0.001,3.175 0,0 v -7.62 c 0.001,-1.754 -1.421,-3.175 -3.174,-3.175 h -43.18 c -1.754,0 -3.175,1.421 -3.175,3.175 v 7.62 c 0,3.175 3.175,0 0,0 h -36.831 c -3.174,0 0.001,3.175 0,0 v -7.62 c 0.001,-1.754 -1.421,-3.175 -3.174,-3.175 h -43.18 c -1.754,0 -3.175,1.421 -3.175,3.175 v 7.62 c 0,3.175 3.175,0 -10e-4,0 H 84.255 c -3.175,0 0,3.175 0,0 v -7.62 c 0,-1.754 -1.422,-3.175 -3.175,-3.175 H 37.9 c -1.754,0 -3.175,1.421 -3.175,3.175 v 7.62 c 0,3.175 3.175,0 -0.001,0 H 6.35 c -1.754,0 -3.175,1.421 -3.175,3.175"
     stroke="#000000"
     stroke-width="6.35"
     id="path885-61"
     style="fill:none;stroke-linecap:round;stroke-linejoin:round" />
  <text
     alignment-baseline="hanging"
     font-size="4px"
     style="font-style:normal;font-weight:normal;font-family:sans-serif;fill:#ff0000;stroke-linecap:round;stroke-linejoin:round"
     text-anchor="middle"
     transform="rotate(90)"
     id="text868-1"
     x="196.84999"
     y="-430.8902" />
  <path
     d="m 289.39021,17.14499 v 28.548 c 0,1.754 1.421,3.175 3.175,3.175 h 7.62 c 3.175,0 0,-3.175 0,0 v 36.884 c 0,3.175 3.175,0 0,0 h -7.62 c -1.754,0 -3.175,1.421 -3.175,3.175 v 43.126 c 0,1.754 1.421,3.175 3.175,3.175 h 7.62 c 3.175,0 0,-3.175 0,0 v 36.884 c 0,3.175 3.175,0 0,0 h -7.62 c -1.754,0 -3.175,1.421 -3.175,3.175 v 43.126 c 0,1.754 1.421,3.175 3.175,3.175 h 7.62 c 3.175,0 0,-3.175 0,0 v 36.884 c 0,3.175 3.175,0 0,0 h -7.62 c -1.754,0 -3.175,1.421 -3.175,3.175 v 43.126 c 0,1.754 1.421,3.175 3.175,3.175 h 7.62 c 3.175,0 0,-3.175 0,0 v 36.884 c 0,3.175 3.175,0 0,0 h -7.62 c -1.754,0 -3.175,1.421 -3.175,3.175 v 28.548 10.795 c 0,1.754 1.421,3.175 3.175,3.175 h 31.523 c 1.753,0 3.175,-1.421 3.175,-3.175 v -7.62 c 0,-3.175 -3.175,0 0,0 h 36.883 c 3.175,0 0,-3.175 0,0 v 7.62 c 0,1.754 1.422,3.175 3.175,3.175 h 43.127 c 1.753,0 3.175,-1.421 3.175,-3.175 v -7.62 c 0,-3.175 -3.175,0 0,0 h 36.883 c 3.175,0 0,-3.175 0,0 v 7.62 c 0,1.754 1.422,3.175 3.175,3.175 h 43.127 c 1.753,0 3.175,-1.421 3.175,-3.175 v -7.62 c 0,-3.175 -3.175,0 0,0 h 36.883 c 3.175,0 0,-3.175 0,0 v 7.62 c 0,1.754 1.422,3.175 3.175,3.175 h 31.524 c 1.753,0 3.175,-1.421 3.175,-3.175 v -10.795 -359.41 -10.795 c 0,-1.754 -1.422,-3.175 -3.175,-3.175 h -31.524 c -1.753,0 -3.175,1.421 -3.175,3.175 v 7.62 c 0,3.175 3.175,0 0,0 h -36.883 c -3.175,0 0,3.175 0,0 v -7.62 c 0,-1.754 -1.422,-3.175 -3.175,-3.175 h -43.127 c -1.753,0 -3.175,1.421 -3.175,3.175 v 7.62 c 0,3.175 3.175,0 0,0 h -36.883 c -3.175,0 0,3.175 0,0 v -7.62 c 0,-1.754 -1.422,-3.175 -3.175,-3.175 h -43.127 c -1.753,0 -3.175,1.421 -3.175,3.175 v 7.62 c 0,3.175 3.175,0 0,0 h -36.883 c -3.175,0 0,3.175 0,0 v -7.62 c 0,-1.754 -1.422,-3.175 -3.175,-3.175 h -31.523 c -1.754,0 -3.175,1.421 -3.175,3.175 v 10.795"
     stroke="#000000"
     stroke-width="6.35"
     id="path870-2-4"
     style="fill:none;stroke-linecap:round;stroke-linejoin:round" />
  <path
     d="m 289.39023,405.11869 v 28.548 c 0,1.753 1.421,3.175 3.175,3.175 h 7.62 c 3.175,0 0,-3.175 0,0 v 36.883 c 0,3.175 3.175,0 0,0 h -7.62 c -1.754,0 -3.175,1.422 -3.175,3.175 v 43.127 c 0,1.753 1.421,3.175 3.175,3.175 h 7.62 c 3.175,0 0,-3.175 0,0 v 36.883 c 0,3.175 3.175,0 0,0 h -7.62 c -1.754,0 -3.175,1.422 -3.175,3.175 v 43.127 c 0,1.753 1.421,3.175 3.175,3.175 h 7.62 c 3.175,0 0,-3.175 0,0 v 36.883 c 0,3.175 3.175,0 -10e-4,0 h -7.619 c -1.754,0 -3.175,1.422 -3.175,3.175 v 43.127 c 0,1.753 1.421,3.175 3.175,3.175 h 7.62 c 3.175,0 0,-3.175 0,0 v 36.883 c 0,3.175 3.175,0 -10e-4,0 h -7.619 c -1.754,0 -3.175,1.422 -3.175,3.175 v 28.549 c 0,1.753 1.421,3.175 3.175,3.175 h 28.375 c 3.175,0 0,-3.175 0,0 v 7.621 c 0,1.753 1.421,3.174 3.175,3.174 h 43.18 c 1.753,0 3.175,-1.421 3.175,-3.174 v -7.62 c 0,-3.175 -3.175,0 -0.001,0 h 36.83 c 3.176,0 10e-4,-3.175 0,0 v 7.62 c 10e-4,1.753 1.422,3.174 3.176,3.174 h 43.18 c 1.753,0 3.175,-1.421 3.175,-3.174 v -7.62 c 0,-3.175 -3.175,0 -10e-4,0 h 36.831 c 3.175,0 0,-3.175 0,0 v 7.621 c 0,1.753 1.421,3.174 3.175,3.174 h 43.18 c 1.753,0 3.175,-1.421 3.175,-3.174 v -7.62 c 0,-3.175 -3.175,0 0,0 h 28.375 c 1.753,0 3.175,-1.422 3.175,-3.175 v -359.41 c 0,-1.754 -1.422,-3.175 -3.175,-3.175 h -28.376 c -3.174,0 0.001,3.175 0,0 v -7.62 c 0.001,-1.754 -1.421,-3.175 -3.174,-3.175 h -43.18 c -1.754,0 -3.175,1.421 -3.175,3.175 v 7.62 c 0,3.175 3.175,0 0,0 h -36.831 c -3.174,0 10e-4,3.175 0,0 v -7.62 c 10e-4,-1.754 -1.421,-3.175 -3.174,-3.175 h -43.18 c -1.754,0 -3.175,1.421 -3.175,3.175 v 7.62 c 0,3.175 3.175,0 -10e-4,0 h -36.829 c -3.175,0 0,3.175 0,0 v -7.62 c 0,-1.754 -1.422,-3.175 -3.175,-3.175 h -43.18 c -1.754,0 -3.175,1.421 -3.175,3.175 v 7.62 c 0,3.175 3.175,0 -10e-4,0 h -28.374 c -1.754,0 -3.175,1.421 -3.175,3.175"
     stroke="#000000"
     stroke-width="6.35"
     id="path885-61-0"
     style="fill:none;stroke-linecap:round;stroke-linejoin:round" />
  <text
     alignment-baseline="hanging"
     font-size="4px"
     style="font-style:normal;font-weight:normal;font-family:sans-serif;fill:#ff0000;stroke-linecap:round;stroke-linejoin:round"
     text-anchor="middle"
     transform="rotate(90)"
     id="text868-6"
     x="196.84999"
     y="-717.1123" />
  <path
     d="m 575.61231,17.14499 v 28.548 c 0,1.754 1.421,3.175 3.175,3.175 h 7.62 c 3.175,0 0,-3.175 0,0 v 36.884 c 0,3.175 3.175,0 0,0 h -7.62 c -1.754,0 -3.175,1.421 -3.175,3.175 v 43.126 c 0,1.754 1.421,3.175 3.175,3.175 h 7.62 c 3.175,0 0,-3.175 0,0 v 36.884 c 0,3.175 3.175,0 0,0 h -7.62 c -1.754,0 -3.175,1.421 -3.175,3.175 v 43.126 c 0,1.754 1.421,3.175 3.175,3.175 h 7.62 c 3.175,0 0,-3.175 0,0 v 36.884 c 0,3.175 3.175,0 0,0 h -7.62 c -1.754,0 -3.175,1.421 -3.175,3.175 v 43.126 c 0,1.754 1.421,3.175 3.175,3.175 h 7.62 c 3.175,0 0,-3.175 0,0 v 36.884 c 0,3.175 3.175,0 0,0 h -7.62 c -1.754,0 -3.175,1.421 -3.175,3.175 v 28.548 10.795 c 0,1.754 1.421,3.175 3.175,3.175 h 31.523 c 1.753,0 3.175,-1.421 3.175,-3.175 v -7.62 c 0,-3.175 -3.175,0 0,0 h 36.883 c 3.175,0 0,-3.175 0,0 v 7.62 c 0,1.754 1.422,3.175 3.175,3.175 h 43.127 c 1.753,0 3.175,-1.421 3.175,-3.175 v -7.62 c 0,-3.175 -3.175,0 0,0 h 36.883 c 3.175,0 0,-3.175 0,0 v 7.62 c 0,1.754 1.422,3.175 3.175,3.175 h 43.127 c 1.753,0 3.175,-1.421 3.175,-3.175 v -7.62 c 0,-3.175 -3.175,0 0,0 h 36.883 c 3.175,0 0,-3.175 0,0 v 7.62 c 0,1.754 1.422,3.175 3.175,3.175 h 31.524 c 1.753,0 3.175,-1.421 3.175,-3.175 v -10.795 -359.41 -10.795 c 0,-1.754 -1.422,-3.175 -3.175,-3.175 h -31.524 c -1.753,0 -3.175,1.421 -3.175,3.175 v 7.62 c 0,3.175 3.175,0 0,0 h -36.883 c -3.175,0 0,3.175 0,0 v -7.62 c 0,-1.754 -1.422,-3.175 -3.175,-3.175 h -43.127 c -1.753,0 -3.175,1.421 -3.175,3.175 v 7.62 c 0,3.175 3.175,0 0,0 h -36.883 c -3.175,0 0,3.175 0,0 v -7.62 c 0,-1.754 -1.422,-3.175 -3.175,-3.175 h -43.127 c -1.753,0 -3.175,1.421 -3.175,3.175 v 7.62 c 0,3.175 3.175,0 0,0 h -36.883 c -3.175,0 0,3.175 0,0 v -7.62 c 0,-1.754 -1.422,-3.175 -3.175,-3.175 h -31.523 c -1.754,0 -3.175,1.421 -3.175,3.175 v 10.795"
     stroke="#000000"
     stroke-width="6.35"
     id="path870-2-7"
     style="fill:none;stroke-linecap:round;stroke-linejoin:round" />
  <path
     d="m 575.61232,405.11868 v 28.548 c 0,1.753 1.421,3.175 3.175,3.175 h 7.62 c 3.175,0 0,-3.175 0,0 v 36.883 c 0,3.175 3.175,0 0,0 h -7.62 c -1.754,0 -3.175,1.422 -3.175,3.175 v 43.127 c 0,1.753 1.421,3.175 3.175,3.175 h 7.62 c 3.175,0 0,-3.175 0,0 v 36.883 c 0,3.175 3.175,0 0,0 h -7.62 c -1.754,0 -3.175,1.422 -3.175,3.175 v 43.127 c 0,1.753 1.421,3.175 3.175,3.175 h 7.62 c 3.175,0 0,-3.175 0,0 v 36.883 c 0,3.175 3.175,0 -10e-4,0 h -7.619 c -1.754,0 -3.175,1.422 -3.175,3.175 v 43.127 c 0,1.753 1.421,3.175 3.175,3.175 h 7.62 c 3.175,0 0,-3.175 0,0 v 36.883 c 0,3.175 3.175,0 -10e-4,0 h -7.619 c -1.754,0 -3.175,1.422 -3.175,3.175 v 28.549 c 0,1.753 1.421,3.175 3.175,3.175 h 28.375 c 3.175,0 0,-3.175 0,0 v 7.621 c 0,1.753 1.421,3.174 3.175,3.174 h 43.18 c 1.753,0 3.175,-1.421 3.175,-3.174 v -7.62 c 0,-3.175 -3.175,0 -10e-4,0 h 36.83 c 3.176,0 0.001,-3.175 0,0 v 7.62 c 0.001,1.753 1.422,3.174 3.176,3.174 h 43.18 c 1.753,0 3.175,-1.421 3.175,-3.174 v -7.62 c 0,-3.175 -3.175,0 -10e-4,0 h 36.831 c 3.175,0 0,-3.175 0,0 v 7.621 c 0,1.753 1.421,3.174 3.175,3.174 h 43.18 c 1.753,0 3.175,-1.421 3.175,-3.174 v -7.62 c 0,-3.175 -3.175,0 0,0 h 28.375 c 1.753,0 3.175,-1.422 3.175,-3.175 v -359.41 c 0,-1.754 -1.422,-3.175 -3.175,-3.175 h -28.376 c -3.174,0 10e-4,3.175 0,0 v -7.62 c 10e-4,-1.754 -1.421,-3.175 -3.174,-3.175 h -43.18 c -1.754,0 -3.175,1.421 -3.175,3.175 v 7.62 c 0,3.175 3.175,0 0,0 h -36.831 c -3.174,0 10e-4,3.175 0,0 v -7.62 c 10e-4,-1.754 -1.421,-3.175 -3.174,-3.175 h -43.18 c -1.754,0 -3.175,1.421 -3.175,3.175 v 7.62 c 0,3.175 3.175,0 -0.001,0 h -36.829 c -3.175,0 0,3.175 0,0 v -7.62 c 0,-1.754 -1.422,-3.175 -3.175,-3.175 h -43.18 c -1.754,0 -3.175,1.421 -3.175,3.175 v 7.62 c 0,3.175 3.175,0 -10e-4,0 h -28.374 c -1.754,0 -3.175,1.421 -3.175,3.175"
     stroke="#000000"
     stroke-width="6.35"
     id="path885-61-5"
     style="fill:none;stroke-linecap:round;stroke-linejoin:round" />
  <rect
     style="fill:none;stroke:#008000;stroke-width:0.095647;stroke-opacity:1"
     id="rect994"
     width="847.50043"
     height="1.9687432"
     x="13.46202"
     y="53.411655" />
  <rect
     style="fill:none;stroke:#008000;stroke-width:0.0956848;stroke-opacity:1"
     id="rect994-2"
     width="848.16956"
     height="1.9687432"
     x="13.151294"
     y="142.3965" />
  <rect
     style="fill:none;stroke:#008000;stroke-width:0.0962739;stroke-opacity:1"
     id="rect994-2-8"
     width="858.96771"
     height="1.9680045"
     x="2.6718626"
     y="195.01237" />
  <rect
     style="fill:none;stroke:#008000;stroke-width:0.0956848;stroke-opacity:1"
     id="rect994-2-8-5"
     width="848.16956"
     height="1.9687432"
     x="13.449235"
     y="249.91457" />
  <rect
     style="fill:none;stroke:#008000;stroke-width:0.0956848;stroke-opacity:1"
     id="rect994-2-8-5-9"
     width="848.16956"
     height="1.9687432"
     x="13.449878"
     y="340.77768" />
  <rect
     style="fill:none;stroke:#008000;stroke-width:0.0962366;stroke-opacity:1"
     id="rect994-9"
     width="858.2218"
     height="1.9681913"
     x="3.3449934"
     y="89.649483" />
  <rect
     style="fill:none;stroke:#008000;stroke-width:0.0962366;stroke-opacity:1"
     id="rect994-9-9"
     width="858.2218"
     height="1.9681913"
     x="2.245064"
     y="300.09744" />
</svg>
