<?xml version="1.0" ?>
<svg xmlns="http://www.w3.org/2000/svg" xmlns:cc="http://creativecommons.org/ns#" xmlns:dc="http://purl.org/dc/elements/1.1/" xmlns:ev="http://www.w3.org/2001/xml-events" xmlns:inkscape="http://www.inkscape.org/namespaces/inkscape" xmlns:rdf="http://www.w3.org/1999/02/22-rdf-syntax-ns#" xmlns:sodipodi="http://sodipodi.sourceforge.net/DTD/sodipodi-0.dtd" xmlns:svg="http://www.w3.org/2000/svg" xmlns:xlink="http://www.w3.org/1999/xlink" baseProfile="full" height="686.65mm" id="svg63" inkscape:version="1.1 (c68e22c387, 2021-05-23)" sodipodi:docname="PortablePower.svg" version="1.1" viewBox="0.0 0.0 448.08 686.65" width="448.08mm">
	<defs/>
	<path d="M 332.0849,13.936756 L 298.53193,13.645606 L 298.2257543568822,13.653879598753537 L 297.96253703103855,13.682834980277995 L 297.7399348415269,13.730108505227767 L 297.555604607405,13.793336534257248 L 297.4072031477305,13.87015542802083 L 297.2923872815614,13.958201547172907 L 297.2088138279552,14.055111252367873 L 297.15413960596993,14.158520904260119 L 297.1260214346632,14.26606686350404 L 297.1221161330928,14.37538549075403 L 297.14008052031653,14.484113146664482 L 297.1775714153922,14.589886191889788 L 297.2322456373775,14.690340987084344 L 297.3017600053303,14.78311389290254 L 297.3837713383083,14.865841269998771 L 297.47593645536926,14.936159479027433 L 297.575912175571,14.991704880642915 L 297.6813553179713,15.030113835499613 L 297.7899227016278,15.04902270425192 L 297.89927114559845,15.046067847554228 L 298.00705746894096,15.018885626060932 L 298.11093849071307,14.965112400426424 L 298.2085710299726,14.8823845313051 L 298.2976119057773,14.76833837935135 L 298.37571793718485,14.62061030521957 L 298.4405459432532,14.436836669564151 L 298.48975274303996,14.214653833039488 L 298.52099515560303,13.951698156299974 L 298.5319300000001,13.645606000000004 L 298.53193,6.0206069 L 298.52690564475785,5.840391105994505 L 298.51201102013204,5.662818716802657 L 298.48751378777314,5.4881573940751975 L 298.4536816093321,5.316674799462873 L 298.41078214645944,5.1486385946164255 L 298.3590830608061,4.9843164411866 L 298.2988520140227,4.823976000824142 L 298.23035666776,4.667884935179794 L 298.1538646836688,4.516310905904301 L 298.06964372339985,4.369521574648407 L 297.9779614486038,4.227784603062856 L 297.87908552093154,4.091367652798393 L 297.77328360203364,3.9605383855057608 L 297.660823353561,3.8355644628357046 L 297.54197243716425,3.7167135464389687 L 297.4169985144942,3.604253297966297 L 297.28616924720154,3.4984513790684333 L 297.1497522969371,3.3995754513961223 L 297.0080153253515,3.3078931766001074 L 296.8612259940956,3.223672216331134 L 296.7096519648201,3.147180232239945 L 296.55356089917575,3.078684885977286 L 296.3932204588133,3.0184538391939006 L 296.22889830538344,2.966754753540532 L 296.060862100537,2.923855290667926 L 295.88937950592464,2.8900231122268254 L 295.7147181831972,2.8655258798679757 L 295.5371457940053,2.8506312552421194 L 295.3569299999998,2.8456069000000026 L 268.35693,2.8456069 L 268.1767142059945,2.850631255242117 L 267.99914181680265,2.865525879867973 L 267.82448049407515,2.8900231122268236 L 267.65299789946283,2.923855290667924 L 267.4849616946164,2.9667547535405308 L 267.32063954118655,3.018453839193899 L 267.1602991008241,3.078684885977285 L 267.0042080351798,3.1471802322399443 L 266.85263400590424,3.223672216331133 L 266.70584467464835,3.307893176600107 L 266.5641077030628,3.3995754513961214 L 266.42769075279836,3.498451379068433 L 266.2968614855057,3.6042532979662965 L 266.17188756283565,3.7167135464389687 L 266.0530366464389,3.835564462835705 L 265.94057639796625,3.960538385505761 L 265.83477447906836,4.091367652798393 L 265.7358985513961,4.227784603062856 L 265.64421627660005,4.369521574648408 L 265.5599953163311,4.516310905904302 L 265.4835033322399,4.667884935179795 L 265.41500798597724,4.823976000824143 L 265.3547769391938,4.984316441186602 L 265.30307785354046,5.1486385946164255 L 265.2601783906679,5.316674799462873 L 265.22634621222676,5.488157394075198 L 265.20184897986786,5.662818716802658 L 265.18695435524205,5.840391105994507 L 265.1819299999999,6.020606900000001 L 265.18192999999997,13.645606 L 265.1928652576981,13.951793215547994 L 265.2241088511214,14.215020490138999 L 265.27331751076304,14.437631093279759 L 265.3381479671163,14.62196829447702 L 265.41625695067444,14.770375363237527 L 265.50530119193076,14.885195569068024 L 265.60293742137844,14.968772181475256 L 265.7068223695108,15.023448469965968 L 265.8146127668211,15.051567704046906 L 265.9239653438025,15.055473153224815 L 266.03253683094835,15.037508087006437 L 266.1379839587518,15.00001577489852 L 266.23796345770626,14.945339486407807 L 266.3301320583049,14.875822491041042 L 266.41214649104097,14.793808058304972 L 266.48166348640774,14.701639457706342 L 266.5363397748984,14.601659958751895 L 266.57383208700634,14.496212830948377 L 266.5917971532247,14.387641343802532 L 266.5878917040468,14.278288766821106 L 266.5597724699658,14.170498369510842 L 266.50509618147515,14.066613421378488 L 266.42151956906787,13.968977191930785 L 266.3066993632374,13.87993295067448 L 266.15829229447684,13.801823967116318 L 265.9739550932796,13.736993510763044 L 265.7513444901388,13.687784851121402 L 265.4881172155478,13.656541257698137 L 265.1819299999998,13.645605999999994 L 263.20409055000005,13.645605999999994 L 250.50409055000003,13.645605999999999 L 244.53192999999996,13.645606 L 244.22574278445197,13.656541257698143 L 243.96251550986096,13.687784851121409 L 243.7399049067202,13.73699351076305 L 243.55556770552295,13.801823967116324 L 243.40716063676243,13.879932950674485 L 243.29234043093192,13.96897719193079 L 243.2087638185247,14.066613421378491 L 243.154087530034,14.170498369510845 L 243.12596829595304,14.27828876682111 L 243.12206284677512,14.387641343802535 L 243.1400279129935,14.49621283094838 L 243.1775202251014,14.601659958751897 L 243.23219651359213,14.701639457706344 L 243.3017135089589,14.793808058304975 L 243.38372794169496,14.875822491041045 L 243.47589654229358,14.945339486407809 L 243.57587604124802,15.000015774898522 L 243.68132316905152,15.03750808700644 L 243.78989465619736,15.055473153224817 L 243.89924723317878,15.05156770404691 L 244.00703763048907,15.023448469965972 L 244.1109225786214,14.968772181475257 L 244.20855880806909,14.885195569068026 L 244.2976030493254,14.770375363237529 L 244.37571203288354,14.621968294477021 L 244.44054248923683,14.43763109327976 L 244.48975114887844,14.215020490139 L 244.52099474230172,13.951793215547998 L 244.53192999999985,13.645606000000004 L 244.53192999999996,6.0206069 L 244.52690564475785,5.840391105994505 L 244.51201102013198,5.662818716802657 L 244.48751378777314,5.4881573940751975 L 244.45368160933205,5.316674799462873 L 244.41078214645944,5.1486385946164255 L 244.35908306080606,4.9843164411866 L 244.29885201402269,4.823976000824142 L 244.23035666776002,4.667884935179794 L 244.15386468366884,4.516310905904301 L 244.06964372339985,4.369521574648407 L 243.97796144860385,4.227784603062856 L 243.87908552093154,4.091367652798393 L 243.77328360203367,3.9605383855057608 L 243.660823353561,3.8355644628357046 L 243.54197243716428,3.7167135464389687 L 243.41699851449422,3.604253297966297 L 243.2861692472016,3.4984513790684333 L 243.14975229693712,3.3995754513961223 L 243.00801532535158,3.3078931766001074 L 242.8612259940957,3.223672216331134 L 242.70965196482018,3.147180232239945 L 242.55356089917584,3.078684885977286 L 242.3932204588134,3.0184538391939006 L 242.22889830538358,2.966754753540532 L 242.06086210053712,2.923855290667926 L 241.8893795059248,2.8900231122268254 L 241.71471818319733,2.8655258798679757 L 241.5371457940055,2.8506312552421194 L 241.35693,2.8456069000000026 L 214.35692999999995,2.8456069 L 214.17671420599444,2.850631255242117 L 213.99914181680262,2.865525879867973 L 213.82448049407515,2.8900231122268236 L 213.65299789946283,2.923855290667924 L 213.48496169461637,2.9667547535405308 L 213.32063954118655,3.018453839193899 L 213.1602991008241,3.078684885977285 L 213.00420803517974,3.1471802322399443 L 212.85263400590426,3.223672216331133 L 212.70584467464838,3.307893176600107 L 212.56410770306283,3.3995754513961214 L 212.42769075279836,3.498451379068433 L 212.29686148550573,3.6042532979662965 L 212.17188756283568,3.7167135464389687 L 212.05303664643895,3.835564462835705 L 211.94057639796628,3.960538385505761 L 211.83477447906841,4.091367652798393 L 211.7358985513961,4.227784603062856 L 211.6442162766001,4.369521574648408 L 211.55999531633114,4.516310905904302 L 211.48350333223993,4.667884935179795 L 211.4150079859773,4.823976000824143 L 211.3547769391939,4.984316441186602 L 211.30307785354054,5.1486385946164255 L 211.26017839066796,5.316674799462873 L 211.22634621222684,5.488157394075198 L 211.201848979868,5.662818716802658 L 211.18695435524216,5.840391105994507 L 211.18193000000005,6.020606900000001 L 211.18192999999994,13.645606 L 211.1928652576981,13.951793215547994 L 211.22410885112134,14.215020490138999 L 211.27331751076298,14.437631093279759 L 211.33814796711627,14.62196829447702 L 211.41625695067444,14.770375363237527 L 211.50530119193073,14.885195569068024 L 211.60293742137844,14.968772181475256 L 211.70682236951077,15.023448469965968 L 211.81461276682106,15.051567704046906 L 211.92396534380248,15.055473153224815 L 212.03253683094832,15.037508087006437 L 212.13798395875185,15.00001577489852 L 212.2379634577063,14.945339486407807 L 212.33013205830494,14.875822491041042 L 212.412146491041,14.793808058304972 L 212.48166348640777,14.701639457706342 L 212.5363397748985,14.601659958751895 L 212.5738320870064,14.496212830948377 L 212.59179715322477,14.387641343802532 L 212.58789170404688,14.278288766821106 L 212.55977246996594,14.170498369510842 L 212.50509618147524,14.066613421378488 L 212.421519569068,13.968977191930785 L 212.3066993632375,13.87993295067448 L 212.158292294477,13.801823967116318 L 211.97395509327976,13.736993510763044 L 211.751344490139,13.687784851121402 L 211.488117215548,13.656541257698137 L 211.18193,13.645605999999994 L 190.53192999999993,13.645606 L 190.22574278445194,13.656541257698143 L 189.96251550986094,13.687784851121409 L 189.73990490672017,13.73699351076305 L 189.55556770552292,13.801823967116324 L 189.4071606367624,13.879932950674485 L 189.29234043093192,13.96897719193079 L 189.2087638185247,14.066613421378491 L 189.15408753003396,14.170498369510845 L 189.12596829595304,14.27828876682111 L 189.12206284677512,14.387641343802535 L 189.1400279129935,14.49621283094838 L 189.17752022510143,14.601659958751897 L 189.23219651359216,14.701639457706344 L 189.3017135089589,14.793808058304975 L 189.38372794169499,14.875822491041045 L 189.4758965422936,14.945339486407809 L 189.57587604124808,15.000015774898522 L 189.68132316905158,15.03750808700644 L 189.78989465619745,15.055473153224817 L 189.89924723317887,15.05156770404691 L 190.00703763048915,15.023448469965972 L 190.1109225786215,14.968772181475257 L 190.20855880806923,14.885195569068026 L 190.29760304932552,14.770375363237529 L 190.37571203288368,14.621968294477021 L 190.44054248923698,14.43763109327976 L 190.4897511488786,14.215020490139 L 190.5209947423019,13.951793215547998 L 190.53193000000005,13.645606000000004 L 190.53192999999993,6.0206069 L 190.52690564475782,5.840391105994505 L 190.51201102013195,5.662818716802657 L 190.4875137877731,5.4881573940751975 L 190.453681609332,5.316674799462873 L 190.41078214645938,5.1486385946164255 L 190.35908306080603,4.9843164411866 L 190.29885201402263,4.823976000824142 L 190.23035666775996,4.667884935179794 L 190.1538646836688,4.516310905904301 L 190.0696437233998,4.369521574648407 L 189.9779614486038,4.227784603062856 L 189.87908552093148,4.091367652798393 L 189.77328360203362,3.9605383855057608 L 189.66082335356091,3.8355644628357046 L 189.5419724371642,3.7167135464389687 L 189.4169985144941,3.604253297966297 L 189.28616924720149,3.4984513790684333 L 189.149752296937,3.3995754513961223 L 189.00801532535147,3.3078931766001074 L 188.86122599409555,3.223672216331134 L 188.70965196482004,3.147180232239945 L 188.5535608991757,3.078684885977286 L 188.39322045881323,3.0184538391939006 L 188.22889830538338,2.966754753540532 L 188.06086210053692,2.923855290667926 L 187.88937950592458,2.8900231122268254 L 187.7147181831971,2.8655258798679757 L 187.53714579400526,2.8506312552421194 L 187.35692999999975,2.8456069000000026 L 160.35692999999992,2.8456069 L 160.17671420599441,2.850631255242117 L 159.9991418168026,2.865525879867973 L 159.82448049407512,2.8900231122268236 L 159.6529978994628,2.923855290667924 L 159.48496169461635,2.9667547535405308 L 159.32063954118652,3.018453839193899 L 159.16029910082406,3.078684885977285 L 159.00420803517972,3.1471802322399443 L 158.8526340059042,3.223672216331133 L 158.70584467464832,3.307893176600107 L 158.56410770306277,3.3995754513961214 L 158.4276907527983,3.498451379068433 L 158.29686148550564,3.6042532979662965 L 158.1718875628356,3.7167135464389687 L 158.05303664643887,3.835564462835705 L 157.94057639796617,3.960538385505761 L 157.8347744790683,4.091367652798393 L 157.735898551396,4.227784603062856 L 157.64421627659996,4.369521574648408 L 157.559995316331,4.516310905904302 L 157.4835033322398,4.667884935179795 L 157.41500798597713,4.823976000824143 L 157.35477693919373,4.984316441186602 L 157.30307785354037,5.1486385946164255 L 157.26017839066776,5.316674799462873 L 157.22634621222664,5.488157394075198 L 157.20184897986778,5.662818716802658 L 157.1869543552419,5.840391105994507 L 157.1819299999998,6.020606900000001 L 157.1819299999999,13.645606 L 157.19286525769806,13.951793215547994 L 157.22410885112131,14.215020490138999 L 157.27331751076295,14.437631093279759 L 157.33814796711624,14.62196829447702 L 157.41625695067438,14.770375363237527 L 157.5053011919307,14.885195569068024 L 157.60293742137839,14.968772181475256 L 157.70682236951075,15.023448469965968 L 157.814612766821,15.051567704046906 L 157.92396534380245,15.055473153224815 L 158.0325368309483,15.037508087006437 L 158.1379839587518,15.00001577489852 L 158.23796345770626,14.945339486407807 L 158.33013205830488,14.875822491041042 L 158.41214649104094,14.793808058304972 L 158.4816634864077,14.701639457706342 L 158.5363397748984,14.601659958751895 L 158.57383208700634,14.496212830948377 L 158.59179715322472,14.387641343802532 L 158.5878917040468,14.278288766821106 L 158.55977246996585,14.170498369510842 L 158.50509618147512,14.066613421378488 L 158.4215195690679,13.968977191930785 L 158.30669936323739,13.87993295067448 L 158.1582922944769,13.801823967116318 L 157.9739550932796,13.736993510763044 L 157.75134449013885,13.687784851121402 L 157.48811721554785,13.656541257698137 L 157.18192999999985,13.645605999999994 L 136.5319299999999,13.645606 L 136.2257427844519,13.656541257698143 L 135.9625155098609,13.687784851121409 L 135.73990490672014,13.73699351076305 L 135.5555677055229,13.801823967116324 L 135.40716063676237,13.879932950674485 L 135.2923404309319,13.96897719193079 L 135.20876381852466,14.066613421378491 L 135.15408753003393,14.170498369510845 L 135.12596829595302,14.27828876682111 L 135.1220628467751,14.387641343802535 L 135.14002791299347,14.49621283094838 L 135.1775202251014,14.601659958751897 L 135.23219651359213,14.701639457706344 L 135.30171350895887,14.793808058304975 L 135.38372794169496,14.875822491041045 L 135.47589654229358,14.945339486407809 L 135.57587604124805,15.000015774898522 L 135.68132316905155,15.03750808700644 L 135.78989465619742,15.055473153224817 L 135.89924723317884,15.05156770404691 L 136.00703763048912,15.023448469965972 L 136.11092257862148,14.968772181475257 L 136.2085588080692,14.885195569068026 L 136.2976030493255,14.770375363237529 L 136.37571203288365,14.621968294477021 L 136.44054248923695,14.43763109327976 L 136.48975114887858,14.215020490139 L 136.52099474230187,13.951793215547998 L 136.53193000000002,13.645606000000004 L 136.5319299999999,6.0206069 L 136.5269056447578,5.840391105994505 L 136.51201102013192,5.662818716802657 L 136.48751378777308,5.4881573940751975 L 136.45368160933197,5.316674799462873 L 136.41078214645938,5.1486385946164255 L 136.359083060806,4.9843164411866 L 136.29885201402263,4.823976000824142 L 136.23035666775996,4.667884935179794 L 136.15386468366876,4.516310905904301 L 136.0696437233998,4.369521574648407 L 135.97796144860376,4.227784603062856 L 135.87908552093145,4.091367652798393 L 135.7732836020336,3.9605383855057608 L 135.66082335356091,3.8355644628357046 L 135.5419724371642,3.7167135464389687 L 135.41699851449414,3.604253297966297 L 135.28616924720149,3.4984513790684333 L 135.14975229693704,3.3995754513961223 L 135.00801532535147,3.3078931766001074 L 134.86122599409558,3.223672216331134 L 134.70965196482007,3.147180232239945 L 134.55356089917572,3.078684885977286 L 134.39322045881326,3.0184538391939006 L 134.22889830538344,2.966754753540532 L 134.06086210053698,2.923855290667926 L 133.88937950592467,2.8900231122268254 L 133.7147181831972,2.8655258798679757 L 133.53714579400534,2.8506312552421194 L 133.35692999999983,2.8456069000000026 L 106.35692999999989,2.8456069 L 106.1767142059944,2.850631255242117 L 105.99914181680255,2.865525879867973 L 105.82448049407509,2.8900231122268236 L 105.65299789946276,2.923855290667924 L 105.48496169461632,2.9667547535405308 L 105.3206395411865,3.018453839193899 L 105.16029910082403,3.078684885977285 L 105.00420803517969,3.1471802322399443 L 104.85263400590419,3.223672216331133 L 104.70584467464829,3.307893176600107 L 104.56410770306275,3.3995754513961214 L 104.42769075279828,3.498451379068433 L 104.29686148550564,3.6042532979662965 L 104.1718875628356,3.7167135464389687 L 104.05303664643885,3.835564462835705 L 103.94057639796618,3.960538385505761 L 103.83477447906832,4.091367652798393 L 103.735898551396,4.227784603062856 L 103.64421627659999,4.369521574648408 L 103.55999531633103,4.516310905904302 L 103.48350333223983,4.667884935179795 L 103.41500798597717,4.823976000824143 L 103.35477693919378,4.984316441186602 L 103.30307785354042,5.1486385946164255 L 103.2601783906678,5.316674799462873 L 103.2263462122267,5.488157394075198 L 103.20184897986786,5.662818716802658 L 103.186954355242,5.840391105994507 L 103.18192999999988,6.020606900000001 L 103.1819299999999,13.645606 L 103.19286525769803,13.951793215547994 L 103.2241088511213,14.215020490138999 L 103.27331751076294,14.437631093279759 L 103.33814796711621,14.62196829447702 L 103.41625695067438,14.770375363237527 L 103.50530119193068,14.885195569068024 L 103.60293742137839,14.968772181475256 L 103.70682236951073,15.023448469965968 L 103.814612766821,15.051567704046906 L 103.92396534380242,15.055473153224815 L 104.03253683094827,15.037508087006437 L 104.13798395875179,15.00001577489852 L 104.23796345770623,14.945339486407807 L 104.33013205830487,14.875822491041042 L 104.41214649104093,14.793808058304972 L 104.4816634864077,14.701639457706342 L 104.53633977489841,14.601659958751895 L 104.57383208700632,14.496212830948377 L 104.5917971532247,14.387641343802532 L 104.5878917040468,14.278288766821106 L 104.55977246996585,14.170498369510842 L 104.50509618147514,14.066613421378488 L 104.42151956906791,13.968977191930785 L 104.30669936323741,13.87993295067448 L 104.15829229447691,13.801823967116318 L 103.97395509327964,13.736993510763044 L 103.75134449013888,13.687784851121402 L 103.48811721554787,13.656541257698137 L 103.18192999999988,13.645605999999994 L 82.531928,13.645606 L 82.225740784452,13.656541257698143 L 81.962513509861,13.687784851121409 L 81.73990290672023,13.73699351076305 L 81.55556570552298,13.801823967116324 L 81.40715863676247,13.879932950674485 L 81.29233843093198,13.96897719193079 L 81.20876181852474,14.066613421378491 L 81.15408553003402,14.170498369510845 L 81.12596629595309,14.27828876682111 L 81.12206084677517,14.387641343802535 L 81.14002591299355,14.49621283094838 L 81.17751822510147,14.601659958751897 L 81.23219451359218,14.701639457706344 L 81.30171150895895,14.793808058304975 L 81.38372594169502,14.875822491041045 L 81.47589454229364,14.945339486407809 L 81.57587404124808,15.000015774898522 L 81.6813211690516,15.03750808700644 L 81.78989265619745,15.055473153224817 L 81.89924523317887,15.05156770404691 L 82.00703563048913,15.023448469965972 L 82.11092057862149,14.968772181475257 L 82.20855680806919,14.885195569068026 L 82.2976010493255,14.770375363237529 L 82.37571003288365,14.621968294477021 L 82.44054048923692,14.43763109327976 L 82.48974914887856,14.215020490139 L 82.52099274230183,13.951793215547998 L 82.53192799999997,13.645606000000004 L 82.531928,6.0206069 L 82.52690364475788,5.840391105994505 L 82.51200902013203,5.662818716802657 L 82.48751178777317,5.4881573940751975 L 82.45367960933207,5.316674799462873 L 82.41078014645946,5.1486385946164255 L 82.35908106080609,4.9843164411866 L 82.2988500140227,4.823976000824142 L 82.23035466776005,4.667884935179794 L 82.15386268366886,4.516310905904301 L 82.0696417233999,4.369521574648407 L 81.97795944860388,4.227784603062856 L 81.87908352093157,4.091367652798393 L 81.7732816020337,3.9605383855057608 L 81.66082135356103,3.8355644628357046 L 81.5419704371643,3.7167135464389687 L 81.41699651449424,3.604253297966297 L 81.28616724720162,3.4984513790684333 L 81.14975029693716,3.3995754513961223 L 81.0080133253516,3.3078931766001074 L 80.86122399409571,3.223672216331134 L 80.70964996482022,3.147180232239945 L 80.55355889917587,3.078684885977286 L 80.39321845881342,3.0184538391939006 L 80.2288963053836,2.966754753540532 L 80.06086010053716,2.923855290667926 L 79.88937750592483,2.8900231122268254 L 79.71471618319737,2.8655258798679757 L 79.53714379400553,2.8506312552421194 L 79.35692800000004,2.8456069000000026 L 74.16413165,2.845606900000002 L 61.464131650000006,2.845606900000001 L 52.356932,2.8456069 L 52.17671620599451,2.850631255242117 L 51.99914381680266,2.865525879867973 L 51.8244824940752,2.8900231122268236 L 51.65299989946288,2.923855290667924 L 51.484963694616425,2.9667547535405308 L 51.3206415411866,3.018453839193899 L 51.16030110082414,3.078684885977285 L 51.004210035179796,3.1471802322399443 L 50.85263600590431,3.223672216331133 L 50.70584667464841,3.307893176600107 L 50.56410970306286,3.3995754513961214 L 50.4276927527984,3.498451379068433 L 50.29686348550577,3.6042532979662965 L 50.171889562835716,3.7167135464389687 L 50.05303864643898,3.835564462835705 L 49.940578397966306,3.960538385505761 L 49.834776479068445,4.091367652798393 L 49.735900551396135,4.227784603062856 L 49.64421827660012,4.369521574648408 L 49.55999731633115,4.516310905904302 L 49.483505332239965,4.667884935179795 L 49.415009985977306,4.823976000824143 L 49.35477893919392,4.984316441186602 L 49.30307985354055,5.1486385946164255 L 49.26018039066795,5.316674799462873 L 49.22634821222685,5.488157394075198 L 49.201850979868,5.662818716802658 L 49.186956355242145,5.840391105994507 L 49.18193200000003,6.020606900000001 L 49.181932,13.645606 L 49.19286725769815,13.951793215547994 L 49.22411085112141,14.215020490138999 L 49.27331951076305,14.437631093279759 L 49.33814996711633,14.62196829447702 L 49.41625895067449,14.770375363237527 L 49.50530319193079,14.885195569068024 L 49.602939421378494,14.968772181475256 L 49.70682436951085,15.023448469965968 L 49.814614766821116,15.051567704046906 L 49.923967343802545,15.055473153224815 L 50.03253883094839,15.037508087006437 L 50.137985958751905,15.00001577489852 L 50.23796545770635,14.945339486407807 L 50.330134058304985,14.875822491041042 L 50.41214849104106,14.793808058304972 L 50.48166548640782,14.701639457706342 L 50.53634177489854,14.601659958751895 L 50.57383408700645,14.496212830948377 L 50.591799153224834,14.387641343802532 L 50.58789370404693,14.278288766821106 L 50.559774469965994,14.170498369510842 L 50.50509818147528,14.066613421378488 L 50.42152156906805,13.968977191930785 L 50.30670136323756,13.87993295067448 L 50.15829429447705,13.801823967116318 L 49.97395709327979,13.736993510763044 L 49.751346490139035,13.687784851121402 L 49.48811921554804,13.656541257698137 L 49.181932000000046,13.645605999999994 L 18.656932000000005,13.645606 L 18.44467307208168,13.645971132231745 L 18.173520550018456,13.647036118496045 L 17.84756599876174,13.648755343146501 L 17.47090098326295,13.651083190536719 L 17.047617068473496,13.653974045020297 L 16.58180581934479,13.657382290950839 L 16.077558800828246,13.661262312681947 L 15.538967577875276,13.665568494567223 L 14.97012371543729,13.67025522096027 L 14.375118778465705,13.675276876214687 L 13.758044331911933,13.680587844684078 L 13.122991940727381,13.686142510722046 L 12.474053169863467,13.691895258682193 L 11.815319584271602,13.697800472918118 L 11.1508827489032,13.703812537783426 L 10.48483422870967,13.709885837631719 L 9.821265588642428,13.715974756816596 L 9.16426839365288,13.722033679691663 L 8.51793420869245,13.72801699061052 L 7.88635459871254,13.733879073926769 L 7.273621128664567,13.739574313994012 L 6.683825363499945,13.745057095165851 L 6.121058868170083,13.75028180179589 L 5.5894132076263965,13.755202818237727 L 5.0929799468202965,13.759774528844968 L 4.635850650703194,13.763951317971213 L 4.222116884226503,13.767687569970064 L 3.855870212341637,13.770937669195124 L 3.541202200000008,13.773655999999995 L 3.4913246720648776,74.16558163741381 L 3.4808513515415003,86.84672323383013 L 3.3630510328026872,229.47985650760842 L 3.352567302776366,242.17360197502165 L 3.2941522000000045,312.90286000000003 L 3.644533527770721,312.90611200828243 L 4.043244513485592,312.9109842232154 L 4.4863387641969785,312.91735092992747 L 4.969869886957239,312.9250864135471 L 5.489891488818735,312.93406495920294 L 6.042457176833824,312.94416085202346 L 6.623620558054866,312.95524837713725 L 7.229435239534221,312.9672018196728 L 7.855954828324251,312.9798954647587 L 8.499232931477312,312.99320359752346 L 9.155323156045764,313.00700050309564 L 9.82027910908197,313.0211604666038 L 10.490154397638285,313.03555777317644 L 11.161002628767076,313.0500667079421 L 11.828877409520693,313.06456155602933 L 12.4898323469515,313.0789166025667 L 13.13992104811186,313.0930061326827 L 13.77519712005413,313.106704431506 L 14.391714169830669,313.119885784165 L 14.985525804493838,313.13242447578824 L 15.552685631095995,313.14419479150433 L 16.089247256689497,313.1550710164418 L 16.591264288326713,313.16492743572917 L 17.054790333059994,313.173638334495 L 17.475878997941702,313.1810779978678 L 17.850583890024197,313.1871207109762 L 18.174958616359845,313.19164075894867 L 18.445056784000993,313.1945124269137 L 18.65693200000001,313.19560999999993 L 81.47556820445034,313.2539635861449 L 94.15327364251561,313.2657401801797 L 250.50781331956745,313.41098128459515 L 263.2009470314677,313.42277221028627 L 332.0849,313.48676000000006 L 332.2800069896265,313.48626670056177 L 332.50116424043625,313.48445693386367 L 332.74647100291116,313.481456586986 L 333.0140265275329,313.47739154700895 L 333.30193006478333,313.4723877010128 L 333.60828086514414,313.4665709360778 L 333.9311781790971,313.46006713928415 L 334.2687212571241,313.4530021977121 L 334.6190093497068,313.445501998442 L 334.98014170732705,313.43769242855393 L 335.35021758046656,313.4296993751282 L 335.7273362196072,313.42164872524506 L 336.1095968752306,313.41366636598474 L 336.4950987978186,313.4058781844275 L 336.8819412378531,313.3984100676535 L 337.2682234458157,313.3913879027431 L 337.6520446721882,313.38493757677645 L 338.03150416745245,313.37918497683387 L 338.4047011820902,313.37425598999556 L 338.7697349665832,313.37027650334176 L 339.12470477141323,313.3673724039527 L 339.46770984706205,313.3656695789086 L 339.7968494440115,313.3652939152897 L 340.1102228127433,313.36637130017635 L 340.4059292037392,313.3690276206487 L 340.68206786748107,313.37338876378703 L 340.9367380544506,313.3795806166715 L 341.1680390151296,313.38772906638246 L 341.3740699999998,313.39796000000007 L 341.31529735569063,242.167222251632 L 341.3048333960713,229.48520713699583 L 341.1871471879663,86.85294131566972 L 341.17667283887477,74.15833446255604 L 341.12702,13.980536 L 340.9157709549387,13.98608828176637 L 340.6834454516381,13.990829878387798 L 340.4315873172332,13.994794813399484 L 340.16174037885935,13.998017110336628 L 339.87544846365165,14.00053079273443 L 339.5742553987454,14.002369884128091 L 339.2597050112756,14.00356840805281 L 338.9333411283776,14.004160388043791 L 338.59670757718646,14.00417984763623 L 338.25134818483747,14.003660810365329 L 337.89880677846577,14.002637299766288 L 337.54062718520646,14.001143339374307 L 337.17835323219487,13.999212952724589 L 336.81352874656613,13.99688016335233 L 336.44769755545536,13.994178994792733 L 336.0824034859978,13.991143470581 L 335.7191903653287,13.987807614252326 L 335.3596020205831,13.984205449341914 L 335.0051822788963,13.980370999384967 L 334.6574749674034,13.97633828791668 L 334.31802391323964,13.972141338472259 L 333.9883729435402,13.9678141745869 L 333.67006588544024,13.963390819795807 L 333.36464656607495,13.958905297634177 L 333.07365881257954,13.95439163163721 L 332.79864645208914,13.949883845340109 L 332.541153311739,13.945415962278071 L 332.30272321866426,13.9410220059863 L 332.0849000000001,13.936735999999994" fill="none" stroke="rgb(0,0,0)" stroke-width="0.5"/>
	<path d="M 344.43261,320.97132 L 163.35002805000002,320.97132 L 150.65002805000003,320.97132 L 8.484864149999998,320.97132 L -4.215135850000001,320.97132 L -5.2977178,320.97132" fill="none" stroke="rgb(0,0,0)" stroke-width="0.5"/>
	<path d="M 64.333982,522.5451 L 68.71897855661973,522.5451 L 68.8604780145983,522.5451 L 74.65897799999993,522.5451 L 74.96516521554793,522.5560352576982 L 75.22839249013894,522.5872788511215 L 75.45100309327971,522.6364875107631 L 75.63534029447698,522.7013179671163 L 75.78374736323748,522.7794269506745 L 75.89856756906798,522.8684711919308 L 75.98214418147522,522.9661074213785 L 76.03682046996593,523.0699923695109 L 76.06493970404688,523.1777827668211 L 76.06884515322479,523.2871353438026 L 76.05088008700642,523.3957068309484 L 76.0133877748985,523.501153958752 L 75.9587114864078,523.6011334577064 L 75.88919449104102,523.693302058305 L 75.80718005830497,523.775316491041 L 75.71501145770634,523.8448334864079 L 75.61503195875189,523.8995097748985 L 75.50958483094837,523.9370020870065 L 75.40101334380253,523.9549671532249 L 75.29166076682111,523.9510617040469 L 75.18387036951084,523.922942469966 L 75.0799854213785,523.8682661814753 L 74.9823491919308,523.7846895690681 L 74.89330495067449,523.6698693632376 L 74.81519596711632,523.521462294477 L 74.75036551076305,523.3371250932798 L 74.70115685112141,523.1145144901391 L 74.66991325769814,522.851287215548 L 74.658978,522.5451 L 74.65897800000003,518.0951000000002 L 74.66991325769817,517.7889127844522 L 74.70115685112144,517.5256855098612 L 74.75036551076307,517.3030749067204 L 74.81519596711635,517.1187377055231 L 74.8933049506745,516.9703306367627 L 74.98234919193081,516.8555104309321 L 75.07998542137851,516.7719338185249 L 75.18387036951087,516.7172575300342 L 75.29166076682112,516.6891382959532 L 75.40101334380255,516.6852328467753 L 75.5095848309484,516.7031979129937 L 75.61503195875191,516.7406902251016 L 75.71501145770635,516.7953665135923 L 75.80718005830498,516.864883508959 L 75.88919449104105,516.946897941695 L 75.95871148640782,517.0390665422938 L 76.01338777489853,517.1390460412482 L 76.05088008700645,517.2444931690517 L 76.06884515322483,517.3530646561975 L 76.0649397040469,517.4624172331789 L 76.03682046996597,517.5702076304892 L 75.98214418147526,517.6740925786215 L 75.89856756906802,517.7717288080693 L 75.78374736323752,517.8607730493255 L 75.63534029447702,517.9388820328837 L 75.45100309327977,518.0037124892369 L 75.228392490139,518.0529211488786 L 74.965165215548,518.0841647423018 L 74.658978,518.0951 L 70.68397999999999,518.0951 L 57.983979999999995,518.0951 L 68.71897855661979,518.0951 L 59.94898144338019,518.0951 L 58.86047801459822,518.0951 L 54.00898200000002,518.0951 L 53.702794784452024,518.0841647423018 L 53.43956750986102,518.0529211488786 L 53.216956906720256,518.0037124892369 L 53.032619705523,517.9388820328837 L 52.88421263676249,517.8607730493255 L 52.769392430931994,517.7717288080693 L 52.68581581852476,517.6740925786215 L 52.63113953003404,517.5702076304891 L 52.60302029595311,517.4624172331789 L 52.599114846775194,517.3530646561975 L 52.617079912993574,517.2444931690517 L 52.65457222510149,517.1390460412481 L 52.7092485135922,517.0390665422937 L 52.77876550895896,516.946897941695 L 52.860779941695036,516.864883508959 L 52.95294854229366,516.7953665135922 L 53.05292804124811,516.7406902251015 L 53.15837516905163,516.7031979129936 L 53.26694665619747,516.6852328467752 L 53.3762992331789,516.6891382959532 L 53.48408963048916,516.7172575300341 L 53.58797457862151,516.7719338185248 L 53.685610808069214,516.855510430932 L 53.77465504932552,516.9703306367625 L 53.852764032883684,517.118737705523 L 53.917594489236954,517.3030749067202 L 53.9668031488786,517.525685509861 L 53.99804674230186,517.788912784452 L 54.008982,518.0951 L 54.008981999999975,522.5451000000003 L 53.99804674230183,522.8512872155483 L 53.966803148878576,523.1145144901392 L 53.91759448923693,523.33712509328 L 53.852764032883655,523.5214622944773 L 53.7746550493255,523.6698693632377 L 53.6856108080692,523.7846895690682 L 53.5879745786215,523.8682661814754 L 53.484089630489144,523.9229424699661 L 53.376299233178884,523.951061704047 L 53.266946656197455,523.954967153225 L 53.15837516905162,523.9370020870066 L 53.052928041248094,523.8995097748987 L 52.952948542293655,523.8448334864079 L 52.86077994169502,523.7753164910412 L 52.778765508958955,523.6933020583051 L 52.70924851359219,523.6011334577064 L 52.65457222510148,523.501153958752 L 52.61707991299356,523.3957068309485 L 52.59911484677519,523.2871353438026 L 52.603020295953094,523.1777827668212 L 52.631139530034034,523.0699923695109 L 52.685815818524745,522.9661074213785 L 52.76939243093198,522.8684711919309 L 52.88421263676248,522.7794269506745 L 53.03261970552298,522.7013179671163 L 53.21695690672025,522.6364875107631 L 53.43956750986101,522.5872788511215 L 53.70279478445201,522.5560352576982 L 54.008982,522.5451 L 59.80748198540167,522.5451 L 59.948981443380305,522.5451 L 60.68398,522.5451 L 64.333982,522.5451" fill="none" stroke="rgb(0,0,0)" stroke-width="0.5"/>
	<path d="M 118.33398,522.5451 L 122.71898055661968,522.5451 L 122.8604780145983,522.5451 L 128.65897999999993,522.5451 L 128.96516721554792,522.5560352576982 L 129.22839449013892,522.5872788511215 L 129.4510050932797,522.6364875107631 L 129.63534229447697,522.7013179671163 L 129.78374936323746,522.7794269506745 L 129.89856956906797,522.8684711919308 L 129.9821461814752,522.9661074213785 L 130.03682246996593,523.0699923695109 L 130.06494170404687,523.1777827668211 L 130.0688471532248,523.2871353438026 L 130.0508820870064,523.3957068309484 L 130.01338977489849,523.501153958752 L 129.9587134864078,523.6011334577064 L 129.88919649104102,523.693302058305 L 129.80718205830496,523.775316491041 L 129.71501345770633,523.8448334864079 L 129.61503395875187,523.8995097748985 L 129.50958683094836,523.9370020870065 L 129.40101534380253,523.9549671532249 L 129.29166276682108,523.9510617040469 L 129.18387236951082,523.922942469966 L 129.07998742137846,523.8682661814753 L 128.98235119193077,523.7846895690681 L 128.89330695067446,523.6698693632376 L 128.81519796711632,523.521462294477 L 128.75036751076303,523.3371250932798 L 128.7011588511214,523.1145144901391 L 128.66991525769814,522.851287215548 L 128.65897999999999,522.5451 L 128.65897999999999,518.0951000000002 L 128.66991525769814,517.7889127844522 L 128.7011588511214,517.5256855098612 L 128.75036751076303,517.3030749067204 L 128.81519796711632,517.1187377055231 L 128.89330695067446,516.9703306367627 L 128.98235119193077,516.8555104309321 L 129.0799874213785,516.7719338185249 L 129.18387236951082,516.7172575300342 L 129.2916627668211,516.6891382959532 L 129.40101534380253,516.6852328467753 L 129.50958683094836,516.7031979129937 L 129.6150339587519,516.7406902251016 L 129.71501345770633,516.7953665135923 L 129.80718205830496,516.864883508959 L 129.88919649104102,516.946897941695 L 129.9587134864078,517.0390665422938 L 130.0133897748985,517.1390460412482 L 130.0508820870064,517.2444931690517 L 130.0688471532248,517.3530646561975 L 130.0649417040469,517.4624172331789 L 130.03682246996595,517.5702076304892 L 129.98214618147526,517.6740925786215 L 129.898569569068,517.7717288080693 L 129.78374936323752,517.8607730493255 L 129.635342294477,517.9388820328837 L 129.45100509327975,518.0037124892369 L 129.22839449013898,518.0529211488786 L 128.96516721554798,518.0841647423018 L 128.65897999999999,518.0951 L 124.68397999999999,518.0951 L 111.98398,518.0951 L 122.71898055661974,518.0951 L 113.94897944338018,518.0951 L 112.86047801459821,518.0951 L 108.00898000000012,518.0951 L 107.70279278445211,518.0841647423018 L 107.43956550986111,518.0529211488786 L 107.21695490672035,518.0037124892369 L 107.03261770552307,517.9388820328837 L 106.88421063676256,517.8607730493255 L 106.76939043093205,517.7717288080693 L 106.6858138185248,517.6740925786215 L 106.6311375300341,517.5702076304891 L 106.60301829595315,517.4624172331789 L 106.59911284677524,517.3530646561975 L 106.61707791299361,517.2444931690517 L 106.65457022510152,517.1390460412481 L 106.70924651359223,517.0390665422937 L 106.77876350895899,516.946897941695 L 106.86077794169505,516.864883508959 L 106.95294654229367,516.7953665135922 L 107.05292604124811,516.7406902251015 L 107.15837316905163,516.7031979129936 L 107.26694465619748,516.6852328467752 L 107.3762972331789,516.6891382959532 L 107.48408763048916,516.7172575300341 L 107.58797257862152,516.7719338185248 L 107.6856088080692,516.855510430932 L 107.77465304932551,516.9703306367625 L 107.85276203288367,517.118737705523 L 107.91759248923695,517.3030749067202 L 107.96680114887859,517.525685509861 L 107.99804474230186,517.788912784452 L 108.00898,518.0951 L 108.00897999999997,522.5451000000003 L 107.99804474230183,522.8512872155483 L 107.96680114887856,523.1145144901392 L 107.91759248923692,523.33712509328 L 107.85276203288365,523.5214622944773 L 107.7746530493255,523.6698693632377 L 107.68560880806919,523.7846895690682 L 107.58797257862149,523.8682661814754 L 107.48408763048913,523.9229424699661 L 107.37629723317887,523.951061704047 L 107.26694465619745,523.954967153225 L 107.1583731690516,523.9370020870066 L 107.05292604124809,523.8995097748987 L 106.95294654229365,523.8448334864079 L 106.86077794169502,523.7753164910412 L 106.77876350895895,523.6933020583051 L 106.70924651359218,523.6011334577064 L 106.65457022510147,523.501153958752 L 106.61707791299355,523.3957068309485 L 106.59911284677517,523.2871353438026 L 106.60301829595309,523.1777827668212 L 106.63113753003402,523.0699923695109 L 106.68581381852474,522.9661074213785 L 106.76939043093198,522.8684711919309 L 106.88421063676248,522.7794269506745 L 107.03261770552298,522.7013179671163 L 107.21695490672023,522.6364875107631 L 107.439565509861,522.5872788511215 L 107.702792784452,522.5560352576982 L 108.00898,522.5451 L 113.80748198540168,522.5451 L 113.94897944338028,522.5451 L 114.68397999999999,522.5451 L 118.33398,522.5451" fill="none" stroke="rgb(0,0,0)" stroke-width="0.5"/>
	<path d="M 172.33398,522.5451 L 175.98398000000003,522.5451 L 176.7189805566196,522.5451 L 176.86047801459833,522.5451 L 182.65898000000007,522.5451 L 182.96516721554806,522.5560352576982 L 183.22839449013907,522.5872788511215 L 183.45100509327983,522.6364875107631 L 183.63534229447708,522.7013179671163 L 183.78374936323758,522.7794269506745 L 183.8985695690681,522.8684711919308 L 183.98214618147531,522.9661074213785 L 184.036822469966,523.0699923695109 L 184.06494170404696,523.1777827668211 L 184.06884715322485,523.2871353438026 L 184.05088208700647,523.3957068309484 L 184.01338977489857,523.501153958752 L 183.95871348640785,523.6011334577064 L 183.88919649104108,523.693302058305 L 183.80718205830502,523.775316491041 L 183.71501345770636,523.8448334864079 L 183.61503395875192,523.8995097748985 L 183.5095868309484,523.9370020870065 L 183.40101534380256,523.9549671532249 L 183.29166276682113,523.9510617040469 L 183.18387236951085,523.922942469966 L 183.07998742137852,523.8682661814753 L 182.9823511919308,523.7846895690681 L 182.8933069506745,523.6698693632376 L 182.81519796711635,523.521462294477 L 182.75036751076306,523.3371250932798 L 182.70115885112142,523.1145144901391 L 182.66991525769816,522.851287215548 L 182.65898,522.5451 L 182.6589799999999,518.0951000000002 L 182.66991525769805,517.7889127844522 L 182.70115885112133,517.5256855098612 L 182.75036751076297,517.3030749067204 L 182.81519796711626,517.1187377055231 L 182.89330695067443,516.9703306367627 L 182.98235119193072,516.8555104309321 L 183.07998742137843,516.7719338185249 L 183.1838723695108,516.7172575300342 L 183.29166276682108,516.6891382959532 L 183.4010153438025,516.6852328467753 L 183.50958683094836,516.7031979129937 L 183.61503395875187,516.7406902251016 L 183.71501345770633,516.7953665135923 L 183.80718205830496,516.864883508959 L 183.88919649104105,516.946897941695 L 183.9587134864078,517.0390665422938 L 184.0133897748985,517.1390460412482 L 184.05088208700644,517.2444931690517 L 184.06884715322482,517.3530646561975 L 184.0649417040469,517.4624172331789 L 184.03682246996598,517.5702076304892 L 183.98214618147526,517.6740925786215 L 183.89856956906803,517.7717288080693 L 183.78374936323755,517.8607730493255 L 183.63534229447703,517.9388820328837 L 183.45100509327978,518.0037124892369 L 183.228394490139,518.0529211488786 L 182.965167215548,518.0841647423018 L 182.65898,518.0951 L 178.68398000000002,518.0951 L 165.98398000000003,518.0951 L 177.80748198540172,518.0951 L 176.71898055661967,518.0951 L 167.9489794433802,518.0951 L 162.00898000000007,518.0951 L 161.70279278445207,518.0841647423018 L 161.43956550986107,518.0529211488786 L 161.2169549067203,518.0037124892369 L 161.03261770552302,517.9388820328837 L 160.88421063676253,517.8607730493255 L 160.76939043093202,517.7717288080693 L 160.6858138185248,517.6740925786215 L 160.63113753003407,517.5702076304891 L 160.60301829595312,517.4624172331789 L 160.5991128467752,517.3530646561975 L 160.61707791299358,517.2444931690517 L 160.6545702251015,517.1390460412481 L 160.7092465135922,517.0390665422937 L 160.77876350895897,516.946897941695 L 160.86077794169503,516.864883508959 L 160.95294654229366,516.7953665135922 L 161.05292604124813,516.7406902251015 L 161.15837316905163,516.7031979129936 L 161.26694465619747,516.6852328467752 L 161.37629723317892,516.6891382959532 L 161.48408763048917,516.7172575300341 L 161.58797257862153,516.7719338185248 L 161.68560880806922,516.855510430932 L 161.77465304932554,516.9703306367625 L 161.85276203288367,517.118737705523 L 161.91759248923697,517.3030749067202 L 161.9668011488786,517.525685509861 L 161.99804474230186,517.788912784452 L 162.00898,518.0951 L 162.00898,522.5451000000003 L 161.99804474230186,522.8512872155483 L 161.9668011488786,523.1145144901392 L 161.91759248923697,523.33712509328 L 161.85276203288367,523.5214622944773 L 161.77465304932554,523.6698693632377 L 161.68560880806922,523.7846895690682 L 161.5879725786215,523.8682661814754 L 161.48408763048917,523.9229424699661 L 161.3762972331789,523.951061704047 L 161.26694465619747,523.954967153225 L 161.15837316905163,523.9370020870066 L 161.0529260412481,523.8995097748987 L 160.95294654229366,523.8448334864079 L 160.86077794169503,523.7753164910412 L 160.77876350895897,523.6933020583051 L 160.7092465135922,523.6011334577064 L 160.65457022510148,523.501153958752 L 160.61707791299358,523.3957068309485 L 160.5991128467752,523.2871353438026 L 160.6030182959531,523.1777827668212 L 160.63113753003404,523.0699923695109 L 160.68581381852474,522.9661074213785 L 160.769390430932,522.8684711919309 L 160.88421063676248,522.7794269506745 L 161.032617705523,522.7013179671163 L 161.21695490672025,522.6364875107631 L 161.439565509861,522.5872788511215 L 161.70279278445201,522.5560352576982 L 162.00898,522.5451 L 167.80748198540172,522.5451 L 167.94897944338032,522.5451 L 172.33398,522.5451" fill="none" stroke="rgb(0,0,0)" stroke-width="0.5"/>
	<path d="M 226.33398,522.5451 L 229.98398000000003,522.5451 L 230.7189805566196,522.5451 L 230.86047801459833,522.5451 L 236.65898000000007,522.5451 L 236.96516721554806,522.5560352576982 L 237.22839449013907,522.5872788511215 L 237.45100509327983,522.6364875107631 L 237.63534229447708,522.7013179671163 L 237.78374936323758,522.7794269506745 L 237.8985695690681,522.8684711919308 L 237.98214618147531,522.9661074213785 L 238.036822469966,523.0699923695109 L 238.06494170404696,523.1777827668211 L 238.06884715322485,523.2871353438026 L 238.05088208700647,523.3957068309484 L 238.01338977489857,523.501153958752 L 237.95871348640785,523.6011334577064 L 237.88919649104108,523.693302058305 L 237.80718205830502,523.775316491041 L 237.71501345770636,523.8448334864079 L 237.61503395875192,523.8995097748985 L 237.5095868309484,523.9370020870065 L 237.40101534380256,523.9549671532249 L 237.29166276682113,523.9510617040469 L 237.18387236951085,523.922942469966 L 237.07998742137852,523.8682661814753 L 236.9823511919308,523.7846895690681 L 236.8933069506745,523.6698693632376 L 236.81519796711635,523.521462294477 L 236.75036751076306,523.3371250932798 L 236.70115885112142,523.1145144901391 L 236.66991525769816,522.851287215548 L 236.65898,522.5451 L 236.6589799999999,518.0951000000002 L 236.66991525769805,517.7889127844522 L 236.70115885112133,517.5256855098612 L 236.75036751076297,517.3030749067204 L 236.81519796711626,517.1187377055231 L 236.89330695067443,516.9703306367627 L 236.98235119193072,516.8555104309321 L 237.07998742137843,516.7719338185249 L 237.1838723695108,516.7172575300342 L 237.29166276682108,516.6891382959532 L 237.4010153438025,516.6852328467753 L 237.50958683094836,516.7031979129937 L 237.61503395875187,516.7406902251016 L 237.71501345770633,516.7953665135923 L 237.80718205830496,516.864883508959 L 237.88919649104105,516.946897941695 L 237.9587134864078,517.0390665422938 L 238.0133897748985,517.1390460412482 L 238.05088208700644,517.2444931690517 L 238.06884715322482,517.3530646561975 L 238.0649417040469,517.4624172331789 L 238.03682246996598,517.5702076304892 L 237.98214618147526,517.6740925786215 L 237.89856956906803,517.7717288080693 L 237.78374936323755,517.8607730493255 L 237.63534229447703,517.9388820328837 L 237.45100509327978,518.0037124892369 L 237.228394490139,518.0529211488786 L 236.965167215548,518.0841647423018 L 236.65898,518.0951 L 232.68398000000002,518.0951 L 219.98398000000003,518.0951 L 231.80748198540172,518.0951 L 230.71898055661967,518.0951 L 221.9489794433801,518.0951 L 216.00898000000018,518.0951 L 215.70279278445219,518.0841647423018 L 215.43956550986115,518.0529211488786 L 215.2169549067204,518.0037124892369 L 215.0326177055231,517.9388820328837 L 214.8842106367626,517.8607730493255 L 214.76939043093208,517.7717288080693 L 214.68581381852485,517.6740925786215 L 214.63113753003412,517.5702076304891 L 214.60301829595318,517.4624172331789 L 214.59911284677526,517.3530646561975 L 214.61707791299364,517.2444931690517 L 214.65457022510154,517.1390460412481 L 214.70924651359226,517.0390665422937 L 214.778763508959,516.946897941695 L 214.86077794169506,516.864883508959 L 214.9529465422937,516.7953665135922 L 215.05292604124813,516.7406902251015 L 215.15837316905166,516.7031979129936 L 215.2669446561975,516.6852328467752 L 215.37629723317892,516.6891382959532 L 215.48408763048917,516.7172575300341 L 215.58797257862153,516.7719338185248 L 215.68560880806922,516.855510430932 L 215.77465304932554,516.9703306367625 L 215.85276203288367,517.118737705523 L 215.91759248923697,517.3030749067202 L 215.9668011488786,517.525685509861 L 215.99804474230186,517.788912784452 L 216.00898,518.0951 L 216.0089799999999,522.5451000000003 L 215.99804474230177,522.8512872155483 L 215.9668011488785,523.1145144901392 L 215.91759248923688,523.33712509328 L 215.8527620328836,523.5214622944773 L 215.77465304932545,523.6698693632377 L 215.68560880806913,523.7846895690682 L 215.58797257862145,523.8682661814754 L 215.4840876304891,523.9229424699661 L 215.37629723317883,523.951061704047 L 215.2669446561974,523.954967153225 L 215.15837316905157,523.9370020870066 L 215.05292604124807,523.8995097748987 L 214.95294654229363,523.8448334864079 L 214.860777941695,523.7753164910412 L 214.77876350895895,523.6933020583051 L 214.70924651359218,523.6011334577064 L 214.65457022510145,523.501153958752 L 214.61707791299355,523.3957068309485 L 214.59911284677517,523.2871353438026 L 214.6030182959531,523.1777827668212 L 214.63113753003404,523.0699923695109 L 214.68581381852474,522.9661074213785 L 214.76939043093196,522.8684711919309 L 214.88421063676248,522.7794269506745 L 215.032617705523,522.7013179671163 L 215.21695490672025,522.6364875107631 L 215.439565509861,522.5872788511215 L 215.70279278445201,522.5560352576982 L 216.00898,522.5451 L 221.80748198540172,522.5451 L 221.9489794433802,522.5451 L 226.33398,522.5451" fill="none" stroke="rgb(0,0,0)" stroke-width="0.5"/>
	<path d="M 280.33398,522.5451 L 283.98398,522.5451 L 284.7189805566198,522.5451 L 284.8604780145983,522.5451 L 290.65898000000004,522.5451 L 290.96516721554804,522.5560352576982 L 291.228394490139,522.5872788511215 L 291.4510050932798,522.6364875107631 L 291.635342294477,522.7013179671163 L 291.7837493632376,522.7794269506745 L 291.89856956906806,522.8684711919308 L 291.9821461814753,522.9661074213785 L 292.036822469966,523.0699923695109 L 292.06494170404693,523.1777827668211 L 292.06884715322485,523.2871353438026 L 292.05088208700647,523.3957068309484 L 292.01338977489854,523.501153958752 L 291.9587134864078,523.6011334577064 L 291.88919649104105,523.693302058305 L 291.807182058305,523.775316491041 L 291.71501345770633,523.8448334864079 L 291.6150339587519,523.8995097748985 L 291.50958683094836,523.9370020870065 L 291.40101534380256,523.9549671532249 L 291.2916627668211,523.9510617040469 L 291.1838723695108,523.922942469966 L 291.07998742137846,523.8682661814753 L 290.9823511919308,523.7846895690681 L 290.89330695067446,523.6698693632376 L 290.8151979671163,523.521462294477 L 290.75036751076306,523.3371250932798 L 290.7011588511214,523.1145144901391 L 290.6699152576981,522.851287215548 L 290.65898,522.5451 L 290.6589800000001,518.0951000000002 L 290.6699152576982,517.7889127844522 L 290.7011588511215,517.5256855098612 L 290.7503675107631,517.3030749067204 L 290.8151979671164,517.1187377055231 L 290.89330695067457,516.9703306367627 L 290.98235119193083,516.8555104309321 L 291.0799874213785,516.7719338185249 L 291.1838723695109,516.7172575300342 L 291.29166276682116,516.6891382959532 L 291.40101534380256,516.6852328467753 L 291.5095868309484,516.7031979129937 L 291.61503395875195,516.7406902251016 L 291.7150134577064,516.7953665135923 L 291.807182058305,516.864883508959 L 291.88919649104105,516.946897941695 L 291.9587134864078,517.0390665422938 L 292.01338977489854,517.1390460412482 L 292.05088208700647,517.2444931690517 L 292.0688471532248,517.3530646561975 L 292.06494170404693,517.4624172331789 L 292.03682246996595,517.5702076304892 L 291.98214618147523,517.6740925786215 L 291.898569569068,517.7717288080693 L 291.7837493632375,517.8607730493255 L 291.635342294477,517.9388820328837 L 291.4510050932797,518.0037124892369 L 291.228394490139,518.0529211488786 L 290.965167215548,518.0841647423018 L 290.65898,518.0951 L 286.68398,518.0951 L 273.98398,518.0951 L 285.8074819854017,518.0951 L 284.71898055661984,518.0951 L 275.9489794433801,518.0951 L 270.00897999999995,518.0951 L 269.70279278445196,518.0841647423018 L 269.439565509861,518.0529211488786 L 269.2169549067202,518.0037124892369 L 269.03261770552297,517.9388820328837 L 268.8842106367624,517.8607730493255 L 268.76939043093194,517.7717288080693 L 268.6858138185247,517.6740925786215 L 268.631137530034,517.5702076304891 L 268.60301829595306,517.4624172331789 L 268.59911284677514,517.3530646561975 L 268.6170779129935,517.2444931690517 L 268.65457022510145,517.1390460412481 L 268.7092465135922,517.0390665422937 L 268.77876350895895,516.946897941695 L 268.860777941695,516.864883508959 L 268.95294654229366,516.7953665135922 L 269.0529260412481,516.7406902251015 L 269.15837316905163,516.7031979129936 L 269.26694465619744,516.6852328467752 L 269.3762972331789,516.6891382959532 L 269.48408763048917,516.7172575300341 L 269.58797257862153,516.7719338185248 L 269.6856088080692,516.855510430932 L 269.77465304932554,516.9703306367625 L 269.8527620328837,517.118737705523 L 269.91759248923694,517.3030749067202 L 269.9668011488786,517.525685509861 L 269.9980447423019,517.788912784452 L 270.00898,518.0951 L 270.0089799999999,522.5451000000003 L 269.9980447423018,522.8512872155483 L 269.9668011488785,523.1145144901392 L 269.9175924892369,523.33712509328 L 269.8527620328836,523.5214622944773 L 269.7746530493254,523.6698693632377 L 269.68560880806916,523.7846895690682 L 269.5879725786215,523.8682661814754 L 269.4840876304891,523.9229424699661 L 269.37629723317883,523.951061704047 L 269.26694465619744,523.954967153225 L 269.1583731690516,523.9370020870066 L 269.05292604124804,523.8995097748987 L 268.9529465422936,523.8448334864079 L 268.860777941695,523.7753164910412 L 268.77876350895895,523.6933020583051 L 268.7092465135922,523.6011334577064 L 268.65457022510145,523.501153958752 L 268.6170779129935,523.3957068309485 L 268.5991128467752,523.2871353438026 L 268.60301829595306,523.1777827668212 L 268.63113753003404,523.0699923695109 L 268.68581381852476,522.9661074213785 L 268.769390430932,522.8684711919309 L 268.8842106367625,522.7794269506745 L 269.03261770552297,522.7013179671163 L 269.2169549067203,522.6364875107631 L 269.439565509861,522.5872788511215 L 269.702792784452,522.5560352576982 L 270.00898,522.5451 L 275.8074819854017,522.5451 L 275.9489794433802,522.5451 L 280.33398,522.5451" fill="none" stroke="rgb(0,0,0)" stroke-width="0.5"/>
	<path d="M 4.90086021,-320.97128 L 4.90088211670749,-320.96711011166474 L 4.900947834411548,-320.9629406836685 L 4.901057355857202,-320.9587721762995 L 4.901210668953721,-320.9546050497443 L 4.90140775677595,-320.9504397640371 L 4.901648597566181,-320.94627677900877 L 4.901933164736553,-320.94211655423624 L 4.902261426871984,-320.9379595489918 L 4.902633347733646,-320.93380622219206 L 4.903048886262959,-320.9296570323479 L 4.903507996586129,-320.92551243751325 L 4.904010628019208,-320.9213728952348 L 4.90455672507369,-320.91723886250156 L 4.905146227462643,-320.91311079569425 L 4.905779070107354,-320.9089891505349 L 4.90645518314452,-320.9048743820368 L 4.907174491933962,-320.90076694445384 L 4.907936917066859,-320.8966672912308 L 4.90874237437452,-320.892575874953 L 4.909590774937672,-320.8884931472966 L 4.910482025096279,-320.88441955897827 L 4.9114160264598805,-320.88035555970595 L 4.912392675918453,-320.87630159812903 L 4.913411865653796,-320.87225812178855 L 4.914473483151427,-320.8682255770683 L 4.915577411213015,-320.864204409145 L 4.916723527969305,-320.86019506193963 L 4.917911706893581,-320.85619797806805 L 4.919141816815634,-320.85221359879245 L 4.920413721936236,-320.8482423639723 L 4.921727281842139,-320.8442847120162 L 4.92308235152157,-320.84034107983297 L 4.924478781380247,-320.836411902784 L 4.925916417257885,-320.8324976146347 L 4.927395100445221,-320.8285986475069 L 4.928914667701532,-320.82471543183095 L 4.930474951272658,-320.8208483962984 L 4.93207577890952,-320.81699796781453 L 4.933716973887136,-320.81316457145124 L 4.935398355024129,-320.8093486304003 L 4.937119736702734,-320.80555056592624 L 4.938880928889282,-320.80177079732033 L 4.9406817371551845,-320.79800974185383 L 4.942521962698397,-320.7942678147324 L 4.9444014023653615,-320.7905454290497 L 4.9463198486734425,-320.78684299574235 L 4.948277089833822,-320.7831609235442 L 4.950272909774888,-320.77949961894126 L 4.9523070881660844,-320.77585948612705 L 4.954379400442235,-320.77224092695764 L 4.956489617828335,-320.76864434090754 L 4.958637507364807,-320.7650701250255 L 4.960822831933217,-320.7615186738907 L 4.963045350282456,-320.7579903795691 L 4.965304817055366,-320.7544856315704 L 4.967600982815836,-320.7510048168047 L 4.969933594076328,-320.7475483195402 L 4.972302393325868,-320.74411652136024 L 4.974707119058473,-320.7407098011218 L 4.977147505802019,-320.73732853491305 L 4.97962328414755,-320.7339730960124 L 4.982134180779016,-320.7306438548468 L 4.984679918503452,-320.7273411789513 L 4.9872602162815705,-320.7240654329281 L 4.9898747892587965,-320.72081697840645 L 4.992523348796707,-320.71759617400284 L 4.9952056025049,-320.7144033752811 L 4.997921254273271,-320.7112389347136 L 5.000670004304702,-320.7081032016419 L 5.00345154914816,-320.7049965222384 L 5.006265581732196,-320.7019192394681 L 5.009111791398842,-320.69887169305076 L 5.011989863937912,-320.6958542194233 L 5.014899481621683,-320.69286715170284 L 5.017840323239975,-320.6899108196497 L 5.020812064135609,-320.6869855496311 L 5.023814376240251,-320.68409166458525 L 5.026846928110628,-320.6812294839855 L 5.029909384965115,-320.678399323805 L 5.033001408720697,-320.6756014964824 L 5.036122658030293,-320.6728363108865 L 5.039272788320435,-320.6701040722828 L 5.0424514518293115,-320.6674050822996 L 5.045658297645157,-320.6647396388945 L 5.0488929717449915,-320.66210803632185 L 5.052155117033704,-320.65951056510016 L 5.055444373383474,-320.65694751197975 L 5.0587603776735275,-320.6544191599116 L 5.062102763830225,-320.65192578801555 L 5.065471162867475,-320.64946767155 L 5.068865202927466,-320.6470450818812 L 5.07228450932172,-320.64465828645325 L 5.075728704572459,-320.64230754875905 L 5.079197408454273,-320.6399931283105 L 5.082690238036096,-320.6377152806104 L 5.0862068077234825,-320.6354742571241 L 5.089746729301173,-320.63327030525164 L 5.093309611975954,-320.6311036683005 L 5.096895062419796,-320.6289745854587 L 5.100502684813281,-320.6268832917686 L 5.104132080889294,-320.62483001810057 L 5.107782849976994,-320.6228149911279 L 5.111454589046041,-320.62083843330146 L 5.115146892751099,-320.6189005628254 L 5.118859353476573,-320.61700159363284 L 5.122591561381616,-320.6151417353625 L 5.126343104445368,-320.6133211933352 L 5.13011356851245,-320.6115401685315 L 5.133902537338677,-320.60979885756956 L 5.137709592637009,-320.60809745268307 L 5.141534314123738,-320.6064361417003 L 5.145376279564874,-320.6048151080235 L 5.149235064822768,-320.6032345306082 L 5.153110243902925,-320.6016945839438 L 5.157001389001042,-320.60019543803435 L 5.16090807055023,-320.5987372583796 L 5.164829857268436,-320.5973202059567 L 5.168766316206058,-320.59594443720255 L 5.172717012793742,-320.5946101039967 L 5.176681510890348,-320.59331735364395 L 5.180659372831112,-320.592066328859 L 5.184650159475948,-320.5908571677499 L 5.188653430257941,-320.58969000380324 L 5.1926687432319705,-320.58856496586924 L 5.196695655123511,-320.5874821781476 L 5.20073372137756,-320.5864417601737 L 5.204782496207719,-320.5854438268057 L 5.208841532645406,-320.5844884882113 L 5.212910382589196,-320.5835758498562 L 5.216988596854296,-320.5827060124919 L 5.221075725222126,-320.58187907214506 L 5.225171316490026,-320.58109512010657 L 5.229274918521066,-320.58035424292154 L 5.233386078293957,-320.57965652238 L 5.237504341953071,-320.5790020355074 L 5.241629254858533,-320.5783908545565 L 5.245760361636421,-320.5778230469993 L 5.249897206229035,-320.5772986755194 L 5.254039331945242,-320.5768177980054 L 5.258186281510893,-320.57638046754414 L 5.2623375971193065,-320.5759867324153 L 5.266492820481807,-320.5756366360855 L 5.27065149287832,-320.57533021720417 L 5.274813155208009,-320.5750675095986 L 5.2789773480399615,-320.57484854227073 L 5.283143611663909,-320.5746733393936 L 5.287311486140973,-320.574541920309 L 5.291480511354447,-320.57445429952503 L 5.295650227060585,-320.5744104867146 L 5.299820172939414,-320.5744104867146 L 5.303989888645553,-320.57445429952503 L 5.308158913859027,-320.574541920309 L 5.312326788336092,-320.5746733393936 L 5.316493051960038,-320.57484854227073 L 5.320657244791991,-320.5750675095986 L 5.32481890712168,-320.57533021720417 L 5.328977579518192,-320.5756366360855 L 5.3331328028806935,-320.5759867324153 L 5.337284118489107,-320.57638046754414 L 5.341431068054758,-320.5768177980054 L 5.3455731937709645,-320.5772986755194 L 5.349710038363579,-320.5778230469993 L 5.353841145141467,-320.5783908545565 L 5.357966058046929,-320.5790020355074 L 5.3620843217060425,-320.57965652238 L 5.366195481478934,-320.58035424292154 L 5.370299083509973,-320.58109512010657 L 5.374394674777874,-320.58187907214506 L 5.378481803145704,-320.5827060124919 L 5.382560017410803,-320.5835758498562 L 5.386628867354594,-320.5844884882113 L 5.390687903792281,-320.5854438268057 L 5.39473667862244,-320.5864417601737 L 5.398774744876489,-320.5874821781476 L 5.4028016567680295,-320.58856496586924 L 5.406816969742059,-320.58969000380324 L 5.4108202405240515,-320.5908571677499 L 5.414811027168888,-320.592066328859 L 5.418788889109652,-320.59331735364395 L 5.422753387206258,-320.5946101039967 L 5.4267040837939415,-320.59594443720255 L 5.430640542731564,-320.5973202059567 L 5.43456232944977,-320.5987372583796 L 5.438469010998958,-320.60019543803435 L 5.442360156097075,-320.6016945839438 L 5.446235335177232,-320.6032345306082 L 5.450094120435126,-320.6048151080235 L 5.453936085876262,-320.6064361417003 L 5.457760807362991,-320.60809745268307 L 5.461567862661323,-320.60979885756956 L 5.46535683148755,-320.6115401685315 L 5.469127295554632,-320.6133211933352 L 5.472878838618385,-320.6151417353625 L 5.476611046523427,-320.61700159363284 L 5.480323507248901,-320.6189005628254 L 5.4840158109539585,-320.62083843330146 L 5.487687550023006,-320.6228149911279 L 5.491338319110706,-320.62483001810057 L 5.494967715186719,-320.6268832917686 L 5.498575337580204,-320.6289745854587 L 5.502160788024046,-320.6311036683005 L 5.505723670698827,-320.63327030525164 L 5.509263592276517,-320.6354742571241 L 5.512780161963904,-320.6377152806104 L 5.516272991545727,-320.6399931283105 L 5.519741695427541,-320.64230754875905 L 5.52318589067828,-320.64465828645325 L 5.526605197072534,-320.6470450818812 L 5.529999237132525,-320.64946767155 L 5.533367636169775,-320.65192578801555 L 5.5367100223264725,-320.6544191599116 L 5.540026026616526,-320.65694751197975 L 5.543315282966296,-320.65951056510016 L 5.546577428255008,-320.66210803632185 L 5.549812102354843,-320.6647396388945 L 5.553018948170688,-320.6674050822996 L 5.556197611679565,-320.6701040722828 L 5.559347741969707,-320.6728363108865 L 5.562468991279303,-320.6756014964824 L 5.565561015034885,-320.678399323805 L 5.568623471889372,-320.6812294839855 L 5.571656023759749,-320.68409166458525 L 5.574658335864391,-320.6869855496311 L 5.577630076760025,-320.6899108196497 L 5.580570918378317,-320.69286715170284 L 5.583480536062088,-320.6958542194233 L 5.586358608601158,-320.69887169305076 L 5.589204818267804,-320.7019192394681 L 5.59201885085184,-320.7049965222384 L 5.594800395695298,-320.7081032016419 L 5.597549145726729,-320.7112389347136 L 5.6002647974951,-320.7144033752811 L 5.6029470512032935,-320.71759617400284 L 5.6055956107412035,-320.72081697840645 L 5.6082101837184295,-320.7240654329281 L 5.610790481496548,-320.7273411789513 L 5.613336219220984,-320.7306438548468 L 5.61584711585245,-320.7339730960124 L 5.618322894197981,-320.73732853491305 L 5.620763280941527,-320.7407098011218 L 5.623168006674132,-320.74411652136024 L 5.625536805923672,-320.7475483195402 L 5.627869417184164,-320.7510048168047 L 5.630165582944633,-320.7544856315704 L 5.632425049717544,-320.7579903795691 L 5.634647568066783,-320.7615186738907 L 5.636832892635193,-320.7650701250255 L 5.638980782171665,-320.76864434090754 L 5.641090999557765,-320.77224092695764 L 5.6431633118339155,-320.77585948612705 L 5.645197490225112,-320.77949961894126 L 5.647193310166178,-320.7831609235442 L 5.649150551326557,-320.78684299574235 L 5.651068997634638,-320.7905454290497 L 5.652948437301603,-320.7942678147324 L 5.654788662844815,-320.79800974185383 L 5.656589471110718,-320.80177079732033 L 5.6583506632972655,-320.80555056592624 L 5.660072044975871,-320.8093486304003 L 5.661753426112864,-320.81316457145124 L 5.66339462109048,-320.81699796781453 L 5.664995448727342,-320.8208483962984 L 5.666555732298468,-320.82471543183095 L 5.668075299554779,-320.8285986475069 L 5.669553982742115,-320.8324976146347 L 5.670991618619753,-320.836411902784 L 5.67238804847843,-320.84034107983297 L 5.673743118157861,-320.8442847120162 L 5.675056678063764,-320.8482423639723 L 5.676328583184366,-320.85221359879245 L 5.677558693106419,-320.85619797806805 L 5.678746872030695,-320.86019506193963 L 5.679892988786985,-320.864204409145 L 5.6809969168485726,-320.8682255770683 L 5.682058534346204,-320.87225812178855 L 5.683077724081547,-320.87630159812903 L 5.684054373540119,-320.88035555970595 L 5.684988374903721,-320.88441955897827 L 5.685879625062328,-320.8884931472966 L 5.68672802562548,-320.892575874953 L 5.687533482933141,-320.8966672912308 L 5.688295908066038,-320.90076694445384 L 5.68901521685548,-320.9048743820368 L 5.689691329892646,-320.9089891505349 L 5.690324172537357,-320.91311079569425 L 5.69091367492631,-320.91723886250156 L 5.691459771980792,-320.9213728952348 L 5.691962403413871,-320.92551243751325 L 5.692421513737041,-320.9296570323479 L 5.692837052266354,-320.93380622219206 L 5.693208973128016,-320.9379595489918 L 5.693537235263447,-320.94211655423624 L 5.693821802433819,-320.94627677900877 L 5.69406264322405,-320.9504397640371 L 5.694259731046279,-320.9546050497443 L 5.694413044142798,-320.9587721762995 L 5.694522565588452,-320.9629406836685 L 5.69458828329251,-320.96711011166474 L 5.694610190000001,-320.97128 L 5.69458828329251,-320.9754498883352 L 5.694522565588452,-320.9796193163315 L 5.694413044142798,-320.9837878237005 L 5.694259731046279,-320.98795495025564 L 5.69406264322405,-320.99212023596283 L 5.693821802433819,-320.9962832209912 L 5.693537235263447,-321.0004434457637 L 5.693208973128016,-321.0046004510082 L 5.692837052266354,-321.0087537778079 L 5.692421513737041,-321.01290296765205 L 5.691962403413871,-321.0170475624867 L 5.691459771980792,-321.02118710476515 L 5.69091367492631,-321.0253211374984 L 5.690324172537357,-321.0294492043057 L 5.689691329892646,-321.03357084946504 L 5.68901521685548,-321.0376856179632 L 5.688295908066038,-321.0417930555461 L 5.687533482933141,-321.04589270876914 L 5.68672802562548,-321.04998412504693 L 5.685879625062328,-321.0540668527034 L 5.684988374903721,-321.0581404410217 L 5.684054373540119,-321.062204440294 L 5.683077724081547,-321.0662584018709 L 5.682058534346204,-321.0703018782114 L 5.6809969168485726,-321.07433442293166 L 5.679892988786985,-321.078355590855 L 5.678746872030695,-321.0823649380603 L 5.677558693106419,-321.0863620219319 L 5.676328583184366,-321.0903464012075 L 5.675056678063764,-321.09431763602765 L 5.673743118157861,-321.09827528798377 L 5.67238804847843,-321.102218920167 L 5.6709916186197535,-321.10614809721596 L 5.669553982742115,-321.11006238536527 L 5.668075299554779,-321.11396135249305 L 5.666555732298468,-321.117844568169 L 5.664995448727342,-321.12171160370156 L 5.66339462109048,-321.1255620321854 L 5.661753426112864,-321.1293954285487 L 5.660072044975871,-321.1332113695997 L 5.6583506632972655,-321.1370094340737 L 5.656589471110718,-321.1407892026796 L 5.654788662844815,-321.1445502581461 L 5.652948437301603,-321.14829218526756 L 5.651068997634638,-321.15201457095026 L 5.649150551326557,-321.1557170042576 L 5.647193310166178,-321.15939907645577 L 5.645197490225112,-321.1630603810587 L 5.6431633118339155,-321.1667005138729 L 5.641090999557765,-321.1703190730423 L 5.638980782171665,-321.1739156590924 L 5.636832892635193,-321.17748987497447 L 5.634647568066783,-321.18104132610927 L 5.632425049717544,-321.18456962043086 L 5.630165582944634,-321.18807436842957 L 5.627869417184164,-321.19155518319525 L 5.625536805923672,-321.19501168045974 L 5.623168006674132,-321.1984434786397 L 5.620763280941527,-321.20185019887816 L 5.618322894197981,-321.2052314650869 L 5.61584711585245,-321.20858690398757 L 5.613336219220984,-321.21191614515317 L 5.610790481496548,-321.21521882104867 L 5.6082101837184295,-321.21849456707184 L 5.6055956107412035,-321.2217430215935 L 5.6029470512032935,-321.2249638259971 L 5.6002647974951,-321.22815662471885 L 5.597549145726729,-321.23132106528635 L 5.594800395695298,-321.23445679835805 L 5.59201885085184,-321.23756347776157 L 5.589204818267804,-321.24064076053185 L 5.586358608601158,-321.2436883069492 L 5.583480536062088,-321.24670578057663 L 5.580570918378317,-321.2496928482971 L 5.577630076760025,-321.25264918035026 L 5.574658335864391,-321.25557445036884 L 5.571656023759749,-321.2584683354147 L 5.568623471889372,-321.2613305160145 L 5.565561015034885,-321.26416067619493 L 5.562468991279303,-321.26695850351757 L 5.559347741969707,-321.26972368911345 L 5.556197611679565,-321.27245592771715 L 5.553018948170688,-321.2751549177004 L 5.549812102354843,-321.27782036110546 L 5.546577428255008,-321.2804519636781 L 5.543315282966296,-321.2830494348998 L 5.540026026616526,-321.2856124880202 L 5.5367100223264725,-321.2881408400884 L 5.533367636169775,-321.2906342119844 L 5.529999237132525,-321.29309232845 L 5.526605197072534,-321.2955149181188 L 5.52318589067828,-321.2979017135467 L 5.519741695427541,-321.3002524512409 L 5.516272991545727,-321.30256687168946 L 5.512780161963904,-321.30484471938956 L 5.509263592276517,-321.30708574287587 L 5.505723670698827,-321.3092896947483 L 5.502160788024046,-321.31145633169945 L 5.498575337580204,-321.31358541454125 L 5.494967715186719,-321.31567670823136 L 5.491338319110706,-321.3177299818994 L 5.487687550023006,-321.3197450088721 L 5.4840158109539585,-321.3217215666985 L 5.480323507248901,-321.32365943717457 L 5.476611046523427,-321.3255584063671 L 5.472878838618385,-321.32741826463746 L 5.469127295554632,-321.32923880666476 L 5.46535683148755,-321.33101983146844 L 5.461567862661323,-321.3327611424304 L 5.457760807362991,-321.3344625473169 L 5.453936085876262,-321.33612385829963 L 5.450094120435126,-321.33774489197646 L 5.446235335177232,-321.3393254693918 L 5.442360156097075,-321.34086541605615 L 5.438469010998958,-321.3423645619656 L 5.43456232944977,-321.3438227416204 L 5.430640542731564,-321.34523979404327 L 5.4267040837939415,-321.3466155627974 L 5.422753387206258,-321.3479498960033 L 5.418788889109652,-321.349242646356 L 5.414811027168888,-321.35049367114095 L 5.4108202405240515,-321.35170283225006 L 5.406816969742059,-321.3528699961967 L 5.4028016567680295,-321.3539950341307 L 5.398774744876489,-321.3550778218524 L 5.39473667862244,-321.35611823982623 L 5.390687903792281,-321.35711617319424 L 5.386628867354594,-321.35807151178864 L 5.382560017410804,-321.3589841501438 L 5.378481803145704,-321.3598539875081 L 5.374394674777874,-321.3606809278549 L 5.370299083509974,-321.3614648798934 L 5.366195481478934,-321.3622057570784 L 5.3620843217060425,-321.36290347761997 L 5.357966058046929,-321.36355796449254 L 5.353841145141467,-321.36416914544344 L 5.349710038363579,-321.36473695300066 L 5.3455731937709645,-321.36526132448057 L 5.341431068054758,-321.3657422019946 L 5.337284118489107,-321.3661795324558 L 5.3331328028806935,-321.36657326758467 L 5.328977579518192,-321.36692336391445 L 5.32481890712168,-321.3672297827958 L 5.320657244791991,-321.36749249040133 L 5.316493051960038,-321.36771145772923 L 5.312326788336092,-321.36788666060636 L 5.308158913859027,-321.36801807969096 L 5.303989888645553,-321.3681057004749 L 5.299820172939414,-321.36814951328535 L 5.295650227060585,-321.36814951328535 L 5.291480511354447,-321.3681057004749 L 5.287311486140973,-321.36801807969096 L 5.283143611663909,-321.36788666060636 L 5.2789773480399615,-321.36771145772923 L 5.274813155208009,-321.36749249040133 L 5.27065149287832,-321.3672297827958 L 5.266492820481807,-321.36692336391445 L 5.2623375971193065,-321.36657326758467 L 5.258186281510893,-321.3661795324558 L 5.254039331945242,-321.3657422019946 L 5.249897206229035,-321.36526132448057 L 5.245760361636421,-321.36473695300066 L 5.241629254858533,-321.36416914544344 L 5.237504341953071,-321.36355796449254 L 5.233386078293957,-321.36290347761997 L 5.229274918521066,-321.3622057570784 L 5.225171316490027,-321.3614648798934 L 5.221075725222126,-321.3606809278549 L 5.216988596854296,-321.3598539875081 L 5.212910382589196,-321.3589841501438 L 5.208841532645406,-321.35807151178864 L 5.204782496207719,-321.35711617319424 L 5.20073372137756,-321.35611823982623 L 5.196695655123511,-321.3550778218524 L 5.1926687432319705,-321.3539950341307 L 5.188653430257941,-321.3528699961967 L 5.184650159475948,-321.35170283225006 L 5.180659372831112,-321.35049367114095 L 5.176681510890348,-321.349242646356 L 5.172717012793742,-321.3479498960033 L 5.168766316206058,-321.3466155627974 L 5.164829857268436,-321.34523979404327 L 5.16090807055023,-321.3438227416204 L 5.157001389001042,-321.3423645619656 L 5.153110243902925,-321.34086541605615 L 5.149235064822768,-321.3393254693918 L 5.145376279564874,-321.33774489197646 L 5.141534314123738,-321.33612385829963 L 5.137709592637009,-321.3344625473169 L 5.133902537338677,-321.3327611424304 L 5.13011356851245,-321.33101983146844 L 5.126343104445368,-321.32923880666476 L 5.122591561381616,-321.32741826463746 L 5.118859353476573,-321.3255584063671 L 5.115146892751099,-321.32365943717457 L 5.111454589046041,-321.3217215666985 L 5.107782849976994,-321.3197450088721 L 5.104132080889294,-321.3177299818994 L 5.100502684813281,-321.31567670823136 L 5.096895062419796,-321.31358541454125 L 5.093309611975954,-321.31145633169945 L 5.089746729301173,-321.3092896947483 L 5.0862068077234825,-321.30708574287587 L 5.082690238036096,-321.30484471938956 L 5.079197408454273,-321.30256687168946 L 5.075728704572459,-321.3002524512409 L 5.07228450932172,-321.2979017135467 L 5.068865202927466,-321.2955149181188 L 5.065471162867475,-321.29309232845 L 5.062102763830225,-321.2906342119844 L 5.0587603776735275,-321.2881408400884 L 5.055444373383474,-321.2856124880202 L 5.052155117033704,-321.2830494348998 L 5.0488929717449915,-321.2804519636781 L 5.045658297645157,-321.27782036110546 L 5.0424514518293115,-321.2751549177004 L 5.039272788320435,-321.27245592771715 L 5.036122658030293,-321.26972368911345 L 5.033001408720698,-321.26695850351757 L 5.029909384965115,-321.26416067619493 L 5.026846928110628,-321.2613305160145 L 5.023814376240251,-321.2584683354147 L 5.020812064135609,-321.25557445036884 L 5.017840323239975,-321.25264918035026 L 5.014899481621683,-321.2496928482971 L 5.011989863937912,-321.24670578057663 L 5.009111791398842,-321.2436883069492 L 5.006265581732196,-321.24064076053185 L 5.00345154914816,-321.23756347776157 L 5.000670004304702,-321.23445679835805 L 4.997921254273271,-321.23132106528635 L 4.9952056025049,-321.22815662471885 L 4.9925233487967065,-321.2249638259971 L 4.9898747892587965,-321.2217430215935 L 4.9872602162815705,-321.21849456707184 L 4.984679918503452,-321.21521882104867 L 4.982134180779016,-321.21191614515317 L 4.97962328414755,-321.20858690398757 L 4.977147505802019,-321.2052314650869 L 4.974707119058473,-321.20185019887816 L 4.972302393325868,-321.1984434786397 L 4.969933594076328,-321.19501168045974 L 4.967600982815836,-321.19155518319525 L 4.965304817055367,-321.18807436842957 L 4.963045350282456,-321.18456962043086 L 4.960822831933217,-321.18104132610927 L 4.958637507364807,-321.17748987497447 L 4.956489617828335,-321.1739156590924 L 4.954379400442235,-321.1703190730423 L 4.9523070881660844,-321.1667005138729 L 4.950272909774888,-321.1630603810587 L 4.948277089833822,-321.15939907645577 L 4.9463198486734425,-321.1557170042576 L 4.9444014023653615,-321.15201457095026 L 4.942521962698397,-321.14829218526756 L 4.9406817371551845,-321.1445502581461 L 4.938880928889282,-321.1407892026796 L 4.937119736702734,-321.1370094340737 L 4.935398355024129,-321.1332113695997 L 4.933716973887136,-321.1293954285487 L 4.93207577890952,-321.1255620321854 L 4.930474951272658,-321.12171160370156 L 4.928914667701532,-321.117844568169 L 4.927395100445221,-321.11396135249305 L 4.925916417257885,-321.11006238536527 L 4.924478781380247,-321.10614809721596 L 4.92308235152157,-321.102218920167 L 4.921727281842139,-321.09827528798377 L 4.920413721936236,-321.09431763602765 L 4.919141816815634,-321.0903464012075 L 4.917911706893581,-321.0863620219319 L 4.916723527969305,-321.0823649380603 L 4.915577411213015,-321.078355590855 L 4.914473483151427,-321.07433442293166 L 4.913411865653796,-321.0703018782114 L 4.912392675918453,-321.0662584018709 L 4.9114160264598805,-321.062204440294 L 4.910482025096279,-321.0581404410217 L 4.909590774937672,-321.0540668527034 L 4.90874237437452,-321.04998412504693 L 4.907936917066859,-321.04589270876914 L 4.907174491933962,-321.0417930555461 L 4.90645518314452,-321.0376856179632 L 4.905779070107354,-321.03357084946504 L 4.905146227462643,-321.0294492043057 L 4.90455672507369,-321.0253211374984 L 4.904010628019208,-321.02118710476515 L 4.903507996586129,-321.0170475624867 L 4.903048886262959,-321.01290296765205 L 4.902633347733646,-321.0087537778079 L 4.902261426871984,-321.0046004510082 L 4.901933164736553,-321.0004434457637 L 4.901648597566181,-320.9962832209912 L 4.90140775677595,-320.99212023596283 L 4.901210668953721,-320.98795495025564 L 4.901057355857202,-320.9837878237005 L 4.900947834411548,-320.9796193163315 L 4.90088211670749,-320.9754498883352 L 4.90086021,-320.97128" fill="none" stroke="rgb(0,0,0)" stroke-width="0.5"/>
	<path d="M -229.72652,-292.01712 L -229.72652,-286.3467905 L -229.72652,-273.64679049999995 L -229.72652,-267.976461 L -175.95807999999997,-267.976461 L -163.25807999999998,-267.976461 L -109.48964,-267.976461 L -109.48964,-273.64679049999995 L -109.48964,-286.3467905 L -109.48964,-292.01712 L -163.25807999999998,-292.01712 L -175.95807999999997,-292.01712 L -229.72652,-292.01712" fill="none" stroke="rgb(0,0,0)" stroke-width="0.5"/>
</svg>
