<?xml version="1.0" ?>
<svg xmlns="http://www.w3.org/2000/svg" xmlns:cc="http://creativecommons.org/ns#" xmlns:dc="http://purl.org/dc/elements/1.1/" xmlns:ev="http://www.w3.org/2001/xml-events" xmlns:inkscape="http://www.inkscape.org/namespaces/inkscape" xmlns:rdf="http://www.w3.org/1999/02/22-rdf-syntax-ns#" xmlns:sodipodi="http://sodipodi.sourceforge.net/DTD/sodipodi-0.dtd" xmlns:svg="http://www.w3.org/2000/svg" xmlns:xlink="http://www.w3.org/1999/xlink" baseProfile="full" height="686.65mm" id="svg63" inkscape:version="1.1 (c68e22c387, 2021-05-23)" sodipodi:docname="PortablePower.svg" version="1.1" viewBox="0.0 0.0 448.08 686.65" width="448.08mm">
	<defs/>
	<path d="M 115.14061,444.13519 L 235.37749,444.13519 L 235.37749,468.175849 L 115.14061,468.175849 L 115.14061,444.13519" fill="none" stroke="rgb(0,0,0)" stroke-width="0.5"/>
	<path d="M 12.782228,722.21557 L 46.335195999999996,722.50672 L 46.64137164311779,722.4984464012464 L 46.90458896896141,722.469491019722 L 47.12719115847308,722.4222174947722 L 47.31152139259502,722.3589894657428 L 47.459922852269464,722.2821705719791 L 47.57473871843864,722.194124452827 L 47.65831217204477,722.0972147476322 L 47.71298639403009,721.9938050957398 L 47.741104565336826,721.8862591364959 L 47.74500986690721,721.776940509246 L 47.72704547968346,721.6682128533355 L 47.68955458460781,721.5624398081102 L 47.63488036262249,721.4619850129156 L 47.565365994669726,721.3692121070975 L 47.48335466169174,721.2864847300012 L 47.39118954463078,721.2161665209726 L 47.29121382442904,721.1606211193571 L 47.18577068202878,721.1222121645004 L 47.07720329837221,721.1033032957481 L 46.96785485440157,721.1062581524458 L 46.86006853105908,721.133440373939 L 46.75618750928697,721.1872135995736 L 46.65855497002747,721.2699414686949 L 46.569514094222804,721.3839876206487 L 46.4914080628152,721.5317156947805 L 46.42658005674689,721.7154893304358 L 46.3773732569601,721.9376721669605 L 46.34613084439706,722.2006278437 L 46.335195999999996,722.50672 L 46.335195999999996,730.13172 L 46.34022035524212,730.3119357940054 L 46.35511497986797,730.4895081831974 L 46.37961221222682,730.6641695059247 L 46.41344439066792,730.8356521005371 L 46.456343853540524,731.0036883053835 L 46.50804293919389,731.1680104588133 L 46.56827398597728,731.3283508991758 L 46.636769332239936,731.4844419648202 L 46.71326131633113,731.6360159940957 L 46.7974822766001,731.7828053253517 L 46.889164551396114,731.9245422969371 L 46.988040479068424,732.0609592472016 L 47.093842397966284,732.1917885144943 L 47.20630264643896,732.3167624371644 L 47.325153562835695,732.4356133535612 L 47.45012748550575,732.5480736020338 L 47.58095675279838,732.6538755209317 L 47.71737370306284,732.752751448604 L 47.85911067464839,732.8444337234 L 48.00590000590429,732.928654683669 L 48.157474035179774,733.0051466677602 L 48.31356510082412,733.0736420140229 L 48.47390554118658,733.1338730608063 L 48.638227694616404,733.1855721464597 L 48.80626389946285,733.2284716093324 L 48.97774649407518,733.2623037877735 L 49.15240781680263,733.2868010201323 L 49.32998020599448,733.3016956447582 L 49.51019599999997,733.3067200000004 L 76.510196,733.3067199999999 L 76.69041179400548,733.3016956447578 L 76.86798418319734,733.286801020132 L 77.0426455059248,733.2623037877731 L 77.21412810053712,733.228471609332 L 77.38216430538357,733.1855721464594 L 77.54648645881339,733.1338730608061 L 77.70682689917585,733.0736420140227 L 77.8629179648202,733.00514666776 L 78.01449199409569,732.9286546836688 L 78.16128132535158,732.8444337233998 L 78.30301829693713,732.7527514486038 L 78.4394352472016,732.6538755209315 L 78.57026451449423,732.5480736020337 L 78.69523843716428,732.435613353561 L 78.81408935356102,732.3167624371642 L 78.92654960203369,732.1917885144942 L 79.03235152093154,732.0609592472016 L 79.13122744860385,731.9245422969371 L 79.22290972339987,731.7828053253517 L 79.30713068366884,731.6360159940957 L 79.38362266776002,731.4844419648202 L 79.45211801402269,731.3283508991759 L 79.51234906080606,731.1680104588135 L 79.56404814645943,731.0036883053837 L 79.60694760933204,730.8356521005372 L 79.64077978777313,730.664169505925 L 79.66527702013198,730.4895081831975 L 79.68017164475783,730.3119357940056 L 79.68519599999995,730.1317200000002 L 79.68519599999999,722.50672 L 79.67426074230185,722.200532784452 L 79.64301714887858,721.937305509861 L 79.59380848923693,721.7146949067202 L 79.52897803288367,721.530357705523 L 79.4508690493255,721.3819506367624 L 79.3618248080692,721.267130430932 L 79.2641885786215,721.1835538185247 L 79.16030363048914,721.1288775300341 L 79.05251323317889,721.1007582959531 L 78.94316065619745,721.0968528467753 L 78.83458916905161,721.1148179129937 L 78.72914204124808,721.1523102251016 L 78.62916254229364,721.2069865135923 L 78.536993941695,721.2765035089591 L 78.45497950895894,721.3585179416951 L 78.38546251359217,721.4506865422937 L 78.33078622510146,721.5506660412483 L 78.29329391299353,721.6561131690518 L 78.27532884677515,721.7646846561977 L 78.27923429595306,721.8740372331791 L 78.307353530034,721.9818276304894 L 78.36202981852472,722.0857125786217 L 78.44560643093195,722.1833488080695 L 78.56042663676244,722.2723930493258 L 78.70883370552295,722.350502032884 L 78.8931709067202,722.4153324892372 L 79.11578150986095,722.464541148879 L 79.37900878445195,722.4957847423022 L 79.68519599999995,722.5067200000004 L 81.66304120000002,722.5067200000004 L 94.3630412,722.5067200000001 L 100.3352,722.50672 L 100.641387215548,722.4957847423018 L 100.904614490139,722.4645411488785 L 101.12722509327976,722.4153324892369 L 101.31156229447701,722.3505020328837 L 101.45996936323752,722.2723930493255 L 101.57478956906802,722.1833488080692 L 101.65836618147526,722.0857125786215 L 101.71304246996597,721.9818276304892 L 101.7411617040469,721.8740372331789 L 101.74506715322482,721.7646846561975 L 101.72710208700644,721.6561131690517 L 101.68960977489853,721.5506660412482 L 101.63493348640782,721.4506865422937 L 101.56541649104105,721.358517941695 L 101.48340205830497,721.276503508959 L 101.39123345770635,721.2069865135923 L 101.29125395875191,721.1523102251016 L 101.1858068309484,721.1148179129937 L 101.07723534380254,721.0968528467753 L 100.96788276682112,721.1007582959531 L 100.86009236951087,721.1288775300342 L 100.7562074213785,721.1835538185248 L 100.6585711919308,721.2671304309321 L 100.5695269506745,721.3819506367627 L 100.49141796711635,721.5303577055231 L 100.42658751076307,721.7146949067204 L 100.37737885112143,721.9373055098612 L 100.34613525769817,722.2005327844522 L 100.33520000000003,722.5067200000002 L 100.3352,730.13172 L 100.34022435524211,730.3119357940054 L 100.35511897986797,730.4895081831974 L 100.37961621222682,730.6641695059247 L 100.41344839066792,730.8356521005371 L 100.45634785354054,731.0036883053835 L 100.5080469391939,731.1680104588133 L 100.56827798597729,731.3283508991758 L 100.63677333223994,731.4844419648202 L 100.71326531633113,731.6360159940957 L 100.79748627660011,731.7828053253517 L 100.88916855139612,731.9245422969371 L 100.98804447906844,732.0609592472016 L 101.0938463979663,732.1917885144943 L 101.20630664643897,732.3167624371644 L 101.32515756283571,732.4356133535612 L 101.45013148550576,732.5480736020338 L 101.5809607527984,732.6538755209317 L 101.71737770306287,732.752751448604 L 101.85911467464841,732.8444337234 L 102.00590400590431,732.928654683669 L 102.1574780351798,733.0051466677602 L 102.31356910082415,733.0736420140229 L 102.47390954118661,733.1338730608063 L 102.63823169461644,733.1855721464597 L 102.80626789946288,733.2284716093324 L 102.97775049407521,733.2623037877735 L 103.15241181680267,733.2868010201323 L 103.32998420599452,733.3016956447582 L 103.51020000000001,733.3067200000004 L 130.5102,733.3067199999999 L 130.6904157940055,733.3016956447578 L 130.86798818319733,733.286801020132 L 131.0426495059248,733.2623037877731 L 131.2141321005371,733.228471609332 L 131.38216830538357,733.1855721464594 L 131.5464904588134,733.1338730608061 L 131.70683089917586,733.0736420140227 L 131.8629219648202,733.00514666776 L 132.01449599409568,732.9286546836688 L 132.16128532535157,732.8444337233998 L 132.30302229693712,732.7527514486038 L 132.4394392472016,732.6538755209315 L 132.57026851449422,732.5480736020337 L 132.69524243716427,732.435613353561 L 132.814093353561,732.3167624371642 L 132.92655360203366,732.1917885144942 L 133.03235552093153,732.0609592472016 L 133.13123144860384,731.9245422969371 L 133.22291372339984,731.7828053253517 L 133.3071346836688,731.6360159940957 L 133.38362666776,731.4844419648202 L 133.45212201402265,731.3283508991759 L 133.51235306080605,731.1680104588135 L 133.5640521464594,731.0036883053837 L 133.606951609332,730.8356521005372 L 133.6407837877731,730.664169505925 L 133.66528102013194,730.4895081831975 L 133.68017564475778,730.3119357940056 L 133.6851999999999,730.1317200000002 L 133.6852,722.50672 L 133.67426474230186,722.200532784452 L 133.6430211488786,721.937305509861 L 133.59381248923697,721.7146949067202 L 133.52898203288368,721.530357705523 L 133.4508730493255,721.3819506367624 L 133.36182880806922,721.267130430932 L 133.2641925786215,721.1835538185247 L 133.16030763048917,721.1288775300341 L 133.0525172331789,721.1007582959531 L 132.94316465619747,721.0968528467753 L 132.83459316905163,721.1148179129937 L 132.7291460412481,721.1523102251016 L 132.62916654229366,721.2069865135923 L 132.536997941695,721.2765035089591 L 132.45498350895895,721.3585179416951 L 132.38546651359218,721.4506865422937 L 132.33079022510145,721.5506660412483 L 132.29329791299355,721.6561131690518 L 132.27533284677517,721.7646846561977 L 132.27923829595306,721.8740372331791 L 132.307357530034,721.9818276304894 L 132.3620338185247,722.0857125786217 L 132.44561043093194,722.1833488080695 L 132.56043063676245,722.2723930493258 L 132.70883770552294,722.350502032884 L 132.8931749067202,722.4153324892372 L 133.11578550986096,722.464541148879 L 133.37901278445196,722.4957847423022 L 133.68519999999995,722.5067200000004 L 154.33520000000001,722.50672 L 154.641387215548,722.4957847423018 L 154.904614490139,722.4645411488785 L 155.12722509327978,722.4153324892369 L 155.31156229447703,722.3505020328837 L 155.45996936323755,722.2723930493255 L 155.57478956906806,722.1833488080692 L 155.6583661814753,722.0857125786215 L 155.71304246996598,721.9818276304892 L 155.74116170404693,721.8740372331789 L 155.74506715322485,721.7646846561975 L 155.72710208700647,721.6561131690517 L 155.68960977489857,721.5506660412482 L 155.63493348640785,721.4506865422937 L 155.56541649104108,721.358517941695 L 155.48340205830502,721.276503508959 L 155.3912334577064,721.2069865135923 L 155.29125395875195,721.1523102251016 L 155.18580683094845,721.1148179129937 L 155.0772353438026,721.0968528467753 L 154.9678827668212,721.1007582959531 L 154.8600923695109,721.1288775300342 L 154.75620742137858,721.1835538185248 L 154.6585711919309,721.2671304309321 L 154.56952695067457,721.3819506367627 L 154.49141796711643,721.5303577055231 L 154.42658751076314,721.7146949067204 L 154.37737885112153,721.9373055098612 L 154.34613525769825,722.2005327844522 L 154.33520000000013,722.5067200000002 L 154.33520000000001,730.13172 L 154.34022435524213,730.3119357940054 L 154.355118979868,730.4895081831974 L 154.37961621222684,730.6641695059247 L 154.41344839066792,730.8356521005371 L 154.45634785354054,731.0036883053835 L 154.50804693919392,731.1680104588133 L 154.5682779859773,731.3283508991758 L 154.63677333223995,731.4844419648202 L 154.71326531633113,731.6360159940957 L 154.79748627660013,731.7828053253517 L 154.88916855139612,731.9245422969371 L 154.98804447906844,732.0609592472016 L 155.0938463979663,732.1917885144943 L 155.20630664643897,732.3167624371644 L 155.3251575628357,732.4356133535612 L 155.45013148550575,732.5480736020338 L 155.58096075279838,732.6538755209317 L 155.71737770306285,732.752751448604 L 155.8591146746484,732.8444337234 L 156.00590400590428,732.928654683669 L 156.1574780351798,733.0051466677602 L 156.31356910082414,733.0736420140229 L 156.47390954118657,733.1338730608063 L 156.6382316946164,733.1855721464597 L 156.80626789946285,733.2284716093324 L 156.97775049407517,733.2623037877735 L 157.15241181680264,733.2868010201323 L 157.32998420599446,733.3016956447582 L 157.51019999999997,733.3067200000004 L 184.51020000000003,733.3067199999999 L 184.69041579400553,733.3016956447578 L 184.86798818319735,733.286801020132 L 185.04264950592483,733.2623037877731 L 185.21413210053714,733.228471609332 L 185.3821683053836,733.1855721464594 L 185.54649045881342,733.1338730608061 L 185.70683089917588,733.0736420140227 L 185.86292196482023,733.00514666776 L 186.01449599409574,732.9286546836688 L 186.16128532535163,732.8444337233998 L 186.30302229693717,732.7527514486038 L 186.43943924720165,732.6538755209315 L 186.5702685144943,732.5480736020337 L 186.69524243716435,732.435613353561 L 186.81409335356108,732.3167624371642 L 186.92655360203378,732.1917885144942 L 187.03235552093165,732.0609592472016 L 187.13123144860396,731.9245422969371 L 187.22291372339998,731.7828053253517 L 187.30713468366895,731.6360159940957 L 187.38362666776015,731.4844419648202 L 187.45212201402282,731.3283508991759 L 187.51235306080622,731.1680104588135 L 187.56405214645957,731.0036883053837 L 187.60695160933219,730.8356521005372 L 187.6407837877733,730.664169505925 L 187.66528102013217,730.4895081831975 L 187.68017564475804,730.3119357940056 L 187.68520000000015,730.1317200000002 L 187.68520000000004,722.50672 L 187.6742647423019,722.200532784452 L 187.64302114887863,721.937305509861 L 187.593812489237,721.7146949067202 L 187.5289820328837,721.530357705523 L 187.45087304932554,721.3819506367624 L 187.36182880806925,721.267130430932 L 187.26419257862153,721.1835538185247 L 187.1603076304892,721.1288775300341 L 187.05251723317892,721.1007582959531 L 186.9431646561975,721.0968528467753 L 186.83459316905166,721.1148179129937 L 186.72914604124813,721.1523102251016 L 186.6291665422937,721.2069865135923 L 186.53699794169503,721.2765035089591 L 186.45498350895897,721.3585179416951 L 186.3854665135922,721.4506865422937 L 186.33079022510148,721.5506660412483 L 186.29329791299358,721.6561131690518 L 186.2753328467752,721.7646846561977 L 186.2792382959531,721.8740372331791 L 186.30735753003404,721.9818276304894 L 186.36203381852474,722.0857125786217 L 186.44561043093196,722.1833488080695 L 186.56043063676248,722.2723930493258 L 186.70883770552297,722.350502032884 L 186.89317490672022,722.4153324892372 L 187.11578550986098,722.464541148879 L 187.379012784452,722.4957847423022 L 187.68519999999998,722.5067200000004 L 208.33520000000004,722.50672 L 208.64138721554804,722.4957847423018 L 208.90461449013904,722.4645411488785 L 209.1272250932798,722.4153324892369 L 209.31156229447706,722.3505020328837 L 209.45996936323758,722.2723930493255 L 209.5747895690681,722.1833488080692 L 209.65836618147532,722.0857125786215 L 209.713042469966,721.9818276304892 L 209.74116170404696,721.8740372331789 L 209.74506715322488,721.7646846561975 L 209.7271020870065,721.6561131690517 L 209.6896097748986,721.5506660412482 L 209.63493348640787,721.4506865422937 L 209.5654164910411,721.358517941695 L 209.48340205830505,721.276503508959 L 209.39123345770642,721.2069865135923 L 209.29125395875198,721.1523102251016 L 209.18580683094848,721.1148179129937 L 209.07723534380264,721.0968528467753 L 208.96788276682122,721.1007582959531 L 208.86009236951094,721.1288775300342 L 208.7562074213786,721.1835538185248 L 208.65857119193092,721.2671304309321 L 208.5695269506746,721.3819506367627 L 208.49141796711646,721.5303577055231 L 208.42658751076317,721.7146949067204 L 208.37737885112156,721.9373055098612 L 208.34613525769828,722.2005327844522 L 208.33520000000016,722.5067200000002 L 208.33520000000004,730.13172 L 208.34022435524216,730.3119357940054 L 208.35511897986802,730.4895081831974 L 208.37961621222686,730.6641695059247 L 208.41344839066795,730.8356521005371 L 208.45634785354056,731.0036883053835 L 208.50804693919395,731.1680104588133 L 208.56827798597732,731.3283508991758 L 208.63677333223998,731.4844419648202 L 208.71326531633116,731.6360159940957 L 208.79748627660015,731.7828053253517 L 208.88916855139615,731.9245422969371 L 208.98804447906846,732.0609592472016 L 209.09384639796633,732.1917885144943 L 209.206306646439,732.3167624371644 L 209.32515756283573,732.4356133535612 L 209.45013148550578,732.5480736020338 L 209.5809607527984,732.6538755209317 L 209.71737770306288,732.752751448604 L 209.85911467464842,732.8444337234 L 210.0059040059043,732.928654683669 L 210.15747803517982,733.0051466677602 L 210.31356910082417,733.0736420140229 L 210.4739095411866,733.1338730608063 L 210.63823169461642,733.1855721464597 L 210.80626789946288,733.2284716093324 L 210.9777504940752,733.2623037877735 L 211.15241181680267,733.2868010201323 L 211.3299842059945,733.3016956447582 L 211.5102,733.3067200000004 L 238.51020000000005,733.3067199999999 L 238.69041579400556,733.3016956447578 L 238.86798818319738,733.286801020132 L 239.04264950592486,733.2623037877731 L 239.21413210053717,733.228471609332 L 239.38216830538363,733.1855721464594 L 239.54649045881345,733.1338730608061 L 239.7068308991759,733.0736420140227 L 239.86292196482026,733.00514666776 L 240.01449599409577,732.9286546836688 L 240.16128532535166,732.8444337233998 L 240.3030222969372,732.7527514486038 L 240.43943924720168,732.6538755209315 L 240.57026851449433,732.5480736020337 L 240.69524243716438,732.435613353561 L 240.8140933535611,732.3167624371642 L 240.9265536020338,732.1917885144942 L 241.03235552093167,732.0609592472016 L 241.13123144860398,731.9245422969371 L 241.2229137234,731.7828053253517 L 241.30713468366898,731.6360159940957 L 241.38362666776018,731.4844419648202 L 241.45212201402285,731.3283508991759 L 241.51235306080625,731.1680104588135 L 241.5640521464596,731.0036883053837 L 241.6069516093322,730.8356521005372 L 241.64078378777333,730.664169505925 L 241.6652810201322,730.4895081831975 L 241.68017564475807,730.3119357940056 L 241.68520000000018,730.1317200000002 L 241.68520000000007,722.50672 L 241.67426474230192,722.200532784452 L 241.64302114887866,721.937305509861 L 241.59381248923702,721.7146949067202 L 241.52898203288373,721.530357705523 L 241.4508730493256,721.3819506367624 L 241.36182880806928,721.267130430932 L 241.2641925786216,721.1835538185247 L 241.16030763048923,721.1288775300341 L 241.05251723317897,721.1007582959531 L 240.94316465619755,721.0968528467753 L 240.83459316905171,721.1148179129937 L 240.72914604124819,721.1523102251016 L 240.62916654229375,721.2069865135923 L 240.53699794169512,721.2765035089591 L 240.45498350895906,721.3585179416951 L 240.38546651359232,721.4506865422937 L 240.3307902251016,721.5506660412483 L 240.2932979129937,721.6561131690518 L 240.2753328467753,721.7646846561977 L 240.27923829595323,721.8740372331791 L 240.30735753003418,721.9818276304894 L 240.3620338185249,722.0857125786217 L 240.44561043093213,722.1833488080695 L 240.56043063676265,722.2723930493258 L 240.70883770552317,722.350502032884 L 240.89317490672045,722.4153324892372 L 241.1157855098612,722.464541148879 L 241.37901278445224,722.4957847423022 L 241.68520000000024,722.5067200000004 L 262.33520000000004,722.50672 L 262.64138721554804,722.4957847423018 L 262.90461449013907,722.4645411488785 L 263.1272250932798,722.4153324892369 L 263.3115622944771,722.3505020328837 L 263.4599693632376,722.2723930493255 L 263.57478956906806,722.1833488080692 L 263.6583661814753,722.0857125786215 L 263.713042469966,721.9818276304892 L 263.741161704047,721.8740372331789 L 263.74506715322485,721.7646846561975 L 263.72710208700653,721.6561131690517 L 263.6896097748986,721.5506660412482 L 263.6349334864079,721.4506865422937 L 263.5654164910411,721.358517941695 L 263.48340205830505,721.276503508959 L 263.39123345770645,721.2069865135923 L 263.291253958752,721.1523102251016 L 263.1858068309485,721.1148179129937 L 263.0772353438026,721.0968528467753 L 262.9678827668212,721.1007582959531 L 262.86009236951094,721.1288775300342 L 262.7562074213786,721.1835538185248 L 262.6585711919309,721.2671304309321 L 262.56952695067463,721.3819506367627 L 262.49141796711643,721.5303577055231 L 262.42658751076317,721.7146949067204 L 262.37737885112153,721.9373055098612 L 262.3461352576983,722.2005327844522 L 262.33520000000016,722.5067200000002 L 262.33520000000004,730.13172 L 262.3402243552422,730.3119357940054 L 262.355118979868,730.4895081831974 L 262.37961621222684,730.6641695059247 L 262.41344839066795,730.8356521005371 L 262.4563478535406,731.0036883053835 L 262.50804693919395,731.1680104588133 L 262.5682779859773,731.3283508991758 L 262.63677333223995,731.4844419648202 L 262.71326531633116,731.6360159940957 L 262.7974862766001,731.7828053253517 L 262.8891685513961,731.9245422969371 L 262.98804447906844,732.0609592472016 L 263.0938463979663,732.1917885144943 L 263.2063066464389,732.3167624371644 L 263.32515756283567,732.4356133535612 L 263.4501314855057,732.5480736020338 L 263.5809607527983,732.6538755209317 L 263.71737770306277,732.752751448604 L 263.8591146746483,732.8444337234 L 264.0059040059042,732.928654683669 L 264.1574780351797,733.0051466677602 L 264.313569100824,733.0736420140229 L 264.47390954118646,733.1338730608063 L 264.63823169461625,733.1855721464597 L 264.8062678994627,733.2284716093324 L 264.977750494075,733.2623037877735 L 265.15241181680244,733.2868010201323 L 265.32998420599426,733.3016956447582 L 265.51019999999977,733.3067200000004 L 270.7030004,733.3067200000003 L 283.40300040000005,733.30672 L 292.51020000000005,733.3067199999999 L 292.69041579400556,733.3016956447578 L 292.8679881831974,733.286801020132 L 293.0426495059249,733.2623037877731 L 293.2141321005372,733.228471609332 L 293.38216830538363,733.1855721464594 L 293.5464904588135,733.1338730608061 L 293.7068308991759,733.0736420140227 L 293.86292196482026,733.00514666776 L 294.01449599409574,732.9286546836688 L 294.1612853253516,732.8444337233998 L 294.3030222969372,732.7527514486038 L 294.4394392472016,732.6538755209315 L 294.5702685144943,732.5480736020337 L 294.6952424371643,732.435613353561 L 294.8140933535611,732.3167624371642 L 294.9265536020337,732.1917885144942 L 295.03235552093156,732.0609592472016 L 295.1312314486039,731.9245422969371 L 295.22291372339987,731.7828053253517 L 295.30713468366883,731.6360159940957 L 295.38362666776004,731.4844419648202 L 295.4521220140227,731.3283508991759 L 295.51235306080605,731.1680104588135 L 295.5640521464594,731.0036883053837 L 295.60695160933204,730.8356521005372 L 295.6407837877731,730.664169505925 L 295.66528102013194,730.4895081831975 L 295.6801756447578,730.3119357940056 L 295.6851999999999,730.1317200000002 L 295.68520000000007,722.50672 L 295.67426474230194,722.200532784452 L 295.64302114887863,721.937305509861 L 295.593812489237,721.7146949067202 L 295.52898203288373,721.530357705523 L 295.4508730493256,721.3819506367624 L 295.3618288080693,721.267130430932 L 295.2641925786216,721.1835538185247 L 295.1603076304892,721.1288775300341 L 295.05251723317895,721.1007582959531 L 294.9431646561975,721.0968528467753 L 294.8345931690517,721.1148179129937 L 294.72914604124816,721.1523102251016 L 294.6291665422937,721.2069865135923 L 294.53699794169506,721.2765035089591 L 294.454983508959,721.3585179416951 L 294.38546651359223,721.4506865422937 L 294.3307902251015,721.5506660412483 L 294.2932979129936,721.6561131690518 L 294.2753328467752,721.7646846561977 L 294.2792382959531,721.8740372331791 L 294.30735753003404,721.9818276304894 L 294.36203381852476,722.0857125786217 L 294.445610430932,722.1833488080695 L 294.5604306367625,722.2723930493258 L 294.708837705523,722.350502032884 L 294.8931749067203,722.4153324892372 L 295.11578550986104,722.464541148879 L 295.379012784452,722.4957847423022 L 295.6852,722.5067200000004 L 326.21020000000004,722.50672 L 326.4224589286154,722.5063548677682 L 326.69361145270415,722.5052898815039 L 327.01956600721644,722.5035706568535 L 327.39623102710243,722.5012428094633 L 327.81951494731237,722.4983519549796 L 328.2853262027964,722.4949437090492 L 328.7895732285047,722.491063687318 L 329.3281644593875,722.4867575054327 L 329.8970083303949,722.4820707790398 L 330.49201327647717,722.4770491237853 L 331.10908773258444,722.4717381553158 L 331.74414013366686,722.4661834892779 L 332.39307891467473,722.4604307413177 L 333.0518125105581,722.4545255270818 L 333.7162493562672,722.4485134622165 L 334.38229788675227,722.4424401623683 L 335.04586653696344,722.4363512431834 L 335.70286374185093,722.4302923203084 L 336.3491979363648,722.4243090093895 L 336.9807775554554,722.4184469260732 L 337.59351103407283,722.412751686006 L 338.18330680716724,722.4072689048342 L 338.7460733096889,722.4020441982041 L 339.2777189765879,722.3971231817623 L 339.77415224281447,722.392551471155 L 340.2312815433188,722.3883746820288 L 340.6450153130511,722.38463843003 L 341.0112619869615,722.381388330805 L 341.32593000000014,722.37867 L 341.37580752721885,661.9867460375513 L 341.38628084788223,649.3056044411984 L 341.50408116691614,506.6724727173779 L 341.5145648970826,493.97872724998535 L 341.57298000000003,423.2494699999999 L 341.2225986715323,423.2462179917175 L 340.8238876837919,423.24134577678456 L 340.38079342982496,423.2349790700725 L 339.89726230267746,423.22724358645286 L 339.37724069539547,423.218265040797 L 338.82467500102507,423.2081691479765 L 338.2435116126123,423.1970816228627 L 337.6376969232031,423.1851281803271 L 337.0111773258436,423.1724345352412 L 336.3678992135799,423.1591264024765 L 335.711808979458,423.1453294969043 L 335.04685301652387,423.13116953339613 L 334.37697771782365,423.1167722268235 L 333.7061294764033,423.10226329205784 L 333.03825468530897,423.0877684439706 L 332.3772997375866,423.0734133974332 L 331.72721102628236,423.05932386731723 L 331.0919349444422,423.04562556849396 L 330.47541788511217,423.03244421583497 L 329.8816062413383,423.0199055242117 L 329.3144464061667,423.0081352084956 L 328.7778847726434,422.99725898355814 L 328.27586773381444,422.9874025642708 L 327.81234168272584,422.9786916655049 L 327.39125301242365,422.97125200213213 L 327.0165481159539,422.96520928902373 L 326.69217338636275,422.9606892410513 L 326.4220752166961,422.95781757308623 L 326.21020000000004,422.95672 L 263.39156384551086,422.8983664146462 L 250.71385840753067,422.88658982076174 L 94.35931843030896,422.74134871792114 L 81.66618471866337,422.7295577923807 L 12.782228,422.66557 L 12.587121102136209,422.6660632994383 L 12.365963921489195,422.6678730661364 L 12.120657210234121,422.6708734130141 L 11.853101720546148,422.6749384529911 L 11.565198204600435,422.67994229898727 L 11.258847414572143,422.68575906392226 L 10.935950102636435,422.6922628607159 L 10.59840702096847,422.69932780228794 L 10.248118921743409,422.70682800155805 L 9.886986557136414,422.71463757144613 L 9.516910679322645,422.72263062487184 L 9.139792040477264,422.730681274755 L 8.75753139277543,422.7386636340153 L 8.372029488392307,422.7464518155726 L 7.985187079503053,422.75391993234655 L 7.598904918282829,422.760942097257 L 7.2150837569068,422.7673924232236 L 6.835624347550123,422.7731450231662 L 6.462427442387959,422.7780740100045 L 6.09739379359547,422.7820534966583 L 5.742424153347817,422.7849575960474 L 5.399419273820161,422.7866604210915 L 5.070279907187662,422.78703608471034 L 4.7569068056254835,422.7859586998237 L 4.461200721308781,422.78330237935137 L 4.185062406412721,422.77894123621303 L 3.9303926131124634,422.7727493833286 L 3.699092093583168,422.7646009336176 L 3.4930615999999937,422.75437 L 3.5518341492834486,493.9851069583857 L 3.5622980921243963,506.66712210216247 L 3.6799841099607673,649.2993863545197 L 3.690458442240406,661.9939932164292 L 3.7401112000000007,722.17179 L 3.9513594817007673,722.1662377182337 L 4.183684305924803,722.1614961216122 L 4.43554184135471,722.1575311866005 L 4.705388256673091,722.1543088896634 L 4.99167972056255,722.1517952072655 L 5.292872401705687,722.1499561158719 L 5.607422468785109,722.1487575919472 L 5.933786090483416,722.1481656119562 L 6.270419435483211,722.1481461523638 L 6.615778672467098,722.1486651896347 L 6.968319970117676,722.1496887002337 L 7.326499497117554,722.1511826606258 L 7.688773422149331,722.1531130472755 L 8.053597913895612,722.1554458366477 L 8.419429141038995,722.1581470052073 L 8.784723272262086,722.1611825294191 L 9.147936476247489,722.1645183857478 L 9.507524921677808,722.1681205506582 L 9.86194477723564,722.1719550006151 L 10.209652211603593,722.1759877120834 L 10.54910339346427,722.1801846615278 L 10.878754491500269,722.1845118254132 L 11.197061674394197,722.1889351802043 L 11.502481110828654,722.1934207023659 L 11.793468969486247,722.1979343683629 L 12.068481419049577,722.20244215466 L 12.325974628201243,722.2069100377221 L 12.564404765623852,722.2113039940139 L 12.782228000000005,722.2155900000001" fill="none" stroke="rgb(0,0,0)" stroke-width="0.5"/>
	<path d="M 0.1164603,415.18101 L 1.1990427249999929,415.18101 L 13.899042724999992,415.18101 L 156.06420757500004,415.18101 L 168.76420757500003,415.18101 L 349.84679,415.18101" fill="none" stroke="rgb(0,0,0)" stroke-width="0.5"/>
	<path d="M -0.0276687,3.1473313 L 1.054913474999987,3.1473313 L 13.754913474999986,3.1473313 L 155.920077825,3.1473313 L 168.62007782499998,3.1473313 L 349.70266,3.1473313" fill="none" stroke="rgb(0,0,0)" stroke-width="0.5"/>
	<path d="M 349.44992500999996,415.18103 L 349.4499469156225,415.18519988896935 L 349.4500126322563,415.18936931767763 L 349.45012215264654,415.1935378257697 L 349.45027546470266,415.19770495305863 L 349.4504725514995,415.20187023951024 L 349.4507133912795,415.20603322529325 L 349.450997957455,415.2101934508305 L 349.45132621861086,415.2143504568496 L 349.45169813850845,415.2185037844335 L 349.4521136760892,415.2226529750712 L 349.4525727854795,415.2267975707085 L 349.45307541599544,415.2309371137985 L 349.4536215121486,415.2350711473519 L 349.45421101365207,415.2391992149878 L 349.4548438554273,415.24332086098383 L 349.4555199676111,415.2474356303266 L 349.45623927556323,415.25154306876186 L 349.45700169987504,415.2556427228446 L 349.4578071563778,415.2597341399892 L 349.4586555561524,415.2638168685194 L 349.45954680553876,415.26789045771824 L 349.46048080614656,415.2719544578774 L 349.4614574548658,415.27600842034747 L 349.4624766438783,415.2800518975869 L 349.4635382606696,415.2840844432119 L 349.4646421880415,415.2881056120453 L 349.4657883041247,415.292114960166 L 349.46697648239257,415.2961120449578 L 349.4682065916749,415.3000964251584 L 349.4694784961725,415.3040676609079 L 349.4707920554721,415.30802531379766 L 349.47214712456196,415.31196894691834 L 349.47354355384783,415.3158981249086 L 349.47498118916945,415.31981241400257 L 349.47645987181755,415.3237113820783 L 349.4779794385514,415.32759459870505 L 349.4795397216169,415.33146163519115 L 349.4811405487649,415.335312064631 L 349.4827817432705,415.33914546195246 L 349.4844631239522,415.3429614039636 L 349.4861845051922,415.3467594693995 L 349.487945696957,415.3505392389688 L 349.4897465048179,415.35430029539987 L 349.49158672997277,415.35804222348685 L 349.49346616926806,415.3617646101358 L 349.49538461522116,415.36546704440997 L 349.4973418560432,415.36914911757515 L 349.49933767566245,415.3728104231451 L 349.5013718537484,415.3764505569261 L 349.5034441657359,415.38006911706185 L 349.50555438284977,415.38366570407754 L 349.5077022721304,415.3872399209243 L 349.50988759645935,415.3907913730226 L 349.5121101145855,415.3943196683062 L 349.5143695811515,415.39782441726527 L 349.5166657467213,415.4013052329894 L 349.5189983578072,415.4047617312103 L 349.5213671568983,415.40819353034414 L 349.52377188248846,415.41160025153397 L 349.52621226910543,415.41498151869126 L 349.52868804734027,415.4183369585374 L 349.5311989438768,415.4216662006452 L 349.53374468152197,415.42496887747933 L 349.5363249792365,415.42824462443747 L 349.5389395521656,415.4314930798901 L 349.54158811167076,415.43471388522056 L 349.5442703653616,415.43790668486463 L 349.54698601712784,415.44107112634987 L 349.5497347671723,415.44420686033453 L 349.5525163120438,415.4473135406459 L 349.5553303446708,415.4503908243188 L 349.55817655439523,415.45343837163324 L 349.56105462700674,415.45645584615204 L 349.5639642447776,415.45944291475803 L 349.56690508649746,415.46239924769054 L 349.569876827509,415.4653245185822 L 349.5728791397438,415.4682184044946 L 349.57591169175845,415.4710805859542 L 349.5789741487712,415.4739107469875 L 349.58206617269883,415.4767085751559 L 349.5851874221943,415.4794737615902 L 349.5883375526838,415.48220600102485 L 349.5915162164055,415.4849049918313 L 349.59472306244754,415.4875704360517 L 349.59795773678667,415.49020203943155 L 349.6012198823277,415.49279951145223 L 349.6045091389427,415.4953625653631 L 349.60782514351064,415.4978909182132 L 349.61116752995787,415.50038429088227 L 349.614535929298,415.50284240811186 L 349.6179299696731,415.5052649985356 L 349.62134927639465,415.50765179470903 L 349.62479347198456,415.5100025331393 L 349.62826217621733,415.5123169543142 L 349.6317550061617,415.51459480273076 L 349.63527157622303,415.51683582692357 L 349.638811498186,415.51903977949235 L 349.6423743812571,415.5212064171295 L 349.6459598321082,415.52333550064685 L 349.6495674549197,415.52542679500186 L 349.65319685142424,415.527480069324 L 349.6568476209508,415.52949509693985 L 349.66051936046904,415.5314716553984 L 349.6642116646332,415.5334095264953 L 349.66792412582765,415.5353084962973 L 349.67165633421126,415.53716835516576 L 349.67540787776306,415.5389888977794 L 349.6791783423274,415.5407699231577 L 349.68296731166,415.54251123468237 L 349.6867743674735,415.5442126401196 L 349.6905990894841,415.5458739516409 L 349.6944410554576,415.547494985844 L 349.69829984125613,415.5490755637733 L 349.70217502088497,415.55061551093905 L 349.70606616653964,415.5521146573373 L 349.709972848653,415.5535728374682 L 349.7138946359429,415.5549898903544 L 349.7178310954594,415.5563656595589 L 349.721781792633,415.5576999932021 L 349.7257462913224,415.558992743979 L 349.72972415386255,415.560243769175 L 349.7337149411132,415.56145293068175 L 349.73771821250716,415.5626200950127 L 349.7417335260991,415.5637451333175 L 349.74576043861435,415.5648279213964 L 349.74979850549767,415.5658683397138 L 349.7538472809624,415.5668662734117 L 349.7579063180398,415.5678216123221 L 349.7619751686281,415.5687342509795 L 349.76605338354244,415.56960408863205 L 349.7701405125639,415.57043102925314 L 349.7742361044897,415.57121498155186 L 349.7783397071826,415.57195585898296 L 349.78245086762115,415.5726535797565 L 349.7865691319495,415.5733080668468 L 349.79069404552746,415.5739192480011 L 349.79482515298093,415.5744870557475 L 349.798961998252,415.57501142740216 L 349.80310412464934,415.57549230507664 L 349.80725107489855,415.5759296356838 L 349.8114023911927,415.5763233709442 L 349.8155576152429,415.57667346739095 L 349.8197162883288,415.5769798863748 L 349.82387795134935,415.5772425940683 L 349.8280421448735,415.5774615614696 L 349.8322084091906,415.57763676440555 L 349.83637628436173,415.57776818353443 L 349.8405453102698,415.5778558043481 L 349.8447150266709,415.5778996171735 L 349.8488849732448,415.5778996171739 L 349.8530546896459,415.5778558043494 L 349.857223715554,415.57776818353665 L 349.86139159072513,415.5776367644086 L 349.8655578550423,415.57746156147357 L 349.8697220485665,415.5772425940732 L 349.87388371158715,415.5769798863805 L 349.8780423846731,415.57667346739754 L 349.88219760872335,415.5763233709517 L 349.88634892501756,415.5759296356922 L 349.8904958752669,415.5754923050859 L 349.8946380016643,415.57501142741233 L 349.8987748469355,415.57448705575854 L 349.9029059543891,415.573919248013 L 349.9070308679672,415.57330806685957 L 349.9111491322957,415.57265357977013 L 349.91526029273433,415.57195585899746 L 349.9193638954274,415.57121498156727 L 349.9234594873534,415.5704310292694 L 349.927546616375,415.56960408864916 L 349.9316248312895,415.56873425099747 L 349.9356936818781,415.567821612341 L 349.9397527189557,415.5668662734314 L 349.9438014944206,415.5658683397344 L 349.94783956130414,415.5648279214178 L 349.95186647381956,415.56374513333975 L 349.9558817874118,415.5626200950358 L 349.95988505880604,415.5614529307057 L 349.9638758460569,415.56024376919976 L 349.9678537085973,415.5589927440047 L 349.97181820728696,415.5576999932286 L 349.97576890446084,415.5563656595862 L 349.9797053639777,415.55498989038256 L 349.98362715126785,415.5535728374972 L 349.9875338333815,415.55211465736716 L 349.99142497903654,415.55061551096975 L 349.9953001586657,415.54907556380476 L 349.9991589444645,415.5474949858763 L 350.00300091043835,415.54587395167397 L 350.0068256324493,415.5442126401535 L 350.01063268826323,415.5425112347171 L 350.0144216575962,415.54076992319324 L 350.01819212216094,415.5389888978157 L 350.0219436657131,415.5371683552029 L 350.0256758740971,415.53530849633523 L 350.0293883352919,415.533409526534 L 350.03308063945656,415.5314716554378 L 350.0367523789751,415.5294950969801 L 350.04040314850215,415.527480069365 L 350.04403254500716,415.52542679504364 L 350.04764016781905,415.5233355006894 L 350.0512256186706,415.5212064171729 L 350.05478850174217,415.51903977953646 L 350.0583284237056,415.5168358269684 L 350.06184499376747,415.51459480277634 L 350.0653378237123,415.51231695436053 L 350.0688065279455,415.51000253318637 L 350.07225072353594,415.5076517947568 L 350.075670030258,415.5052649985841 L 350.07906407063365,415.5028424081611 L 350.08243246997426,415.50038429093223 L 350.085774856422,415.49789091826386 L 350.0890908609905,415.4953625654145 L 350.092380117606,415.4927995115043 L 350.0956422631476,415.4902020394843 L 350.0988769374873,415.48757043610516 L 350.1020837835299,415.4849049918854 L 350.1052624472522,415.48220600107965 L 350.1084125777423,415.4794737616457 L 350.1115338272383,415.476708575212 L 350.1146258511666,415.4739107470443 L 350.1176883081799,415.4710805860116 L 350.12072086019515,415.46821840455266 L 350.1237231724306,415.4653245186409 L 350.12669491344275,415.4623992477499 L 350.1296357551632,415.459442914818 L 350.13254537293466,415.45645584621263 L 350.1354234455469,415.4534383716944 L 350.138269655272,415.4503908243806 L 350.1410836878996,415.44731354070825 L 350.14386523277176,415.4442068603975 L 350.14661398281686,415.4410711264134 L 350.14932963458375,415.43790668492875 L 350.1520118882753,415.43471388528525 L 350.15466044778117,415.4314930799554 L 350.157275020711,415.4282446245033 L 350.15985531842614,415.4249688775457 L 350.16240105607204,415.4216662007121 L 350.16491195260926,415.4183369586048 L 350.16738773084484,415.4149815187592 L 350.16982811746254,415.41160025160247 L 350.1722328430534,415.40819353041314 L 350.17460164214515,415.40476173127973 L 350.1769342532318,415.40130523305936 L 350.1792304188024,415.3978244173357 L 350.18148988536916,415.39431966837714 L 350.18371240349603,415.390791373094 L 350.1858977278257,415.38723992099614 L 350.18804561710715,415.3836657041499 L 350.19015583422174,415.38006911713467 L 350.19222814620997,415.3764505569994 L 350.1942623242967,415.37281042321877 L 350.1962581439168,415.3691491176493 L 350.19821538473957,415.3654670444845 L 350.20013383069346,415.36176461021074 L 350.20201326998955,415.35804222356217 L 350.2038534951452,415.3543002954755 L 350.2056543030069,415.35053923904485 L 350.2074154947725,415.34675946947596 L 350.2091368760133,415.3429614040404 L 350.21081825669586,415.3391454620296 L 350.2124594512022,415.3353120647085 L 350.21406027835104,415.33146163526897 L 350.2156205614173,415.3275945987832 L 350.21714012815204,415.3237113821568 L 350.21861881080093,415.31981241408135 L 350.2200564461234,415.3158981249877 L 350.22145287541014,415.3119689469978 L 350.22280794450086,415.30802531387735 L 350.2241215038013,415.30406766098787 L 350.2253934082997,415.3000964252386 L 350.2266235175829,415.29611204503834 L 350.2278116958515,415.29211496024675 L 350.22895781193563,415.2881056121263 L 350.2300617393083,415.2840844432931 L 350.23112335610057,415.28005189766833 L 350.2321425451139,415.2760084204291 L 350.233119193834,415.2719544579593 L 350.23405319444265,415.2678904578003 L 350.23494444382993,415.26381686860174 L 350.23579284360534,415.25973414007166 L 350.236598300109,415.2556427229272 L 350.23736072442165,415.2515430688446 L 350.2380800323747,415.24743563040954 L 350.23875614455926,415.24332086106693 L 350.2393889863354,415.23919921507104 L 350.2399784878398,415.23507114743524 L 350.2405245839938,415.23093711388196 L 350.2410272145106,415.2267975707921 L 350.2414863239018,415.22265297515486 L 350.2419018614835,415.2185037845172 L 350.2422737813819,415.21435045693346 L 350.24260204253864,415.2101934509144 L 350.24288660871497,415.2060332253772 L 350.2431274484959,415.20187023959426 L 350.24332453529365,415.1977049531427 L 350.2434778473506,415.19353782585375 L 350.2435873677418,415.18936931776176 L 350.2436530843765,415.1851998890535 L 350.24367498999993,415.18103 L 350.24365308437734,415.1768601110307 L 350.24358736774354,415.1726906823224 L 350.2434778473533,415.16852217423036 L 350.2433245352972,415.1643550469414 L 350.24312744850033,415.1601897604898 L 350.2428866087203,415.1560267747068 L 350.24260204254483,415.15186654916954 L 350.242273781389,415.1477095431504 L 350.2419018614914,415.14355621556655 L 350.24148632391064,415.13940702492886 L 350.24102721452033,415.1352624292915 L 350.2405245840044,415.1311228862015 L 350.23997848785126,415.12698885264814 L 350.23938898634776,415.1228607850122 L 350.2387561445725,415.1187391390162 L 350.2380800323887,415.11462436967344 L 350.2373607244366,415.1105169312382 L 350.2365983001248,415.10641727715546 L 350.23579284362205,415.10232586001086 L 350.23494444384744,415.0982431314806 L 350.23405319446107,415.0941695422818 L 350.23311919385327,415.0901055421226 L 350.232142545134,415.0860515796526 L 350.23112335612154,415.08200810241317 L 350.2300617393302,415.07797555678815 L 350.2289578119583,415.07395438795476 L 350.2278116958751,415.06994503983407 L 350.22662351760727,415.06594795504225 L 350.2253934083249,415.0619635748416 L 350.22412150382735,415.05799233909215 L 350.22280794452774,415.0540346862024 L 350.2214528754379,415.0500910530817 L 350.220056446152,415.04616187509146 L 350.2186188108304,415.0422475859975 L 350.2171401281823,415.03834861792177 L 350.2156205614484,415.034465401295 L 350.21406027838293,415.0305983648089 L 350.2124594512349,415.02674793536903 L 350.21081825672934,415.0229145380476 L 350.20913687604764,415.01909859603643 L 350.2074154948076,415.01530053060054 L 350.2056543030428,415.01152076103125 L 350.20385349518193,415.0077597046002 L 350.20201327002707,415.0040177765132 L 350.2001338307318,415.0002953898642 L 350.1982153847787,414.9965929555901 L 350.19625814395664,414.9929108824249 L 350.1942623243374,414.98924957685495 L 350.1922281462514,414.98560944307394 L 350.1901558342639,414.9819908829382 L 350.18804561715007,414.9783942959225 L 350.1858977278694,414.97482007907576 L 350.1837124035405,414.97126862697746 L 350.18148988541435,414.96774033169385 L 350.1792304188483,414.9642355827348 L 350.17693425327855,414.96075476701066 L 350.1746016421926,414.95729826878977 L 350.17223284310154,414.9538664696559 L 350.1698281175114,414.9504597484661 L 350.1673877308944,414.9470784813088 L 350.16491195265957,414.94372304146265 L 350.16240105612303,414.94039379935487 L 350.15985531847787,414.9370911225207 L 350.15727502076334,414.9338153755626 L 350.15466044783426,414.9305669201099 L 350.15201188832907,414.9273461147795 L 350.1493296346382,414.9241533151354 L 350.146613982872,414.9209888736502 L 350.1438652328275,414.9178531396655 L 350.14108368795604,414.91474645935415 L 350.13826965532905,414.91166917568125 L 350.1354234456046,414.9086216283668 L 350.1325453729931,414.905604153848 L 350.12963575522224,414.902617085242 L 350.1266949135024,414.8996607523095 L 350.1237231724908,414.89673548141786 L 350.12072086025603,414.8938415955054 L 350.1176883082414,414.89097941404583 L 350.11462585122865,414.88814925301256 L 350.111533827301,414.88535142484415 L 350.10841257780555,414.88258623840983 L 350.105262447316,414.8798539989752 L 350.1020837835943,414.87715500816876 L 350.0988769375523,414.8744895639483 L 350.09564226321316,414.8718579605685 L 350.0923801176721,414.8692604885478 L 350.0890908610571,414.86669743463693 L 350.0857748564892,414.8641690817868 L 350.08243247004197,414.8616757091178 L 350.07906407070186,414.8592175918882 L 350.0756700303267,414.85679500146443 L 350.0722507236052,414.854408205291 L 350.0688065280153,414.85205746686074 L 350.0653378237825,414.84974304568584 L 350.0618449938381,414.8474651972693 L 350.0583284237768,414.8452241730765 L 350.05478850181385,414.8430202205077 L 350.0512256187427,414.8408535828705 L 350.04764016789164,414.8387244993532 L 350.04403254508014,414.8366332049982 L 350.0404031485756,414.83457993067606 L 350.036752379049,414.8325649030602 L 350.0330806395308,414.83058834460167 L 350.0293883353666,414.82865047350475 L 350.0256758741722,414.8267515037027 L 350.02194366578857,414.8248916448343 L 350.01819212223677,414.82307110222064 L 350.0144216576724,414.82129007684233 L 350.01063268833985,414.8195487653177 L 350.00682563252633,414.81784735988043 L 350.0030009105157,414.81618604835916 L 349.9991589445422,414.814565014156 L 349.9953001587437,414.81298443622677 L 349.99142497911487,414.811444489061 L 349.9875338334602,414.80994534266273 L 349.9836271513468,414.80848716253183 L 349.97970536405694,414.8070701096456 L 349.9757689045404,414.80569434044116 L 349.9718182073668,414.80436000679794 L 349.9678537086774,414.80306725602105 L 349.9638758461373,414.80181623082507 L 349.95988505888664,414.8006070693183 L 349.9558817874927,414.79943990498737 L 349.95186647390074,414.7983148666825 L 349.9478395613855,414.79723207860366 L 349.94380149450217,414.79619166028624 L 349.9397527190374,414.79519372658837 L 349.93569368196006,414.7942383876779 L 349.9316248313717,414.79332574902054 L 349.9275466164574,414.792455911368 L 349.92345948743593,414.7916289707469 L 349.9193638955101,414.7908450184482 L 349.9152602928172,414.7901041410171 L 349.9111491323787,414.78940642024355 L 349.90703086805036,414.78875193315326 L 349.9029059544724,414.7881407519989 L 349.8987748470189,414.78757294425253 L 349.8946380017478,414.7870485725979 L 349.8904958753505,414.7865676949234 L 349.8863489251013,414.78613036431625 L 349.88219760880713,414.78573662905586 L 349.87804238475695,414.7853865326091 L 349.87388371167106,414.78508011362527 L 349.8697220486505,414.78481740593173 L 349.8655578551263,414.78459843853045 L 349.8613915908092,414.7844232355945 L 349.8572237156381,414.7842918164656 L 349.85305468973,414.78420419565197 L 349.84888497332895,414.78416038282654 L 349.844715026755,414.78416038282614 L 349.84054531035395,414.78420419565066 L 349.8363762844458,414.7842918164634 L 349.8322084092747,414.7844232355914 L 349.8280421449575,414.7845984385265 L 349.82387795143336,414.78481740592684 L 349.8197162884127,414.78508011361953 L 349.8155576153267,414.7853865326025 L 349.8114023912765,414.78573662904836 L 349.8072510749823,414.78613036430784 L 349.80310412473295,414.78656769491414 L 349.7989619983355,414.7870485725877 L 349.7948251530643,414.7875729442415 L 349.79069404561073,414.78814075198704 L 349.78656913203264,414.7887519331405 L 349.78245086770414,414.7894064202299 L 349.7783397072655,414.7901041410026 L 349.7742361045724,414.7908450184328 L 349.77014051264644,414.79162897073064 L 349.7660533836248,414.7924559113509 L 349.7619751687103,414.7933257490026 L 349.75790631812174,414.79423838765905 L 349.75384728104416,414.79519372656864 L 349.74979850557924,414.79619166026566 L 349.7457604386957,414.7972320785822 L 349.74173352618027,414.7983148666603 L 349.73771821258805,414.79943990496423 L 349.7337149411938,414.80060706929436 L 349.7297241539429,414.8018162308003 L 349.7257462914025,414.80306725599536 L 349.7217817927129,414.80436000677145 L 349.717831095539,414.8056943404138 L 349.71389463602213,414.8070701096175 L 349.709972848732,414.80848716250284 L 349.7060661666183,414.8099453426329 L 349.7021750209633,414.8114444890303 L 349.6982998413341,414.8129844361953 L 349.6944410555353,414.81456501412373 L 349.6905990895615,414.8161860483261 L 349.6867743675505,414.81784735984655 L 349.6829673117366,414.81954876528295 L 349.67917834240365,414.8212900768068 L 349.6754078778389,414.8230711021843 L 349.67165633428675,414.82489164479716 L 349.66792412590274,414.8267515036648 L 349.6642116647079,414.82865047346604 L 349.6605193605433,414.8305883445622 L 349.6568476210247,414.83256490301994 L 349.6531968514977,414.834579930635 L 349.6495674549927,414.8366332049564 L 349.6459598321808,414.8387244993106 L 349.6423743813292,414.84085358282715 L 349.63881149825767,414.8430202204636 L 349.63527157629426,414.8452241730316 L 349.63175500623237,414.8474651972237 L 349.62826217628754,414.8497430456395 L 349.6247934720543,414.8520574668137 L 349.6213492764639,414.85440820524326 L 349.61792996974185,414.85679500141595 L 349.6145359293662,414.85921759183896 L 349.61116753002557,414.8616757090678 L 349.6078251435778,414.8641690817362 L 349.60450913900934,414.86669743458555 L 349.6012198823938,414.86926048849574 L 349.5979577368522,414.87185796051574 L 349.5947230625125,414.8744895638949 L 349.5915162164699,414.87715500811464 L 349.58833755274765,414.8798539989204 L 349.58518742225755,414.88258623835435 L 349.58206617276153,414.88535142478804 L 349.57897414883325,414.88814925295577 L 349.57591169181995,414.8909794139884 L 349.5728791398047,414.8938415954474 L 349.56987682756926,414.89673548135914 L 349.5669050865571,414.89966075225016 L 349.56396424483665,414.90261708518204 L 349.5610546270652,414.9056041537874 L 349.5581765544529,414.90862162830564 L 349.55533034472785,414.91166917561947 L 349.55251631210024,414.9147464592918 L 349.5497347672281,414.9178531396025 L 349.546986017183,414.9209888735866 L 349.5442703654161,414.9241533150713 L 349.54158811172454,414.9273461147148 L 349.53893955221866,414.93056692004467 L 349.53632497928885,414.93381537549675 L 349.5337446815737,414.9370911224543 L 349.5311989439278,414.94039379928796 L 349.5286880473906,414.94372304139523 L 349.526212269155,414.94707848124085 L 349.5237718825373,414.9504597483976 L 349.52136715694644,414.9538664695869 L 349.5189983578547,414.9572982687203 L 349.516665746768,414.9607547669407 L 349.51436958119746,414.96423558266434 L 349.5121101146307,414.9677403316229 L 349.5098875965038,414.97126862690607 L 349.50770227217413,414.9748200790039 L 349.5055543828927,414.97839429585014 L 349.5034441657781,414.9819908828654 L 349.50137185378986,414.98560944300067 L 349.49933767570315,414.9892495767813 L 349.49734185608304,414.99291088235077 L 349.49538461526026,414.99659295551555 L 349.4934661693064,415.0002953897893 L 349.4915867300103,415.0040177764379 L 349.4897465048546,415.0077597045245 L 349.48794569699294,415.0115207609552 L 349.48618450522736,415.0153005305241 L 349.48446312398653,415.01909859595963 L 349.482781743304,415.02291453797045 L 349.4811405487976,415.02674793529155 L 349.4795397216488,415.0305983647311 L 349.4779794385825,415.03446540121683 L 349.4764598718478,415.03834861784327 L 349.4749811891989,415.0422475859187 L 349.4735435538764,415.04616187501233 L 349.4721471245897,415.05009105300223 L 349.470792055499,415.0540346861227 L 349.4694784961985,415.0579923390122 L 349.46820659170015,415.0619635747614 L 349.46697648241695,415.0659479549617 L 349.4657883041483,415.0699450397533 L 349.4646421880642,415.07395438787375 L 349.4635382606915,415.0779755567069 L 349.46247664389927,415.0820081023317 L 349.46145745488593,415.08605157957095 L 349.46048080616583,415.09010554204076 L 349.4595468055572,415.0941695421997 L 349.4586555561699,415.0982431313983 L 349.4578071563945,415.1023258599284 L 349.45700169989084,415.10641727707286 L 349.4562392755782,415.1105169311554 L 349.45551996762515,415.1146243695905 L 349.4548438554406,415.1187391389331 L 349.4542110136644,415.122860784929 L 349.45362151216005,415.1269888525648 L 349.453075416006,415.1311228861181 L 349.4525727854892,415.13526242920796 L 349.452113676098,415.1394070248452 L 349.45169813851635,415.1435562154828 L 349.4513262186179,415.1477095430666 L 349.4509979574612,415.15186654908564 L 349.45071339128486,415.15602677462283 L 349.45047255150394,415.1601897604058 L 349.4502754647062,415.16435504685734 L 349.4501221526492,415.1685221741463 L 349.45001263225805,415.1726906822383 L 349.44994691562334,415.17686011094656 L 349.44992500999996,415.18103" fill="none" stroke="rgb(0,0,0)" stroke-width="0.5"/>
</svg>
