<?xml version="1.0" ?>
<svg xmlns="http://www.w3.org/2000/svg" xmlns:cc="http://creativecommons.org/ns#" xmlns:dc="http://purl.org/dc/elements/1.1/" xmlns:ev="http://www.w3.org/2001/xml-events" xmlns:inkscape="http://www.inkscape.org/namespaces/inkscape" xmlns:rdf="http://www.w3.org/1999/02/22-rdf-syntax-ns#" xmlns:sodipodi="http://sodipodi.sourceforge.net/DTD/sodipodi-0.dtd" xmlns:svg="http://www.w3.org/2000/svg" xmlns:xlink="http://www.w3.org/1999/xlink" baseProfile="full" height="686.65mm" id="svg63" inkscape:version="1.1 (c68e22c387, 2021-05-23)" sodipodi:docname="PortablePower.svg" version="1.1" viewBox="0.0 0.0 448.08 686.65" width="448.08mm">
	<defs/>
	<path d="M 114.82255,441.12054 L 235.05943000000002,441.12054 L 235.05943000000002,465.161199 L 114.82255,465.161199 L 114.82255,441.12054" fill="none" stroke="rgb(0,0,0)" stroke-width="0.5"/>
	<path d="M 12.464166,719.20093 L 46.017134,719.49208 L 46.323309643117796,719.4838064012464 L 46.586526968961415,719.454851019722 L 46.809129158473084,719.4075774947722 L 46.99345939259502,719.3443494657428 L 47.14186085226947,719.2675305719791 L 47.25667671843864,719.1794844528271 L 47.340250172044776,719.0825747476322 L 47.39492439403009,718.9791650957399 L 47.42304256533683,718.871619136496 L 47.42694786690721,718.762300509246 L 47.408983479683464,718.6535728533355 L 47.371492584607815,718.5477998081102 L 47.31681836262249,718.4473450129157 L 47.24730399466973,718.3545721070975 L 47.165292661691744,718.2718447300012 L 47.07312754463078,718.2015265209726 L 46.973151824429046,718.1459811193571 L 46.867708682028784,718.1075721645004 L 46.759141298372214,718.0886632957481 L 46.649792854401575,718.0916181524458 L 46.54200653105908,718.118800373939 L 46.43812550928697,718.1725735995736 L 46.34049297002747,718.2553014686949 L 46.251452094222806,718.3693476206487 L 46.173346062815206,718.5170756947805 L 46.108518056746895,718.7008493304359 L 46.0593112569601,718.9230321669605 L 46.02806884439706,719.1859878437 L 46.017134,719.49208 L 46.017134,727.11708 L 46.02215835524212,727.2972957940054 L 46.03705297986797,727.4748681831974 L 46.06155021222682,727.6495295059248 L 46.09538239066792,727.8210121005371 L 46.138281853540526,727.9890483053836 L 46.189980939193894,728.1533704588134 L 46.25021198597728,728.3137108991758 L 46.31870733223994,728.4698019648201 L 46.39519931633113,728.6213759940956 L 46.4794202766001,728.7681653253516 L 46.571102551396116,728.909902296937 L 46.669978479068426,729.0463192472015 L 46.77578039796629,729.1771485144941 L 46.88824064643896,729.3021224371641 L 47.0070915628357,729.4209733535608 L 47.132065485505755,729.5334336020335 L 47.26289475279838,729.6392355209314 L 47.39931170306284,729.7381114486037 L 47.541048674648394,729.8297937233997 L 47.68783800590429,729.9140146836686 L 47.83941203517978,729.9905066677597 L 47.99550310082412,730.0590020140224 L 48.155843541186584,730.1192330608058 L 48.320165694616406,730.1709321464591 L 48.48820189946285,730.2138316093317 L 48.65968449407518,730.2476637877728 L 48.83434581680263,730.2721610201315 L 49.01191820599448,730.2870556447574 L 49.192133999999974,730.2920799999995 L 76.192134,730.2920799999999 L 76.37234979400549,730.2870556447579 L 76.54992218319734,730.272161020132 L 76.7245835059248,730.2476637877731 L 76.89606610053713,730.213831609332 L 77.06410230538357,730.1709321464594 L 77.2284244588134,730.1192330608061 L 77.38876489917585,730.0590020140227 L 77.5448559648202,729.99050666776 L 77.6964299940957,729.9140146836688 L 77.84321932535158,729.8297937233998 L 77.98495629693713,729.7381114486038 L 78.1213732472016,729.6392355209315 L 78.25220251449423,729.5334336020337 L 78.37717643716428,729.4209733535611 L 78.49602735356102,729.3021224371643 L 78.60848760203369,729.1771485144942 L 78.71428952093154,729.0463192472016 L 78.81316544860385,728.9099022969372 L 78.90484772339987,728.7681653253517 L 78.98906868366885,728.6213759940957 L 79.06556066776002,728.4698019648202 L 79.13405601402269,728.3137108991759 L 79.19428706080606,728.1533704588135 L 79.24598614645943,727.9890483053837 L 79.28888560933204,727.8210121005372 L 79.32271778777313,727.649529505925 L 79.34721502013198,727.4748681831975 L 79.36210964475784,727.2972957940057 L 79.36713399999995,727.1170800000002 L 79.367134,719.49208 L 79.35619874230186,719.185892784452 L 79.32495514887859,718.922665509861 L 79.27574648923694,718.7000549067202 L 79.21091603288367,718.515717705523 L 79.1328070493255,718.3673106367625 L 79.0437628080692,718.252490430932 L 78.9461265786215,718.1689138185247 L 78.84224163048914,718.114237530034 L 78.73445123317889,718.086118295953 L 78.62509865619745,718.0822128467752 L 78.51652716905161,718.1001779129936 L 78.41108004124808,718.1376702251014 L 78.31110054229364,718.1923465135922 L 78.218931941695,718.2618635089589 L 78.13691750895894,718.3438779416949 L 78.06740051359218,718.4360465422935 L 78.01272422510146,718.536026041248 L 77.97523191299354,718.6414731690514 L 77.95726684677516,718.7500446561972 L 77.96117229595306,718.8593972331787 L 77.98929153003401,718.9671876304889 L 78.04396781852472,719.0710725786213 L 78.12754443093195,719.1687088080689 L 78.24236463676245,719.2577530493252 L 78.39077170552295,719.3358620328834 L 78.5751089067202,719.4006924892366 L 78.79771950986095,719.4499011488782 L 79.06094678445196,719.4811447423015 L 79.36713399999995,719.4920799999995 L 81.34497977500003,719.4920799999995 L 94.044979775,719.4920799999999 L 100.01714,719.49208 L 100.32332721554799,719.4811447423018 L 100.586554490139,719.4499011488786 L 100.80916509327976,719.4006924892369 L 100.99350229447701,719.3358620328837 L 101.14190936323752,719.2577530493255 L 101.25672956906801,719.1687088080693 L 101.34030618147526,719.0710725786215 L 101.39498246996597,718.9671876304892 L 101.4231017040469,718.8593972331789 L 101.42700715322482,718.7500446561975 L 101.40904208700644,718.6414731690517 L 101.37154977489853,718.5360260412482 L 101.31687348640781,718.4360465422938 L 101.24735649104105,718.343877941695 L 101.16534205830497,718.261863508959 L 101.07317345770635,718.1923465135923 L 100.9731939587519,718.1376702251016 L 100.86774683094839,718.1001779129937 L 100.75917534380254,718.0822128467753 L 100.64982276682112,718.0861182959532 L 100.54203236951086,718.1142375300342 L 100.4381474213785,718.1689138185249 L 100.3405111919308,718.2524904309321 L 100.2514669506745,718.3673106367627 L 100.17335796711635,718.5157177055231 L 100.10852751076307,718.7000549067204 L 100.05931885112143,718.9226655098612 L 100.02807525769816,719.1858927844522 L 100.01714000000003,719.4920800000002 L 100.01714,727.11708 L 100.02216435524211,727.2972957940054 L 100.03705897986796,727.4748681831974 L 100.06155621222682,727.6495295059248 L 100.09538839066792,727.8210121005371 L 100.13828785354053,727.9890483053836 L 100.1899869391939,728.1533704588134 L 100.25021798597729,728.3137108991758 L 100.31871333223994,728.4698019648201 L 100.39520531633113,728.6213759940956 L 100.47942627660011,728.7681653253516 L 100.57110855139612,728.909902296937 L 100.66998447906843,729.0463192472015 L 100.7757863979663,729.1771485144941 L 100.88824664643897,729.3021224371641 L 101.00709756283571,729.4209733535608 L 101.13207148550576,729.5334336020335 L 101.2629007527984,729.6392355209314 L 101.39931770306286,729.7381114486037 L 101.54105467464841,729.8297937233997 L 101.68784400590431,729.9140146836686 L 101.8394180351798,729.9905066677597 L 101.99550910082415,730.0590020140224 L 102.15584954118661,730.1192330608058 L 102.32017169461643,730.1709321464591 L 102.48820789946288,730.2138316093317 L 102.6596904940752,730.2476637877728 L 102.83435181680267,730.2721610201315 L 103.01192420599452,730.2870556447574 L 103.19214000000001,730.2920799999995 L 130.19214,730.2920799999999 L 130.3723557940055,730.2870556447579 L 130.54992818319732,730.272161020132 L 130.7245895059248,730.2476637877731 L 130.8960721005371,730.213831609332 L 131.06410830538357,730.1709321464594 L 131.2284304588134,730.1192330608061 L 131.38877089917585,730.0590020140227 L 131.5448619648202,729.99050666776 L 131.6964359940957,729.9140146836688 L 131.8432253253516,729.8297937233998 L 131.98496229693714,729.7381114486038 L 132.12137924720162,729.6392355209315 L 132.25220851449427,729.5334336020337 L 132.37718243716432,729.4209733535611 L 132.49603335356105,729.3021224371643 L 132.60849360203375,729.1771485144942 L 132.7142955209316,729.0463192472016 L 132.81317144860392,728.9099022969372 L 132.90485372339995,728.7681653253517 L 132.98907468366892,728.6213759940957 L 133.06556666776012,728.4698019648202 L 133.1340620140228,728.3137108991759 L 133.1942930608062,728.1533704588135 L 133.24599214645954,727.9890483053837 L 133.28889160933215,727.8210121005372 L 133.32272378777327,727.649529505925 L 133.34722102013214,727.4748681831975 L 133.362115644758,727.2972957940057 L 133.36714000000012,727.1170800000002 L 133.36714,719.49208 L 133.35620474230186,719.185892784452 L 133.3249611488786,718.922665509861 L 133.27575248923696,718.7000549067202 L 133.21092203288367,718.515717705523 L 133.13281304932553,718.3673106367625 L 133.04376880806922,718.252490430932 L 132.94613257862153,718.1689138185247 L 132.84224763048917,718.114237530034 L 132.73445723317892,718.086118295953 L 132.62510465619746,718.0822128467752 L 132.51653316905163,718.1001779129936 L 132.41108604124813,718.1376702251014 L 132.31110654229366,718.1923465135922 L 132.21893794169503,718.2618635089589 L 132.13692350895897,718.3438779416949 L 132.0674065135922,718.4360465422935 L 132.0127302251015,718.536026041248 L 131.97523791299358,718.6414731690514 L 131.9572728467752,718.7500446561972 L 131.96117829595312,718.8593972331787 L 131.98929753003407,718.9671876304889 L 132.0439738185248,719.0710725786213 L 132.12755043093202,719.1687088080689 L 132.24237063676253,719.2577530493252 L 132.39077770552302,719.3358620328834 L 132.5751149067203,719.4006924892366 L 132.79772550986107,719.4499011488782 L 133.06095278445207,719.4811447423015 L 133.36714000000006,719.4920799999995 L 154.01714,719.49208 L 154.323327215548,719.4811447423018 L 154.586554490139,719.4499011488786 L 154.80916509327977,719.4006924892369 L 154.99350229447703,719.3358620328837 L 155.14190936323754,719.2577530493255 L 155.25672956906803,719.1687088080693 L 155.34030618147526,719.0710725786215 L 155.39498246996598,718.9671876304892 L 155.4231017040469,718.8593972331789 L 155.42700715322482,718.7500446561975 L 155.40904208700644,718.6414731690517 L 155.3715497748985,718.5360260412482 L 155.3168734864078,718.4360465422938 L 155.24735649104105,718.343877941695 L 155.16534205830496,718.261863508959 L 155.07317345770633,718.1923465135923 L 154.97319395875186,718.1376702251016 L 154.86774683094836,718.1001779129937 L 154.7591753438025,718.0822128467753 L 154.64982276682107,718.0861182959532 L 154.5420323695108,718.1142375300342 L 154.43814742137843,718.1689138185249 L 154.34051119193072,718.2524904309321 L 154.25146695067443,718.3673106367627 L 154.17335796711626,718.5157177055231 L 154.10852751076297,718.7000549067204 L 154.05931885112133,718.9226655098612 L 154.02807525769805,719.1858927844522 L 154.0171399999999,719.4920800000002 L 154.01714,727.11708 L 154.02216435524213,727.2972957940054 L 154.037058979868,727.4748681831974 L 154.06155621222683,727.6495295059248 L 154.09538839066795,727.8210121005371 L 154.13828785354053,727.9890483053836 L 154.18998693919391,728.1533704588134 L 154.2502179859773,728.3137108991758 L 154.31871333223995,728.4698019648201 L 154.39520531633116,728.6213759940956 L 154.47942627660012,728.7681653253516 L 154.57110855139615,728.909902296937 L 154.66998447906846,729.0463192472015 L 154.77578639796633,729.1771485144941 L 154.888246646439,729.3021224371641 L 155.00709756283572,729.4209733535608 L 155.13207148550578,729.5334336020335 L 155.26290075279843,729.6392355209314 L 155.39931770306288,729.7381114486037 L 155.54105467464845,729.8297937233997 L 155.68784400590434,729.9140146836686 L 155.83941803517985,729.9905066677597 L 155.9955091008242,730.0590020140224 L 156.15584954118665,730.1192330608058 L 156.32017169461648,730.1709321464591 L 156.48820789946294,730.2138316093317 L 156.65969049407525,730.2476637877728 L 156.83435181680272,730.2721610201315 L 157.01192420599457,730.2870556447574 L 157.19214000000008,730.2920799999995 L 184.19214000000002,730.2920799999999 L 184.37235579400553,730.2870556447579 L 184.54992818319735,730.272161020132 L 184.72458950592483,730.2476637877731 L 184.89607210053714,730.213831609332 L 185.0641083053836,730.1709321464594 L 185.22843045881342,730.1192330608061 L 185.38877089917588,730.0590020140227 L 185.54486196482023,729.99050666776 L 185.69643599409574,729.9140146836688 L 185.84322532535163,729.8297937233998 L 185.98496229693717,729.7381114486038 L 186.12137924720165,729.6392355209315 L 186.2522085144943,729.5334336020337 L 186.37718243716435,729.4209733535611 L 186.49603335356107,729.3021224371643 L 186.60849360203378,729.1771485144942 L 186.71429552093164,729.0463192472016 L 186.81317144860395,728.9099022969372 L 186.90485372339998,728.7681653253517 L 186.98907468366895,728.6213759940957 L 187.06556666776015,728.4698019648202 L 187.13406201402282,728.3137108991759 L 187.19429306080622,728.1533704588135 L 187.24599214645957,727.9890483053837 L 187.28889160933218,727.8210121005372 L 187.3227237877733,727.649529505925 L 187.34722102013217,727.4748681831975 L 187.36211564475803,727.2972957940057 L 187.36714000000015,727.1170800000002 L 187.36714000000003,719.49208 L 187.35620474230188,719.185892784452 L 187.32496114887863,718.922665509861 L 187.275752489237,718.7000549067202 L 187.2109220328837,718.515717705523 L 187.13281304932556,718.3673106367625 L 187.04376880806925,718.252490430932 L 186.94613257862156,718.1689138185247 L 186.8422476304892,718.114237530034 L 186.73445723317894,718.086118295953 L 186.62510465619752,718.0822128467752 L 186.51653316905168,718.1001779129936 L 186.41108604124815,718.1376702251014 L 186.31110654229371,718.1923465135922 L 186.2189379416951,718.2618635089589 L 186.13692350895903,718.3438779416949 L 186.0674065135923,718.4360465422935 L 186.01273022510156,718.536026041248 L 185.97523791299366,718.6414731690514 L 185.95727284677528,718.7500446561972 L 185.9611782959532,718.8593972331787 L 185.98929753003415,718.9671876304889 L 186.04397381852488,719.0710725786213 L 186.1275504309321,719.1687088080689 L 186.24237063676262,719.2577530493252 L 186.39077770552313,719.3358620328834 L 186.57511490672042,719.4006924892366 L 186.79772550986118,719.4499011488782 L 187.0609527844522,719.4811447423015 L 187.3671400000002,719.4920799999995 L 208.01714000000004,719.49208 L 208.32332721554803,719.4811447423018 L 208.58655449013904,719.4499011488786 L 208.8091650932798,719.4006924892369 L 208.99350229447705,719.3358620328837 L 209.14190936323757,719.2577530493255 L 209.25672956906809,719.1687088080693 L 209.3403061814753,719.0710725786215 L 209.394982469966,718.9671876304892 L 209.42310170404696,718.8593972331789 L 209.42700715322488,718.7500446561975 L 209.4090420870065,718.6414731690517 L 209.3715497748986,718.5360260412482 L 209.31687348640787,718.4360465422938 L 209.2473564910411,718.343877941695 L 209.16534205830504,718.261863508959 L 209.07317345770642,718.1923465135923 L 208.97319395875198,718.1376702251016 L 208.86774683094848,718.1001779129937 L 208.75917534380264,718.0822128467753 L 208.64982276682122,718.0861182959532 L 208.54203236951093,718.1142375300342 L 208.4381474213786,718.1689138185249 L 208.34051119193091,718.2524904309321 L 208.2514669506746,718.3673106367627 L 208.17335796711646,718.5157177055231 L 208.10852751076317,718.7000549067204 L 208.05931885112156,718.9226655098612 L 208.02807525769828,719.1858927844522 L 208.01714000000015,719.4920800000002 L 208.01714000000004,727.11708 L 208.02216435524215,727.2972957940054 L 208.03705897986802,727.4748681831974 L 208.06155621222686,727.6495295059248 L 208.09538839066795,727.8210121005371 L 208.13828785354056,727.9890483053836 L 208.18998693919394,728.1533704588134 L 208.25021798597732,728.3137108991758 L 208.31871333223998,728.4698019648201 L 208.39520531633116,728.6213759940956 L 208.47942627660015,728.7681653253516 L 208.57110855139615,728.909902296937 L 208.66998447906846,729.0463192472015 L 208.77578639796633,729.1771485144941 L 208.888246646439,729.3021224371641 L 209.00709756283572,729.4209733535608 L 209.13207148550578,729.5334336020335 L 209.2629007527984,729.6392355209314 L 209.39931770306288,729.7381114486037 L 209.54105467464842,729.8297937233997 L 209.6878440059043,729.9140146836686 L 209.83941803517982,729.9905066677597 L 209.99550910082417,730.0590020140224 L 210.1558495411866,730.1192330608058 L 210.32017169461642,730.1709321464591 L 210.48820789946288,730.2138316093317 L 210.6596904940752,730.2476637877728 L 210.83435181680267,730.2721610201315 L 211.0119242059945,730.2870556447574 L 211.19214,730.2920799999995 L 238.19214000000005,730.2920799999999 L 238.37235579400556,730.2870556447579 L 238.54992818319738,730.272161020132 L 238.72458950592485,730.2476637877731 L 238.89607210053717,730.213831609332 L 239.06410830538363,730.1709321464594 L 239.22843045881345,730.1192330608061 L 239.3887708991759,730.0590020140227 L 239.54486196482026,729.99050666776 L 239.69643599409574,729.9140146836688 L 239.84322532535163,729.8297937233998 L 239.98496229693717,729.7381114486038 L 240.12137924720165,729.6392355209315 L 240.25220851449427,729.5334336020337 L 240.37718243716432,729.4209733535611 L 240.49603335356105,729.3021224371643 L 240.60849360203372,729.1771485144942 L 240.71429552093159,729.0463192472016 L 240.8131714486039,728.9099022969372 L 240.9048537233999,728.7681653253517 L 240.98907468366886,728.6213759940957 L 241.06556666776007,728.4698019648202 L 241.1340620140227,728.3137108991759 L 241.1942930608061,728.1533704588135 L 241.24599214645946,727.9890483053837 L 241.28889160933204,727.8210121005372 L 241.32272378777316,727.649529505925 L 241.347221020132,727.4748681831975 L 241.36211564475784,727.2972957940057 L 241.36713999999995,727.1170800000002 L 241.36714000000006,719.49208 L 241.3562047423019,719.185892784452 L 241.32496114887866,718.922665509861 L 241.27575248923702,718.7000549067202 L 241.21092203288373,718.515717705523 L 241.13281304932556,718.3673106367625 L 241.04376880806927,718.252490430932 L 240.94613257862156,718.1689138185247 L 240.84224763048923,718.114237530034 L 240.73445723317894,718.086118295953 L 240.62510465619752,718.0822128467752 L 240.51653316905168,718.1001779129936 L 240.41108604124815,718.1376702251014 L 240.31110654229371,718.1923465135922 L 240.21893794169506,718.2618635089589 L 240.136923508959,718.3438779416949 L 240.06740651359223,718.4360465422935 L 240.0127302251015,718.536026041248 L 239.9752379129936,718.6414731690514 L 239.95727284677523,718.7500446561972 L 239.96117829595312,718.8593972331787 L 239.98929753003407,718.9671876304889 L 240.04397381852476,719.0710725786213 L 240.127550430932,719.1687088080689 L 240.2423706367625,719.2577530493252 L 240.390777705523,719.3358620328834 L 240.57511490672024,719.4006924892366 L 240.797725509861,719.4499011488782 L 241.060952784452,719.4811447423015 L 241.36714,719.4920799999995 L 262.01714000000004,719.49208 L 262.32332721554803,719.4811447423018 L 262.58655449013906,719.4499011488786 L 262.8091650932798,719.4006924892369 L 262.9935022944771,719.3358620328837 L 263.1419093632376,719.2577530493255 L 263.25672956906806,719.1687088080693 L 263.3403061814753,719.0710725786215 L 263.394982469966,718.9671876304892 L 263.423101704047,718.8593972331789 L 263.42700715322485,718.7500446561975 L 263.4090420870065,718.6414731690517 L 263.3715497748986,718.5360260412482 L 263.31687348640787,718.4360465422938 L 263.2473564910411,718.343877941695 L 263.16534205830504,718.261863508959 L 263.07317345770645,718.1923465135923 L 262.973193958752,718.1376702251016 L 262.8677468309485,718.1001779129937 L 262.7591753438026,718.0822128467753 L 262.6498227668212,718.0861182959532 L 262.54203236951093,718.1142375300342 L 262.4381474213786,718.1689138185249 L 262.3405111919309,718.2524904309321 L 262.2514669506746,718.3673106367627 L 262.17335796711643,718.5157177055231 L 262.10852751076317,718.7000549067204 L 262.05931885112153,718.9226655098612 L 262.0280752576983,719.1858927844522 L 262.01714000000015,719.4920800000002 L 262.01714000000004,727.11708 L 262.0221643552422,727.2972957940054 L 262.037058979868,727.4748681831974 L 262.0615562122269,727.6495295059248 L 262.09538839066795,727.8210121005371 L 262.1382878535406,727.9890483053836 L 262.18998693919394,728.1533704588134 L 262.2502179859773,728.3137108991758 L 262.31871333224,728.4698019648201 L 262.3952053163312,728.6213759940956 L 262.4794262766002,728.7681653253516 L 262.5711085513962,728.909902296937 L 262.6699844790685,729.0463192472015 L 262.7757863979664,729.1771485144941 L 262.88824664643903,729.3021224371641 L 263.0070975628358,729.4209733535608 L 263.13207148550583,729.5334336020335 L 263.2629007527985,729.6392355209314 L 263.39931770306293,729.7381114486037 L 263.54105467464854,729.8297937233997 L 263.6878440059044,729.9140146836686 L 263.8394180351799,729.9905066677597 L 263.9955091008243,730.0590020140224 L 264.15584954118674,730.1192330608058 L 264.3201716946166,730.1709321464591 L 264.488207899463,730.2138316093317 L 264.6596904940754,730.2476637877728 L 264.83435181680284,730.2721610201315 L 265.0119242059947,730.2870556447574 L 265.1921400000002,730.2920799999995 L 270.38493992499997,730.2920799999996 L 283.084939925,730.2920799999998 L 292.19214000000005,730.2920799999999 L 292.37235579400556,730.2870556447579 L 292.5499281831974,730.272161020132 L 292.7245895059249,730.2476637877731 L 292.8960721005372,730.213831609332 L 293.0641083053836,730.1709321464594 L 293.2284304588135,730.1192330608061 L 293.38877089917594,730.0590020140227 L 293.54486196482026,729.99050666776 L 293.6964359940958,729.9140146836688 L 293.8432253253517,729.8297937233998 L 293.9849622969372,729.7381114486038 L 294.1213792472017,729.6392355209315 L 294.2522085144943,729.5334336020337 L 294.3771824371644,729.4209733535611 L 294.49603335356113,729.3021224371643 L 294.6084936020338,729.1771485144942 L 294.71429552093167,729.0463192472016 L 294.81317144860395,728.9099022969372 L 294.9048537234,728.7681653253517 L 294.98907468366895,728.6213759940957 L 295.06556666776015,728.4698019648202 L 295.1340620140228,728.3137108991759 L 295.1942930608062,728.1533704588135 L 295.24599214645957,727.9890483053837 L 295.28889160933215,727.8210121005372 L 295.32272378777327,727.649529505925 L 295.34722102013217,727.4748681831975 L 295.362115644758,727.2972957940057 L 295.3671400000001,727.1170800000002 L 295.36714000000006,719.49208 L 295.35620474230194,719.185892784452 L 295.32496114887863,718.922665509861 L 295.275752489237,718.7000549067202 L 295.21092203288373,718.515717705523 L 295.1328130493256,718.3673106367625 L 295.0437688080693,718.252490430932 L 294.9461325786216,718.1689138185247 L 294.8422476304892,718.114237530034 L 294.73445723317894,718.086118295953 L 294.62510465619755,718.0822128467752 L 294.5165331690517,718.1001779129936 L 294.4110860412482,718.1376702251014 L 294.31110654229377,718.1923465135922 L 294.2189379416951,718.2618635089589 L 294.13692350895906,718.3438779416949 L 294.0674065135923,718.4360465422935 L 294.0127302251016,718.536026041248 L 293.9752379129937,718.6414731690514 L 293.9572728467753,718.7500446561972 L 293.96117829595323,718.8593972331787 L 293.9892975300342,718.9671876304889 L 294.0439738185249,719.0710725786213 L 294.12755043093216,719.1687088080689 L 294.24237063676264,719.2577530493252 L 294.3907777055232,719.3358620328834 L 294.57511490672044,719.4006924892366 L 294.7977255098612,719.4499011488782 L 295.06095278445224,719.4811447423015 L 295.36714000000023,719.4920799999995 L 325.89214000000004,719.49208 L 326.1043989286154,719.4917148677682 L 326.37555145270414,719.4906498815039 L 326.70150600721644,719.4889306568534 L 327.0781710271024,719.4866028094633 L 327.50145494731237,719.4837119549796 L 327.9672662027964,719.480303709049 L 328.4715132285047,719.476423687318 L 329.0101044593875,719.4721175054327 L 329.5789483303949,719.4674307790397 L 330.17395327647716,719.4624091237852 L 330.79102773258444,719.4570981553157 L 331.42608013366686,719.4515434892778 L 332.07501891467473,719.4457907413176 L 332.7337525105581,719.4398855270816 L 333.3981893562672,719.4338734622163 L 334.06423788675227,719.427800162368 L 334.72780653696344,719.421711243183 L 335.38480374185093,719.415652320308 L 336.0311379363648,719.4096690093891 L 336.6627175554554,719.4038069260728 L 337.27545103407283,719.3981116860056 L 337.86524680716724,719.3926289048336 L 338.4280133096889,719.3874041982035 L 338.9596589765879,719.3824831817617 L 339.45609224281446,719.3779114711543 L 339.9132215433188,719.373734682028 L 340.3269553130511,719.3699984300292 L 340.69320198696147,719.3667483308041 L 341.00787000000014,719.3640299999992 L 341.05774752721885,658.9721060375509 L 341.06822084788223,646.2909644411981 L 341.18602116691613,503.6578327173778 L 341.1965048970826,490.96408724998525 L 341.25492,420.23482999999993 L 340.9045386715323,420.23157799171753 L 340.5058276837919,420.22670577678457 L 340.06273342982496,420.2203390700725 L 339.57920230267746,420.2126035864529 L 339.05918069539547,420.203625040797 L 338.50661500102507,420.1935291479765 L 337.9254516126122,420.1824416228627 L 337.31963692320306,420.17048818032714 L 336.6931173258436,420.15779453524124 L 336.0498392135799,420.1444864024765 L 335.39374897945794,420.1306894969043 L 334.7287930165238,420.11652953339615 L 334.0589177178236,420.1021322268235 L 333.38806947640325,420.08762329205786 L 332.7201946853089,420.07312844397063 L 332.05923973758655,420.05877339743324 L 331.4091510262823,420.04468386731725 L 330.77387494444207,420.030985568494 L 330.15735788511205,420.017804215835 L 329.5635462413382,420.0052655242117 L 328.9963864061666,419.99349520849563 L 328.4598247726433,419.98261898355815 L 327.9578077338143,419.9727625642708 L 327.49428168272567,419.96405166550494 L 327.0731930124235,419.95661200213215 L 326.69848811595375,419.95056928902375 L 326.3741133863625,419.9460492410513 L 326.10401521669587,419.94317757308625 L 325.8921399999998,419.94208000000003 L 263.0735033705142,419.8837264145773 L 250.39579793253094,419.871949820768 L 94.04125700530648,419.72670871797175 L 81.34812329366956,419.7149177925065 L 12.464166,419.65093 L 12.269059102484727,419.6514232994383 L 12.047901922850466,419.6532330661364 L 11.802595213223174,419.6562334130141 L 11.535039725728813,419.6602984529911 L 11.247136212493338,419.6653022989873 L 10.940785425642709,419.6711190639223 L 10.617888117302883,419.6776228607159 L 10.280345039599819,419.68468780228795 L 9.930056944659476,419.69218800155807 L 9.568924584607815,419.69999757144615 L 9.19884871157079,419.70799062487185 L 8.821730077674362,419.716041274755 L 8.439469435044487,419.72402363401534 L 8.053967535807125,419.7318118155726 L 7.667125132088236,419.73927993234656 L 7.280842976013777,419.746302097257 L 6.897021819709704,419.7527524232236 L 6.517562415301979,419.7585050231662 L 6.144365514916561,419.7634340100045 L 5.779331870679403,419.7674134966583 L 5.42436223471647,419.7703175960474 L 5.081357359153716,419.7720204210915 L 4.7522179961171,419.77239608471035 L 4.438844897732583,419.7713186998237 L 4.14313881612612,419.7686623793514 L 3.8670005034236716,419.76430123621304 L 3.6123307117511967,419.7581093833286 L 3.3810301932346523,419.7499609336176 L 3.174999699999997,419.73973 L 3.2337722492834513,490.9704669583856 L 3.244236192124399,503.65248210216237 L 3.3619222099607677,646.2847463545194 L 3.3723965422404065,658.9793532164289 L 3.4220493000000007,719.15715 L 3.6332975813522497,719.1515977182337 L 3.8656224045635335,719.1468561216122 L 4.1174799383656575,719.1428911866005 L 4.387326351490427,719.1396688896634 L 4.673617812669647,719.1371552072656 L 4.974810490635123,719.1353161158719 L 5.289360554118661,719.1341175919472 L 5.615724171852065,719.1335256119562 L 5.952357512567141,719.1335061523638 L 6.297716744995695,719.1340251896347 L 6.650258037869531,719.1350487002337 L 7.008437559920456,719.1365426606258 L 7.370711479880274,719.1384730472755 L 7.735535966480791,719.1408058366477 L 8.10136718845381,719.1435070052073 L 8.466661314531141,719.1465425294191 L 8.829874513444585,719.1498783857478 L 9.189462953925949,719.1534805506582 L 9.543882804707039,719.1573150006151 L 9.89159023451966,719.1613477120834 L 10.231041412095616,719.1655446615279 L 10.560692506166713,719.1698718254132 L 10.878999685464757,719.1742951802044 L 11.184419118721552,719.1787807023659 L 11.475406974668907,719.1832943683629 L 11.750419422038622,719.1878021546601 L 12.007912629562504,719.1922700377221 L 12.246342765972361,719.1966639940139 L 12.464165999999997,719.2009500000001" fill="none" stroke="rgb(0,0,0)" stroke-width="0.5"/>
	<path d="M 0.1164603,412.16637 L 1.1990427249999929,412.16637 L 13.899042724999992,412.16637 L 156.06420757500004,412.16637 L 168.76420757500003,412.16637 L 349.84679,412.16637" fill="none" stroke="rgb(0,0,0)" stroke-width="0.5"/>
	<path d="M 280.21509,210.59259 L 275.8300894433802,210.59259000000006 L 275.68859198540144,210.59259000000006 L 269.89009000000016,210.59259000000011 L 269.58390278445216,210.58165474230196 L 269.32067550986113,210.55041114887868 L 269.09806490672037,210.50120248923704 L 268.9137277055231,210.43637203288375 L 268.76532063676257,210.3582630493256 L 268.6505004309321,210.2692188080693 L 268.5669238185248,210.17158257862158 L 268.51224753003413,210.06769763048922 L 268.48412829595316,209.95990723317894 L 268.48022284677523,209.85055465619752 L 268.4981879129936,209.74198316905165 L 268.53568022510154,209.63653604124815 L 268.5903565135922,209.53655654229368 L 268.659873508959,209.44438794169506 L 268.74188794169504,209.36237350895897 L 268.8340565422937,209.29285651359223 L 268.93403604124813,209.2381802251015 L 269.0394831690516,209.20068791299357 L 269.1480546561975,209.1827228467752 L 269.25740723317887,209.1866282959531 L 269.36519763048915,209.21474753003403 L 269.4690825786215,209.26942381852476 L 269.5667188080692,209.35300043093198 L 269.6557630493255,209.46782063676247 L 269.73387203288365,209.616227705523 L 269.7987024892369,209.80056490672024 L 269.84791114887855,210.023175509861 L 269.87915474230186,210.286402784452 L 269.89009,210.59259 L 269.8900899999999,215.04259000000005 L 269.87915474230175,215.34877721554804 L 269.8479111488785,215.61200449013904 L 269.79870248923686,215.8346150932798 L 269.7338720328836,216.01895229447706 L 269.6557630493254,216.16735936323755 L 269.56671880806914,216.28217956906806 L 269.46908257862145,216.3657561814753 L 269.3651976304891,216.420432469966 L 269.2574072331788,216.44855170404693 L 269.1480546561974,216.45245715322483 L 269.03948316905155,216.43449208700645 L 268.934036041248,216.39699977489855 L 268.8340565422936,216.34232348640782 L 268.741887941695,216.27280649104105 L 268.6598735089589,216.190792058305 L 268.59035651359216,216.09862345770634 L 268.53568022510143,215.9986439587519 L 268.4981879129935,215.89319683094837 L 268.4802228467752,215.78462534380253 L 268.48412829595304,215.6752727668211 L 268.512247530034,215.56748236951083 L 268.56692381852474,215.4635974213785 L 268.65050043093197,215.36596119193078 L 268.76532063676245,215.2769169506745 L 268.91372770552294,215.19880796711632 L 269.09806490672025,215.13397751076303 L 269.32067550986096,215.0847688511214 L 269.583902784452,215.05352525769814 L 269.89009,215.04259 L 273.8650899999999,215.04258999999996 L 286.56508999999994,215.0425899999999 L 275.8300894433802,215.04258999999996 L 284.60009055661953,215.0425899999999 L 285.6885919854015,215.0425899999999 L 290.5400899999998,215.04258999999988 L 290.8462772155478,215.05352525769803 L 291.1095044901388,215.0847688511213 L 291.3321150932796,215.13397751076295 L 291.51645229447684,215.19880796711624 L 291.6648593632374,215.2769169506744 L 291.77967956906787,215.3659611919307 L 291.86325618147515,215.4635974213784 L 291.9179324699658,215.56748236951077 L 291.9460517040468,215.67527276682105 L 291.9499571532247,215.78462534380247 L 291.93199208700634,215.89319683094834 L 291.8944997748984,215.99864395875184 L 291.83982348640774,216.0986234577063 L 291.77030649104097,216.19079205830494 L 291.6882920583049,216.27280649104102 L 291.59612345770626,216.34232348640776 L 291.4961439587518,216.3969997748985 L 291.39069683094834,216.43449208700642 L 291.2821253438025,216.4524571532248 L 291.1727727668211,216.44855170404688 L 291.0649823695108,216.42043246996596 L 290.96109742137844,216.36575618147523 L 290.86346119193075,216.282179569068 L 290.77441695067444,216.16735936323752 L 290.6963079671163,216.018952294477 L 290.63147751076303,215.83461509327975 L 290.5822688511214,215.612004490139 L 290.5510252576981,215.34877721554798 L 290.54008999999996,215.04259 L 290.54008999999985,210.59258999999994 L 290.551025257698,210.28640278445195 L 290.5822688511213,210.02317550986095 L 290.6314775107629,209.80056490672018 L 290.6963079671162,209.61622770552293 L 290.7744169506744,209.46782063676244 L 290.8634611919307,209.35300043093193 L 290.9610974213784,209.2694238185247 L 291.06498236951074,209.214747530034 L 291.172772766821,209.18662829595306 L 291.2821253438025,209.18272284677516 L 291.3906968309483,209.20068791299354 L 291.4961439587518,209.23818022510144 L 291.59612345770626,209.29285651359217 L 291.6882920583049,209.36237350895894 L 291.77030649104097,209.444387941695 L 291.83982348640774,209.53655654229365 L 291.89449977489846,209.6365360412481 L 291.9319920870064,209.74198316905162 L 291.9499571532248,209.85055465619746 L 291.94605170404685,209.95990723317888 L 291.91793246996593,210.06769763048916 L 291.8632561814752,210.1715825786215 L 291.779679569068,210.2692188080692 L 291.6648593632375,210.3582630493255 L 291.516452294477,210.43637203288367 L 291.3321150932797,210.50120248923696 L 291.109504490139,210.5504111488786 L 290.84627721554796,210.58165474230185 L 290.54008999999996,210.59259 L 284.74158801459834,210.59259 L 284.6000905566196,210.59259 L 283.8650899999999,210.59259 L 280.21509,210.59259" fill="none" stroke="rgb(0,0,0)" stroke-width="0.5"/>
	<path d="M 226.21509,210.59259 L 222.56508999999997,210.59259000000003 L 221.8300894433802,210.59259000000006 L 221.6885919854015,210.59259000000006 L 215.89008999999993,210.59259000000011 L 215.58390278445194,210.58165474230196 L 215.32067550986093,210.55041114887868 L 215.09806490672017,210.50120248923704 L 214.91372770552292,210.43637203288375 L 214.76532063676243,210.3582630493256 L 214.6505004309319,210.2692188080693 L 214.56692381852469,210.17158257862158 L 214.512247530034,210.06769763048922 L 214.48412829595304,209.95990723317894 L 214.48022284677515,209.85055465619752 L 214.49818791299353,209.74198316905165 L 214.53568022510143,209.63653604124815 L 214.59035651359216,209.53655654229368 L 214.65987350895892,209.44438794169506 L 214.74188794169498,209.36237350895897 L 214.83405654229364,209.29285651359223 L 214.93403604124808,209.2381802251015 L 215.0394831690516,209.20068791299357 L 215.14805465619744,209.1827228467752 L 215.25740723317887,209.1866282959531 L 215.36519763048915,209.21474753003403 L 215.46908257862148,209.26942381852476 L 215.5667188080692,209.35300043093198 L 215.6557630493255,209.46782063676247 L 215.73387203288365,209.616227705523 L 215.79870248923694,209.80056490672024 L 215.84791114887858,210.023175509861 L 215.87915474230184,210.286402784452 L 215.89009,210.59259 L 215.89008999999987,215.04259000000005 L 215.87915474230175,215.34877721554804 L 215.84791114887847,215.61200449013904 L 215.79870248923686,215.8346150932798 L 215.73387203288357,216.01895229447706 L 215.65576304932543,216.16735936323755 L 215.5667188080691,216.28217956906806 L 215.46908257862142,216.3657561814753 L 215.3651976304891,216.420432469966 L 215.2574072331788,216.44855170404693 L 215.1480546561974,216.45245715322483 L 215.03948316905155,216.43449208700645 L 214.93403604124805,216.39699977489855 L 214.8340565422936,216.34232348640782 L 214.74188794169498,216.27280649104105 L 214.65987350895892,216.190792058305 L 214.59035651359216,216.09862345770634 L 214.53568022510143,215.9986439587519 L 214.49818791299353,215.89319683094837 L 214.48022284677515,215.78462534380253 L 214.48412829595307,215.6752727668211 L 214.51224753003402,215.56748236951083 L 214.5669238185247,215.4635974213785 L 214.65050043093194,215.36596119193078 L 214.76532063676245,215.2769169506745 L 214.91372770552297,215.19880796711632 L 215.09806490672023,215.13397751076303 L 215.320675509861,215.0847688511214 L 215.583902784452,215.05352525769814 L 215.89009,215.04259 L 219.86508999999998,215.04258999999996 L 232.56508999999997,215.0425899999999 L 220.74158801459842,215.04258999999996 L 221.83008944338016,215.04258999999996 L 230.6000905566198,215.0425899999999 L 236.54008999999982,215.04258999999988 L 236.84627721554781,215.05352525769803 L 237.10950449013885,215.0847688511213 L 237.3321150932796,215.13397751076295 L 237.5164522944769,215.19880796711624 L 237.6648593632374,215.2769169506744 L 237.77967956906792,215.3659611919307 L 237.86325618147515,215.4635974213784 L 237.91793246996588,215.56748236951077 L 237.94605170404682,215.67527276682105 L 237.94995715322474,215.78462534380247 L 237.93199208700636,215.89319683094834 L 237.89449977489846,215.99864395875184 L 237.83982348640774,216.0986234577063 L 237.770306491041,216.19079205830494 L 237.68829205830494,216.27280649104102 L 237.5961234577063,216.34232348640776 L 237.49614395875187,216.3969997748985 L 237.39069683094834,216.43449208700642 L 237.2821253438025,216.4524571532248 L 237.17277276682108,216.44855170404688 L 237.06498236951083,216.42043246996596 L 236.96109742137847,216.36575618147523 L 236.86346119193078,216.282179569068 L 236.77441695067446,216.16735936323752 L 236.69630796711633,216.018952294477 L 236.63147751076303,215.83461509327975 L 236.5822688511214,215.612004490139 L 236.55102525769814,215.34877721554798 L 236.54009,215.04259 L 236.5400900000001,210.59258999999994 L 236.55102525769823,210.28640278445195 L 236.5822688511215,210.02317550986095 L 236.63147751076312,209.80056490672018 L 236.6963079671164,209.61622770552293 L 236.77441695067455,209.46782063676244 L 236.86346119193087,209.35300043093193 L 236.96109742137855,209.2694238185247 L 237.0649823695109,209.214747530034 L 237.17277276682117,209.18662829595306 L 237.2821253438026,209.18272284677516 L 237.39069683094843,209.20068791299354 L 237.49614395875193,209.23818022510144 L 237.59612345770637,209.29285651359217 L 237.688292058305,209.36237350895894 L 237.77030649104105,209.444387941695 L 237.83982348640782,209.53655654229365 L 237.89449977489855,209.6365360412481 L 237.93199208700645,209.74198316905162 L 237.94995715322483,209.85055465619746 L 237.9460517040469,209.95990723317888 L 237.91793246996596,210.06769763048916 L 237.86325618147526,210.1715825786215 L 237.77967956906804,210.2692188080692 L 237.66485936323753,210.3582630493255 L 237.516452294477,210.43637203288367 L 237.33211509327975,210.50120248923696 L 237.109504490139,210.5504111488786 L 236.84627721554799,210.58165474230185 L 236.54009,210.59259 L 230.7415880145984,210.59259 L 230.60009055661982,210.59259 L 226.21509,210.59259" fill="none" stroke="rgb(0,0,0)" stroke-width="0.5"/>
	<path d="M 172.21509,210.59259 L 168.56508999999997,210.59259000000003 L 167.8300894433803,210.59259000000006 L 167.6885919854015,210.59259000000006 L 161.89008999999993,210.59259000000011 L 161.58390278445194,210.58165474230196 L 161.32067550986093,210.55041114887868 L 161.09806490672017,210.50120248923704 L 160.91372770552292,210.43637203288375 L 160.76532063676243,210.3582630493256 L 160.6505004309319,210.2692188080693 L 160.56692381852469,210.17158257862158 L 160.512247530034,210.06769763048922 L 160.48412829595304,209.95990723317894 L 160.48022284677515,209.85055465619752 L 160.49818791299353,209.74198316905165 L 160.53568022510143,209.63653604124815 L 160.59035651359216,209.53655654229368 L 160.65987350895892,209.44438794169506 L 160.74188794169498,209.36237350895897 L 160.83405654229364,209.29285651359223 L 160.93403604124808,209.2381802251015 L 161.0394831690516,209.20068791299357 L 161.14805465619744,209.1827228467752 L 161.25740723317887,209.1866282959531 L 161.36519763048915,209.21474753003403 L 161.46908257862148,209.26942381852476 L 161.5667188080692,209.35300043093198 L 161.6557630493255,209.46782063676247 L 161.73387203288365,209.616227705523 L 161.79870248923694,209.80056490672024 L 161.84791114887858,210.023175509861 L 161.87915474230184,210.286402784452 L 161.89009,210.59259 L 161.89009,215.04259000000005 L 161.87915474230184,215.34877721554804 L 161.84791114887858,215.61200449013904 L 161.79870248923694,215.8346150932798 L 161.73387203288365,216.01895229447706 L 161.65576304932551,216.16735936323755 L 161.5667188080692,216.28217956906806 L 161.46908257862148,216.3657561814753 L 161.36519763048915,216.420432469966 L 161.25740723317887,216.44855170404693 L 161.14805465619744,216.45245715322483 L 161.0394831690516,216.43449208700645 L 160.93403604124808,216.39699977489855 L 160.83405654229364,216.34232348640782 L 160.741887941695,216.27280649104105 L 160.65987350895895,216.190792058305 L 160.59035651359218,216.09862345770634 L 160.53568022510146,215.9986439587519 L 160.49818791299356,215.89319683094837 L 160.48022284677518,215.78462534380253 L 160.48412829595307,215.6752727668211 L 160.51224753003402,215.56748236951083 L 160.5669238185247,215.4635974213785 L 160.65050043093197,215.36596119193078 L 160.76532063676245,215.2769169506745 L 160.91372770552297,215.19880796711632 L 161.09806490672023,215.13397751076303 L 161.320675509861,215.0847688511214 L 161.583902784452,215.05352525769814 L 161.89009,215.04259 L 165.86508999999998,215.04258999999996 L 178.56508999999997,215.0425899999999 L 166.74158801459842,215.04258999999996 L 167.83008944338027,215.04258999999996 L 176.6000905566198,215.0425899999999 L 182.54008999999982,215.04258999999988 L 182.84627721554781,215.05352525769803 L 183.10950449013885,215.0847688511213 L 183.3321150932796,215.13397751076295 L 183.5164522944769,215.19880796711624 L 183.6648593632374,215.2769169506744 L 183.77967956906792,215.3659611919307 L 183.86325618147515,215.4635974213784 L 183.91793246996588,215.56748236951077 L 183.94605170404682,215.67527276682105 L 183.94995715322474,215.78462534380247 L 183.93199208700636,215.89319683094834 L 183.89449977489846,215.99864395875184 L 183.83982348640774,216.0986234577063 L 183.770306491041,216.19079205830494 L 183.68829205830494,216.27280649104102 L 183.5961234577063,216.34232348640776 L 183.49614395875187,216.3969997748985 L 183.39069683094834,216.43449208700642 L 183.2821253438025,216.4524571532248 L 183.17277276682108,216.44855170404688 L 183.06498236951083,216.42043246996596 L 182.96109742137847,216.36575618147523 L 182.86346119193078,216.282179569068 L 182.77441695067446,216.16735936323752 L 182.69630796711633,216.018952294477 L 182.63147751076303,215.83461509327975 L 182.5822688511214,215.612004490139 L 182.55102525769814,215.34877721554798 L 182.54009,215.04259 L 182.5400900000001,210.59258999999994 L 182.55102525769823,210.28640278445195 L 182.5822688511215,210.02317550986095 L 182.63147751076312,209.80056490672018 L 182.6963079671164,209.61622770552293 L 182.77441695067455,209.46782063676244 L 182.86346119193087,209.35300043093193 L 182.96109742137855,209.2694238185247 L 183.0649823695109,209.214747530034 L 183.17277276682117,209.18662829595306 L 183.2821253438026,209.18272284677516 L 183.39069683094843,209.20068791299354 L 183.49614395875193,209.23818022510144 L 183.59612345770637,209.29285651359217 L 183.688292058305,209.36237350895894 L 183.77030649104105,209.444387941695 L 183.83982348640782,209.53655654229365 L 183.89449977489855,209.6365360412481 L 183.93199208700645,209.74198316905162 L 183.94995715322483,209.85055465619746 L 183.9460517040469,209.95990723317888 L 183.91793246996596,210.06769763048916 L 183.86325618147526,210.1715825786215 L 183.77967956906804,210.2692188080692 L 183.66485936323753,210.3582630493255 L 183.516452294477,210.43637203288367 L 183.33211509327975,210.50120248923696 L 183.109504490139,210.5504111488786 L 182.84627721554799,210.58165474230185 L 182.54009,210.59259 L 176.7415880145984,210.59259 L 176.60009055661982,210.59259 L 172.21509,210.59259" fill="none" stroke="rgb(0,0,0)" stroke-width="0.5"/>
	<path d="M 118.21509,210.59259 L 114.56508999999997,210.59259000000003 L 113.83008944338027,210.59259000000006 L 113.6885919854015,210.59259000000006 L 107.89008999999989,210.59259000000011 L 107.5839027844519,210.58165474230196 L 107.3206755098609,210.55041114887868 L 107.09806490672015,210.50120248923704 L 106.9137277055229,210.43637203288375 L 106.7653206367624,210.3582630493256 L 106.6505004309319,210.2692188080693 L 106.56692381852467,210.17158257862158 L 106.51224753003396,210.06769763048922 L 106.48412829595303,209.95990723317894 L 106.48022284677513,209.85055465619752 L 106.49818791299352,209.74198316905165 L 106.53568022510143,209.63653604124815 L 106.59035651359216,209.53655654229368 L 106.65987350895892,209.44438794169506 L 106.74188794169498,209.36237350895897 L 106.83405654229362,209.29285651359223 L 106.93403604124808,209.2381802251015 L 107.03948316905159,209.20068791299357 L 107.14805465619744,209.1827228467752 L 107.25740723317887,209.1866282959531 L 107.36519763048913,209.21474753003403 L 107.4690825786215,209.26942381852476 L 107.5667188080692,209.35300043093198 L 107.6557630493255,209.46782063676247 L 107.73387203288367,209.616227705523 L 107.79870248923693,209.80056490672024 L 107.84791114887858,210.023175509861 L 107.87915474230185,210.286402784452 L 107.89008999999999,210.59259 L 107.89008999999996,215.04259000000005 L 107.87915474230182,215.34877721554804 L 107.84791114887855,215.61200449013904 L 107.79870248923692,215.8346150932798 L 107.73387203288364,216.01895229447706 L 107.65576304932549,216.16735936323755 L 107.56671880806918,216.28217956906806 L 107.46908257862148,216.3657561814753 L 107.36519763048912,216.420432469966 L 107.25740723317887,216.44855170404693 L 107.14805465619744,216.45245715322483 L 107.03948316905159,216.43449208700645 L 106.93403604124808,216.39699977489855 L 106.83405654229364,216.34232348640782 L 106.74188794169501,216.27280649104105 L 106.65987350895894,216.190792058305 L 106.59035651359217,216.09862345770634 L 106.53568022510146,215.9986439587519 L 106.49818791299354,215.89319683094837 L 106.48022284677516,215.78462534380253 L 106.48412829595308,215.6752727668211 L 106.51224753003402,215.56748236951083 L 106.56692381852473,215.4635974213785 L 106.65050043093197,215.36596119193078 L 106.76532063676247,215.2769169506745 L 106.91372770552297,215.19880796711632 L 107.09806490672023,215.13397751076303 L 107.32067550986099,215.0847688511214 L 107.583902784452,215.05352525769814 L 107.89008999999999,215.04259 L 111.86508999999998,215.04258999999996 L 124.56508999999997,215.0425899999999 L 112.74158801459842,215.04258999999996 L 113.83008944338025,215.04258999999996 L 122.60009055661978,215.0425899999999 L 128.54008999999994,215.04258999999988 L 128.84627721554793,215.05352525769803 L 129.10950449013893,215.0847688511213 L 129.3321150932797,215.13397751076295 L 129.51645229447698,215.19880796711624 L 129.66485936323747,215.2769169506744 L 129.77967956906798,215.3659611919307 L 129.8632561814752,215.4635974213784 L 129.91793246996593,215.56748236951077 L 129.94605170404688,215.67527276682105 L 129.9499571532248,215.78462534380247 L 129.93199208700642,215.89319683094834 L 129.8944997748985,215.99864395875184 L 129.8398234864078,216.0986234577063 L 129.77030649104103,216.19079205830494 L 129.68829205830497,216.27280649104102 L 129.59612345770634,216.34232348640776 L 129.49614395875187,216.3969997748985 L 129.39069683094837,216.43449208700642 L 129.28212534380253,216.4524571532248 L 129.17277276682108,216.44855170404688 L 129.06498236951083,216.42043246996596 L 128.96109742137847,216.36575618147523 L 128.86346119193078,216.282179569068 L 128.77441695067446,216.16735936323752 L 128.69630796711633,216.018952294477 L 128.63147751076303,215.83461509327975 L 128.5822688511214,215.612004490139 L 128.55102525769814,215.34877721554798 L 128.54009,215.04259 L 128.5400900000001,210.59258999999994 L 128.55102525769823,210.28640278445195 L 128.5822688511215,210.02317550986095 L 128.63147751076312,209.80056490672018 L 128.6963079671164,209.61622770552293 L 128.77441695067455,209.46782063676244 L 128.86346119193087,209.35300043093193 L 128.96109742137855,209.2694238185247 L 129.0649823695109,209.214747530034 L 129.17277276682117,209.18662829595306 L 129.2821253438026,209.18272284677516 L 129.39069683094843,209.20068791299354 L 129.49614395875193,209.23818022510144 L 129.59612345770637,209.29285651359217 L 129.688292058305,209.36237350895894 L 129.77030649104105,209.444387941695 L 129.83982348640782,209.53655654229365 L 129.89449977489855,209.6365360412481 L 129.93199208700645,209.74198316905162 L 129.94995715322483,209.85055465619746 L 129.9460517040469,209.95990723317888 L 129.91793246996596,210.06769763048916 L 129.86325618147526,210.1715825786215 L 129.77967956906804,210.2692188080692 L 129.66485936323753,210.3582630493255 L 129.516452294477,210.43637203288367 L 129.33211509327975,210.50120248923696 L 129.109504490139,210.5504111488786 L 128.84627721554799,210.58165474230185 L 128.54009,210.59259 L 122.7415880145984,210.59259 L 122.60009055661982,210.59259 L 118.21509,210.59259" fill="none" stroke="rgb(0,0,0)" stroke-width="0.5"/>
	<path d="M 64.21509,210.59259 L 59.83008944338029,210.59259000000006 L 59.68859198540154,210.59259000000006 L 53.89009000000002,210.59259000000011 L 53.58390278445203,210.58165474230196 L 53.320675509861026,210.55041114887868 L 53.09806490672026,210.50120248923704 L 52.913727705523,210.43637203288375 L 52.765320636762496,210.3582630493256 L 52.650500430932,210.2692188080693 L 52.566923818524764,210.17158257862158 L 52.512247530034045,210.06769763048922 L 52.48412829595311,209.95990723317894 L 52.4802228467752,209.85055465619752 L 52.49818791299358,209.74198316905165 L 52.535680225101494,209.63653604124815 L 52.590356513592205,209.53655654229368 L 52.65987350895897,209.44438794169506 L 52.74188794169504,209.36237350895897 L 52.834056542293666,209.29285651359223 L 52.93403604124811,209.2381802251015 L 53.039483169051636,209.20068791299357 L 53.14805465619747,209.1827228467752 L 53.2574072331789,209.1866282959531 L 53.36519763048916,209.21474753003403 L 53.46908257862152,209.26942381852476 L 53.56671880806922,209.35300043093198 L 53.65576304932552,209.46782063676247 L 53.73387203288369,209.616227705523 L 53.79870248923696,209.80056490672024 L 53.8479111488786,210.023175509861 L 53.879154742301864,210.286402784452 L 53.89009000000001,210.59259 L 53.89008999999998,215.04259000000005 L 53.879154742301836,215.34877721554804 L 53.84791114887858,215.61200449013904 L 53.79870248923694,215.8346150932798 L 53.73387203288366,216.01895229447706 L 53.65576304932551,216.16735936323755 L 53.5667188080692,216.28217956906806 L 53.4690825786215,216.3657561814753 L 53.36519763048915,216.420432469966 L 53.25740723317889,216.44855170404693 L 53.14805465619746,216.45245715322483 L 53.03948316905162,216.43449208700645 L 52.9340360412481,216.39699977489855 L 52.83405654229366,216.34232348640782 L 52.741887941695026,216.27280649104105 L 52.65987350895896,216.190792058305 L 52.5903565135922,216.09862345770634 L 52.53568022510149,215.9986439587519 L 52.498187912993565,215.89319683094837 L 52.48022284677519,215.78462534380253 L 52.4841282959531,215.6752727668211 L 52.51224753003404,215.56748236951083 L 52.56692381852475,215.4635974213785 L 52.650500430931984,215.36596119193078 L 52.76532063676248,215.2769169506745 L 52.91372770552299,215.19880796711632 L 53.09806490672025,215.13397751076303 L 53.32067550986101,215.0847688511214 L 53.583902784452015,215.05352525769814 L 53.89009000000001,215.04259 L 57.86509000000001,215.04258999999996 L 70.56509,215.0425899999999 L 59.830089443380274,215.04258999999996 L 68.60009055661965,215.0425899999999 L 69.6885919854016,215.0425899999999 L 74.54008999999999,215.04258999999988 L 74.84627721554799,215.05352525769803 L 75.10950449013899,215.0847688511213 L 75.33211509327975,215.13397751076295 L 75.51645229447702,215.19880796711624 L 75.66485936323753,215.2769169506744 L 75.77967956906802,215.3659611919307 L 75.86325618147525,215.4635974213784 L 75.91793246996596,215.56748236951077 L 75.94605170404691,215.67527276682105 L 75.94995715322482,215.78462534380247 L 75.93199208700644,215.89319683094834 L 75.89449977489852,215.99864395875184 L 75.83982348640781,216.0986234577063 L 75.77030649104104,216.19079205830494 L 75.68829205830498,216.27280649104102 L 75.59612345770634,216.34232348640776 L 75.4961439587519,216.3969997748985 L 75.39069683094839,216.43449208700642 L 75.28212534380253,216.4524571532248 L 75.17277276682111,216.44855170404688 L 75.06498236951084,216.42043246996596 L 74.9610974213785,216.36575618147523 L 74.8634611919308,216.282179569068 L 74.77441695067449,216.16735936323752 L 74.69630796711633,216.018952294477 L 74.63147751076305,215.83461509327975 L 74.58226885112141,215.612004490139 L 74.55102525769814,215.34877721554798 L 74.54009,215.04259 L 74.54008999999998,210.59258999999994 L 74.55102525769813,210.28640278445195 L 74.58226885112138,210.02317550986095 L 74.63147751076303,209.80056490672018 L 74.69630796711631,209.61622770552293 L 74.77441695067448,209.46782063676244 L 74.86346119193078,209.35300043093193 L 74.96109742137848,209.2694238185247 L 75.06498236951083,209.214747530034 L 75.1727727668211,209.18662829595306 L 75.28212534380253,209.18272284677516 L 75.39069683094837,209.20068791299354 L 75.49614395875189,209.23818022510144 L 75.59612345770634,209.29285651359217 L 75.68829205830497,209.36237350895894 L 75.77030649104104,209.444387941695 L 75.83982348640781,209.53655654229365 L 75.89449977489852,209.6365360412481 L 75.93199208700644,209.74198316905162 L 75.94995715322482,209.85055465619746 L 75.94605170404691,209.95990723317888 L 75.91793246996598,210.06769763048916 L 75.86325618147526,210.1715825786215 L 75.77967956906802,210.2692188080692 L 75.66485936323753,210.3582630493255 L 75.51645229447702,210.43637203288367 L 75.33211509327977,210.50120248923696 L 75.109504490139,210.5504111488786 L 74.846277215548,210.58165474230185 L 74.54009,210.59259 L 68.74158801459843,210.59259 L 68.60009055661969,210.59259 L 67.86509000000001,210.59259 L 64.21509,210.59259" fill="none" stroke="rgb(0,0,0)" stroke-width="0.5"/>
	<path d="M 349.44992500999996,412.16638 L 349.4499469156225,412.17054988896933 L 349.4500126322563,412.1747193176776 L 349.45012215264654,412.17888782576966 L 349.45027546470266,412.1830549530586 L 349.4504725514995,412.1872202395102 L 349.4507133912795,412.19138322529324 L 349.450997957455,412.1955434508305 L 349.45132621861086,412.1997004568496 L 349.45169813850845,412.2038537844335 L 349.4521136760892,412.20800297507117 L 349.4525727854795,412.2121475707085 L 349.45307541599544,412.2162871137985 L 349.4536215121486,412.2204211473519 L 349.45421101365207,412.2245492149878 L 349.4548438554273,412.2286708609838 L 349.4555199676111,412.2327856303266 L 349.45623927556323,412.23689306876184 L 349.45700169987504,412.24099272284457 L 349.4578071563778,412.24508413998916 L 349.4586555561524,412.2491668685194 L 349.45954680553876,412.2532404577182 L 349.46048080614656,412.2573044578774 L 349.4614574548658,412.26135842034745 L 349.4624766438783,412.26540189758686 L 349.4635382606696,412.2694344432119 L 349.4646421880415,412.27345561204527 L 349.4657883041247,412.27746496016596 L 349.46697648239257,412.2814620449578 L 349.4682065916749,412.2854464251584 L 349.4694784961725,412.2894176609079 L 349.4707920554721,412.29337531379764 L 349.47214712456196,412.2973189469183 L 349.47354355384783,412.30124812490857 L 349.47498118916945,412.30516241400255 L 349.47645987181755,412.30906138207826 L 349.4779794385514,412.31294459870503 L 349.4795397216169,412.31681163519113 L 349.4811405487649,412.320662064631 L 349.4827817432705,412.32449546195244 L 349.4844631239522,412.3283114039636 L 349.4861845051922,412.3321094693995 L 349.487945696957,412.3358892389688 L 349.4897465048179,412.33965029539985 L 349.49158672997277,412.34339222348683 L 349.49346616926806,412.3471146101358 L 349.49538461522116,412.35081704440995 L 349.4973418560432,412.35449911757513 L 349.49933767566245,412.3581604231451 L 349.5013718537484,412.3618005569261 L 349.5034441657359,412.36541911706183 L 349.50555438284977,412.3690157040775 L 349.5077022721304,412.37258992092427 L 349.50988759645935,412.37614137302256 L 349.5121101145855,412.3796696683062 L 349.5143695811515,412.38317441726525 L 349.5166657467213,412.38665523298937 L 349.5189983578072,412.39011173121025 L 349.5213671568983,412.3935435303441 L 349.52377188248846,412.39695025153395 L 349.52621226910543,412.40033151869125 L 349.52868804734027,412.4036869585374 L 349.5311989438768,412.40701620064516 L 349.53374468152197,412.4103188774793 L 349.5363249792365,412.41359462443745 L 349.5389395521656,412.4168430798901 L 349.54158811167076,412.42006388522054 L 349.5442703653616,412.4232566848646 L 349.54698601712784,412.42642112634985 L 349.5497347671723,412.4295568603345 L 349.5525163120438,412.4326635406459 L 349.5553303446708,412.43574082431877 L 349.55817655439523,412.4387883716332 L 349.56105462700674,412.441805846152 L 349.5639642447776,412.444792914758 L 349.56690508649746,412.4477492476905 L 349.569876827509,412.45067451858216 L 349.5728791397438,412.4535684044946 L 349.57591169175845,412.4564305859542 L 349.5789741487712,412.45926074698747 L 349.58206617269883,412.4620585751559 L 349.5851874221943,412.4648237615902 L 349.5883375526838,412.46755600102483 L 349.5915162164055,412.47025499183127 L 349.59472306244754,412.4729204360517 L 349.59795773678667,412.47555203943153 L 349.6012198823277,412.4781495114522 L 349.6045091389427,412.4807125653631 L 349.60782514351064,412.4832409182132 L 349.61116752995787,412.48573429088225 L 349.614535929298,412.48819240811184 L 349.6179299696731,412.4906149985356 L 349.62134927639465,412.493001794709 L 349.62479347198456,412.4953525331393 L 349.62826217621733,412.4976669543142 L 349.6317550061617,412.49994480273074 L 349.63527157622303,412.50218582692355 L 349.638811498186,412.5043897794923 L 349.6423743812571,412.5065564171295 L 349.6459598321082,412.50868550064683 L 349.6495674549197,412.51077679500185 L 349.65319685142424,412.51283006932397 L 349.6568476209508,412.51484509693984 L 349.66051936046904,412.51682165539836 L 349.6642116646332,412.5187595264953 L 349.66792412582765,412.5206584962973 L 349.67165633421126,412.52251835516574 L 349.67540787776306,412.5243388977794 L 349.6791783423274,412.5261199231577 L 349.68296731166,412.52786123468235 L 349.6867743674735,412.5295626401196 L 349.6905990894841,412.53122395164087 L 349.6944410554576,412.532844985844 L 349.69829984125613,412.53442556377325 L 349.70217502088497,412.53596551093904 L 349.70606616653964,412.5374646573373 L 349.709972848653,412.5389228374682 L 349.7138946359429,412.5403398903544 L 349.7178310954594,412.54171565955886 L 349.721781792633,412.5430499932021 L 349.7257462913224,412.544342743979 L 349.72972415386255,412.54559376917496 L 349.7337149411132,412.54680293068174 L 349.73771821250716,412.54797009501266 L 349.7417335260991,412.5490951333175 L 349.74576043861435,412.55017792139637 L 349.74979850549767,412.5512183397138 L 349.7538472809624,412.55221627341166 L 349.7579063180398,412.5531716123221 L 349.7619751686281,412.5540842509795 L 349.76605338354244,412.55495408863203 L 349.7701405125639,412.5557810292531 L 349.7742361044897,412.55656498155184 L 349.7783397071826,412.55730585898294 L 349.78245086762115,412.5580035797565 L 349.7865691319495,412.55865806684676 L 349.79069404552746,412.5592692480011 L 349.79482515298093,412.5598370557475 L 349.798961998252,412.56036142740214 L 349.80310412464934,412.5608423050766 L 349.80725107489855,412.5612796356838 L 349.8114023911927,412.56167337094416 L 349.8155576152429,412.56202346739093 L 349.8197162883288,412.56232988637476 L 349.82387795134935,412.5625925940683 L 349.8280421448735,412.5628115614696 L 349.8322084091906,412.56298676440554 L 349.83637628436173,412.5631181835344 L 349.8405453102698,412.56320580434806 L 349.8447150266709,412.5632496171735 L 349.8488849732448,412.5632496171739 L 349.8530546896459,412.56320580434937 L 349.857223715554,412.56311818353663 L 349.86139159072513,412.5629867644086 L 349.8655578550423,412.56281156147355 L 349.8697220485665,412.5625925940732 L 349.87388371158715,412.5623298863805 L 349.8780423846731,412.5620234673975 L 349.88219760872335,412.56167337095167 L 349.88634892501756,412.5612796356922 L 349.8904958752669,412.5608423050859 L 349.8946380016643,412.5603614274123 L 349.8987748469355,412.5598370557585 L 349.9029059543891,412.559269248013 L 349.9070308679672,412.55865806685955 L 349.9111491322957,412.5580035797701 L 349.91526029273433,412.55730585899744 L 349.9193638954274,412.55656498156725 L 349.9234594873534,412.5557810292694 L 349.927546616375,412.55495408864914 L 349.9316248312895,412.55408425099745 L 349.9356936818781,412.553171612341 L 349.9397527189557,412.5522162734314 L 349.9438014944206,412.55121833973436 L 349.94783956130414,412.5501779214178 L 349.95186647381956,412.54909513333973 L 349.9558817874118,412.5479700950358 L 349.95988505880604,412.54680293070567 L 349.9638758460569,412.54559376919974 L 349.9678537085973,412.54434274400467 L 349.97181820728696,412.5430499932286 L 349.97576890446084,412.5417156595862 L 349.9797053639777,412.54033989038254 L 349.98362715126785,412.5389228374972 L 349.9875338333815,412.53746465736714 L 349.99142497903654,412.53596551096973 L 349.9953001586657,412.53442556380475 L 349.9991589444645,412.5328449858763 L 350.00300091043835,412.53122395167395 L 350.0068256324493,412.5295626401535 L 350.01063268826323,412.5278612347171 L 350.0144216575962,412.5261199231932 L 350.01819212216094,412.5243388978157 L 350.0219436657131,412.52251835520286 L 350.0256758740971,412.5206584963352 L 350.0293883352919,412.518759526534 L 350.03308063945656,412.5168216554378 L 350.0367523789751,412.5148450969801 L 350.04040314850215,412.512830069365 L 350.04403254500716,412.5107767950436 L 350.04764016781905,412.5086855006894 L 350.0512256186706,412.5065564171729 L 350.05478850174217,412.50438977953644 L 350.0583284237056,412.5021858269684 L 350.06184499376747,412.4999448027763 L 350.0653378237123,412.4976669543605 L 350.0688065279455,412.49535253318635 L 350.07225072353594,412.49300179475676 L 350.075670030258,412.4906149985841 L 350.07906407063365,412.48819240816107 L 350.08243246997426,412.4857342909322 L 350.085774856422,412.48324091826385 L 350.0890908609905,412.4807125654145 L 350.092380117606,412.4781495115043 L 350.0956422631476,412.4755520394843 L 350.0988769374873,412.47292043610514 L 350.1020837835299,412.4702549918854 L 350.1052624472522,412.46755600107963 L 350.1084125777423,412.4648237616457 L 350.1115338272383,412.462058575212 L 350.1146258511666,412.45926074704425 L 350.1176883081799,412.4564305860116 L 350.12072086019515,412.45356840455264 L 350.1237231724306,412.4506745186409 L 350.12669491344275,412.44774924774987 L 350.1296357551632,412.444792914818 L 350.13254537293466,412.4418058462126 L 350.1354234455469,412.4387883716944 L 350.138269655272,412.43574082438056 L 350.1410836878996,412.43266354070823 L 350.14386523277176,412.4295568603975 L 350.14661398281686,412.4264211264134 L 350.14932963458375,412.42325668492873 L 350.1520118882753,412.42006388528523 L 350.15466044778117,412.41684307995536 L 350.157275020711,412.4135946245033 L 350.15985531842614,412.4103188775457 L 350.16240105607204,412.40701620071206 L 350.16491195260926,412.4036869586048 L 350.16738773084484,412.4003315187592 L 350.16982811746254,412.39695025160245 L 350.1722328430534,412.3935435304131 L 350.17460164214515,412.3901117312797 L 350.1769342532318,412.38665523305934 L 350.1792304188024,412.3831744173357 L 350.18148988536916,412.3796696683771 L 350.18371240349603,412.37614137309396 L 350.1858977278257,412.3725899209961 L 350.18804561710715,412.3690157041499 L 350.19015583422174,412.36541911713465 L 350.19222814620997,412.36180055699936 L 350.1942623242967,412.35816042321875 L 350.1962581439168,412.35449911764925 L 350.19821538473957,412.3508170444845 L 350.20013383069346,412.3471146102107 L 350.20201326998955,412.34339222356215 L 350.2038534951452,412.3396502954755 L 350.2056543030069,412.33588923904483 L 350.2074154947725,412.33210946947594 L 350.2091368760133,412.3283114040404 L 350.21081825669586,412.3244954620296 L 350.2124594512022,412.3206620647085 L 350.21406027835104,412.31681163526895 L 350.2156205614173,412.3129445987832 L 350.21714012815204,412.30906138215676 L 350.21861881080093,412.30516241408134 L 350.2200564461234,412.3012481249877 L 350.22145287541014,412.2973189469978 L 350.22280794450086,412.29337531387733 L 350.2241215038013,412.28941766098785 L 350.2253934082997,412.2854464252386 L 350.2266235175829,412.2814620450383 L 350.2278116958515,412.27746496024673 L 350.22895781193563,412.27345561212627 L 350.2300617393083,412.2694344432931 L 350.23112335610057,412.2654018976683 L 350.2321425451139,412.2613584204291 L 350.233119193834,412.25730445795926 L 350.23405319444265,412.2532404578003 L 350.23494444382993,412.2491668686017 L 350.23579284360534,412.24508414007164 L 350.236598300109,412.24099272292716 L 350.23736072442165,412.2368930688446 L 350.2380800323747,412.2327856304095 L 350.23875614455926,412.2286708610669 L 350.2393889863354,412.224549215071 L 350.2399784878398,412.2204211474352 L 350.2405245839938,412.21628711388195 L 350.2410272145106,412.21214757079207 L 350.2414863239018,412.20800297515484 L 350.2419018614835,412.2038537845172 L 350.2422737813819,412.19970045693344 L 350.24260204253864,412.1955434509144 L 350.24288660871497,412.1913832253772 L 350.2431274484959,412.18722023959424 L 350.24332453529365,412.1830549531427 L 350.2434778473506,412.17888782585374 L 350.2435873677418,412.17471931776174 L 350.2436530843765,412.17054988905346 L 350.24367498999993,412.16638 L 350.24365308437734,412.1622101110307 L 350.24358736774354,412.1580406823224 L 350.2434778473533,412.15387217423034 L 350.2433245352972,412.1497050469414 L 350.24312744850033,412.1455397604898 L 350.2428866087203,412.14137677470677 L 350.24260204254483,412.1372165491695 L 350.242273781389,412.1330595431504 L 350.2419018614914,412.12890621556653 L 350.24148632391064,412.12475702492884 L 350.24102721452033,412.1206124292915 L 350.2405245840044,412.1164728862015 L 350.23997848785126,412.1123388526481 L 350.23938898634776,412.1082107850122 L 350.2387561445725,412.1040891390162 L 350.2380800323887,412.0999743696734 L 350.2373607244366,412.09586693123816 L 350.2365983001248,412.09176727715544 L 350.23579284362205,412.08767586001085 L 350.23494444384744,412.0835931314806 L 350.23405319446107,412.0795195422818 L 350.23311919385327,412.0754555421226 L 350.232142545134,412.07140157965256 L 350.23112335612154,412.06735810241315 L 350.2300617393302,412.06332555678813 L 350.2289578119583,412.05930438795474 L 350.2278116958751,412.05529503983405 L 350.22662351760727,412.05129795504223 L 350.2253934083249,412.0473135748416 L 350.22412150382735,412.04334233909213 L 350.22280794452774,412.03938468620237 L 350.2214528754379,412.0354410530817 L 350.220056446152,412.03151187509144 L 350.2186188108304,412.02759758599746 L 350.2171401281823,412.02369861792175 L 350.2156205614484,412.019815401295 L 350.21406027838293,412.0159483648089 L 350.2124594512349,412.012097935369 L 350.21081825672934,412.00826453804757 L 350.20913687604764,412.0044485960364 L 350.2074154948076,412.0006505306005 L 350.2056543030428,411.99687076103123 L 350.20385349518193,411.99310970460016 L 350.20201327002707,411.9893677765132 L 350.2001338307318,411.9856453898642 L 350.1982153847787,411.98194295559006 L 350.19625814395664,411.9782608824249 L 350.1942623243374,411.9745995768549 L 350.1922281462514,411.9709594430739 L 350.1901558342639,411.9673408829382 L 350.18804561715007,411.9637442959225 L 350.1858977278694,411.96017007907574 L 350.1837124035405,411.95661862697744 L 350.18148988541435,411.95309033169383 L 350.1792304188483,411.94958558273476 L 350.17693425327855,411.94610476701064 L 350.1746016421926,411.94264826878975 L 350.17223284310154,411.9392164696559 L 350.1698281175114,411.93580974846606 L 350.1673877308944,411.93242848130876 L 350.16491195265957,411.92907304146263 L 350.16240105612303,411.92574379935485 L 350.15985531847787,411.9224411225207 L 350.15727502076334,411.91916537556256 L 350.15466044783426,411.9159169201099 L 350.15201188832907,411.91269611477946 L 350.1493296346382,411.9095033151354 L 350.146613982872,411.90633887365016 L 350.1438652328275,411.9032031396655 L 350.14108368795604,411.90009645935413 L 350.13826965532905,411.89701917568124 L 350.1354234456046,411.8939716283668 L 350.1325453729931,411.890954153848 L 350.12963575522224,411.887967085242 L 350.1266949135024,411.8850107523095 L 350.1237231724908,411.88208548141785 L 350.12072086025603,411.8791915955054 L 350.1176883082414,411.8763294140458 L 350.11462585122865,411.87349925301254 L 350.111533827301,411.8707014248441 L 350.10841257780555,411.8679362384098 L 350.105262447316,411.8652039989752 L 350.1020837835943,411.86250500816874 L 350.0988769375523,411.8598395639483 L 350.09564226321316,411.8572079605685 L 350.0923801176721,411.8546104885478 L 350.0890908610571,411.8520474346369 L 350.0857748564892,411.8495190817868 L 350.08243247004197,411.84702570911776 L 350.07906407070186,411.84456759188816 L 350.0756700303267,411.8421450014644 L 350.0722507236052,411.839758205291 L 350.0688065280153,411.8374074668607 L 350.0653378237825,411.8350930456858 L 350.0618449938381,411.83281519726927 L 350.0583284237768,411.83057417307646 L 350.05478850181385,411.8283702205077 L 350.0512256187427,411.8262035828705 L 350.04764016789164,411.8240744993532 L 350.04403254508014,411.82198320499816 L 350.0404031485756,411.81992993067604 L 350.036752379049,411.81791490306017 L 350.0330806395308,411.81593834460165 L 350.0293883353666,411.81400047350473 L 350.0256758741722,411.8121015037027 L 350.02194366578857,411.81024164483426 L 350.01819212223677,411.8084211022206 L 350.0144216576724,411.8066400768423 L 350.01063268833985,411.80489876531766 L 350.00682563252633,411.8031973598804 L 350.0030009105157,411.80153604835914 L 349.9991589445422,411.799915014156 L 349.9953001587437,411.79833443622675 L 349.99142497911487,411.79679448906097 L 349.9875338334602,411.7952953426627 L 349.9836271513468,411.7938371625318 L 349.97970536405694,411.7924201096456 L 349.9757689045404,411.79104434044115 L 349.9718182073668,411.7897100067979 L 349.9678537086774,411.78841725602103 L 349.9638758461373,411.78716623082505 L 349.95988505888664,411.7859570693183 L 349.9558817874927,411.78478990498735 L 349.95186647390074,411.7836648666825 L 349.9478395613855,411.78258207860364 L 349.94380149450217,411.7815416602862 L 349.9397527190374,411.78054372658835 L 349.93569368196006,411.7795883876779 L 349.9316248313717,411.7786757490205 L 349.9275466164574,411.777805911368 L 349.92345948743593,411.7769789707469 L 349.9193638955101,411.77619501844816 L 349.9152602928172,411.77545414101706 L 349.9111491323787,411.77475642024353 L 349.90703086805036,411.77410193315325 L 349.9029059544724,411.7734907519989 L 349.8987748470189,411.7729229442525 L 349.8946380017478,411.77239857259787 L 349.8904958753505,411.7719176949234 L 349.8863489251013,411.77148036431623 L 349.88219760880713,411.77108662905584 L 349.87804238475695,411.7707365326091 L 349.87388371167106,411.77043011362525 L 349.8697220486505,411.7701674059317 L 349.8655578551263,411.76994843853043 L 349.8613915908092,411.76977323559447 L 349.8572237156381,411.7696418164656 L 349.85305468973,411.76955419565195 L 349.84888497332895,411.7695103828265 L 349.844715026755,411.7695103828261 L 349.84054531035395,411.76955419565064 L 349.8363762844458,411.7696418164634 L 349.8322084092747,411.7697732355914 L 349.8280421449575,411.76994843852646 L 349.82387795143336,411.7701674059268 L 349.8197162884127,411.7704301136195 L 349.8155576153267,411.7707365326025 L 349.8114023912765,411.77108662904834 L 349.8072510749823,411.7714803643078 L 349.80310412473295,411.7719176949141 L 349.7989619983355,411.7723985725877 L 349.7948251530643,411.7729229442415 L 349.79069404561073,411.773490751987 L 349.78656913203264,411.77410193314046 L 349.78245086770414,411.7747564202299 L 349.7783397072655,411.77545414100257 L 349.7742361045724,411.77619501843276 L 349.77014051264644,411.7769789707306 L 349.7660533836248,411.77780591135087 L 349.7619751687103,411.77867574900256 L 349.75790631812174,411.77958838765903 L 349.75384728104416,411.7805437265686 L 349.74979850557924,411.78154166026565 L 349.7457604386957,411.7825820785822 L 349.74173352618027,411.7836648666603 L 349.73771821258805,411.7847899049642 L 349.7337149411938,411.78595706929434 L 349.7297241539429,411.78716623080027 L 349.7257462914025,411.78841725599534 L 349.7217817927129,411.78971000677143 L 349.717831095539,411.7910443404138 L 349.71389463602213,411.79242010961747 L 349.709972848732,411.7938371625028 L 349.7060661666183,411.79529534263287 L 349.7021750209633,411.7967944890303 L 349.6982998413341,411.79833443619526 L 349.6944410555353,411.7999150141237 L 349.6905990895615,411.80153604832606 L 349.6867743675505,411.80319735984654 L 349.6829673117366,411.8048987652829 L 349.67917834240365,411.8066400768068 L 349.6754078778389,411.8084211021843 L 349.67165633428675,411.81024164479714 L 349.66792412590274,411.8121015036648 L 349.6642116647079,411.814000473466 L 349.6605193605433,411.8159383445622 L 349.6568476210247,411.8179149030199 L 349.6531968514977,411.819929930635 L 349.6495674549927,411.8219832049564 L 349.6459598321808,411.8240744993106 L 349.6423743813292,411.82620358282713 L 349.63881149825767,411.82837022046357 L 349.63527157629426,411.8305741730316 L 349.63175500623237,411.8328151972237 L 349.62826217628754,411.8350930456395 L 349.6247934720543,411.83740746681366 L 349.6213492764639,411.83975820524324 L 349.61792996974185,411.84214500141593 L 349.6145359293662,411.84456759183894 L 349.61116753002557,411.8470257090678 L 349.6078251435778,411.84951908173616 L 349.60450913900934,411.85204743458553 L 349.6012198823938,411.8546104884957 L 349.5979577368522,411.8572079605157 L 349.5947230625125,411.85983956389487 L 349.5915162164699,411.8625050081146 L 349.58833755274765,411.8652039989204 L 349.58518742225755,411.86793623835433 L 349.58206617276153,411.870701424788 L 349.57897414883325,411.87349925295575 L 349.57591169181995,411.8763294139884 L 349.5728791398047,411.87919159544737 L 349.56987682756926,411.8820854813591 L 349.5669050865571,411.88501075225014 L 349.56396424483665,411.887967085182 L 349.5610546270652,411.8909541537874 L 349.5581765544529,411.8939716283056 L 349.55533034472785,411.89701917561945 L 349.55251631210024,411.9000964592918 L 349.5497347672281,411.9032031396025 L 349.546986017183,411.9063388735866 L 349.5442703654161,411.9095033150713 L 349.54158811172454,411.9126961147148 L 349.53893955221866,411.91591692004465 L 349.53632497928885,411.91916537549673 L 349.5337446815737,411.9224411224543 L 349.5311989439278,411.92574379928794 L 349.5286880473906,411.9290730413952 L 349.526212269155,411.93242848124083 L 349.5237718825373,411.93580974839756 L 349.52136715694644,411.9392164695869 L 349.5189983578547,411.9426482687203 L 349.516665746768,411.94610476694066 L 349.51436958119746,411.9495855826643 L 349.5121101146307,411.9530903316229 L 349.5098875965038,411.95661862690605 L 349.50770227217413,411.9601700790039 L 349.5055543828927,411.9637442958501 L 349.5034441657781,411.96734088286536 L 349.50137185378986,411.97095944300065 L 349.49933767570315,411.97459957678126 L 349.49734185608304,411.97826088235075 L 349.49538461526026,411.98194295551554 L 349.4934661693064,411.9856453897893 L 349.4915867300103,411.98936777643786 L 349.4897465048546,411.9931097045245 L 349.48794569699294,411.9968707609552 L 349.48618450522736,412.00065053052407 L 349.48446312398653,412.0044485959596 L 349.482781743304,412.00826453797043 L 349.4811405487976,412.01209793529154 L 349.4795397216488,412.01594836473106 L 349.4779794385825,412.0198154012168 L 349.4764598718478,412.02369861784325 L 349.4749811891989,412.02759758591867 L 349.4735435538764,412.0315118750123 L 349.4721471245897,412.0354410530022 L 349.470792055499,412.0393846861227 L 349.4694784961985,412.04334233901216 L 349.46820659170015,412.0473135747614 L 349.46697648241695,412.0512979549617 L 349.4657883041483,412.0552950397533 L 349.4646421880642,412.05930438787374 L 349.4635382606915,412.0633255567069 L 349.46247664389927,412.0673581023317 L 349.46145745488593,412.07140157957093 L 349.46048080616583,412.07545554204074 L 349.4595468055572,412.0795195421997 L 349.4586555561699,412.0835931313983 L 349.4578071563945,412.08767585992837 L 349.45700169989084,412.09176727707285 L 349.4562392755782,412.0958669311554 L 349.45551996762515,412.0999743695905 L 349.4548438554406,412.1040891389331 L 349.4542110136644,412.108210784929 L 349.45362151216005,412.1123388525648 L 349.453075416006,412.11647288611806 L 349.4525727854892,412.12061242920794 L 349.452113676098,412.12475702484517 L 349.45169813851635,412.1289062154828 L 349.4513262186179,412.13305954306657 L 349.4509979574612,412.1372165490856 L 349.45071339128486,412.1413767746228 L 349.45047255150394,412.14553976040577 L 349.4502754647062,412.1497050468573 L 349.4501221526492,412.1538721741463 L 349.45001263225805,412.15804068223827 L 349.44994691562334,412.16221011094655 L 349.44992500999996,412.16638" fill="none" stroke="rgb(0,0,0)" stroke-width="0.5"/>
</svg>
