<?xml version="1.0" ?>
<svg xmlns="http://www.w3.org/2000/svg" xmlns:cc="http://creativecommons.org/ns#" xmlns:dc="http://purl.org/dc/elements/1.1/" xmlns:ev="http://www.w3.org/2001/xml-events" xmlns:inkscape="http://www.inkscape.org/namespaces/inkscape" xmlns:rdf="http://www.w3.org/1999/02/22-rdf-syntax-ns#" xmlns:sodipodi="http://sodipodi.sourceforge.net/DTD/sodipodi-0.dtd" xmlns:svg="http://www.w3.org/2000/svg" xmlns:xlink="http://www.w3.org/1999/xlink" baseProfile="full" height="686.65mm" id="svg63" inkscape:version="1.1 (c68e22c387, 2021-05-23)" sodipodi:docname="PortablePower.svg" version="1.1" viewBox="0.0 0.0 448.08 686.65" width="448.08mm">
	<defs/>
	<path d="M 115.14061,441.12054 L 235.37749,441.12054 L 235.37749,465.161199 L 115.14061,465.161199 L 115.14061,441.12054" fill="none" stroke="rgb(0,0,0)" stroke-width="0.5"/>
	<path d="M 12.782228,719.20093 L 46.335195999999996,719.49208 L 46.64137164311779,719.4838064012464 L 46.90458896896141,719.454851019722 L 47.12719115847308,719.4075774947722 L 47.31152139259502,719.3443494657428 L 47.459922852269464,719.2675305719791 L 47.57473871843864,719.1794844528271 L 47.65831217204477,719.0825747476322 L 47.71298639403009,718.9791650957399 L 47.741104565336826,718.871619136496 L 47.74500986690721,718.762300509246 L 47.72704547968346,718.6535728533355 L 47.68955458460781,718.5477998081102 L 47.63488036262249,718.4473450129157 L 47.565365994669726,718.3545721070975 L 47.48335466169174,718.2718447300012 L 47.39118954463078,718.2015265209726 L 47.29121382442904,718.1459811193571 L 47.18577068202878,718.1075721645004 L 47.07720329837221,718.0886632957481 L 46.96785485440157,718.0916181524458 L 46.86006853105908,718.118800373939 L 46.75618750928697,718.1725735995736 L 46.65855497002747,718.2553014686949 L 46.569514094222804,718.3693476206487 L 46.4914080628152,718.5170756947805 L 46.42658005674689,718.7008493304359 L 46.3773732569601,718.9230321669605 L 46.34613084439706,719.1859878437 L 46.335195999999996,719.49208 L 46.335195999999996,727.11708 L 46.34022035524212,727.2972957940054 L 46.35511497986797,727.4748681831974 L 46.37961221222682,727.6495295059248 L 46.41344439066792,727.8210121005371 L 46.456343853540524,727.9890483053836 L 46.50804293919389,728.1533704588134 L 46.56827398597728,728.3137108991758 L 46.636769332239936,728.4698019648201 L 46.71326131633113,728.6213759940956 L 46.7974822766001,728.7681653253516 L 46.889164551396114,728.909902296937 L 46.988040479068424,729.0463192472015 L 47.093842397966284,729.1771485144941 L 47.20630264643896,729.3021224371641 L 47.325153562835695,729.4209733535608 L 47.45012748550575,729.5334336020335 L 47.58095675279838,729.6392355209314 L 47.71737370306284,729.7381114486037 L 47.85911067464839,729.8297937233997 L 48.00590000590429,729.9140146836686 L 48.157474035179774,729.9905066677597 L 48.31356510082412,730.0590020140224 L 48.47390554118658,730.1192330608058 L 48.638227694616404,730.1709321464591 L 48.80626389946285,730.2138316093317 L 48.97774649407518,730.2476637877728 L 49.15240781680263,730.2721610201315 L 49.32998020599448,730.2870556447574 L 49.51019599999997,730.2920799999995 L 76.510196,730.2920799999999 L 76.69041179400548,730.2870556447579 L 76.86798418319734,730.272161020132 L 77.0426455059248,730.2476637877731 L 77.21412810053712,730.213831609332 L 77.38216430538357,730.1709321464594 L 77.54648645881339,730.1192330608061 L 77.70682689917585,730.0590020140227 L 77.8629179648202,729.99050666776 L 78.01449199409569,729.9140146836688 L 78.16128132535158,729.8297937233998 L 78.30301829693713,729.7381114486038 L 78.4394352472016,729.6392355209315 L 78.57026451449423,729.5334336020337 L 78.69523843716428,729.4209733535611 L 78.81408935356102,729.3021224371643 L 78.92654960203369,729.1771485144942 L 79.03235152093154,729.0463192472016 L 79.13122744860385,728.9099022969372 L 79.22290972339987,728.7681653253517 L 79.30713068366884,728.6213759940957 L 79.38362266776002,728.4698019648202 L 79.45211801402269,728.3137108991759 L 79.51234906080606,728.1533704588135 L 79.56404814645943,727.9890483053837 L 79.60694760933204,727.8210121005372 L 79.64077978777313,727.649529505925 L 79.66527702013198,727.4748681831975 L 79.68017164475783,727.2972957940057 L 79.68519599999995,727.1170800000002 L 79.68519599999999,719.49208 L 79.67426074230185,719.185892784452 L 79.64301714887858,718.922665509861 L 79.59380848923693,718.7000549067202 L 79.52897803288367,718.515717705523 L 79.4508690493255,718.3673106367625 L 79.3618248080692,718.252490430932 L 79.2641885786215,718.1689138185247 L 79.16030363048914,718.114237530034 L 79.05251323317889,718.086118295953 L 78.94316065619745,718.0822128467752 L 78.83458916905161,718.1001779129936 L 78.72914204124808,718.1376702251014 L 78.62916254229364,718.1923465135922 L 78.536993941695,718.2618635089589 L 78.45497950895894,718.3438779416949 L 78.38546251359217,718.4360465422935 L 78.33078622510146,718.536026041248 L 78.29329391299353,718.6414731690514 L 78.27532884677515,718.7500446561972 L 78.27923429595306,718.8593972331787 L 78.307353530034,718.9671876304889 L 78.36202981852472,719.0710725786213 L 78.44560643093195,719.1687088080689 L 78.56042663676244,719.2577530493252 L 78.70883370552295,719.3358620328834 L 78.8931709067202,719.4006924892366 L 79.11578150986095,719.4499011488782 L 79.37900878445195,719.4811447423015 L 79.68519599999995,719.4920799999995 L 81.66304120000002,719.4920799999995 L 94.3630412,719.4920799999999 L 100.3352,719.49208 L 100.641387215548,719.4811447423018 L 100.904614490139,719.4499011488786 L 101.12722509327976,719.4006924892369 L 101.31156229447701,719.3358620328837 L 101.45996936323752,719.2577530493255 L 101.57478956906802,719.1687088080693 L 101.65836618147526,719.0710725786215 L 101.71304246996597,718.9671876304892 L 101.7411617040469,718.8593972331789 L 101.74506715322482,718.7500446561975 L 101.72710208700644,718.6414731690517 L 101.68960977489853,718.5360260412482 L 101.63493348640782,718.4360465422938 L 101.56541649104105,718.343877941695 L 101.48340205830497,718.261863508959 L 101.39123345770635,718.1923465135923 L 101.29125395875191,718.1376702251016 L 101.1858068309484,718.1001779129937 L 101.07723534380254,718.0822128467753 L 100.96788276682112,718.0861182959532 L 100.86009236951087,718.1142375300342 L 100.7562074213785,718.1689138185249 L 100.6585711919308,718.2524904309321 L 100.5695269506745,718.3673106367627 L 100.49141796711635,718.5157177055231 L 100.42658751076307,718.7000549067204 L 100.37737885112143,718.9226655098612 L 100.34613525769817,719.1858927844522 L 100.33520000000003,719.4920800000002 L 100.3352,727.11708 L 100.34022435524211,727.2972957940054 L 100.35511897986797,727.4748681831974 L 100.37961621222682,727.6495295059248 L 100.41344839066792,727.8210121005371 L 100.45634785354054,727.9890483053836 L 100.5080469391939,728.1533704588134 L 100.56827798597729,728.3137108991758 L 100.63677333223994,728.4698019648201 L 100.71326531633113,728.6213759940956 L 100.79748627660011,728.7681653253516 L 100.88916855139612,728.909902296937 L 100.98804447906844,729.0463192472015 L 101.0938463979663,729.1771485144941 L 101.20630664643897,729.3021224371641 L 101.32515756283571,729.4209733535608 L 101.45013148550576,729.5334336020335 L 101.5809607527984,729.6392355209314 L 101.71737770306287,729.7381114486037 L 101.85911467464841,729.8297937233997 L 102.00590400590431,729.9140146836686 L 102.1574780351798,729.9905066677597 L 102.31356910082415,730.0590020140224 L 102.47390954118661,730.1192330608058 L 102.63823169461644,730.1709321464591 L 102.80626789946288,730.2138316093317 L 102.97775049407521,730.2476637877728 L 103.15241181680267,730.2721610201315 L 103.32998420599452,730.2870556447574 L 103.51020000000001,730.2920799999995 L 130.5102,730.2920799999999 L 130.6904157940055,730.2870556447579 L 130.86798818319733,730.272161020132 L 131.0426495059248,730.2476637877731 L 131.2141321005371,730.213831609332 L 131.38216830538357,730.1709321464594 L 131.5464904588134,730.1192330608061 L 131.70683089917586,730.0590020140227 L 131.8629219648202,729.99050666776 L 132.01449599409568,729.9140146836688 L 132.16128532535157,729.8297937233998 L 132.30302229693712,729.7381114486038 L 132.4394392472016,729.6392355209315 L 132.57026851449422,729.5334336020337 L 132.69524243716427,729.4209733535611 L 132.814093353561,729.3021224371643 L 132.92655360203366,729.1771485144942 L 133.03235552093153,729.0463192472016 L 133.13123144860384,728.9099022969372 L 133.22291372339984,728.7681653253517 L 133.3071346836688,728.6213759940957 L 133.38362666776,728.4698019648202 L 133.45212201402265,728.3137108991759 L 133.51235306080605,728.1533704588135 L 133.5640521464594,727.9890483053837 L 133.606951609332,727.8210121005372 L 133.6407837877731,727.649529505925 L 133.66528102013194,727.4748681831975 L 133.68017564475778,727.2972957940057 L 133.6851999999999,727.1170800000002 L 133.6852,719.49208 L 133.67426474230186,719.185892784452 L 133.6430211488786,718.922665509861 L 133.59381248923697,718.7000549067202 L 133.52898203288368,718.515717705523 L 133.4508730493255,718.3673106367625 L 133.36182880806922,718.252490430932 L 133.2641925786215,718.1689138185247 L 133.16030763048917,718.114237530034 L 133.0525172331789,718.086118295953 L 132.94316465619747,718.0822128467752 L 132.83459316905163,718.1001779129936 L 132.7291460412481,718.1376702251014 L 132.62916654229366,718.1923465135922 L 132.536997941695,718.2618635089589 L 132.45498350895895,718.3438779416949 L 132.38546651359218,718.4360465422935 L 132.33079022510145,718.536026041248 L 132.29329791299355,718.6414731690514 L 132.27533284677517,718.7500446561972 L 132.27923829595306,718.8593972331787 L 132.307357530034,718.9671876304889 L 132.3620338185247,719.0710725786213 L 132.44561043093194,719.1687088080689 L 132.56043063676245,719.2577530493252 L 132.70883770552294,719.3358620328834 L 132.8931749067202,719.4006924892366 L 133.11578550986096,719.4499011488782 L 133.37901278445196,719.4811447423015 L 133.68519999999995,719.4920799999995 L 154.33520000000001,719.49208 L 154.641387215548,719.4811447423018 L 154.904614490139,719.4499011488786 L 155.12722509327978,719.4006924892369 L 155.31156229447703,719.3358620328837 L 155.45996936323755,719.2577530493255 L 155.57478956906806,719.1687088080693 L 155.6583661814753,719.0710725786215 L 155.71304246996598,718.9671876304892 L 155.74116170404693,718.8593972331789 L 155.74506715322485,718.7500446561975 L 155.72710208700647,718.6414731690517 L 155.68960977489857,718.5360260412482 L 155.63493348640785,718.4360465422938 L 155.56541649104108,718.343877941695 L 155.48340205830502,718.261863508959 L 155.3912334577064,718.1923465135923 L 155.29125395875195,718.1376702251016 L 155.18580683094845,718.1001779129937 L 155.0772353438026,718.0822128467753 L 154.9678827668212,718.0861182959532 L 154.8600923695109,718.1142375300342 L 154.75620742137858,718.1689138185249 L 154.6585711919309,718.2524904309321 L 154.56952695067457,718.3673106367627 L 154.49141796711643,718.5157177055231 L 154.42658751076314,718.7000549067204 L 154.37737885112153,718.9226655098612 L 154.34613525769825,719.1858927844522 L 154.33520000000013,719.4920800000002 L 154.33520000000001,727.11708 L 154.34022435524213,727.2972957940054 L 154.355118979868,727.4748681831974 L 154.37961621222684,727.6495295059248 L 154.41344839066792,727.8210121005371 L 154.45634785354054,727.9890483053836 L 154.50804693919392,728.1533704588134 L 154.5682779859773,728.3137108991758 L 154.63677333223995,728.4698019648201 L 154.71326531633113,728.6213759940956 L 154.79748627660013,728.7681653253516 L 154.88916855139612,728.909902296937 L 154.98804447906844,729.0463192472015 L 155.0938463979663,729.1771485144941 L 155.20630664643897,729.3021224371641 L 155.3251575628357,729.4209733535608 L 155.45013148550575,729.5334336020335 L 155.58096075279838,729.6392355209314 L 155.71737770306285,729.7381114486037 L 155.8591146746484,729.8297937233997 L 156.00590400590428,729.9140146836686 L 156.1574780351798,729.9905066677597 L 156.31356910082414,730.0590020140224 L 156.47390954118657,730.1192330608058 L 156.6382316946164,730.1709321464591 L 156.80626789946285,730.2138316093317 L 156.97775049407517,730.2476637877728 L 157.15241181680264,730.2721610201315 L 157.32998420599446,730.2870556447574 L 157.51019999999997,730.2920799999995 L 184.51020000000003,730.2920799999999 L 184.69041579400553,730.2870556447579 L 184.86798818319735,730.272161020132 L 185.04264950592483,730.2476637877731 L 185.21413210053714,730.213831609332 L 185.3821683053836,730.1709321464594 L 185.54649045881342,730.1192330608061 L 185.70683089917588,730.0590020140227 L 185.86292196482023,729.99050666776 L 186.01449599409574,729.9140146836688 L 186.16128532535163,729.8297937233998 L 186.30302229693717,729.7381114486038 L 186.43943924720165,729.6392355209315 L 186.5702685144943,729.5334336020337 L 186.69524243716435,729.4209733535611 L 186.81409335356108,729.3021224371643 L 186.92655360203378,729.1771485144942 L 187.03235552093165,729.0463192472016 L 187.13123144860396,728.9099022969372 L 187.22291372339998,728.7681653253517 L 187.30713468366895,728.6213759940957 L 187.38362666776015,728.4698019648202 L 187.45212201402282,728.3137108991759 L 187.51235306080622,728.1533704588135 L 187.56405214645957,727.9890483053837 L 187.60695160933219,727.8210121005372 L 187.6407837877733,727.649529505925 L 187.66528102013217,727.4748681831975 L 187.68017564475804,727.2972957940057 L 187.68520000000015,727.1170800000002 L 187.68520000000004,719.49208 L 187.6742647423019,719.185892784452 L 187.64302114887863,718.922665509861 L 187.593812489237,718.7000549067202 L 187.5289820328837,718.515717705523 L 187.45087304932554,718.3673106367625 L 187.36182880806925,718.252490430932 L 187.26419257862153,718.1689138185247 L 187.1603076304892,718.114237530034 L 187.05251723317892,718.086118295953 L 186.9431646561975,718.0822128467752 L 186.83459316905166,718.1001779129936 L 186.72914604124813,718.1376702251014 L 186.6291665422937,718.1923465135922 L 186.53699794169503,718.2618635089589 L 186.45498350895897,718.3438779416949 L 186.3854665135922,718.4360465422935 L 186.33079022510148,718.536026041248 L 186.29329791299358,718.6414731690514 L 186.2753328467752,718.7500446561972 L 186.2792382959531,718.8593972331787 L 186.30735753003404,718.9671876304889 L 186.36203381852474,719.0710725786213 L 186.44561043093196,719.1687088080689 L 186.56043063676248,719.2577530493252 L 186.70883770552297,719.3358620328834 L 186.89317490672022,719.4006924892366 L 187.11578550986098,719.4499011488782 L 187.379012784452,719.4811447423015 L 187.68519999999998,719.4920799999995 L 208.33520000000004,719.49208 L 208.64138721554804,719.4811447423018 L 208.90461449013904,719.4499011488786 L 209.1272250932798,719.4006924892369 L 209.31156229447706,719.3358620328837 L 209.45996936323758,719.2577530493255 L 209.5747895690681,719.1687088080693 L 209.65836618147532,719.0710725786215 L 209.713042469966,718.9671876304892 L 209.74116170404696,718.8593972331789 L 209.74506715322488,718.7500446561975 L 209.7271020870065,718.6414731690517 L 209.6896097748986,718.5360260412482 L 209.63493348640787,718.4360465422938 L 209.5654164910411,718.343877941695 L 209.48340205830505,718.261863508959 L 209.39123345770642,718.1923465135923 L 209.29125395875198,718.1376702251016 L 209.18580683094848,718.1001779129937 L 209.07723534380264,718.0822128467753 L 208.96788276682122,718.0861182959532 L 208.86009236951094,718.1142375300342 L 208.7562074213786,718.1689138185249 L 208.65857119193092,718.2524904309321 L 208.5695269506746,718.3673106367627 L 208.49141796711646,718.5157177055231 L 208.42658751076317,718.7000549067204 L 208.37737885112156,718.9226655098612 L 208.34613525769828,719.1858927844522 L 208.33520000000016,719.4920800000002 L 208.33520000000004,727.11708 L 208.34022435524216,727.2972957940054 L 208.35511897986802,727.4748681831974 L 208.37961621222686,727.6495295059248 L 208.41344839066795,727.8210121005371 L 208.45634785354056,727.9890483053836 L 208.50804693919395,728.1533704588134 L 208.56827798597732,728.3137108991758 L 208.63677333223998,728.4698019648201 L 208.71326531633116,728.6213759940956 L 208.79748627660015,728.7681653253516 L 208.88916855139615,728.909902296937 L 208.98804447906846,729.0463192472015 L 209.09384639796633,729.1771485144941 L 209.206306646439,729.3021224371641 L 209.32515756283573,729.4209733535608 L 209.45013148550578,729.5334336020335 L 209.5809607527984,729.6392355209314 L 209.71737770306288,729.7381114486037 L 209.85911467464842,729.8297937233997 L 210.0059040059043,729.9140146836686 L 210.15747803517982,729.9905066677597 L 210.31356910082417,730.0590020140224 L 210.4739095411866,730.1192330608058 L 210.63823169461642,730.1709321464591 L 210.80626789946288,730.2138316093317 L 210.9777504940752,730.2476637877728 L 211.15241181680267,730.2721610201315 L 211.3299842059945,730.2870556447574 L 211.5102,730.2920799999995 L 238.51020000000005,730.2920799999999 L 238.69041579400556,730.2870556447579 L 238.86798818319738,730.272161020132 L 239.04264950592486,730.2476637877731 L 239.21413210053717,730.213831609332 L 239.38216830538363,730.1709321464594 L 239.54649045881345,730.1192330608061 L 239.7068308991759,730.0590020140227 L 239.86292196482026,729.99050666776 L 240.01449599409577,729.9140146836688 L 240.16128532535166,729.8297937233998 L 240.3030222969372,729.7381114486038 L 240.43943924720168,729.6392355209315 L 240.57026851449433,729.5334336020337 L 240.69524243716438,729.4209733535611 L 240.8140933535611,729.3021224371643 L 240.9265536020338,729.1771485144942 L 241.03235552093167,729.0463192472016 L 241.13123144860398,728.9099022969372 L 241.2229137234,728.7681653253517 L 241.30713468366898,728.6213759940957 L 241.38362666776018,728.4698019648202 L 241.45212201402285,728.3137108991759 L 241.51235306080625,728.1533704588135 L 241.5640521464596,727.9890483053837 L 241.6069516093322,727.8210121005372 L 241.64078378777333,727.649529505925 L 241.6652810201322,727.4748681831975 L 241.68017564475807,727.2972957940057 L 241.68520000000018,727.1170800000002 L 241.68520000000007,719.49208 L 241.67426474230192,719.185892784452 L 241.64302114887866,718.922665509861 L 241.59381248923702,718.7000549067202 L 241.52898203288373,718.515717705523 L 241.4508730493256,718.3673106367625 L 241.36182880806928,718.252490430932 L 241.2641925786216,718.1689138185247 L 241.16030763048923,718.114237530034 L 241.05251723317897,718.086118295953 L 240.94316465619755,718.0822128467752 L 240.83459316905171,718.1001779129936 L 240.72914604124819,718.1376702251014 L 240.62916654229375,718.1923465135922 L 240.53699794169512,718.2618635089589 L 240.45498350895906,718.3438779416949 L 240.38546651359232,718.4360465422935 L 240.3307902251016,718.536026041248 L 240.2932979129937,718.6414731690514 L 240.2753328467753,718.7500446561972 L 240.27923829595323,718.8593972331787 L 240.30735753003418,718.9671876304889 L 240.3620338185249,719.0710725786213 L 240.44561043093213,719.1687088080689 L 240.56043063676265,719.2577530493252 L 240.70883770552317,719.3358620328834 L 240.89317490672045,719.4006924892366 L 241.1157855098612,719.4499011488782 L 241.37901278445224,719.4811447423015 L 241.68520000000024,719.4920799999995 L 262.33520000000004,719.49208 L 262.64138721554804,719.4811447423018 L 262.90461449013907,719.4499011488786 L 263.1272250932798,719.4006924892369 L 263.3115622944771,719.3358620328837 L 263.4599693632376,719.2577530493255 L 263.57478956906806,719.1687088080693 L 263.6583661814753,719.0710725786215 L 263.713042469966,718.9671876304892 L 263.741161704047,718.8593972331789 L 263.74506715322485,718.7500446561975 L 263.72710208700653,718.6414731690517 L 263.6896097748986,718.5360260412482 L 263.6349334864079,718.4360465422938 L 263.5654164910411,718.343877941695 L 263.48340205830505,718.261863508959 L 263.39123345770645,718.1923465135923 L 263.291253958752,718.1376702251016 L 263.1858068309485,718.1001779129937 L 263.0772353438026,718.0822128467753 L 262.9678827668212,718.0861182959532 L 262.86009236951094,718.1142375300342 L 262.7562074213786,718.1689138185249 L 262.6585711919309,718.2524904309321 L 262.56952695067463,718.3673106367627 L 262.49141796711643,718.5157177055231 L 262.42658751076317,718.7000549067204 L 262.37737885112153,718.9226655098612 L 262.3461352576983,719.1858927844522 L 262.33520000000016,719.4920800000002 L 262.33520000000004,727.11708 L 262.3402243552422,727.2972957940054 L 262.355118979868,727.4748681831974 L 262.37961621222684,727.6495295059248 L 262.41344839066795,727.8210121005371 L 262.4563478535406,727.9890483053836 L 262.50804693919395,728.1533704588134 L 262.5682779859773,728.3137108991758 L 262.63677333223995,728.4698019648201 L 262.71326531633116,728.6213759940956 L 262.7974862766001,728.7681653253516 L 262.8891685513961,728.909902296937 L 262.98804447906844,729.0463192472015 L 263.0938463979663,729.1771485144941 L 263.2063066464389,729.3021224371641 L 263.32515756283567,729.4209733535608 L 263.4501314855057,729.5334336020335 L 263.5809607527983,729.6392355209314 L 263.71737770306277,729.7381114486037 L 263.8591146746483,729.8297937233997 L 264.0059040059042,729.9140146836686 L 264.1574780351797,729.9905066677597 L 264.313569100824,730.0590020140224 L 264.47390954118646,730.1192330608058 L 264.63823169461625,730.1709321464591 L 264.8062678994627,730.2138316093317 L 264.977750494075,730.2476637877728 L 265.15241181680244,730.2721610201315 L 265.32998420599426,730.2870556447574 L 265.51019999999977,730.2920799999995 L 270.7030004,730.2920799999996 L 283.40300040000005,730.2920799999998 L 292.51020000000005,730.2920799999999 L 292.69041579400556,730.2870556447579 L 292.8679881831974,730.272161020132 L 293.0426495059249,730.2476637877731 L 293.2141321005372,730.213831609332 L 293.38216830538363,730.1709321464594 L 293.5464904588135,730.1192330608061 L 293.7068308991759,730.0590020140227 L 293.86292196482026,729.99050666776 L 294.01449599409574,729.9140146836688 L 294.1612853253516,729.8297937233998 L 294.3030222969372,729.7381114486038 L 294.4394392472016,729.6392355209315 L 294.5702685144943,729.5334336020337 L 294.6952424371643,729.4209733535611 L 294.8140933535611,729.3021224371643 L 294.9265536020337,729.1771485144942 L 295.03235552093156,729.0463192472016 L 295.1312314486039,728.9099022969372 L 295.22291372339987,728.7681653253517 L 295.30713468366883,728.6213759940957 L 295.38362666776004,728.4698019648202 L 295.4521220140227,728.3137108991759 L 295.51235306080605,728.1533704588135 L 295.5640521464594,727.9890483053837 L 295.60695160933204,727.8210121005372 L 295.6407837877731,727.649529505925 L 295.66528102013194,727.4748681831975 L 295.6801756447578,727.2972957940057 L 295.6851999999999,727.1170800000002 L 295.68520000000007,719.49208 L 295.67426474230194,719.185892784452 L 295.64302114887863,718.922665509861 L 295.593812489237,718.7000549067202 L 295.52898203288373,718.515717705523 L 295.4508730493256,718.3673106367625 L 295.3618288080693,718.252490430932 L 295.2641925786216,718.1689138185247 L 295.1603076304892,718.114237530034 L 295.05251723317895,718.086118295953 L 294.9431646561975,718.0822128467752 L 294.8345931690517,718.1001779129936 L 294.72914604124816,718.1376702251014 L 294.6291665422937,718.1923465135922 L 294.53699794169506,718.2618635089589 L 294.454983508959,718.3438779416949 L 294.38546651359223,718.4360465422935 L 294.3307902251015,718.536026041248 L 294.2932979129936,718.6414731690514 L 294.2753328467752,718.7500446561972 L 294.2792382959531,718.8593972331787 L 294.30735753003404,718.9671876304889 L 294.36203381852476,719.0710725786213 L 294.445610430932,719.1687088080689 L 294.5604306367625,719.2577530493252 L 294.708837705523,719.3358620328834 L 294.8931749067203,719.4006924892366 L 295.11578550986104,719.4499011488782 L 295.379012784452,719.4811447423015 L 295.6852,719.4920799999995 L 326.21020000000004,719.49208 L 326.4224589286154,719.4917148677682 L 326.69361145270415,719.4906498815039 L 327.01956600721644,719.4889306568534 L 327.39623102710243,719.4866028094633 L 327.81951494731237,719.4837119549796 L 328.2853262027964,719.480303709049 L 328.7895732285047,719.476423687318 L 329.3281644593875,719.4721175054327 L 329.8970083303949,719.4674307790397 L 330.49201327647717,719.4624091237852 L 331.10908773258444,719.4570981553157 L 331.74414013366686,719.4515434892778 L 332.39307891467473,719.4457907413176 L 333.0518125105581,719.4398855270816 L 333.7162493562672,719.4338734622163 L 334.38229788675227,719.427800162368 L 335.04586653696344,719.421711243183 L 335.70286374185093,719.415652320308 L 336.3491979363648,719.4096690093891 L 336.9807775554554,719.4038069260728 L 337.59351103407283,719.3981116860056 L 338.18330680716724,719.3926289048336 L 338.7460733096889,719.3874041982035 L 339.2777189765879,719.3824831817617 L 339.77415224281447,719.3779114711543 L 340.2312815433188,719.373734682028 L 340.6450153130511,719.3699984300292 L 341.0112619869615,719.3667483308041 L 341.32593000000014,719.3640299999992 L 341.37580752721885,658.9721060375509 L 341.38628084788223,646.2909644411981 L 341.50408116691614,503.6578327173778 L 341.5145648970826,490.96408724998525 L 341.57298000000003,420.23482999999993 L 341.2225986715323,420.23157799171753 L 340.8238876837919,420.22670577678457 L 340.38079342982496,420.2203390700725 L 339.89726230267746,420.2126035864529 L 339.37724069539547,420.203625040797 L 338.82467500102507,420.1935291479765 L 338.2435116126123,420.1824416228627 L 337.6376969232031,420.17048818032714 L 337.0111773258436,420.15779453524124 L 336.3678992135799,420.1444864024765 L 335.711808979458,420.1306894969043 L 335.04685301652387,420.11652953339615 L 334.37697771782365,420.1021322268235 L 333.7061294764033,420.08762329205786 L 333.03825468530897,420.07312844397063 L 332.3772997375866,420.05877339743324 L 331.72721102628236,420.04468386731725 L 331.0919349444422,420.030985568494 L 330.47541788511217,420.017804215835 L 329.8816062413383,420.0052655242117 L 329.3144464061667,419.99349520849563 L 328.7778847726434,419.98261898355815 L 328.27586773381444,419.9727625642708 L 327.81234168272584,419.96405166550494 L 327.39125301242365,419.95661200213215 L 327.0165481159539,419.95056928902375 L 326.69217338636275,419.9460492410513 L 326.4220752166961,419.94317757308625 L 326.21020000000004,419.94208000000003 L 263.39156384551086,419.8837264146462 L 250.71385840753067,419.87194982076176 L 94.35931843030896,419.72670871792116 L 81.66618471866337,419.71491779238073 L 12.782228,419.65093 L 12.587121102136209,419.6514232994383 L 12.365963921489195,419.6532330661364 L 12.120657210234121,419.6562334130141 L 11.853101720546148,419.6602984529911 L 11.565198204600435,419.6653022989873 L 11.258847414572143,419.6711190639223 L 10.935950102636435,419.6776228607159 L 10.59840702096847,419.68468780228795 L 10.248118921743409,419.69218800155807 L 9.886986557136414,419.69999757144615 L 9.516910679322645,419.70799062487185 L 9.139792040477264,419.716041274755 L 8.75753139277543,419.72402363401534 L 8.372029488392307,419.7318118155726 L 7.985187079503053,419.73927993234656 L 7.598904918282829,419.746302097257 L 7.2150837569068,419.7527524232236 L 6.835624347550123,419.7585050231662 L 6.462427442387959,419.7634340100045 L 6.09739379359547,419.7674134966583 L 5.742424153347817,419.7703175960474 L 5.399419273820161,419.7720204210915 L 5.070279907187662,419.77239608471035 L 4.7569068056254835,419.7713186998237 L 4.461200721308781,419.7686623793514 L 4.185062406412721,419.76430123621304 L 3.9303926131124634,419.7581093833286 L 3.699092093583168,419.7499609336176 L 3.4930615999999937,419.73973 L 3.551834149283448,490.9704669583856 L 3.5622980921243963,503.65248210216237 L 3.679984109960767,646.2847463545194 L 3.6904584422404056,658.9793532164289 L 3.7401112000000007,719.15715 L 3.9513594817007673,719.1515977182337 L 4.183684305924803,719.1468561216122 L 4.43554184135471,719.1428911866005 L 4.705388256673091,719.1396688896634 L 4.99167972056255,719.1371552072656 L 5.292872401705687,719.1353161158719 L 5.607422468785109,719.1341175919472 L 5.933786090483416,719.1335256119562 L 6.270419435483211,719.1335061523638 L 6.615778672467098,719.1340251896347 L 6.968319970117676,719.1350487002337 L 7.326499497117554,719.1365426606258 L 7.688773422149331,719.1384730472755 L 8.053597913895612,719.1408058366477 L 8.419429141038995,719.1435070052073 L 8.784723272262086,719.1465425294191 L 9.147936476247489,719.1498783857478 L 9.507524921677808,719.1534805506582 L 9.86194477723564,719.1573150006151 L 10.209652211603593,719.1613477120834 L 10.54910339346427,719.1655446615279 L 10.878754491500269,719.1698718254132 L 11.197061674394197,719.1742951802044 L 11.502481110828654,719.1787807023659 L 11.793468969486247,719.1832943683629 L 12.068481419049577,719.1878021546601 L 12.325974628201243,719.1922700377221 L 12.564404765623852,719.1966639940139 L 12.782228000000005,719.2009500000001" fill="none" stroke="rgb(0,0,0)" stroke-width="0.5"/>
	<path d="M 0.1164603,412.16637 L 1.1990427249999929,412.16637 L 13.899042724999992,412.16637 L 156.06420757500004,412.16637 L 168.76420757500003,412.16637 L 349.84679,412.16637" fill="none" stroke="rgb(0,0,0)" stroke-width="0.5"/>
	<path d="M 349.44992500999996,412.16638 L 349.4499469156225,412.17054988896933 L 349.4500126322563,412.1747193176776 L 349.45012215264654,412.17888782576966 L 349.45027546470266,412.1830549530586 L 349.4504725514995,412.1872202395102 L 349.4507133912795,412.19138322529324 L 349.450997957455,412.1955434508305 L 349.45132621861086,412.1997004568496 L 349.45169813850845,412.2038537844335 L 349.4521136760892,412.20800297507117 L 349.4525727854795,412.2121475707085 L 349.45307541599544,412.2162871137985 L 349.4536215121486,412.2204211473519 L 349.45421101365207,412.2245492149878 L 349.4548438554273,412.2286708609838 L 349.4555199676111,412.2327856303266 L 349.45623927556323,412.23689306876184 L 349.45700169987504,412.24099272284457 L 349.4578071563778,412.24508413998916 L 349.4586555561524,412.2491668685194 L 349.45954680553876,412.2532404577182 L 349.46048080614656,412.2573044578774 L 349.4614574548658,412.26135842034745 L 349.4624766438783,412.26540189758686 L 349.4635382606696,412.2694344432119 L 349.4646421880415,412.27345561204527 L 349.4657883041247,412.27746496016596 L 349.46697648239257,412.2814620449578 L 349.4682065916749,412.2854464251584 L 349.4694784961725,412.2894176609079 L 349.4707920554721,412.29337531379764 L 349.47214712456196,412.2973189469183 L 349.47354355384783,412.30124812490857 L 349.47498118916945,412.30516241400255 L 349.47645987181755,412.30906138207826 L 349.4779794385514,412.31294459870503 L 349.4795397216169,412.31681163519113 L 349.4811405487649,412.320662064631 L 349.4827817432705,412.32449546195244 L 349.4844631239522,412.3283114039636 L 349.4861845051922,412.3321094693995 L 349.487945696957,412.3358892389688 L 349.4897465048179,412.33965029539985 L 349.49158672997277,412.34339222348683 L 349.49346616926806,412.3471146101358 L 349.49538461522116,412.35081704440995 L 349.4973418560432,412.35449911757513 L 349.49933767566245,412.3581604231451 L 349.5013718537484,412.3618005569261 L 349.5034441657359,412.36541911706183 L 349.50555438284977,412.3690157040775 L 349.5077022721304,412.37258992092427 L 349.50988759645935,412.37614137302256 L 349.5121101145855,412.3796696683062 L 349.5143695811515,412.38317441726525 L 349.5166657467213,412.38665523298937 L 349.5189983578072,412.39011173121025 L 349.5213671568983,412.3935435303441 L 349.52377188248846,412.39695025153395 L 349.52621226910543,412.40033151869125 L 349.52868804734027,412.4036869585374 L 349.5311989438768,412.40701620064516 L 349.53374468152197,412.4103188774793 L 349.5363249792365,412.41359462443745 L 349.5389395521656,412.4168430798901 L 349.54158811167076,412.42006388522054 L 349.5442703653616,412.4232566848646 L 349.54698601712784,412.42642112634985 L 349.5497347671723,412.4295568603345 L 349.5525163120438,412.4326635406459 L 349.5553303446708,412.43574082431877 L 349.55817655439523,412.4387883716332 L 349.56105462700674,412.441805846152 L 349.5639642447776,412.444792914758 L 349.56690508649746,412.4477492476905 L 349.569876827509,412.45067451858216 L 349.5728791397438,412.4535684044946 L 349.57591169175845,412.4564305859542 L 349.5789741487712,412.45926074698747 L 349.58206617269883,412.4620585751559 L 349.5851874221943,412.4648237615902 L 349.5883375526838,412.46755600102483 L 349.5915162164055,412.47025499183127 L 349.59472306244754,412.4729204360517 L 349.59795773678667,412.47555203943153 L 349.6012198823277,412.4781495114522 L 349.6045091389427,412.4807125653631 L 349.60782514351064,412.4832409182132 L 349.61116752995787,412.48573429088225 L 349.614535929298,412.48819240811184 L 349.6179299696731,412.4906149985356 L 349.62134927639465,412.493001794709 L 349.62479347198456,412.4953525331393 L 349.62826217621733,412.4976669543142 L 349.6317550061617,412.49994480273074 L 349.63527157622303,412.50218582692355 L 349.638811498186,412.5043897794923 L 349.6423743812571,412.5065564171295 L 349.6459598321082,412.50868550064683 L 349.6495674549197,412.51077679500185 L 349.65319685142424,412.51283006932397 L 349.6568476209508,412.51484509693984 L 349.66051936046904,412.51682165539836 L 349.6642116646332,412.5187595264953 L 349.66792412582765,412.5206584962973 L 349.67165633421126,412.52251835516574 L 349.67540787776306,412.5243388977794 L 349.6791783423274,412.5261199231577 L 349.68296731166,412.52786123468235 L 349.6867743674735,412.5295626401196 L 349.6905990894841,412.53122395164087 L 349.6944410554576,412.532844985844 L 349.69829984125613,412.53442556377325 L 349.70217502088497,412.53596551093904 L 349.70606616653964,412.5374646573373 L 349.709972848653,412.5389228374682 L 349.7138946359429,412.5403398903544 L 349.7178310954594,412.54171565955886 L 349.721781792633,412.5430499932021 L 349.7257462913224,412.544342743979 L 349.72972415386255,412.54559376917496 L 349.7337149411132,412.54680293068174 L 349.73771821250716,412.54797009501266 L 349.7417335260991,412.5490951333175 L 349.74576043861435,412.55017792139637 L 349.74979850549767,412.5512183397138 L 349.7538472809624,412.55221627341166 L 349.7579063180398,412.5531716123221 L 349.7619751686281,412.5540842509795 L 349.76605338354244,412.55495408863203 L 349.7701405125639,412.5557810292531 L 349.7742361044897,412.55656498155184 L 349.7783397071826,412.55730585898294 L 349.78245086762115,412.5580035797565 L 349.7865691319495,412.55865806684676 L 349.79069404552746,412.5592692480011 L 349.79482515298093,412.5598370557475 L 349.798961998252,412.56036142740214 L 349.80310412464934,412.5608423050766 L 349.80725107489855,412.5612796356838 L 349.8114023911927,412.56167337094416 L 349.8155576152429,412.56202346739093 L 349.8197162883288,412.56232988637476 L 349.82387795134935,412.5625925940683 L 349.8280421448735,412.5628115614696 L 349.8322084091906,412.56298676440554 L 349.83637628436173,412.5631181835344 L 349.8405453102698,412.56320580434806 L 349.8447150266709,412.5632496171735 L 349.8488849732448,412.5632496171739 L 349.8530546896459,412.56320580434937 L 349.857223715554,412.56311818353663 L 349.86139159072513,412.5629867644086 L 349.8655578550423,412.56281156147355 L 349.8697220485665,412.5625925940732 L 349.87388371158715,412.5623298863805 L 349.8780423846731,412.5620234673975 L 349.88219760872335,412.56167337095167 L 349.88634892501756,412.5612796356922 L 349.8904958752669,412.5608423050859 L 349.8946380016643,412.5603614274123 L 349.8987748469355,412.5598370557585 L 349.9029059543891,412.559269248013 L 349.9070308679672,412.55865806685955 L 349.9111491322957,412.5580035797701 L 349.91526029273433,412.55730585899744 L 349.9193638954274,412.55656498156725 L 349.9234594873534,412.5557810292694 L 349.927546616375,412.55495408864914 L 349.9316248312895,412.55408425099745 L 349.9356936818781,412.553171612341 L 349.9397527189557,412.5522162734314 L 349.9438014944206,412.55121833973436 L 349.94783956130414,412.5501779214178 L 349.95186647381956,412.54909513333973 L 349.9558817874118,412.5479700950358 L 349.95988505880604,412.54680293070567 L 349.9638758460569,412.54559376919974 L 349.9678537085973,412.54434274400467 L 349.97181820728696,412.5430499932286 L 349.97576890446084,412.5417156595862 L 349.9797053639777,412.54033989038254 L 349.98362715126785,412.5389228374972 L 349.9875338333815,412.53746465736714 L 349.99142497903654,412.53596551096973 L 349.9953001586657,412.53442556380475 L 349.9991589444645,412.5328449858763 L 350.00300091043835,412.53122395167395 L 350.0068256324493,412.5295626401535 L 350.01063268826323,412.5278612347171 L 350.0144216575962,412.5261199231932 L 350.01819212216094,412.5243388978157 L 350.0219436657131,412.52251835520286 L 350.0256758740971,412.5206584963352 L 350.0293883352919,412.518759526534 L 350.03308063945656,412.5168216554378 L 350.0367523789751,412.5148450969801 L 350.04040314850215,412.512830069365 L 350.04403254500716,412.5107767950436 L 350.04764016781905,412.5086855006894 L 350.0512256186706,412.5065564171729 L 350.05478850174217,412.50438977953644 L 350.0583284237056,412.5021858269684 L 350.06184499376747,412.4999448027763 L 350.0653378237123,412.4976669543605 L 350.0688065279455,412.49535253318635 L 350.07225072353594,412.49300179475676 L 350.075670030258,412.4906149985841 L 350.07906407063365,412.48819240816107 L 350.08243246997426,412.4857342909322 L 350.085774856422,412.48324091826385 L 350.0890908609905,412.4807125654145 L 350.092380117606,412.4781495115043 L 350.0956422631476,412.4755520394843 L 350.0988769374873,412.47292043610514 L 350.1020837835299,412.4702549918854 L 350.1052624472522,412.46755600107963 L 350.1084125777423,412.4648237616457 L 350.1115338272383,412.462058575212 L 350.1146258511666,412.45926074704425 L 350.1176883081799,412.4564305860116 L 350.12072086019515,412.45356840455264 L 350.1237231724306,412.4506745186409 L 350.12669491344275,412.44774924774987 L 350.1296357551632,412.444792914818 L 350.13254537293466,412.4418058462126 L 350.1354234455469,412.4387883716944 L 350.138269655272,412.43574082438056 L 350.1410836878996,412.43266354070823 L 350.14386523277176,412.4295568603975 L 350.14661398281686,412.4264211264134 L 350.14932963458375,412.42325668492873 L 350.1520118882753,412.42006388528523 L 350.15466044778117,412.41684307995536 L 350.157275020711,412.4135946245033 L 350.15985531842614,412.4103188775457 L 350.16240105607204,412.40701620071206 L 350.16491195260926,412.4036869586048 L 350.16738773084484,412.4003315187592 L 350.16982811746254,412.39695025160245 L 350.1722328430534,412.3935435304131 L 350.17460164214515,412.3901117312797 L 350.1769342532318,412.38665523305934 L 350.1792304188024,412.3831744173357 L 350.18148988536916,412.3796696683771 L 350.18371240349603,412.37614137309396 L 350.1858977278257,412.3725899209961 L 350.18804561710715,412.3690157041499 L 350.19015583422174,412.36541911713465 L 350.19222814620997,412.36180055699936 L 350.1942623242967,412.35816042321875 L 350.1962581439168,412.35449911764925 L 350.19821538473957,412.3508170444845 L 350.20013383069346,412.3471146102107 L 350.20201326998955,412.34339222356215 L 350.2038534951452,412.3396502954755 L 350.2056543030069,412.33588923904483 L 350.2074154947725,412.33210946947594 L 350.2091368760133,412.3283114040404 L 350.21081825669586,412.3244954620296 L 350.2124594512022,412.3206620647085 L 350.21406027835104,412.31681163526895 L 350.2156205614173,412.3129445987832 L 350.21714012815204,412.30906138215676 L 350.21861881080093,412.30516241408134 L 350.2200564461234,412.3012481249877 L 350.22145287541014,412.2973189469978 L 350.22280794450086,412.29337531387733 L 350.2241215038013,412.28941766098785 L 350.2253934082997,412.2854464252386 L 350.2266235175829,412.2814620450383 L 350.2278116958515,412.27746496024673 L 350.22895781193563,412.27345561212627 L 350.2300617393083,412.2694344432931 L 350.23112335610057,412.2654018976683 L 350.2321425451139,412.2613584204291 L 350.233119193834,412.25730445795926 L 350.23405319444265,412.2532404578003 L 350.23494444382993,412.2491668686017 L 350.23579284360534,412.24508414007164 L 350.236598300109,412.24099272292716 L 350.23736072442165,412.2368930688446 L 350.2380800323747,412.2327856304095 L 350.23875614455926,412.2286708610669 L 350.2393889863354,412.224549215071 L 350.2399784878398,412.2204211474352 L 350.2405245839938,412.21628711388195 L 350.2410272145106,412.21214757079207 L 350.2414863239018,412.20800297515484 L 350.2419018614835,412.2038537845172 L 350.2422737813819,412.19970045693344 L 350.24260204253864,412.1955434509144 L 350.24288660871497,412.1913832253772 L 350.2431274484959,412.18722023959424 L 350.24332453529365,412.1830549531427 L 350.2434778473506,412.17888782585374 L 350.2435873677418,412.17471931776174 L 350.2436530843765,412.17054988905346 L 350.24367498999993,412.16638 L 350.24365308437734,412.1622101110307 L 350.24358736774354,412.1580406823224 L 350.2434778473533,412.15387217423034 L 350.2433245352972,412.1497050469414 L 350.24312744850033,412.1455397604898 L 350.2428866087203,412.14137677470677 L 350.24260204254483,412.1372165491695 L 350.242273781389,412.1330595431504 L 350.2419018614914,412.12890621556653 L 350.24148632391064,412.12475702492884 L 350.24102721452033,412.1206124292915 L 350.2405245840044,412.1164728862015 L 350.23997848785126,412.1123388526481 L 350.23938898634776,412.1082107850122 L 350.2387561445725,412.1040891390162 L 350.2380800323887,412.0999743696734 L 350.2373607244366,412.09586693123816 L 350.2365983001248,412.09176727715544 L 350.23579284362205,412.08767586001085 L 350.23494444384744,412.0835931314806 L 350.23405319446107,412.0795195422818 L 350.23311919385327,412.0754555421226 L 350.232142545134,412.07140157965256 L 350.23112335612154,412.06735810241315 L 350.2300617393302,412.06332555678813 L 350.2289578119583,412.05930438795474 L 350.2278116958751,412.05529503983405 L 350.22662351760727,412.05129795504223 L 350.2253934083249,412.0473135748416 L 350.22412150382735,412.04334233909213 L 350.22280794452774,412.03938468620237 L 350.2214528754379,412.0354410530817 L 350.220056446152,412.03151187509144 L 350.2186188108304,412.02759758599746 L 350.2171401281823,412.02369861792175 L 350.2156205614484,412.019815401295 L 350.21406027838293,412.0159483648089 L 350.2124594512349,412.012097935369 L 350.21081825672934,412.00826453804757 L 350.20913687604764,412.0044485960364 L 350.2074154948076,412.0006505306005 L 350.2056543030428,411.99687076103123 L 350.20385349518193,411.99310970460016 L 350.20201327002707,411.9893677765132 L 350.2001338307318,411.9856453898642 L 350.1982153847787,411.98194295559006 L 350.19625814395664,411.9782608824249 L 350.1942623243374,411.9745995768549 L 350.1922281462514,411.9709594430739 L 350.1901558342639,411.9673408829382 L 350.18804561715007,411.9637442959225 L 350.1858977278694,411.96017007907574 L 350.1837124035405,411.95661862697744 L 350.18148988541435,411.95309033169383 L 350.1792304188483,411.94958558273476 L 350.17693425327855,411.94610476701064 L 350.1746016421926,411.94264826878975 L 350.17223284310154,411.9392164696559 L 350.1698281175114,411.93580974846606 L 350.1673877308944,411.93242848130876 L 350.16491195265957,411.92907304146263 L 350.16240105612303,411.92574379935485 L 350.15985531847787,411.9224411225207 L 350.15727502076334,411.91916537556256 L 350.15466044783426,411.9159169201099 L 350.15201188832907,411.91269611477946 L 350.1493296346382,411.9095033151354 L 350.146613982872,411.90633887365016 L 350.1438652328275,411.9032031396655 L 350.14108368795604,411.90009645935413 L 350.13826965532905,411.89701917568124 L 350.1354234456046,411.8939716283668 L 350.1325453729931,411.890954153848 L 350.12963575522224,411.887967085242 L 350.1266949135024,411.8850107523095 L 350.1237231724908,411.88208548141785 L 350.12072086025603,411.8791915955054 L 350.1176883082414,411.8763294140458 L 350.11462585122865,411.87349925301254 L 350.111533827301,411.8707014248441 L 350.10841257780555,411.8679362384098 L 350.105262447316,411.8652039989752 L 350.1020837835943,411.86250500816874 L 350.0988769375523,411.8598395639483 L 350.09564226321316,411.8572079605685 L 350.0923801176721,411.8546104885478 L 350.0890908610571,411.8520474346369 L 350.0857748564892,411.8495190817868 L 350.08243247004197,411.84702570911776 L 350.07906407070186,411.84456759188816 L 350.0756700303267,411.8421450014644 L 350.0722507236052,411.839758205291 L 350.0688065280153,411.8374074668607 L 350.0653378237825,411.8350930456858 L 350.0618449938381,411.83281519726927 L 350.0583284237768,411.83057417307646 L 350.05478850181385,411.8283702205077 L 350.0512256187427,411.8262035828705 L 350.04764016789164,411.8240744993532 L 350.04403254508014,411.82198320499816 L 350.0404031485756,411.81992993067604 L 350.036752379049,411.81791490306017 L 350.0330806395308,411.81593834460165 L 350.0293883353666,411.81400047350473 L 350.0256758741722,411.8121015037027 L 350.02194366578857,411.81024164483426 L 350.01819212223677,411.8084211022206 L 350.0144216576724,411.8066400768423 L 350.01063268833985,411.80489876531766 L 350.00682563252633,411.8031973598804 L 350.0030009105157,411.80153604835914 L 349.9991589445422,411.799915014156 L 349.9953001587437,411.79833443622675 L 349.99142497911487,411.79679448906097 L 349.9875338334602,411.7952953426627 L 349.9836271513468,411.7938371625318 L 349.97970536405694,411.7924201096456 L 349.9757689045404,411.79104434044115 L 349.9718182073668,411.7897100067979 L 349.9678537086774,411.78841725602103 L 349.9638758461373,411.78716623082505 L 349.95988505888664,411.7859570693183 L 349.9558817874927,411.78478990498735 L 349.95186647390074,411.7836648666825 L 349.9478395613855,411.78258207860364 L 349.94380149450217,411.7815416602862 L 349.9397527190374,411.78054372658835 L 349.93569368196006,411.7795883876779 L 349.9316248313717,411.7786757490205 L 349.9275466164574,411.777805911368 L 349.92345948743593,411.7769789707469 L 349.9193638955101,411.77619501844816 L 349.9152602928172,411.77545414101706 L 349.9111491323787,411.77475642024353 L 349.90703086805036,411.77410193315325 L 349.9029059544724,411.7734907519989 L 349.8987748470189,411.7729229442525 L 349.8946380017478,411.77239857259787 L 349.8904958753505,411.7719176949234 L 349.8863489251013,411.77148036431623 L 349.88219760880713,411.77108662905584 L 349.87804238475695,411.7707365326091 L 349.87388371167106,411.77043011362525 L 349.8697220486505,411.7701674059317 L 349.8655578551263,411.76994843853043 L 349.8613915908092,411.76977323559447 L 349.8572237156381,411.7696418164656 L 349.85305468973,411.76955419565195 L 349.84888497332895,411.7695103828265 L 349.844715026755,411.7695103828261 L 349.84054531035395,411.76955419565064 L 349.8363762844458,411.7696418164634 L 349.8322084092747,411.7697732355914 L 349.8280421449575,411.76994843852646 L 349.82387795143336,411.7701674059268 L 349.8197162884127,411.7704301136195 L 349.8155576153267,411.7707365326025 L 349.8114023912765,411.77108662904834 L 349.8072510749823,411.7714803643078 L 349.80310412473295,411.7719176949141 L 349.7989619983355,411.7723985725877 L 349.7948251530643,411.7729229442415 L 349.79069404561073,411.773490751987 L 349.78656913203264,411.77410193314046 L 349.78245086770414,411.7747564202299 L 349.7783397072655,411.77545414100257 L 349.7742361045724,411.77619501843276 L 349.77014051264644,411.7769789707306 L 349.7660533836248,411.77780591135087 L 349.7619751687103,411.77867574900256 L 349.75790631812174,411.77958838765903 L 349.75384728104416,411.7805437265686 L 349.74979850557924,411.78154166026565 L 349.7457604386957,411.7825820785822 L 349.74173352618027,411.7836648666603 L 349.73771821258805,411.7847899049642 L 349.7337149411938,411.78595706929434 L 349.7297241539429,411.78716623080027 L 349.7257462914025,411.78841725599534 L 349.7217817927129,411.78971000677143 L 349.717831095539,411.7910443404138 L 349.71389463602213,411.79242010961747 L 349.709972848732,411.7938371625028 L 349.7060661666183,411.79529534263287 L 349.7021750209633,411.7967944890303 L 349.6982998413341,411.79833443619526 L 349.6944410555353,411.7999150141237 L 349.6905990895615,411.80153604832606 L 349.6867743675505,411.80319735984654 L 349.6829673117366,411.8048987652829 L 349.67917834240365,411.8066400768068 L 349.6754078778389,411.8084211021843 L 349.67165633428675,411.81024164479714 L 349.66792412590274,411.8121015036648 L 349.6642116647079,411.814000473466 L 349.6605193605433,411.8159383445622 L 349.6568476210247,411.8179149030199 L 349.6531968514977,411.819929930635 L 349.6495674549927,411.8219832049564 L 349.6459598321808,411.8240744993106 L 349.6423743813292,411.82620358282713 L 349.63881149825767,411.82837022046357 L 349.63527157629426,411.8305741730316 L 349.63175500623237,411.8328151972237 L 349.62826217628754,411.8350930456395 L 349.6247934720543,411.83740746681366 L 349.6213492764639,411.83975820524324 L 349.61792996974185,411.84214500141593 L 349.6145359293662,411.84456759183894 L 349.61116753002557,411.8470257090678 L 349.6078251435778,411.84951908173616 L 349.60450913900934,411.85204743458553 L 349.6012198823938,411.8546104884957 L 349.5979577368522,411.8572079605157 L 349.5947230625125,411.85983956389487 L 349.5915162164699,411.8625050081146 L 349.58833755274765,411.8652039989204 L 349.58518742225755,411.86793623835433 L 349.58206617276153,411.870701424788 L 349.57897414883325,411.87349925295575 L 349.57591169181995,411.8763294139884 L 349.5728791398047,411.87919159544737 L 349.56987682756926,411.8820854813591 L 349.5669050865571,411.88501075225014 L 349.56396424483665,411.887967085182 L 349.5610546270652,411.8909541537874 L 349.5581765544529,411.8939716283056 L 349.55533034472785,411.89701917561945 L 349.55251631210024,411.9000964592918 L 349.5497347672281,411.9032031396025 L 349.546986017183,411.9063388735866 L 349.5442703654161,411.9095033150713 L 349.54158811172454,411.9126961147148 L 349.53893955221866,411.91591692004465 L 349.53632497928885,411.91916537549673 L 349.5337446815737,411.9224411224543 L 349.5311989439278,411.92574379928794 L 349.5286880473906,411.9290730413952 L 349.526212269155,411.93242848124083 L 349.5237718825373,411.93580974839756 L 349.52136715694644,411.9392164695869 L 349.5189983578547,411.9426482687203 L 349.516665746768,411.94610476694066 L 349.51436958119746,411.9495855826643 L 349.5121101146307,411.9530903316229 L 349.5098875965038,411.95661862690605 L 349.50770227217413,411.9601700790039 L 349.5055543828927,411.9637442958501 L 349.5034441657781,411.96734088286536 L 349.50137185378986,411.97095944300065 L 349.49933767570315,411.97459957678126 L 349.49734185608304,411.97826088235075 L 349.49538461526026,411.98194295551554 L 349.4934661693064,411.9856453897893 L 349.4915867300103,411.98936777643786 L 349.4897465048546,411.9931097045245 L 349.48794569699294,411.9968707609552 L 349.48618450522736,412.00065053052407 L 349.48446312398653,412.0044485959596 L 349.482781743304,412.00826453797043 L 349.4811405487976,412.01209793529154 L 349.4795397216488,412.01594836473106 L 349.4779794385825,412.0198154012168 L 349.4764598718478,412.02369861784325 L 349.4749811891989,412.02759758591867 L 349.4735435538764,412.0315118750123 L 349.4721471245897,412.0354410530022 L 349.470792055499,412.0393846861227 L 349.4694784961985,412.04334233901216 L 349.46820659170015,412.0473135747614 L 349.46697648241695,412.0512979549617 L 349.4657883041483,412.0552950397533 L 349.4646421880642,412.05930438787374 L 349.4635382606915,412.0633255567069 L 349.46247664389927,412.0673581023317 L 349.46145745488593,412.07140157957093 L 349.46048080616583,412.07545554204074 L 349.4595468055572,412.0795195421997 L 349.4586555561699,412.0835931313983 L 349.4578071563945,412.08767585992837 L 349.45700169989084,412.09176727707285 L 349.4562392755782,412.0958669311554 L 349.45551996762515,412.0999743695905 L 349.4548438554406,412.1040891389331 L 349.4542110136644,412.108210784929 L 349.45362151216005,412.1123388525648 L 349.453075416006,412.11647288611806 L 349.4525727854892,412.12061242920794 L 349.452113676098,412.12475702484517 L 349.45169813851635,412.1289062154828 L 349.4513262186179,412.13305954306657 L 349.4509979574612,412.1372165490856 L 349.45071339128486,412.1413767746228 L 349.45047255150394,412.14553976040577 L 349.4502754647062,412.1497050468573 L 349.4501221526492,412.1538721741463 L 349.45001263225805,412.15804068223827 L 349.44994691562334,412.16221011094655 L 349.44992500999996,412.16638" fill="none" stroke="rgb(0,0,0)" stroke-width="0.5"/>
</svg>
