<?xml version="1.0" ?>
<svg xmlns="http://www.w3.org/2000/svg" xmlns:ev="http://www.w3.org/2001/xml-events" xmlns:inkscape="http://www.inkscape.org/namespaces/inkscape" xmlns:sodipodi="http://sodipodi.sourceforge.net/DTD/sodipodi-0.dtd" xmlns:svg="http://www.w3.org/2000/svg" xmlns:xlink="http://www.w3.org/1999/xlink" baseProfile="full" height="300mm" id="svg5" inkscape:version="1.1 (c68e22c387, 2021-05-23)" sodipodi:docname="bucketSupport.svg" version="1.1" viewBox="0 0 300 300" width="300mm">
	<defs/>
	<path d="M 0.0,142.875 L 0.007886414895267535,144.37615983851796 L 0.03154478895228863,145.87715395498094 L 0.07097251038103991,147.37781664562874 L 0.12616522651839546,148.87798224328938 L 0.19711684430879473,150.3774851356682 L 0.28381953097672863,151.8761597836301 L 0.38626371489172584,153.37384073947533 L 0.5044380866246456,154.87036266520334 L 0.6383296001964993,156.3655603507663 L 0.7879234745185784,157.85926873230693 L 0.9532031950241731,159.35132291038116 L 1.13415051549174,160.8415581681626 L 1.3307454600592337,162.32980998962626 L 1.542966325429461,163.81591407771054 L 1.7707896832657468,165.2997063724551 L 2.0141903827787075,166.78102306911254 L 2.273141553502512,168.25970063623126 L 2.5476146082613127,169.73557583370916 L 2.8375792463253333,171.20848573081486 L 3.143003456755764,172.6782677241738 L 3.463853521938688,174.14475955571987 L 3.8000940213074728,175.6077993306077 L 4.1516878352528295,177.0672255350848 L 4.51859614922094,178.52287705432303 L 4.900778457998257,179.97459319020388 L 5.298192570183176,181.42221367905984 L 5.7107946128437845,182.86557870936633 L 6.138539036361237,184.3045289393844 L 6.581378619458263,185.7389055147514 L 7.0392644744123345,187.16855008601814 L 7.51214605245238,188.59330482612947 L 7.999971149339501,190.01301244784827 L 8.502685911129845,191.42751622111908 L 9.020234840120054,192.83665999037055 L 9.552560800973936,194.24028819175453 L 10.099605027029838,195.63824587031934 L 10.661307126788444,197.03037869711636 L 11.237605090579734,198.4165329862377 L 11.82843529740839,199.79655571178174 L 12.433732521977674,201.1702945247473 L 13.053429941889647,202.53759776985197 L 13.687459145022359,203.89831450227436 L 14.335750137082215,205.25229450431775 L 14.998231349330936,206.5993883019936 L 15.674829646486657,207.9394471815229 L 16.36547033479762,209.2723232057534 L 17.070077170288258,210.59786923049165 L 17.788572367175874,211.9159389207465 L 18.5208766064583,213.22638676688473 L 19.266909044670143,214.52906810069405 L 20.026587322807515,215.823839111354 L 20.79982757542048,217.1105568613126 L 21.58654443987099,218.38907930206534 L 22.386651065757093,219.65926528983738 L 23.200059124500413,220.92097460116491 L 24.02667881909764,222.17406794837552 L 24.86641889403346,223.41840699496464 L 25.719186645354895,224.65385437086752 L 26.584887930905666,225.88027368762465 L 27.46342718071878,227.09752955343805 L 28.354707407567318,228.30548758811813 L 29.258630217671282,229.50401443791878 L 29.594995059444486,229.94039248439117 L 30.175095821559978,230.69297779025908 L 31.104003045088305,231.87224638833004 L 32.045249340606006,233.04169004558477 L 32.99873079827863,234.20117966011094 L 33.964342157558434,235.35058722888232 L 34.94197681880519,236.48978586189074 L 35.93152685505396,237.61864979615365 L 36.932883023929946,238.73705440959782 L 37.501485527209745,239.35884915938703 L 37.94593477970858,239.84487623481752 L 38.97057028551903,240.94199297270455 L 40.00667642569077,242.0282835059496 L 41.0541388182409,243.10362791241306 L 42.11284182750185,244.16790747836427 L 43.1826685768865,245.22100471158654 L 44.26350096179135,246.2628033543482 L 45.35521966263482,247.29318839623699 L 46.45770415802916,248.31204608685636 L 47.570832738086196,249.3192639483836 L 48.69448251785312,250.31473078798655 L 49.828529450878676,251.298336710099 L 50.972848342907426,252.26997312855264 L 52.12731286570059,253.2295327785647 L 53.291795570982316,254.17690972857935 L 54.46616790450929,255.11199939196226 L 55.65030022026295,256.0346985385466 L 56.84406179476133,256.9449053060289 L 58.04732084149077,257.8425192112147 L 59.25994452545487,258.72744116111124 L 60.481798977838366,259.59957346386693 L 61.71274931078612,260.45881983955616 L 62.95265963229407,261.3050854308084 L 64.20139306121115,262.1382768132796 L 65.45881174235045,262.9583020059665 L 66.7247768617079,263.76507048136057 L 67.99914866178673,264.55849317544175 L 69.28178645702619,265.3384824975113 L 70.57254864933269,266.1049523398609 L 71.87129274371158,266.85781808727893 L 73.17787536399807,267.5969966263915 L 74.4921522686854,268.322406354838 L 75.81397836684856,269.0339671902794 L 77.14320773416165,269.73160057923934 L 78.47969362900743,270.415229505776 L 79.82328850867701,271.08477849998405 L 81.17384404565783,271.74017364632675 L 82.53121114400881,272.3813425917957 L 83.8952399558193,273.00821455389803 L 85.26577989775237,273.6207203284711 L 85.84197721662801,273.87099814278696 L 86.64267966766822,274.2187922973219 L 88.02578726132742,274.8023644356918 L 89.41494998917153,275.37137231954586 L 90.8100144931795,275.9257531326846 L 92.21082676379774,276.4654456736787 L 93.61723215694218,276.9903903626255 L 95.02907541107035,277.5005292477265 L 96.44620066432165,277.99580601168464 L 97.33321138070275,278.2953906106564 L 97.86845147172372,278.4761659779218 L 99.29567082246365,278.94155611661495 L 100.7277011572211,279.39192505055 L 102.16438438556227,279.82722306079404 L 103.60556190339256,280.24740209218413 L 105.05107461046566,280.652415758632 L 106.50076292794768,281.04221934824534 L 107.95446681603407,281.41676982826345 L 109.41202579161725,281.7760258498083 L 110.87327894600341,282.11994775244875 L 112.33806496267606,282.44849756857946 L 113.80622213510495,282.76163902761186 L 115.27758838459759,283.0593375599787 L 116.75200127819214,283.34156030095005 L 118.22929804658958,283.60827609426156 L 119.70931560212247,283.8594554955543 L 121.19189055675936,284.09507077562466 L 122.67685924014224,284.3150959234862 L 124.16405771765487,284.51950664924055 L 125.65332180852074,284.7082803867595 L 127.14448710392776,284.8813962961757 L 128.63738898517852,285.03883526618375 L 130.1318626418635,285.18057991614967 L 131.62774309005536,285.3066145980298 L 133.12486519052266,285.4169253980983 L 134.62306366696043,285.51150013848303 L 136.12217312423616,285.5903283785101 L 137.62202806664868,285.65340141585637 L 139.12246291619817,285.7007122875104 L 140.62331203086546,285.73225577054063 L 142.12440972289815,285.74802838267243 L 143.62559027710182,285.74802838267243 L 145.12668796913454,285.7322557705406 L 146.62753708380185,285.7007122875104 L 148.12797193335135,285.65340141585637 L 149.62782687576384,285.5903283785101 L 151.1269363330396,285.51150013848303 L 152.62513480947734,285.41692539809833 L 154.1222569099446,285.3066145980298 L 155.61813735813652,285.18057991614967 L 157.1126110148215,285.03883526618375 L 158.60551289607224,284.8813962961757 L 160.09667819147927,284.7082803867595 L 161.58594228234512,284.51950664924055 L 163.07314075985772,284.3150959234862 L 164.5581094432406,284.0950707756247 L 166.04068439787756,283.8594554955543 L 167.52070195341042,283.60827609426156 L 168.99799872180785,283.34156030095005 L 170.47241161540242,283.0593375599787 L 171.94377786489503,282.76163902761186 L 173.4119350373239,282.44849756857946 L 174.87672105399662,282.11994775244875 L 176.33797420838272,281.7760258498083 L 177.79553318396592,281.41676982826345 L 179.24923707205232,281.04221934824534 L 180.6989253895344,280.652415758632 L 182.14443809660747,280.24740209218413 L 183.58561561443776,279.82722306079404 L 185.02229884277895,279.39192505054996 L 186.4543291775364,278.94155611661495 L 187.8815485282763,278.4761659779218 L 189.30379933567838,277.99580601168464 L 190.72092458892968,277.5005292477265 L 192.13276784305782,276.9903903626255 L 193.53917323620232,276.46544567367863 L 194.93998550682056,275.9257531326846 L 196.33505001082852,275.3713723195458 L 197.7242127386726,274.8023644356918 L 199.10732033233177,274.2187922973219 L 200.4842201022476,273.6207203284711 L 201.8547600441807,273.00821455389803 L 203.21878885599125,272.38134259179566 L 204.57615595434217,271.74017364632675 L 205.926711491323,271.08477849998405 L 207.27030637099259,270.415229505776 L 208.60679226583835,269.73160057923934 L 209.1308101350387,269.4565747853805 L 209.93602163315143,269.03396719027944 L 211.2578477313146,268.322406354838 L 212.57212463600194,267.5969966263915 L 213.8787072562884,266.85781808727893 L 215.1774513506673,266.1049523398609 L 216.46821354297379,265.33848249751134 L 217.7508513382133,264.55849317544175 L 219.02522313829212,263.76507048136057 L 219.79608023920207,263.2738221850699 L 220.2911882576496,262.9583020059665 L 221.5486069387889,262.13827681327956 L 222.79734036770594,261.30508543080833 L 224.0372506892139,260.45881983955616 L 225.26820102216163,259.59957346386693 L 226.49005547454513,258.72744116111124 L 227.70267915850923,257.8425192112147 L 228.90593820523873,256.9449053060289 L 230.09969977973702,256.0346985385466 L 231.28383209549065,255.11199939196229 L 232.45820442901766,254.1769097285794 L 233.6226871342994,253.2295327785647 L 234.77715165709256,252.26997312855266 L 235.9214705491213,251.29833671009902 L 237.05551748214685,250.31473078798658 L 238.17916726191376,249.31926394838365 L 239.29229584197077,248.3120460868564 L 240.3947803373652,247.29318839623699 L 241.4864990382086,246.26280335434825 L 242.5673314231135,245.22100471158657 L 243.63715817249815,244.16790747836427 L 244.69586118175908,243.10362791241306 L 245.74332357430924,242.02828350594956 L 246.779429714481,240.9419929727045 L 247.80406522029145,239.8448762348175 L 248.81711697607005,238.7370544095978 L 249.8184731449461,237.6186497961536 L 250.80802318119484,236.48978586189074 L 251.78565784244157,235.35058722888232 L 252.7512692017214,234.20117966011085 L 253.704750659394,233.0416900455848 L 254.6459969549117,231.87224638832998 L 255.57490417844005,230.69297779025902 L 256.4913697823288,229.50401443791878 L 256.8755224134249,228.99465983634906 L 257.39529259243267,228.30548758811813 L 258.2865728192813,227.09752955343802 L 259.16511206909433,225.88027368762465 L 260.0308133546451,224.65385437086752 L 260.8835811059666,223.41840699496453 L 261.72332118090236,222.17406794837552 L 262.54994087549954,220.92097460116497 L 263.36334893424294,219.65926528983738 L 263.8480614305096,218.88977407337106 L 264.163455560129,218.38907930206534 L 264.95017242457953,217.1105568613126 L 265.7234126771925,215.823839111354 L 266.4830909553299,214.52906810069402 L 267.22912339354167,213.2263867668848 L 267.9614276328241,211.91593892074653 L 268.67992282971176,210.59786923049165 L 269.38452966520236,209.27232320575348 L 270.0751703535134,207.9394471815229 L 270.7517686506691,206.5993883019936 L 271.4142498629178,205.25229450431772 L 272.06254085497767,203.89831450227433 L 272.6965700581103,202.537597769852 L 273.3162674780223,201.1702945247473 L 273.9215647025916,199.79655571178176 L 274.51239490942027,198.4165329862377 L 275.0886928732116,197.03037869711636 L 275.65039497297016,195.6382458703193 L 276.19743919902606,194.24028819175453 L 276.7297651598799,192.83665999037055 L 277.24731408887016,191.42751622111905 L 277.7500288506605,190.01301244784827 L 278.2378539475476,188.59330482612944 L 278.71073552558767,187.16855008601814 L 279.1686213805417,185.73890551475148 L 279.61146096363876,184.3045289393844 L 280.03920538715624,182.86557870936633 L 280.4518074298168,181.4222136790599 L 280.8492215420017,179.97459319020388 L 281.2314038507791,178.52287705432295 L 281.5983121647472,177.0672255350848 L 281.9499059786925,175.60779933060763 L 282.2861464780613,174.14475955571987 L 282.60699654324424,172.6782677241738 L 282.91242075367467,171.20848573081486 L 283.2023853917387,169.73557583370916 L 283.47685844649754,168.2597006362312 L 283.7358096172213,166.78102306911254 L 283.9792103167342,165.29970637245512 L 284.20703367457054,163.81591407771052 L 284.41925453994077,162.3298099896262 L 284.61584948450826,160.84155816816258 L 284.7967968049758,159.35132291038116 L 284.9620765254814,157.85926873230684 L 285.11167039980353,156.36556035076626 L 285.24556191337535,154.87036266520337 L 285.3637362851083,153.37384073947524 L 285.46618046902324,151.8761597836301 L 285.55288315569123,150.37748513566817 L 285.6238347734816,148.87798224328938 L 285.679027489619,147.3778166456287 L 285.71845521104774,145.87715395498094 L 285.74211358510473,144.376159838518 L 285.75,142.875 L 285.74211358510473,141.37384016148198 L 285.71845521104774,139.8728460450191 L 285.679027489619,138.3721833543713 L 285.6238347734816,136.8720177567106 L 285.55288315569123,135.37251486433183 L 285.46618046902324,133.87384021636987 L 285.3637362851083,132.3761592605247 L 285.24556191337535,130.87963733479666 L 285.11167039980353,129.3844396492337 L 284.9620765254814,127.89073126769313 L 284.7967968049758,126.39867708961884 L 284.61584948450826,124.9084418318374 L 284.41925453994077,123.42019001037377 L 284.20703367457054,121.93408592228948 L 283.9792103167342,120.45029362754487 L 283.7358096172213,118.9689769308875 L 283.4768584464975,117.49029936376878 L 283.2023853917387,116.0144241662908 L 282.91242075367467,114.54151426918517 L 282.60699654324424,113.07173227582621 L 282.28614647806126,111.6052404442801 L 281.9499059786925,110.14220066939237 L 281.5983121647472,108.68277446491518 L 281.2314038507791,107.22712294567701 L 280.8492215420017,105.77540680979612 L 280.4518074298168,104.32778632094016 L 280.03920538715624,102.8844212906337 L 279.61146096363876,101.44547106061562 L 279.1686213805417,100.01109448524855 L 278.71073552558767,98.58144991398186 L 278.2378539475476,97.15669517387056 L 277.7500288506605,95.73698755215177 L 277.24731408887016,94.32248377888097 L 276.7297651598799,92.91334000962942 L 276.19743919902606,91.50971180824548 L 275.65039497297016,90.1117541296807 L 275.0886928732116,88.71962130288361 L 274.5123949094203,87.33346701376232 L 273.9215647025916,85.95344428821825 L 273.3162674780223,84.5797054752527 L 272.69657005811035,83.21240223014803 L 272.06254085497767,81.85168549772565 L 271.4142498629178,80.49770549568228 L 270.7517686506691,79.1506116980064 L 270.0751703535134,77.81055281847712 L 269.38452966520236,76.47767679424656 L 268.67992282971176,75.15213076950837 L 267.9614276328241,73.83406107925344 L 267.22912339354167,72.52361323311524 L 266.4830909553299,71.22093189930598 L 265.72341267719247,69.926160888646 L 264.95017242457953,68.63944313868743 L 264.163455560129,67.36092069793466 L 263.36334893424294,66.09073471016261 L 262.54994087549954,64.82902539883504 L 261.72332118090236,63.57593205162449 L 260.8835811059666,62.331593005035415 L 260.0308133546451,61.09614562913248 L 259.16511206909433,59.869726312375334 L 258.2865728192812,58.65247044656195 L 257.3952925924327,57.44451241188189 L 256.4913697823287,56.245985562081216 L 256.1550049405555,55.80960751560879 L 255.57490417844002,55.057022209740936 L 254.6459969549117,53.87775361167 L 253.704750659394,52.7083099544152 L 252.7512692017214,51.54882033988913 L 251.78565784244157,50.39941277111768 L 250.8080231811948,49.26021413810925 L 249.81847314494607,48.13135020384638 L 248.81711697607005,47.01294559040221 L 248.24851447279022,46.39115084061292 L 247.80406522029142,45.905123765182466 L 246.77942971448095,44.808007027295446 L 245.74332357430924,43.72171649405041 L 244.69586118175906,42.64637208758691 L 243.63715817249815,41.58209252163573 L 242.5673314231135,40.52899528841347 L 241.48649903820862,39.48719664565178 L 240.3947803373652,38.45681160376303 L 239.29229584197083,37.437953913143616 L 238.1791672619138,36.43073605161638 L 237.05551748214685,35.435269212013424 L 235.9214705491213,34.45166328990099 L 234.7771516570926,33.48002687144735 L 233.6226871342994,32.52046722143531 L 232.45820442901768,31.573090271420654 L 231.28383209549065,30.638000608037714 L 230.09969977973708,29.715301461453436 L 228.90593820523873,28.8050946939711 L 227.70267915850923,27.907480788785307 L 226.49005547454516,27.022558838888784 L 225.26820102216163,26.150426536133082 L 224.0372506892139,25.29118016044383 L 222.79734036770594,24.444914569191653 L 221.54860693878885,23.61172318672041 L 220.2911882576496,22.7916979940335 L 219.02522313829212,21.98492951863946 L 217.7508513382133,21.191506824558246 L 216.46821354297379,20.411517502488692 L 215.1774513506673,19.6450476601391 L 213.8787072562884,18.892181912721085 L 212.57212463600194,18.153003373608513 L 211.2578477313146,17.427593645162034 L 209.93602163315146,16.716032809720602 L 208.60679226583835,16.018399420760645 L 207.27030637099259,15.334770494224045 L 205.926711491323,14.665221500015974 L 204.57615595434217,14.009826353673247 L 203.21878885599125,13.368657408204342 L 201.8547600441807,12.741785446101943 L 200.4842201022476,12.129279671528877 L 199.90802278337196,11.879001857213073 L 199.10732033233177,11.531207702678131 L 197.7242127386726,10.9476355643082 L 196.3350500108285,10.378627680454144 L 194.93998550682053,9.824246867315452 L 193.53917323620226,9.284554326321341 L 192.13276784305782,8.759609637374496 L 190.72092458892962,8.24947075227351 L 189.30379933567838,7.7541939883153645 L 188.41678861929728,7.454609389343557 L 187.8815485282763,7.273834022078148 L 186.45432917753635,6.808443883385053 L 185.02229884277892,6.3580749494499855 L 183.58561561443776,5.9227769392059315 L 182.14443809660744,5.502597907815868 L 180.69892538953434,5.097584241367997 L 179.24923707205235,4.707780651754689 L 177.79553318396594,4.333230171736545 L 176.33797420838278,3.973974150191708 L 174.87672105399662,3.6300522475512196 L 173.41193503732393,3.301502431420545 L 171.94377786489505,2.988360972388108 L 170.47241161540242,2.690662440021299 L 168.99799872180787,2.4084396990499783 L 167.52070195341045,2.1417239057384165 L 166.04068439787756,1.8905445044456997 L 164.55810944324065,1.6549292243753086 L 163.07314075985775,1.434904076513817 L 161.58594228234512,1.2304933507594455 L 160.09667819147927,1.0417196132405309 L 158.60551289607224,0.8686037038243057 L 157.1126110148215,0.711164733816247 L 155.61813735813652,0.5694200838503036 L 154.1222569099446,0.4433854019701755 L 152.62513480947734,0.3330746019016999 L 151.1269363330396,0.2384998615169991 L 149.62782687576384,0.15967162148993452 L 148.12797193335135,0.09659858414360656 L 146.62753708380185,0.04928771248961539 L 145.12668796913454,0.017744229459424332 L 143.62559027710182,0.0019716173275696747 L 142.12440972289815,0.0019716173275696747 L 140.62331203086546,0.01774422945939591 L 139.12246291619817,0.04928771248961539 L 137.62202806664868,0.09659858414360656 L 136.12217312423616,0.15967162148993452 L 134.62306366696043,0.2384998615169991 L 133.12486519052266,0.33307460190172833 L 131.62774309005536,0.4433854019701755 L 130.1318626418635,0.5694200838503036 L 128.63738898517852,0.711164733816247 L 127.14448710392776,0.8686037038242773 L 125.65332180852074,1.0417196132405309 L 124.16405771765487,1.2304933507594455 L 122.67685924014226,1.434904076513817 L 121.19189055675939,1.6549292243752802 L 119.70931560212247,1.8905445044456997 L 118.2292980465896,2.1417239057384165 L 116.75200127819218,2.4084396990499783 L 115.27758838459759,2.690662440021299 L 113.806222135105,2.988360972388108 L 112.33806496267609,3.301502431420545 L 110.87327894600341,3.6300522475512196 L 109.41202579161728,3.973974150191708 L 107.9544668160341,4.333230171736517 L 106.5007629279477,4.707780651754689 L 105.0510746104656,5.097584241367997 L 103.60556190339251,5.502597907815868 L 102.16438438556227,5.9227769392059315 L 100.72770115722108,6.358074949450014 L 99.29567082246362,6.808443883385053 L 97.86845147172372,7.273834022078148 L 96.44620066432162,7.7541939883153645 L 95.02907541107032,8.249470752273538 L 93.61723215694218,8.759609637374524 L 92.21082676379771,9.284554326321341 L 90.81001449317947,9.824246867315452 L 89.41494998917149,10.378627680454144 L 88.02578726132742,10.9476355643082 L 86.64267966766822,11.531207702678131 L 85.26577989775237,12.129279671528877 L 83.8952399558193,12.741785446101943 L 82.53121114400881,13.368657408204314 L 81.17384404565783,14.009826353673247 L 79.82328850867701,14.665221500015974 L 78.47969362900743,15.334770494224045 L 77.14320773416165,16.018399420760645 L 76.61918986496127,16.293425214619536 L 75.81397836684856,16.716032809720602 L 74.4921522686854,17.42759364516202 L 73.17787536399807,18.1530033736085 L 71.87129274371158,18.892181912721085 L 70.57254864933269,19.6450476601391 L 69.28178645702619,20.411517502488707 L 67.99914866178673,21.191506824558218 L 66.7247768617079,21.984929518639447 L 65.95391976079793,22.476177814930146 L 65.45881174235045,22.791697994033484 L 64.20139306121109,23.611723186720454 L 62.95265963229407,24.44491456919164 L 61.71274931078612,25.29118016044383 L 60.481798977838366,26.150426536133082 L 59.25994452545487,27.02255883888877 L 58.04732084149077,27.907480788785307 L 56.844061794761274,28.805094693971128 L 55.65030022026295,29.71530146145342 L 54.46616790450936,30.638000608037714 L 53.29179557098236,31.573090271420597 L 52.12731286570059,32.52046722143531 L 50.97284834290747,33.48002687144732 L 49.82852945087872,34.45166328990098 L 48.69448251785312,35.43526921201345 L 47.57083273808625,36.430736051616364 L 46.457704158029216,37.4379539131436 L 45.35521966263482,38.456811603763 L 44.263500961791394,39.487196645651736 L 43.18266857688654,40.52899528841341 L 42.11284182750185,41.58209252163573 L 41.0541388182409,42.646372087586954 L 40.00667642569077,43.72171649405041 L 38.97057028551899,44.80800702729549 L 37.94593477970858,45.90512376518248 L 36.932883023929946,47.0129455904022 L 35.93152685505389,48.13135020384644 L 34.94197681880519,49.26021413810926 L 33.964342157558434,50.399412771117696 L 32.99873079827859,51.54882033988913 L 32.045249340606006,52.70830995441523 L 31.104003045088305,53.877753611669974 L 30.17509582155995,55.05702220974098 L 29.258630217671282,56.245985562081216 L 28.87447758657516,56.755340163650914 L 28.354707407567318,57.44451241188186 L 27.46342718071874,58.65247044656199 L 26.584887930905666,59.869726312375334 L 25.719186645354895,61.09614562913248 L 24.86641889403343,62.331593005035415 L 24.02667881909764,63.57593205162448 L 23.20005912450047,64.82902539883499 L 22.386651065757093,66.09073471016261 L 21.9019385694905,66.86022592662891 L 21.58654443987099,67.36092069793467 L 20.79982757542048,68.63944313868738 L 20.026587322807515,69.92616088864601 L 19.266909044670143,71.22093189930595 L 18.520876606458344,72.52361323311521 L 17.788572367175874,73.83406107925349 L 17.070077170288258,75.15213076950835 L 16.36547033479765,76.47767679424655 L 15.674829646486657,77.8105528184771 L 14.998231349330936,79.1506116980064 L 14.335750137082215,80.49770549568225 L 13.687459145022359,81.85168549772564 L 13.053429941889647,83.21240223014802 L 12.433732521977674,84.5797054752527 L 11.82843529740839,85.95344428821826 L 11.237605090579734,87.33346701376227 L 10.661307126788444,88.71962130288362 L 10.099605027029838,90.11175412968066 L 9.552560800973936,91.50971180824546 L 9.020234840120054,92.91334000962945 L 8.502685911129845,94.32248377888092 L 7.999971149339501,95.73698755215175 L 7.51214605245238,97.15669517387053 L 7.0392644744123345,98.58144991398186 L 6.581378619458292,100.01109448524848 L 6.138539036361237,101.4454710606156 L 5.7107946128437845,102.88442129063367 L 5.298192570183204,104.32778632094009 L 4.900778457998257,105.77540680979612 L 4.518596149220912,107.22712294567702 L 4.1516878352528295,108.6827744649152 L 3.8000940213074728,110.14220066939231 L 3.463853521938688,111.60524044428013 L 3.143003456755764,113.07173227582622 L 2.8375792463253333,114.54151426918514 L 2.5476146082613127,116.01442416629082 L 2.273141553502512,117.49029936376876 L 2.0141903827787075,118.96897693088746 L 1.7707896832657468,120.45029362754491 L 1.542966325429461,121.93408592228947 L 1.3307454600592337,123.42019001037383 L 1.13415051549174,124.9084418318374 L 0.9532031950241731,126.39867708961884 L 0.7879234745185784,127.89073126769313 L 0.6383296001964993,129.3844396492337 L 0.5044380866246456,130.87963733479666 L 0.38626371489172584,132.37615926052473 L 0.28381953097672863,133.8738402163699 L 0.19711684430879473,135.3725148643318 L 0.12616522651839546,136.87201775671062 L 0.07097251038103991,138.37218335437126 L 0.03154478895228863,139.87284604501906 L 0.007886414895267535,141.37384016148204 L 0.0,142.875" fill="none" stroke="rgb(0,0,0)" stroke-width="0.5"/>
</svg>
