<?xml version="1.0" ?>
<svg xmlns="http://www.w3.org/2000/svg" xmlns:cc="http://creativecommons.org/ns#" xmlns:dc="http://purl.org/dc/elements/1.1/" xmlns:ev="http://www.w3.org/2001/xml-events" xmlns:inkscape="http://www.inkscape.org/namespaces/inkscape" xmlns:rdf="http://www.w3.org/1999/02/22-rdf-syntax-ns#" xmlns:sodipodi="http://sodipodi.sourceforge.net/DTD/sodipodi-0.dtd" xmlns:svg="http://www.w3.org/2000/svg" xmlns:xlink="http://www.w3.org/1999/xlink" baseProfile="full" height="812.79999mm" id="svg932" inkscape:version="1.1 (c68e22c387, 2021-05-23)" sodipodi:docname="0p25in_Shelf.svg" version="1.1" viewBox="0 0 888.99999 812.79997" width="889mm">
	<defs/>
	<path d="M 447.03714,0.50232768 L 817.3672799999999,0.50232768 L 817.3672799999999,270.02966768 L 729.547245,270.02966768 L 720.0222449999999,270.02966768 L 544.3821750000001,270.02966768 L 534.857175,270.02966768 L 447.03714,270.02966768 L 447.03714,207.41032434 L 447.03714,197.88532434 L 447.03714,72.64665434 L 447.03714,63.12165433999999 L 447.03714,0.50232768" fill="none" stroke="rgb(0,0,0)" stroke-width="0.5"/>
	<path d="M 447.03714,270.02966 L 447.03714,332.648995 L 447.03714,342.173995 L 447.03714,467.412665 L 447.03714,476.937665 L 447.03714,539.557 L 534.857175,539.557 L 544.3821750000001,539.557 L 720.0222449999999,539.557 L 729.547245,539.557 L 817.3672799999999,539.557 L 817.3672799999999,476.937665 L 817.3672799999999,467.412665 L 817.3672799999999,342.173995 L 817.3672799999999,332.648995 L 817.3672799999999,270.02966 L 729.547245,270.02966 L 720.0222449999999,270.02966 L 544.3821750000001,270.02966 L 534.857175,270.02966 L 447.03714,270.02966" fill="none" stroke="rgb(0,0,0)" stroke-width="0.5"/>
	<path d="M 447.03714,539.55701 L 447.03714,602.176345 L 447.03714,611.7013450000001 L 447.03714,736.9400149999999 L 447.03714,746.465015 L 447.03714,809.08435 L 534.857175,809.08435 L 544.3821750000001,809.08435 L 720.0222449999999,809.08435 L 729.547245,809.08435 L 817.3672799999999,809.08435 L 817.3672799999999,746.465015 L 817.3672799999999,736.9400149999999 L 817.3672799999999,611.7013450000001 L 817.3672799999999,602.176345 L 817.3672799999999,539.55701 L 729.547245,539.55701 L 720.0222449999999,539.55701 L 544.3821750000001,539.55701 L 534.857175,539.55701 L 447.03714,539.55701" fill="none" stroke="rgb(0,0,0)" stroke-width="0.5"/>
	<path d="M 76.707001,0.50231934 L 76.707001,63.12165433999999 L 76.707001,72.64665434 L 76.707001,197.88532434 L 76.707001,207.41032434 L 76.707001,270.02965933999997 L 164.527036,270.02965933999997 L 174.052036,270.02965933999997 L 349.69210599999997,270.02965933999997 L 359.21710599999994,270.02965933999997 L 447.03714099999996,270.02965933999997 L 447.03714099999996,207.41032434 L 447.03714099999996,197.88532434 L 447.03714099999996,72.64665434 L 447.03714099999996,63.12165433999999 L 447.03714099999996,0.50231934 L 359.21710599999994,0.50231934 L 349.69210599999997,0.50231934 L 174.052036,0.50231934 L 164.527036,0.50231934 L 76.707001,0.50231934" fill="none" stroke="rgb(0,0,0)" stroke-width="0.5"/>
	<path d="M 76.707001,270.02966 L 76.707001,332.648995 L 76.707001,342.173995 L 76.707001,467.412665 L 76.707001,476.937665 L 76.707001,539.557 L 164.527036,539.557 L 174.052036,539.557 L 349.69210599999997,539.557 L 359.21710599999994,539.557 L 447.03714099999996,539.557 L 447.03714099999996,476.937665 L 447.03714099999996,467.412665 L 447.03714099999996,342.173995 L 447.03714099999996,332.648995 L 447.03714099999996,270.02966 L 359.21710599999994,270.02966 L 349.69210599999997,270.02966 L 174.052036,270.02966 L 164.527036,270.02966 L 76.707001,270.02966" fill="none" stroke="rgb(0,0,0)" stroke-width="0.5"/>
	<path d="M 76.707001,539.55701 L 76.707001,602.176345 L 76.707001,611.7013450000001 L 76.707001,736.9400149999999 L 76.707001,746.465015 L 76.707001,809.08435 L 164.527036,809.08435 L 174.052036,809.08435 L 349.69210599999997,809.08435 L 359.21710599999994,809.08435 L 447.03714099999996,809.08435 L 447.03714099999996,746.465015 L 447.03714099999996,736.9400149999999 L 447.03714099999996,611.7013450000001 L 447.03714099999996,602.176345 L 447.03714099999996,539.55701 L 359.21710599999994,539.55701 L 349.69210599999997,539.55701 L 174.052036,539.55701 L 164.527036,539.55701 L 76.707001,539.55701" fill="none" stroke="rgb(0,0,0)" stroke-width="0.5"/>
</svg>
