<?xml version="1.0" ?>
<svg xmlns="http://www.w3.org/2000/svg" xmlns:cc="http://creativecommons.org/ns#" xmlns:dc="http://purl.org/dc/elements/1.1/" xmlns:ev="http://www.w3.org/2001/xml-events" xmlns:inkscape="http://www.inkscape.org/namespaces/inkscape" xmlns:rdf="http://www.w3.org/1999/02/22-rdf-syntax-ns#" xmlns:sodipodi="http://sodipodi.sourceforge.net/DTD/sodipodi-0.dtd" xmlns:svg="http://www.w3.org/2000/svg" xmlns:xlink="http://www.w3.org/1999/xlink" baseProfile="full" height="812.79999mm" id="svg932" inkscape:version="1.1 (c68e22c387, 2021-05-23)" sodipodi:docname="0p25in_Shelf.svg" version="1.1" viewBox="0 0 888.99999 812.79997" width="889mm">
	<defs/>
	<path d="M 4.6517244,4.5784186 L 59.949642,4.5784186" fill="none" stroke="rgb(0,0,0)" stroke-width="0.5"/>
	<path d="M 418.24015,306.39927 L 450.1953999999999,306.39927 L 459.72039999999987,306.39927 L 460.33615000000003,306.39927 L 460.4891953893149,306.3938006490631 L 460.62076757349627,306.37817393210054 L 460.73203781827874,306.3535618528845 L 460.8241773893969,306.3211364151872 L 460.8983575525852,306.28206962278074 L 460.95574957357826,306.23753347943745 L 460.99752471811064,306.18869998892944 L 461.02485425191685,306.1367411550289 L 461.0389094407315,306.08282898150804 L 461.0408615502891,306.02813547213907 L 461.0318818463242,305.9738326306942 L 461.0131415945713,305.92109246094554 L 460.9858120607651,305.8710869666653 L 460.9510645106401,305.82498815162575 L 460.9100702099307,305.78396801959906 L 460.8640004243717,305.7491985743573 L 460.8140264196974,305.72185181967285 L 460.7613194616426,305.7030997593178 L 460.70705081594167,305.6941143970643 L 460.6523917483292,305.69606773668465 L 460.5985135245398,305.71013178195096 L 460.54658741030795,305.7374785366355 L 460.49778467136827,305.7792800045103 L 460.4532765734553,305.83670818934775 L 460.4142343823035,305.91093509492 L 460.38182936364757,306.0031327249991 L 460.357232783222,306.1144730833574 L 460.34161590676126,306.24612817376703 L 460.33615000000003,306.3992700000002 L 460.33615000000003,310.89527 L 460.33866043503224,310.9852797174956 L 460.3461026835869,311.07397794210505 L 460.35834316085123,311.16123035097786 L 460.3752482820124,311.24690262126364 L 460.3966844622576,311.3308604301119 L 460.422518116774,311.4129694546722 L 460.45261566074873,311.49309537209393 L 460.486843509369,311.57110385952683 L 460.52506807782197,311.64686059412026 L 460.56715578129484,311.7202312530239 L 460.61297303497474,311.79108151338716 L 460.66238625404895,311.85927705235963 L 460.71526185370453,311.92468354709086 L 460.77146624912865,311.98716667473036 L 460.8308658555086,312.0465921124277 L 460.8933270880314,312.10282553733236 L 460.9587163618844,312.15573262659393 L 461.0269000922546,312.2051790573619 L 461.0977446943293,312.2510305067858 L 461.17111658329566,312.29315265201524 L 461.2468821743408,312.33141117019966 L 461.32490788265187,312.36567173848863 L 461.40506012341615,312.3958000340317 L 461.48720531182073,312.4216617339784 L 461.57120986305284,312.44312251547825 L 461.6569401922996,312.46004805568083 L 461.74426271474823,312.4723040317356 L 461.8330438455859,312.4797561207921 L 461.92314999999974,312.48226999999997 L 486.25615000000005,312.48226999999997 L 486.34625963959166,312.4797561207921 L 486.43505089794587,312.4723040317356 L 486.5223896982247,312.46004805568083 L 486.6081419635902,312.44312251547825 L 486.6921736172045,312.4216617339784 L 486.7743505822298,312.3958000340317 L 486.8545387818279,312.36567173848863 L 486.9326041391611,312.33141117019966 L 487.0084125773915,312.29315265201524 L 487.08183001968104,312.2510305067858 L 487.1527223891919,312.2051790573619 L 487.2209556090861,312.15573262659393 L 487.2863956025258,312.10282553733236 L 487.348908292673,312.0465921124277 L 487.40835960268976,311.98716667473036 L 487.4646154557383,311.92468354709086 L 487.51754177498054,311.85927705235963 L 487.5670044835787,311.79108151338716 L 487.6128695046948,311.7202312530239 L 487.6550027614909,311.64686059412026 L 487.6932701771291,311.57110385952683 L 487.72753767477144,311.49309537209393 L 487.7576711775801,311.4129694546722 L 487.7835366087171,311.3308604301119 L 487.8049998913445,311.24690262126364 L 487.8219269486244,311.16123035097786 L 487.8341837037189,311.07397794210505 L 487.8416360797901,310.9852797174956 L 487.84415,310.89527 L 487.84415000000007,306.39927 L 487.8386806490632,306.24612817376686 L 487.8230539321006,306.11447308335727 L 487.7984418528846,306.003132724999 L 487.76601641518727,305.9109350949198 L 487.7269496227808,305.83670818934763 L 487.6824134794375,305.7792800045102 L 487.6335799889295,305.73747853663536 L 487.581621155029,305.71013178195085 L 487.5277089815081,305.69606773668454 L 487.47301547213914,305.69411439706425 L 487.41871263069424,305.7030997593177 L 487.36597246094556,305.7218518196728 L 487.31596696666537,305.74919857435725 L 487.26986815162576,305.78396801959894 L 487.22884801959907,305.8249881516257 L 487.1940785743573,305.87108696666525 L 487.16673181967286,305.9210924609455 L 487.14797975931776,305.9738326306941 L 487.13899439706427,306.028135472139 L 487.1409477366846,306.082828981508 L 487.1550117819509,306.13674115502886 L 487.1823585366354,306.1886999889294 L 487.2241600045103,306.2375334794374 L 487.2815881893477,306.2820696227807 L 487.3558150949199,306.3211364151871 L 487.448012724999,306.3535618528844 L 487.5593530833573,306.3781739321004 L 487.6910081737669,306.393800649063 L 487.84415,306.3992699999999 L 509.6591187500001,306.39926999999994 L 519.1841187500002,306.39926999999994 L 529.93915,306.39927 L 536.02215,306.39927 L 578.11815,306.39927 L 578.2711953893148,306.3938006490631 L 578.4027675734962,306.37817393210054 L 578.5140378182788,306.3535618528845 L 578.6061773893969,306.3211364151872 L 578.6803575525852,306.28206962278074 L 578.7377495735783,306.23753347943745 L 578.7795247181107,306.18869998892944 L 578.8068542519169,306.1367411550289 L 578.8209094407315,306.08282898150804 L 578.8228615502891,306.02813547213907 L 578.8138818463242,305.9738326306942 L 578.7951415945713,305.92109246094554 L 578.7678120607651,305.8710869666653 L 578.73306451064,305.82498815162575 L 578.6920702099308,305.78396801959906 L 578.6460004243717,305.7491985743573 L 578.5960264196974,305.72185181967285 L 578.5433194616426,305.7030997593178 L 578.4890508159416,305.6941143970643 L 578.4343917483292,305.69606773668465 L 578.3805135245398,305.71013178195096 L 578.3285874103079,305.7374785366355 L 578.2797846713682,305.7792800045103 L 578.2352765734553,305.83670818934775 L 578.1962343823035,305.91093509492 L 578.1638293636476,306.0031327249991 L 578.1392327832219,306.1144730833574 L 578.1236159067613,306.24612817376703 L 578.11815,306.3992700000002 L 578.11815,310.89527 L 578.1206638792079,310.9852797174956 L 578.1281159682644,311.07397794210505 L 578.1403719443192,311.16123035097786 L 578.1572974845217,311.24690262126364 L 578.1787582660215,311.3308604301119 L 578.2046199659683,311.4129694546722 L 578.2347482615114,311.49309537209393 L 578.2690088298003,311.57110385952683 L 578.3072673479847,311.64686059412026 L 578.3493894932142,311.7202312530239 L 578.3952409426381,311.79108151338716 L 578.444687373406,311.85927705235963 L 578.4975944626676,311.92468354709086 L 578.5538278875723,311.98716667473036 L 578.6132533252696,312.0465921124277 L 578.6757364529092,312.10282553733236 L 578.7411429476405,312.15573262659393 L 578.8093384866129,312.2051790573619 L 578.8801887469762,312.2510305067858 L 578.9535594058798,312.29315265201524 L 579.0293161404733,312.33141117019966 L 579.1073246279062,312.36567173848863 L 579.1874505453279,312.3958000340317 L 579.2695595698882,312.4216617339784 L 579.3535173787365,312.44312251547825 L 579.4391896490223,312.46004805568083 L 579.5264420578951,312.4723040317356 L 579.6151402825046,312.4797561207921 L 579.7051500000002,312.48226999999997 L 604.03815,312.48226999999997 L 604.1282596395915,312.4797561207921 L 604.2170508979458,312.4723040317356 L 604.3043896982246,312.46004805568083 L 604.39014196359,312.44312251547825 L 604.4741736172044,312.4216617339784 L 604.5563505822296,312.3958000340317 L 604.6365387818278,312.36567173848863 L 604.714604139161,312.33141117019966 L 604.7904125773914,312.29315265201524 L 604.8638300196809,312.2510305067858 L 604.9347223891917,312.2051790573619 L 605.0029556090859,312.15573262659393 L 605.0683956025256,312.10282553733236 L 605.1309082926728,312.0465921124277 L 605.1903596026896,311.98716667473036 L 605.2466154557382,311.92468354709086 L 605.2995417749804,311.85927705235963 L 605.3490044835785,311.79108151338716 L 605.3948695046946,311.7202312530239 L 605.4370027614907,311.64686059412026 L 605.4752701771289,311.57110385952683 L 605.5095376747712,311.49309537209393 L 605.5396711775799,311.4129694546722 L 605.5655366087168,311.3308604301119 L 605.5869998913442,311.24690262126364 L 605.6039269486241,311.16123035097786 L 605.6161837037187,311.07397794210505 L 605.6236360797898,310.9852797174956 L 605.6261499999997,310.89527 L 605.6261499999999,306.39927 L 605.620680649063,306.24612817376686 L 605.6050539321005,306.11447308335727 L 605.5804418528844,306.003132724999 L 605.5480164151871,305.9109350949198 L 605.5089496227807,305.83670818934763 L 605.4644134794374,305.7792800045102 L 605.4155799889294,305.73747853663536 L 605.3636211550289,305.71013178195085 L 605.309708981508,305.69606773668454 L 605.255015472139,305.69411439706425 L 605.2007126306942,305.7030997593177 L 605.1479724609455,305.7218518196728 L 605.0979669666652,305.74919857435725 L 605.0518681516257,305.78396801959894 L 605.010848019599,305.8249881516257 L 604.9760785743573,305.87108696666525 L 604.9487318196728,305.9210924609455 L 604.9299797593178,305.9738326306941 L 604.9209943970643,306.028135472139 L 604.9229477366846,306.082828981508 L 604.9370117819509,306.13674115502886 L 604.9643585366355,306.1886999889294 L 605.0061600045103,306.2375334794374 L 605.0635881893478,306.2820696227807 L 605.1378150949199,306.3211364151871 L 605.2300127249991,306.3535618528844 L 605.3413530833574,306.3781739321004 L 605.473008173767,306.393800649063 L 605.6261500000002,306.3992699999999 L 624.7686162500002,306.39926999999994 L 634.2936162500002,306.39926999999994 L 647.72115,306.39927 L 653.8051499999999,306.39927 L 695.9001499999999,306.39927 L 696.053291826233,306.3938006490631 L 696.1849469166427,306.37817393210054 L 696.296287275001,306.3535618528845 L 696.3884849050801,306.3211364151872 L 696.4627118106523,306.28206962278074 L 696.5201399954897,306.23753347943745 L 696.5619414633646,306.18869998892944 L 696.5892882180491,306.1367411550289 L 696.6033522633154,306.08282898150804 L 696.6053056029357,306.02813547213907 L 696.5963202406823,305.9738326306942 L 696.5775681803271,305.92109246094554 L 696.5502214256427,305.8710869666653 L 696.515451980401,305.82498815162575 L 696.4744318483744,305.78396801959906 L 696.4283330333348,305.7491985743573 L 696.3783275390546,305.72185181967285 L 696.3255873693059,305.7030997593178 L 696.2712845278611,305.6941143970643 L 696.2165910184921,305.69606773668465 L 696.1626788449713,305.71013178195096 L 696.1107200110707,305.7374785366355 L 696.0618865205628,305.7792800045103 L 696.0173503772195,305.83670818934775 L 695.9782835848131,305.91093509492 L 695.9458581471158,306.0031327249991 L 695.9212460678998,306.1144730833574 L 695.9056193509373,306.24612817376703 L 695.9001500000004,306.3992700000002 L 695.9001499999999,310.89527 L 695.9026639202099,310.9852797174956 L 695.9101162962811,311.07397794210505 L 695.9223730513755,311.16123035097786 L 695.9393001086555,311.24690262126364 L 695.9607633912829,311.3308604301119 L 695.9866288224199,311.4129694546722 L 696.0167623252286,311.49309537209393 L 696.0510298228709,311.57110385952683 L 696.0892972385091,311.64686059412026 L 696.1314304953052,311.7202312530239 L 696.1772955164213,311.79108151338716 L 696.2267582250194,311.85927705235963 L 696.2796845442616,311.92468354709086 L 696.3359403973102,311.98716667473036 L 696.395391707327,312.0465921124277 L 696.4579043974742,312.10282553733236 L 696.5233443909138,312.15573262659393 L 696.591577610808,312.2051790573619 L 696.6624699803189,312.2510305067858 L 696.7358874226084,312.29315265201524 L 696.8116958608388,312.33141117019966 L 696.8897612181719,312.36567173848863 L 696.9699494177701,312.3958000340317 L 697.0521263827953,312.4216617339784 L 697.1361580364096,312.44312251547825 L 697.2219103017751,312.46004805568083 L 697.309249102054,312.4723040317356 L 697.3980403604081,312.4797561207921 L 697.4881499999997,312.48226999999997 L 721.8211499999999,312.48226999999997 L 721.9111597174955,312.4797561207921 L 721.9998579421049,312.4723040317356 L 722.0871103509778,312.46004805568083 L 722.1727826212635,312.44312251547825 L 722.2567404301118,312.4216617339784 L 722.3388494546721,312.3958000340317 L 722.4189753720939,312.36567173848863 L 722.4969838595267,312.33141117019966 L 722.5727405941202,312.29315265201524 L 722.6461112530237,312.2510305067858 L 722.716961513387,312.2051790573619 L 722.7851570523595,312.15573262659393 L 722.8505635470908,312.10282553733236 L 722.9130466747303,312.0465921124277 L 722.9724721124276,311.98716667473036 L 723.0287055373323,311.92468354709086 L 723.0816126265938,311.85927705235963 L 723.1310590573618,311.79108151338716 L 723.1769105067857,311.7202312530239 L 723.2190326520151,311.64686059412026 L 723.2572911701996,311.57110385952683 L 723.2915517384886,311.49309537209393 L 723.3216800340316,311.4129694546722 L 723.3475417339783,311.3308604301119 L 723.3690025154782,311.24690262126364 L 723.3859280556807,311.16123035097786 L 723.3981840317355,311.07397794210505 L 723.405636120792,310.9852797174956 L 723.4081499999999,310.89527 L 723.4081499999999,306.39927 L 723.4026840932386,306.24612817376686 L 723.387067216778,306.11447308335727 L 723.3624706363523,306.003132724999 L 723.3300656176964,305.9109350949198 L 723.2910234265446,305.83670818934763 L 723.2465153286316,305.7792800045102 L 723.197712589692,305.73747853663536 L 723.1457864754601,305.71013178195085 L 723.0919082516707,305.69606773668454 L 723.0372491840582,305.69411439706425 L 722.9829805383573,305.7030997593177 L 722.9302735803024,305.7218518196728 L 722.8802995756281,305.74919857435725 L 722.834229790069,305.78396801959894 L 722.7932354893597,305.8249881516257 L 722.7584879392347,305.87108696666525 L 722.7311584054283,305.9210924609455 L 722.7124181536756,305.9738326306941 L 722.7034384497106,306.028135472139 L 722.7053905592682,306.082828981508 L 722.7194457480828,306.13674115502886 L 722.746775281889,306.1886999889294 L 722.7885504264214,306.2375334794374 L 722.8459424474144,306.2820696227807 L 722.9201226106027,306.3211364151871 L 723.0122621817208,306.3535618528844 L 723.1235324265032,306.3781739321004 L 723.2551046106846,306.393800649063 L 723.4081499999994,306.3992699999999 L 750.4876112500001,306.39926999999994 L 760.0126112500002,306.39927 L 765.5041499999999,306.39927 L 765.5941597174955,306.39675607979007 L 765.6828579421049,306.3893037037189 L 765.7701103509778,306.37704694862435 L 765.8557826212635,306.3601198913445 L 765.9397404301118,306.33865660871703 L 766.0218494546721,306.31279117758004 L 766.1019753720939,306.28265767477143 L 766.1799838595267,306.248390177129 L 766.2557405941202,306.2101227614908 L 766.3291112530237,306.16798950469473 L 766.399961513387,306.12212448357866 L 766.4681570523595,306.07266177498053 L 766.5335635470908,306.0197354557382 L 766.5960466747302,305.96347960268974 L 766.6554721124276,305.90402829267293 L 766.7117055373323,305.8415156025257 L 766.7646126265938,305.77607560908604 L 766.8140590573618,305.70784238919185 L 766.8599105067857,305.63695001968097 L 766.9020326520151,305.5635325773914 L 766.9402911701995,305.48772413916106 L 766.9745517384886,305.4096587818279 L 767.0046800340316,305.3294705822297 L 767.0305417339783,305.24729361720443 L 767.0520025154782,305.1632619635901 L 767.0689280556807,305.0775096982246 L 767.0811840317355,304.9901708979458 L 767.088636120792,304.9013796395916 L 767.0911499999999,304.81127 L 767.0911499999999,296.7871549999999 L 767.0911499999999,287.26215499999995 L 767.0911499999999,273.98328 L 767.0911499999999,273.15504999999996 L 767.088636120792,273.0649393611874 L 767.0811840317355,272.97614717249576 L 767.0689280556807,272.8888075083029 L 767.0520025154782,272.80305444298654 L 767.0305417339783,272.71902205092454 L 767.0046800340316,272.6368444064947 L 766.9745517384886,272.55665558407475 L 766.9402911701995,272.47858965804255 L 766.9020326520151,272.40278070277583 L 766.8599105067857,272.3293627926524 L 766.8140590573618,272.2584700020501 L 766.7646126265938,272.19023640534664 L 766.7117055373323,272.1247960769199 L 766.6554721124277,272.0622830911476 L 766.5960466747304,272.00283152240763 L 766.5335635470908,271.94657544507766 L 766.4681570523596,271.8936489335356 L 766.3999615133871,271.84418606215917 L 766.3291112530238,271.79832090532614 L 766.2557405941203,271.7561875374144 L 766.1799838595268,271.71792003280166 L 766.101975372094,271.68365246586575 L 766.0218494546722,271.6535189109845 L 765.9397404301119,271.6276534425356 L 765.8557826212638,271.6061901348969 L 765.7701103509779,271.5892630624462 L 765.6828579421051,271.5770062995613 L 765.5941597174957,271.56955392061997 L 765.5041500000001,271.56704 L 418.24014999999986,271.56703999999996 L 418.15004384558597,271.5695539206199 L 418.0612627147483,271.5770062995612 L 417.97394019229966,271.58926306244615 L 417.88820986305285,271.60619013489685 L 417.80420531182074,271.6276534425355 L 417.72206012341616,271.6535189109844 L 417.6419078826519,271.6836524658657 L 417.56388217434073,271.7179200328016 L 417.4881165832956,271.75618753741435 L 417.4147446943293,271.79832090532614 L 417.34390009225456,271.8441860621591 L 417.27571636188435,271.89364893353553 L 417.21032708803136,271.9465754450776 L 417.14786585550854,272.0028315224076 L 417.0884662491286,272.06228309114755 L 417.0322618537044,272.12479607691984 L 416.97938625404885,272.1902364053466 L 416.9299730349747,272.25847000205 L 416.88415578129474,272.3293627926523 L 416.84206807782186,272.4027807027757 L 416.8038435093689,272.4785896580424 L 416.7696156607486,272.55665558407463 L 416.73951811677387,272.63684440649456 L 416.7136844622575,272.7190220509244 L 416.6922482820123,272.80305444298637 L 416.6753431608512,272.8888075083027 L 416.6631026835868,272.9761471724956 L 416.6556604350322,273.06493936118716 L 416.65315,273.15504999999973 L 416.65314999999987,273.98328 L 416.65314999999987,287.26215499999995 L 416.65314999999987,296.7871549999999 L 416.65314999999987,304.81127 L 416.6556604350321,304.9013796395916 L 416.6631026835867,304.9901708979458 L 416.67534316085107,305.0775096982246 L 416.69224828201226,305.1632619635901 L 416.71368446225745,305.2472936172045 L 416.7395181167738,305.3294705822297 L 416.76961566074857,305.4096587818279 L 416.80384350936885,305.4877241391611 L 416.84206807782186,305.56353257739147 L 416.88415578129474,305.636950019681 L 416.9299730349747,305.70784238919185 L 416.97938625404885,305.7760756090861 L 417.0322618537044,305.84151560252576 L 417.0884662491286,305.90402829267293 L 417.14786585550854,305.9634796026898 L 417.2103270880314,306.01973545573827 L 417.27571636188435,306.0726617749806 L 417.3439000922546,306.1221244835787 L 417.41474469432933,306.1679895046948 L 417.48811658329566,306.21012276149094 L 417.56388217434085,306.2483901771291 L 417.641907882652,306.2826576747715 L 417.72206012341627,306.31279117758015 L 417.80420531182085,306.33865660871714 L 417.888209863053,306.3601198913446 L 417.9739401922998,306.3770469486245 L 418.06126271474847,306.38930370371907 L 418.15004384558614,306.39675607979024 L 418.24015,306.3992700000002 L 418.24015,306.39927" fill="none" stroke="rgb(0,0,0)" stroke-width="0.5"/>
	<path d="M 64.568531,306.97216 L 106.66452999999998,306.97216 L 106.81757538931484,306.9666906490631 L 106.94914757349623,306.9510639321005 L 107.06041781827872,306.9264518528845 L 107.15255738939685,306.89402641518717 L 107.22673755258516,306.8549596227807 L 107.28412957357824,306.8104234794374 L 107.3259047181106,306.7615899889294 L 107.35323425191683,306.7096311550289 L 107.36728944073145,306.655718981508 L 107.36924155028905,306.60102547213904 L 107.36026184632415,306.54672263069415 L 107.3415215945713,306.49398246094546 L 107.31419206076508,306.4439769666653 L 107.27944451064002,306.39787815162566 L 107.23845020993069,306.356858019599 L 107.19238042437162,306.3220885743572 L 107.14240641969738,306.29474181967277 L 107.08969946164252,306.27598975931767 L 107.03543081594158,306.26700439706417 L 106.98077174832913,306.2689577366845 L 106.92689352453972,306.2830217819508 L 106.87496741030789,306.3103685366353 L 106.8261646713682,306.3521700045102 L 106.78165657345521,306.4095981893476 L 106.74261438230346,306.4838250949198 L 106.71020936364751,306.5760227249989 L 106.6856127832219,306.6873630833572 L 106.6699959067612,306.8190181737668 L 106.66452999999996,306.9721599999999 L 106.66452999999998,311.46815999999995 L 106.66704043503218,311.55816971749556 L 106.67448268358685,311.646867942105 L 106.68672316085119,311.73412035097783 L 106.70362828201237,311.8197926212636 L 106.72506446225756,311.90375043011187 L 106.75089811677394,311.98585945467215 L 106.78099566074869,312.0659853720939 L 106.81522350936896,312.1439938595268 L 106.85344807782195,312.2197505941202 L 106.89553578129483,312.29312125302386 L 106.94135303497477,312.3639715133871 L 106.99076625404894,312.4321670523596 L 107.04364185370453,312.49757354709084 L 107.09984624912869,312.56005667473033 L 107.15924585550862,312.61948211242765 L 107.22170708803148,312.67571553733234 L 107.28709636188444,312.7286226265939 L 107.35528009225469,312.77806905736185 L 107.4261246943294,312.8239205067858 L 107.49949658329574,312.8660426520152 L 107.57526217434088,312.90430117019963 L 107.65328788265201,312.9385617384886 L 107.73344012341629,312.9686900340317 L 107.8155853118209,312.99455173397837 L 107.89958986305301,313.0160125154782 L 107.98532019229981,313.0329380556808 L 108.07264271474845,313.04519403173555 L 108.16142384558613,313.0526461207921 L 108.25153,313.05515999999994 L 132.58452999999997,313.05515999999994 L 132.6746396395916,313.0526461207921 L 132.76343089794577,313.04519403173555 L 132.85076969822458,313.0329380556808 L 132.9365219635901,313.0160125154782 L 133.02055361720446,312.99455173397837 L 133.10273058222967,312.9686900340317 L 133.18291878182785,312.9385617384886 L 133.26098413916105,312.90430117019963 L 133.3367925773914,312.86604265201515 L 133.41021001968096,312.8239205067858 L 133.48110238919182,312.77806905736185 L 133.54933560908603,312.72862262659385 L 133.6147756025257,312.6757155373323 L 133.67728829267287,312.61948211242765 L 133.73673960268968,312.5600566747303 L 133.79299545573818,312.4975735470908 L 133.84592177498047,312.43216705235955 L 133.8953844835786,312.363971513387 L 133.94124950469467,312.29312125302374 L 133.98338276149076,312.2197505941201 L 134.02165017712895,312.14399385952663 L 134.05591767477134,312.0659853720938 L 134.08605117757998,311.985859454672 L 134.11191660871697,311.9037504301117 L 134.13337989134436,311.81979262126345 L 134.1503069486243,311.73412035097766 L 134.16256370371877,311.6468679421048 L 134.17001607978995,311.55816971749533 L 134.17252999999988,311.4681599999997 L 134.17252999999997,306.97216 L 134.16706064906307,306.81901817376684 L 134.1514339321005,306.68736308335724 L 134.12682185288446,306.57602272499895 L 134.09439641518713,306.4838250949198 L 134.05532962278073,306.4095981893476 L 134.0107934794374,306.3521700045102 L 133.9619599889294,306.31036853663534 L 133.91000115502885,306.2830217819508 L 133.856088981508,306.2689577366845 L 133.80139547213903,306.2670043970642 L 133.7470926306941,306.27598975931767 L 133.69435246094545,306.29474181967277 L 133.64434696666524,306.3220885743572 L 133.59824815162568,306.3568580195989 L 133.55722801959894,306.39787815162566 L 133.52245857435722,306.4439769666652 L 133.49511181967273,306.49398246094546 L 133.47635975931763,306.5467226306941 L 133.46737439706416,306.601025472139 L 133.46932773668448,306.65571898150796 L 133.4833917819508,306.70963115502883 L 133.51073853663524,306.76158998892936 L 133.55254000451012,306.81042347943736 L 133.60996818934754,306.85495962278065 L 133.68419509491972,306.89402641518706 L 133.77639272499883,306.9264518528844 L 133.8877330833571,306.9510639321004 L 134.01938817376669,306.96669064906297 L 134.17252999999982,306.97215999999986 L 155.74419874999992,306.9721599999999 L 165.2691987499999,306.9721599999999 L 176.26753999999997,306.97216 L 182.35053999999997,306.97216 L 224.44653999999997,306.97216 L 224.59958538931483,306.9666906490631 L 224.7311575734962,306.9510639321005 L 224.8424278182787,306.9264518528845 L 224.93456738939682,306.89402641518717 L 225.00874755258513,306.8549596227807 L 225.06613957357823,306.8104234794374 L 225.10791471811058,306.7615899889294 L 225.13524425191682,306.7096311550289 L 225.14929944073145,306.655718981508 L 225.15125155028903,306.60102547213904 L 225.14227184632412,306.54672263069415 L 225.1235315945713,306.49398246094546 L 225.09620206076505,306.4439769666653 L 225.06145451064,306.39787815162566 L 225.02046020993066,306.356858019599 L 224.97439042437162,306.3220885743572 L 224.92441641969737,306.29474181967277 L 224.87170946164252,306.27598975931767 L 224.81744081594158,306.26700439706417 L 224.76278174832913,306.2689577366845 L 224.70890352453972,306.2830217819508 L 224.6569774103079,306.3103685366353 L 224.6081746713682,306.3521700045102 L 224.5636665734552,306.4095981893476 L 224.52462438230347,306.4838250949198 L 224.4922193636475,306.5760227249989 L 224.4676227832219,306.6873630833572 L 224.45200590676123,306.8190181737668 L 224.44653999999997,306.9721599999999 L 224.44653999999997,311.46815999999995 L 224.4490538792078,311.55816971749556 L 224.45650596826434,311.646867942105 L 224.46876194431914,311.73412035097783 L 224.4856874845217,311.8197926212636 L 224.50714826602155,311.90375043011187 L 224.53300996596823,311.98585945467215 L 224.56313826151128,312.0659853720939 L 224.59739882980028,312.1439938595268 L 224.6356573479847,312.2197505941202 L 224.6777794932141,312.29312125302386 L 224.723630942638,312.3639715133871 L 224.77307737340598,312.4321670523596 L 224.82598446266752,312.49757354709084 L 224.88221788757218,312.56005667473033 L 224.9416433252695,312.61948211242765 L 225.004126452909,312.67571553733234 L 225.06953294764023,312.7286226265939 L 225.1377284866127,312.77806905736185 L 225.20857874697597,312.8239205067858 L 225.28194940587957,312.8660426520152 L 225.35770614047303,312.90430117019963 L 225.43571462790587,312.9385617384886 L 225.51584054532765,312.9686900340317 L 225.59794956988787,312.99455173397837 L 225.68190737873613,313.0160125154782 L 225.76757964902188,313.0329380556808 L 225.85483205789473,313.04519403173555 L 225.94353028250416,313.0526461207921 L 226.03353999999973,313.05515999999994 L 250.36653999999996,313.05515999999994 L 250.45664963959157,313.0526461207921 L 250.54544089794575,313.04519403173555 L 250.63277969822457,313.0329380556808 L 250.7185319635901,313.0160125154782 L 250.80256361720444,312.99455173397837 L 250.88474058222965,312.9686900340317 L 250.96492878182784,312.9385617384886 L 251.04299413916107,312.90430117019963 L 251.11880257739142,312.86604265201515 L 251.19222001968097,312.8239205067858 L 251.2631123891918,312.77806905736185 L 251.33134560908601,312.72862262659385 L 251.39678560252568,312.6757155373323 L 251.45929829267288,312.61948211242765 L 251.5187496026897,312.5600566747303 L 251.57500545573822,312.4975735470908 L 251.62793177498048,312.43216705235955 L 251.67739448357864,312.363971513387 L 251.7232595046947,312.29312125302374 L 251.7653927614908,312.2197505941201 L 251.803660177129,312.14399385952663 L 251.83792767477138,312.0659853720938 L 251.86806117758002,311.985859454672 L 251.893926608717,311.9037504301117 L 251.91538989134443,311.81979262126345 L 251.93231694862436,311.73412035097766 L 251.94457370371887,311.6468679421048 L 251.95202607979004,311.55816971749533 L 251.95453999999998,311.4681599999997 L 251.95453999999995,306.97216 L 251.94907064906306,306.81901817376684 L 251.9334439321005,306.68736308335724 L 251.90883185288445,306.57602272499895 L 251.87640641518712,306.4838250949198 L 251.83733962278072,306.4095981893476 L 251.7928034794374,306.3521700045102 L 251.7439699889294,306.31036853663534 L 251.69201115502887,306.2830217819508 L 251.63809898150802,306.2689577366845 L 251.58340547213905,306.2670043970642 L 251.52910263069413,306.27598975931767 L 251.47636246094547,306.29474181967277 L 251.42635696666528,306.3220885743572 L 251.3802581516257,306.3568580195989 L 251.33923801959898,306.39787815162566 L 251.30446857435726,306.4439769666652 L 251.2771218196728,306.49398246094546 L 251.2583697593177,306.5467226306941 L 251.24938439706423,306.601025472139 L 251.25133773668458,306.65571898150796 L 251.26540178195089,306.70963115502883 L 251.29274853663537,306.76158998892936 L 251.33455000451025,306.81042347943736 L 251.39197818934767,306.85495962278065 L 251.46620509491987,306.89402641518706 L 251.55840272499898,306.9264518528844 L 251.66974308335728,306.9510639321004 L 251.8013981737669,306.96669064906297 L 251.95454000000004,306.97215999999986 L 270.85369625,306.9721599999999 L 280.37869624999996,306.9721599999999 L 294.04954,306.97216 L 300.13354,306.97216 L 342.22853999999995,306.97216 L 342.3816818262331,306.9666906490631 L 342.5133369166427,306.9510639321005 L 342.624677275001,306.9264518528845 L 342.7168749050801,306.89402641518717 L 342.7911018106523,306.8549596227807 L 342.84852999548974,306.8104234794374 L 342.8903314633646,306.7615899889294 L 342.91767821804905,306.7096311550289 L 342.93174226331536,306.655718981508 L 342.9336956029357,306.60102547213904 L 342.9247102406822,306.54672263069415 L 342.90595818032716,306.49398246094546 L 342.87861142564265,306.4439769666653 L 342.84384198040095,306.39787815162566 L 342.8028218483742,306.356858019599 L 342.75672303333465,306.3220885743572 L 342.7067175390544,306.29474181967277 L 342.6539773693058,306.27598975931767 L 342.5996745278608,306.26700439706417 L 342.54498101849185,306.2689577366845 L 342.491068844971,306.2830217819508 L 342.43911001107045,306.3103685366353 L 342.39027652056245,306.3521700045102 L 342.3457403772191,306.4095981893476 L 342.3066735848127,306.4838250949198 L 342.2742481471154,306.5760227249989 L 342.2496360678993,306.6873630833572 L 342.23400935093673,306.8190181737668 L 342.22853999999984,306.9721599999999 L 342.22853999999995,311.46815999999995 L 342.2310539202099,311.55816971749556 L 342.23850629628106,311.646867942105 L 342.2507630513756,311.73412035097783 L 342.2676901086555,311.8197926212636 L 342.2891533912829,311.90375043011187 L 342.3150188224199,311.98585945467215 L 342.3451523252286,312.0659853720939 L 342.37941982287094,312.1439938595268 L 342.41768723850913,312.2197505941202 L 342.4598204953052,312.29312125302386 L 342.50568551642135,312.3639715133871 L 342.5551482250195,312.4321670523596 L 342.60807454426174,312.49757354709084 L 342.66433039731027,312.56005667473033 L 342.7237817073271,312.61948211242765 L 342.7862943974743,312.67571553733234 L 342.851734390914,312.7286226265939 L 342.9199676108082,312.77806905736185 L 342.99085998031904,312.8239205067858 L 343.06427742260865,312.8660426520152 L 343.140085860839,312.90430117019963 L 343.21815121817224,312.9385617384886 L 343.2983394177704,312.9686900340317 L 343.38051638279563,312.99455173397837 L 343.46454803641,313.0160125154782 L 343.55030030177556,313.0329380556808 L 343.6376391020544,313.04519403173555 L 343.7264303604086,313.0526461207921 L 343.8165400000002,313.05515999999994 L 368.14954,313.05515999999994 L 368.2395497174956,313.0526461207921 L 368.32824794210507,313.04519403173555 L 368.4155003509779,313.0329380556808 L 368.50117262126366,313.0160125154782 L 368.5851304301119,312.99455173397837 L 368.6672394546722,312.9686900340317 L 368.74736537209395,312.9385617384886 L 368.82537385952685,312.90430117019963 L 368.9011305941203,312.86604265201515 L 368.9745012530239,312.8239205067858 L 369.0453515133872,312.77806905736185 L 369.11354705235965,312.72862262659385 L 369.1789535470909,312.6757155373323 L 369.2414366747304,312.61948211242765 L 369.3008621124277,312.5600566747303 L 369.3570955373324,312.4975735470908 L 369.41000262659395,312.43216705235955 L 369.4594490573619,312.363971513387 L 369.50530050678583,312.29312125302374 L 369.54742265201526,312.2197505941201 L 369.5856811701997,312.14399385952663 L 369.61994173848865,312.0659853720938 L 369.6500700340317,311.985859454672 L 369.6759317339784,311.9037504301117 L 369.69739251547827,311.81979262126345 L 369.71431805568085,311.73412035097766 L 369.7265740317356,311.6468679421048 L 369.7340261207921,311.55816971749533 L 369.73654,311.4681599999997 L 369.73654,306.97216 L 369.73107409323876,306.81901817376684 L 369.715457216778,306.68736308335724 L 369.69086063635245,306.57602272499895 L 369.65845561769646,306.4838250949198 L 369.6194134265447,306.4095981893476 L 369.57490532863176,306.3521700045102 L 369.526102589692,306.31036853663534 L 369.4741764754602,306.2830217819508 L 369.4202982516708,306.2689577366845 L 369.36563918405835,306.2670043970642 L 369.3113705383574,306.27598975931767 L 369.25866358030254,306.29474181967277 L 369.2086895756283,306.3220885743572 L 369.1626197900692,306.3568580195989 L 369.1216254893598,306.39787815162566 L 369.08687793923474,306.4439769666652 L 369.05954840542853,306.49398246094546 L 369.04080815367564,306.5467226306941 L 369.03182844971076,306.601025472139 L 369.0337805592683,306.65571898150796 L 369.0478357480829,306.70963115502883 L 369.0751652818891,306.76158998892936 L 369.1169404264215,306.81042347943736 L 369.1743324474145,306.85495962278065 L 369.2485126106028,306.89402641518706 L 369.3406521817209,306.9264518528844 L 369.45192242650336,306.9510639321004 L 369.58349461068474,306.96669064906297 L 369.73653999999954,306.97215999999986 L 396.57269125000016,306.9721599999999 L 406.09769125000014,306.97216 L 411.83254,306.97216 L 411.9225497174956,306.96964607979004 L 412.01124794210506,306.96219370371887 L 412.0985003509779,306.9499369486244 L 412.18417262126366,306.93300989134445 L 412.2681304301119,306.911546608717 L 412.3502394546722,306.88568117758 L 412.43036537209395,306.8555476747714 L 412.50837385952684,306.82128017712904 L 412.58413059412027,306.78301276149085 L 412.6575012530239,306.74087950469476 L 412.72835151338717,306.6950144835787 L 412.79654705235964,306.6455517749805 L 412.8619535470909,306.59262545573824 L 412.9244366747304,306.5363696026898 L 412.9838621124277,306.47691829267296 L 413.0400955373324,306.4144056025258 L 413.09300262659394,306.3489656090861 L 413.1424490573619,306.2807323891919 L 413.1883005067858,306.20984001968105 L 413.23042265201525,306.1364225773915 L 413.26868117019967,306.0606141391612 L 413.30294173848864,305.982548781828 L 413.3330700340317,305.9023605822298 L 413.3589317339784,305.8201836172046 L 413.38039251547826,305.73615196359026 L 413.39731805568084,305.65039969822476 L 413.4095740317356,305.56306089794595 L 413.4170261207921,305.4742696395918 L 413.41954,305.3841600000002 L 413.41954,297.36004499999984 L 413.41954,287.83504499999987 L 413.41954,274.55616999999995 L 413.41954,273.72793999999993 L 413.4170261207921,273.63782936118736 L 413.4095740317356,273.54903717249573 L 413.39731805568084,273.46169750830285 L 413.38039251547826,273.3759444429865 L 413.3589317339784,273.2919120509245 L 413.3330700340317,273.20973440649465 L 413.30294173848864,273.1295455840747 L 413.26868117019967,273.05147965804247 L 413.2304226520152,272.97567070277574 L 413.1883005067858,272.90225279265235 L 413.1424490573619,272.83136000205 L 413.0930026265939,272.7631264053466 L 413.0400955373323,272.6976860769198 L 412.9838621124277,272.6351730911475 L 412.9244366747303,272.57572152240755 L 412.8619535470908,272.51946544507757 L 412.7965470523596,272.4665389335355 L 412.72835151338705,272.417076062159 L 412.6575012530238,272.37121090532605 L 412.58413059412015,272.32907753741426 L 412.50837385952667,272.2908100328015 L 412.43036537209383,272.2565424658656 L 412.350239454672,272.2264089109843 L 412.26813043011174,272.2005434425354 L 412.1841726212635,272.1790801348967 L 412.0985003509777,272.162153062446 L 412.01124794210483,272.1498962995611 L 411.9225497174954,272.1424439206197 L 411.83253999999977,272.13992999999977 L 374.3772888749999,272.13992999999977 L 364.85228887499994,272.13992999999977 L 286.7677866249999,272.1399299999998 L 277.24278662499995,272.1399299999998 L 199.15828437499997,272.1399299999999 L 189.633284375,272.1399299999999 L 111.54878212499999,272.13992999999994 L 102.02378212499998,272.13992999999994 L 64.568531,272.13992999999994 L 64.47842484558612,272.1424439206199 L 64.38964371474844,272.1498962995612 L 64.3023211922998,272.1621530624461 L 64.21659086305301,272.1790801348968 L 64.1325863118209,272.2005434425355 L 64.05044112341629,272.2264089109844 L 63.97028888265201,272.2565424658657 L 63.89226317434088,272.29081003280163 L 63.81649758329574,272.3290775374143 L 63.74312569432941,272.3712109053261 L 63.6722810922547,272.4170760621591 L 63.60409736188445,272.46653893353556 L 63.538708088031484,272.5194654450776 L 63.47624685550863,272.5757215224076 L 63.4168472491287,272.6351730911476 L 63.36064285370454,272.69768607691987 L 63.307767254048954,272.7631264053466 L 63.258354034974786,272.83136000205 L 63.21253678129485,272.90225279265235 L 63.17044907782197,272.9756707027758 L 63.13222450936898,273.0514796580425 L 63.097996660748706,273.1295455840747 L 63.067899116773965,273.20973440649465 L 63.04206546225758,273.2919120509245 L 63.02062928201239,273.3759444429865 L 63.00372416085121,273.46169750830285 L 62.99148368358688,273.54903717249573 L 62.9840414350322,273.63782936118736 L 62.98153100000002,273.72793999999993 L 62.98153099999999,274.55616999999995 L 62.98153099999999,287.83504499999987 L 62.98153099999999,297.36004499999984 L 62.98153099999999,305.38415999999995 L 62.984041435032175,305.47426963959157 L 62.99148368358685,305.5630608979458 L 63.00372416085119,305.6503996982246 L 63.02062928201237,305.7361519635901 L 63.04206546225757,305.8201836172044 L 63.067899116773944,305.9023605822297 L 63.09799666074869,305.9825487818278 L 63.132224509368974,306.06061413916103 L 63.170449077821964,306.1364225773914 L 63.212536781294844,306.20984001968094 L 63.25835403497478,306.2807323891918 L 63.307767254048954,306.348965609086 L 63.36064285370454,306.4144056025257 L 63.41684724912871,306.4769182926729 L 63.476246855508634,306.53636960268966 L 63.5387080880315,306.5926254557382 L 63.60409736188446,306.64555177498045 L 63.672281092254714,306.69501448357863 L 63.74312569432942,306.7408795046947 L 63.816497583295764,306.7830127614908 L 63.89226317434091,306.821280177129 L 63.970288882652035,306.85554767477134 L 64.05044112341632,306.88568117758 L 64.13258631182093,306.911546608717 L 64.21659086305304,306.9330098913444 L 64.30232119229984,306.9499369486243 L 64.38964371474849,306.9621937037188 L 64.47842484558618,306.96964607979 L 64.56853100000005,306.9721599999999" fill="none" stroke="rgb(0,0,0)" stroke-width="0.5"/>
	<path d="M 454.55294,314.47073 L 412.45694,314.47073 L 412.3038946106851,314.4761993509369 L 412.17232242650374,314.49182606789947 L 412.06105218172127,314.5164381471155 L 411.9689126106031,314.5488635848128 L 411.8947324474148,314.58793037721927 L 411.83734042642175,314.63246652056256 L 411.79556528188937,314.68130001107056 L 411.76823574808316,314.7332588449711 L 411.7541805592685,314.78717101849196 L 411.7522284497109,314.84186452786093 L 411.7612081536758,314.89616736930583 L 411.7799484054287,314.94890753905446 L 411.8072779392349,314.9989130333347 L 411.8420254893599,315.04501184837426 L 411.8830197900693,315.08603198040095 L 411.9290895756283,315.1208014256427 L 411.9790635803026,315.14814818032715 L 412.0317705383574,315.1669002406822 L 412.08603918405834,315.1758856029357 L 412.1406982516708,315.17393226331535 L 412.1945764754602,315.15986821804904 L 412.24650258969206,315.1325214633645 L 412.29530532863174,315.0907199954897 L 412.3398134265447,315.03329181065226 L 412.3788556176965,314.95906490508 L 412.41126063635244,314.8668672750009 L 412.435857216778,314.7555269166426 L 412.45147409323874,314.62387182623297 L 412.45694,314.47072999999983 L 412.45694,309.97473 L 412.45442956496777,309.8847202825044 L 412.44698731641313,309.79602205789496 L 412.4347468391488,309.70876964902214 L 412.4178417179876,309.62309737873636 L 412.3964055377424,309.5391395698881 L 412.37057188322603,309.4570305453278 L 412.3404743392513,309.3769046279061 L 412.306246490631,309.2988961404732 L 412.26802192217804,309.22313940587975 L 412.22593421870516,309.1497687469761 L 412.18011696502526,309.07891848661285 L 412.13070374595105,309.0107229476404 L 412.0778281462955,308.94531645290914 L 412.02162375087136,308.88283332526964 L 411.9622241444914,308.82340788757233 L 411.8997629119686,308.76717446266764 L 411.8343736381156,308.7142673734061 L 411.7661899077454,308.66482094263813 L 411.6953453056707,308.6189694932142 L 411.62197341670435,308.57684734798477 L 411.5462078256592,308.53858882980035 L 411.46818211734814,308.5043282615114 L 411.38802987658386,308.4741999659683 L 411.3058846881793,308.4483382660216 L 411.22188013694716,308.42687748452175 L 411.1361498077004,308.4099519443192 L 411.0488272852518,308.39769596826443 L 410.9600461544141,308.3902438792079 L 410.86994000000027,308.38773000000003 L 406.09769125000014,308.38773000000003 L 396.57269125000016,308.38773000000003 L 386.53695,308.38773000000003 L 386.4468403604084,308.3902438792079 L 386.35804910205417,308.39769596826443 L 386.27071030177535,308.4099519443192 L 386.18495803640985,308.42687748452175 L 386.10092638279554,308.4483382660216 L 386.01874941777027,308.4741999659683 L 385.93856121817214,308.5043282615114 L 385.8604958608389,308.53858882980035 L 385.78468742260856,308.57684734798477 L 385.711269980319,308.6189694932142 L 385.6403776108081,308.66482094263813 L 385.57214439091393,308.7142673734061 L 385.50670439747427,308.76717446266764 L 385.44419170732704,308.82340788757233 L 385.3847403973103,308.88283332526964 L 385.32848454426176,308.94531645290914 L 385.2755582250195,309.0107229476404 L 385.2260955164213,309.07891848661285 L 385.18023049530524,309.1497687469761 L 385.13809723850915,309.22313940587975 L 385.09982982287096,309.2988961404732 L 385.0655623252286,309.3769046279061 L 385.03542882241993,309.4570305453278 L 385.00956339128294,309.5391395698881 L 384.98810010865554,309.62309737873636 L 384.9711730513756,309.70876964902214 L 384.95891629628113,309.79602205789496 L 384.95146392020996,309.8847202825044 L 384.94895,309.97473 L 384.94894999999997,314.47073 L 384.95441935093686,314.62387182623314 L 384.97004606789943,314.75552691664274 L 384.99465814711544,314.866867275001 L 385.0270835848128,314.95906490508014 L 385.06615037721923,315.0332918106524 L 385.1106865205625,315.0907199954898 L 385.1595200110705,315.13252146336464 L 385.21147884497105,315.1598682180491 L 385.2653910184919,315.1739322633154 L 385.3200845278609,315.17588560293575 L 385.3743873693058,315.16690024068225 L 385.4271275390545,315.1481481803272 L 385.47713303333467,315.1208014256427 L 385.5232318483743,315.086031980401 L 385.56425198040097,315.04501184837426 L 385.5990214256427,314.9989130333347 L 385.6263681803272,314.94890753905446 L 385.6451202406823,314.89616736930583 L 385.6541056029358,314.8418645278609 L 385.65215226331543,314.7871710184919 L 385.6380882180491,314.73325884497103 L 385.61074146336466,314.6813000110705 L 385.56893999548976,314.6324665205625 L 385.51151181065234,314.58793037721915 L 385.43728490508016,314.54886358481275 L 385.34508727500105,314.5164381471154 L 385.23374691664276,314.49182606789935 L 385.10209182623316,314.4761993509368 L 384.94895,314.4707299999999 L 342.85394999999994,314.47073 L 336.7709499999999,314.47073 L 294.6749499999999,314.47073 L 294.52190461068506,314.4761993509369 L 294.3903324265037,314.49182606789947 L 294.2790621817212,314.5164381471155 L 294.18692261060306,314.5488635848128 L 294.11274244741475,314.58793037721927 L 294.0553504264217,314.63246652056256 L 294.0135752818893,314.68130001107056 L 293.9862457480831,314.7332588449711 L 293.9721905592684,314.78717101849196 L 293.97023844971085,314.84186452786093 L 293.97921815367573,314.89616736930583 L 293.9979584054286,314.94890753905446 L 294.02528793923483,314.9989130333347 L 294.06003548935985,315.04501184837426 L 294.1010297900692,315.08603198040095 L 294.14709957562826,315.1208014256427 L 294.1970735803025,315.14814818032715 L 294.24978053835736,315.1669002406822 L 294.3040491840583,315.1758856029357 L 294.35870825167075,315.17393226331535 L 294.41258647546016,315.15986821804904 L 294.464512589692,315.1325214633645 L 294.5133153286317,315.0907199954897 L 294.55782342654464,315.03329181065226 L 294.59686561769644,314.95906490508 L 294.6292706363524,314.8668672750009 L 294.65386721677794,314.7555269166426 L 294.6694840932387,314.62387182623297 L 294.6749499999999,314.47072999999983 L 294.6749499999999,309.97473 L 294.67243612079204,309.8847202825044 L 294.6649840317355,309.79602205789496 L 294.65272805568077,309.70876964902214 L 294.6358025154782,309.62309737873636 L 294.61434173397834,309.5391395698881 L 294.58848003403165,309.4570305453278 L 294.55835173848857,309.3769046279061 L 294.5240911701996,309.2988961404732 L 294.4858326520151,309.22313940587975 L 294.44371050678575,309.1497687469761 L 294.3978590573618,309.07891848661285 L 294.3484126265938,309.0107229476404 L 294.29550553733225,308.94531645290914 L 294.2392721124276,308.88283332526964 L 294.17984667473024,308.82340788757233 L 294.11736354709075,308.76717446266764 L 294.0519570523595,308.7142673734061 L 293.983761513387,308.66482094263813 L 293.9129112530237,308.6189694932142 L 293.8395405941201,308.57684734798477 L 293.7637838595266,308.53858882980035 L 293.68577537209376,308.5043282615114 L 293.60564945467195,308.4741999659683 L 293.52354043011167,308.4483382660216 L 293.4395826212634,308.42687748452175 L 293.3539103509776,308.4099519443192 L 293.26665794210476,308.39769596826443 L 293.1779597174953,308.3902438792079 L 293.0879499999997,308.38773000000003 L 280.37869624999996,308.38773000000003 L 270.85369625,308.38773000000003 L 268.7549499999999,308.38773000000003 L 268.6648403604083,308.3902438792079 L 268.57604910205407,308.39769596826443 L 268.48871030177526,308.4099519443192 L 268.40295803640976,308.42687748452175 L 268.31892638279544,308.4483382660216 L 268.23674941777017,308.4741999659683 L 268.15656121817204,308.5043282615114 L 268.0784958608388,308.53858882980035 L 268.00268742260846,308.57684734798477 L 267.9292699803189,308.6189694932142 L 267.858377610808,308.66482094263813 L 267.79014439091384,308.7142673734061 L 267.72470439747417,308.76717446266764 L 267.66219170732694,308.82340788757233 L 267.6027403973102,308.88283332526964 L 267.54648454426166,308.94531645290914 L 267.4935582250194,309.0107229476404 L 267.4440955164212,309.07891848661285 L 267.39823049530514,309.1497687469761 L 267.35609723850905,309.22313940587975 L 267.31782982287086,309.2988961404732 L 267.2835623252285,309.3769046279061 L 267.25342882241983,309.4570305453278 L 267.22756339128284,309.5391395698881 L 267.20610010865545,309.62309737873636 L 267.1891730513755,309.70876964902214 L 267.17691629628104,309.79602205789496 L 267.16946392020986,309.8847202825044 L 267.16694999999993,309.97473 L 267.1669499999999,314.47073 L 267.17241935093676,314.62387182623314 L 267.18804606789934,314.75552691664274 L 267.21265814711535,314.866867275001 L 267.2450835848127,314.95906490508014 L 267.28415037721913,315.0332918106524 L 267.3286865205624,315.0907199954898 L 267.37752001107043,315.13252146336464 L 267.42947884497096,315.1598682180491 L 267.48339101849183,315.1739322633154 L 267.5380845278608,315.17588560293575 L 267.5923873693057,315.16690024068225 L 267.6451275390544,315.1481481803272 L 267.69513303333457,315.1208014256427 L 267.7412318483742,315.086031980401 L 267.7822519804009,315.04501184837426 L 267.8170214256426,314.9989130333347 L 267.8443681803271,314.94890753905446 L 267.8631202406822,314.89616736930583 L 267.8721056029357,314.8418645278609 L 267.87015226331533,314.7871710184919 L 267.856088218049,314.73325884497103 L 267.82874146336457,314.6813000110705 L 267.78693999548966,314.6324665205625 L 267.72951181065224,314.58793037721915 L 267.65528490508007,314.54886358481275 L 267.56308727500095,314.5164381471154 L 267.45174691664266,314.49182606789935 L 267.32009182623307,314.4761993509368 L 267.16694999999993,314.4707299999999 L 225.07194999999987,314.47073 L 218.98794999999987,314.47073 L 176.89294999999987,314.47073 L 176.73980817376673,314.4761993509369 L 176.6081530833571,314.49182606789947 L 176.49681272499885,314.5164381471155 L 176.4046150949197,314.5488635848128 L 176.33038818934753,314.58793037721927 L 176.27296000451008,314.63246652056256 L 176.23115853663523,314.68130001107056 L 176.20381178195075,314.7332588449711 L 176.18974773668444,314.78717101849196 L 176.1877943970641,314.84186452786093 L 176.19677975931756,314.89616736930583 L 176.21553181967263,314.94890753905446 L 176.24287857435712,314.9989130333347 L 176.27764801959884,315.04501184837426 L 176.31866815162556,315.08603198040095 L 176.36476696666512,315.1208014256427 L 176.41477246094533,315.14814818032715 L 176.46751263069396,315.1669002406822 L 176.52181547213888,315.1758856029357 L 176.57650898150786,315.17393226331535 L 176.6304211550287,315.15986821804904 L 176.6823799889292,315.1325214633645 L 176.73121347943723,315.0907199954897 L 176.77574962278052,315.03329181065226 L 176.81481641518693,314.95906490508 L 176.84724185288422,314.8668672750009 L 176.87185393210027,314.7555269166426 L 176.8874806490628,314.62387182623297 L 176.8929499999997,314.47072999999983 L 176.89294999999987,309.97473 L 176.89043607978994,309.8847202825044 L 176.88298370371876,309.79602205789496 L 176.87072694862425,309.70876964902214 L 176.85379989134432,309.62309737873636 L 176.83233660871693,309.5391395698881 L 176.80647117757994,309.4570305453278 L 176.7763376747713,309.3769046279061 L 176.7420701771289,309.2988961404732 L 176.70380276149072,309.22313940587975 L 176.66166950469463,309.1497687469761 L 176.61580448357856,309.07891848661285 L 176.56634177498043,309.0107229476404 L 176.51341545573817,308.94531645290914 L 176.45715960268967,308.88283332526964 L 176.39770829267286,308.82340788757233 L 176.33519560252566,308.76717446266764 L 176.26975560908602,308.7142673734061 L 176.2015223891918,308.66482094263813 L 176.13063001968098,308.6189694932142 L 176.05721257739143,308.57684734798477 L 175.98140413916107,308.53858882980035 L 175.90333878182787,308.5043282615114 L 175.82315058222972,308.4741999659683 L 175.7409736172045,308.4483382660216 L 175.65694196359019,308.42687748452175 L 175.57118969822466,308.4099519443192 L 175.48385089794587,308.39769596826443 L 175.3950596395917,308.3902438792079 L 175.3049500000001,308.38773000000003 L 165.2691987499999,308.38773000000003 L 155.74419874999992,308.38773000000003 L 150.97194999999988,308.38773000000003 L 150.88194028250427,308.3902438792079 L 150.79324205789484,308.39769596826443 L 150.70598964902197,308.4099519443192 L 150.6203173787362,308.42687748452175 L 150.53635956988794,308.4483382660216 L 150.45425054532768,308.4741999659683 L 150.3741246279059,308.5043282615114 L 150.29611614047306,308.53858882980035 L 150.22035940587958,308.57684734798477 L 150.14698874697598,308.6189694932142 L 150.0761384866127,308.66482094263813 L 150.00794294764023,308.7142673734061 L 149.942536452909,308.76717446266764 L 149.88005332526947,308.82340788757233 L 149.82062788757216,308.88283332526964 L 149.7643944626675,308.94531645290914 L 149.71148737340596,309.0107229476404 L 149.662040942638,309.07891848661285 L 149.61618949321405,309.1497687469761 L 149.57406734798465,309.22313940587975 L 149.53580882980023,309.2988961404732 L 149.50154826151126,309.3769046279061 L 149.47141996596818,309.4570305453278 L 149.4455582660215,309.5391395698881 L 149.42409748452164,309.62309737873636 L 149.4071719443191,309.70876964902214 L 149.3949159682643,309.79602205789496 L 149.3874638792078,309.8847202825044 L 149.38494999999995,309.97473 L 149.3849499999999,314.47073 L 149.39041590676112,314.62387182623314 L 149.40603278322183,314.75552691664274 L 149.43062936364743,314.866867275001 L 149.4630343823034,314.95906490508014 L 149.50207657345513,315.0332918106524 L 149.54658467136812,315.0907199954898 L 149.5953874103078,315.13252146336464 L 149.64731352453964,315.1598682180491 L 149.70119174832905,315.1739322633154 L 149.7558508159415,315.17588560293575 L 149.81011946164244,315.16690024068225 L 149.86282641969729,315.1481481803272 L 149.91280042437154,315.1208014256427 L 149.95887020993058,315.086031980401 L 149.99986451063992,315.04501184837426 L 150.03461206076497,314.9989130333347 L 150.0619415945712,314.94890753905446 L 150.08068184632404,314.89616736930583 L 150.08966155028895,314.8418645278609 L 150.08770944073137,314.7871710184919 L 150.07365425191674,314.73325884497103 L 150.0463247181105,314.6813000110705 L 150.00454957357815,314.6324665205625 L 149.94715755258505,314.58793037721915 L 149.87297738939674,314.54886358481275 L 149.78083781827863,314.5164381471154 L 149.66956757349612,314.49182606789935 L 149.53799538931474,314.4761993509368 L 149.3849499999999,314.4707299999999 L 107.28894999999989,314.47073 L 107.1989402825043,314.47324392020994 L 107.11024205789484,314.4806962962811 L 107.02298964902198,314.49295305137565 L 106.9373173787362,314.5098801086555 L 106.85335956988796,314.531343391283 L 106.7712505453277,314.55720882241997 L 106.69112462790591,314.5873423252286 L 106.61311614047305,314.621609822871 L 106.5373594058796,314.6598772385092 L 106.46398874697599,314.7020104953053 L 106.39313848661271,314.74787551642135 L 106.32494294764022,314.7973382250195 L 106.259536452909,314.8502645442618 L 106.1970533252695,314.90652039731026 L 106.13762788757218,314.96597170732707 L 106.0813944626675,315.0284843974743 L 106.02848737340597,315.09392439091397 L 105.979040942638,315.16215761080815 L 105.93318949321407,315.23304998031904 L 105.89106734798467,315.3064674226086 L 105.85280882980025,315.38227586083894 L 105.81854826151128,315.4603412181721 L 105.78841996596822,315.5405294177703 L 105.76255826602151,315.62270638279557 L 105.74109748452167,315.7067380364099 L 105.72417194431912,315.7924903017754 L 105.71191596826435,315.8798291020542 L 105.70446387920782,315.9686203604084 L 105.70194999999998,316.05873 L 105.70194999999997,319.0826950000001 L 105.70194999999993,328.6076950000001 L 105.70194999999988,336.88642000000004 L 105.70194999999988,337.71465000000006 L 105.70446387920772,337.80476063881264 L 105.71191596826426,337.89355282750427 L 105.72417194431904,337.98089249169715 L 105.74109748452159,338.0666455570135 L 105.76255826602144,338.1506779490755 L 105.78841996596815,338.23285559350535 L 105.81854826151121,338.3130444159253 L 105.8528088298002,338.3911103419575 L 105.89106734798462,338.46691929722425 L 105.93318949321403,338.54033720734765 L 105.97904094263795,338.61122999795 L 106.02848737340591,338.6794635946534 L 106.08139446266746,338.7449039230802 L 106.13762788757214,338.8074169088525 L 106.19705332526945,338.86686847759245 L 106.25953645290896,338.9231245549224 L 106.32494294764018,338.9760510664645 L 106.39313848661267,339.02551393784097 L 106.46398874697594,339.07137909467394 L 106.53735940587956,339.11351246258573 L 106.61311614047301,339.1517799671985 L 106.69112462790586,339.1860475341344 L 106.77125054532765,339.2161810890157 L 106.8533595698879,339.2420465574646 L 106.93731737873615,339.2635098651033 L 107.02298964902192,339.280436937554 L 107.11024205789478,339.2926937004389 L 107.19894028250422,339.3001460793803 L 107.28894999999982,339.30266000000023 L 144.74419874999992,339.30266000000023 L 154.2691987499999,339.30266000000023 L 232.35369624999998,339.3026600000002 L 241.87869624999996,339.3026600000002 L 319.9631937500001,339.3026600000001 L 329.48819375000005,339.3026600000001 L 407.57269125000016,339.30266000000006 L 417.09769125000014,339.30266000000006 L 454.55293999999986,339.30266000000006 L 454.64304615441375,339.3001460793801 L 454.7318272852514,339.2926937004388 L 454.81914980770006,339.2804369375539 L 454.9048801369469,339.2635098651032 L 454.988884688179,339.2420465574645 L 455.07102987658357,339.2161810890156 L 455.15118211734784,339.1860475341343 L 455.229207825659,339.15177996719837 L 455.3049734167042,339.1135124625857 L 455.3783453056705,339.0713790946739 L 455.4491899077452,339.0255139378409 L 455.5173736381155,338.97605106646444 L 455.5827629119684,338.92312455492237 L 455.6452241444913,338.8668684775924 L 455.70462375087124,338.8074169088524 L 455.7608281462954,338.74490392308013 L 455.81370374595105,338.6794635946534 L 455.8631169650252,338.61122999795 L 455.90893421870516,338.54033720734765 L 455.95102192217803,338.4669192972242 L 455.98924649063105,338.39111034195747 L 456.0234743392514,338.3130444159253 L 456.05357188322614,338.23285559350535 L 456.0794055377425,338.1506779490755 L 456.10084171798775,338.0666455570135 L 456.11774683914894,337.98089249169715 L 456.1299873164133,337.89355282750427 L 456.137429564968,337.80476063881264 L 456.1399400000002,337.71465000000006 L 456.13993999999985,336.88642000000004 L 456.13993999999985,328.045725 L 456.13993999999985,318.520725 L 456.13993999999985,316.05873 L 456.13742956496765,315.9686203604084 L 456.129987316413,315.8798291020542 L 456.11774683914865,315.7924903017754 L 456.10084171798746,315.7067380364099 L 456.0794055377423,315.6227063827955 L 456.0535718832259,315.5405294177703 L 456.02347433925115,315.4603412181721 L 455.9892464906309,315.3822758608389 L 455.95102192217786,315.30646742260853 L 455.908934218705,315.233049980319 L 455.86311696502503,315.16215761080815 L 455.8137037459509,315.0939243909139 L 455.7608281462953,315.02848439747424 L 455.7046237508711,314.96597170732707 L 455.6452241444912,314.9065203973102 L 455.5827629119683,314.85026454426173 L 455.5173736381154,314.7973382250194 L 455.4491899077451,314.7478755164213 L 455.3783453056704,314.7020104953052 L 455.30497341670406,314.65987723850907 L 455.2292078256589,314.6216098228709 L 455.15118211734773,314.5873423252285 L 455.07102987658345,314.55720882241985 L 454.98888468817887,314.53134339128286 L 454.9048801369467,314.5098801086554 L 454.81914980769994,314.4929530513755 L 454.73182728525126,314.48069629628094 L 454.6430461544136,314.47324392020977 L 454.5529399999997,314.47072999999983 L 454.55294,314.47073" fill="none" stroke="rgb(0,0,0)" stroke-width="0.5"/>
	<path d="M 808.46786,313.90876 L 808.4678600000002,313.90876000000026 L 808.5579661544141,313.9112739202102 L 808.6467472852518,313.9187262962813 L 808.7340698077004,313.93098305137585 L 808.8198001369472,313.9479101086557 L 808.9038046881793,313.9693733912831 L 808.9859498765838,313.9952388224201 L 809.0661021173481,314.0253723252287 L 809.1441278256593,314.0596398228711 L 809.2198934167044,314.09790723850926 L 809.2932653056707,314.14004049530536 L 809.3641099077455,314.1859055164214 L 809.4322936381158,314.23536822501956 L 809.4976829119687,314.2882945442618 L 809.5601441444916,314.34455039731034 L 809.6195437508715,314.4040017073271 L 809.6757481462956,314.4665143974743 L 809.7286237459513,314.531954390914 L 809.7780369650254,314.6001876108082 L 809.8238542187054,314.671079980319 L 809.8659419221782,314.74449742260856 L 809.9041664906312,314.8203058608389 L 809.9383943392514,314.89837121817214 L 809.9684918832262,314.9785594177703 L 809.9943255377426,315.06073638279554 L 810.0157617179879,315.14476803640986 L 810.032666839149,315.23052030177536 L 810.0449073164133,315.3178591020542 L 810.052349564968,315.4066503604084 L 810.0548600000002,315.49676 L 810.0548600000002,318.520725 L 810.0548600000002,328.045725 L 810.0548600000002,336.32445 L 810.0548599999997,337.15268000000026 L 810.0523495649676,337.24279063881283 L 810.044907316413,337.3315828275044 L 810.0326668391486,337.4189224916973 L 810.0157617179875,337.5046755570136 L 809.9943255377423,337.58870794907557 L 809.968491883226,337.67088559350543 L 809.9383943392512,337.75107441592536 L 809.9041664906309,337.8291403419576 L 809.865941922178,337.9049492972243 L 809.8238542187052,337.9783672073477 L 809.7780369650252,338.04925999795 L 809.728623745951,338.1174935946534 L 809.6757481462955,338.18293392308016 L 809.6195437508713,338.24544690885244 L 809.5601441444915,338.3048984775924 L 809.4976829119686,338.3611545549224 L 809.4322936381157,338.41408106646446 L 809.3641099077454,338.4635439378409 L 809.2932653056707,338.50940909467386 L 809.2198934167044,338.55154246258564 L 809.1441278256592,338.5898099671984 L 809.0661021173481,338.6240775341343 L 808.9859498765838,338.6542110890156 L 808.9038046881793,338.6800765574645 L 808.8198001369472,338.70153986510314 L 808.7340698077004,338.71846693755384 L 808.6467472852518,338.7307237004388 L 808.5579661544141,338.7381760793801 L 808.4678600000002,338.74069000000003 L 771.0126112500002,338.74069000000003 L 761.4876112500001,338.74069000000003 L 683.4031137500002,338.74069000000003 L 673.8781137500001,338.74069000000003 L 595.7936162500002,338.74069 L 586.2686162500002,338.74069 L 508.18411875000015,338.74069 L 498.6591187500002,338.74069 L 461.2038700000004,338.74069 L 461.1138602825048,338.73817607938 L 461.02516205789533,338.7307237004387 L 460.93790964902246,338.7184669375538 L 460.8522373787367,338.7015398651031 L 460.7682795698884,338.6800765574644 L 460.68617054532814,338.6542110890155 L 460.60604462790633,338.62407753413424 L 460.5280361404735,338.58980996719833 L 460.45227940588,338.5515424625856 L 460.3789087469764,338.50940909467386 L 460.3080584866131,338.4635439378408 L 460.2398629476406,338.4140810664644 L 460.17445645290934,338.36115455492234 L 460.11197332526984,338.30489847759236 L 460.0525478875725,338.2454469088524 L 459.99631446266784,338.1829339230801 L 459.9434073734063,338.11749359465335 L 459.8939609426383,338.0492599979499 L 459.84810949321434,337.9783672073476 L 459.80598734798497,337.90494929722416 L 459.7677288298005,337.82914034195744 L 459.7334682615115,337.75107441592525 L 459.70333996596844,337.6708855935053 L 459.67747826602175,337.58870794907546 L 459.6560174845219,337.50467555701346 L 459.6390919443193,337.4189224916971 L 459.6268359682646,337.33158282750423 L 459.61938387920804,337.2427906388126 L 459.6168700000002,337.15268000000003 L 459.6168700000002,336.32445 L 459.6168700000002,328.045725 L 459.6168700000002,318.520725 L 459.6168700000002,315.4967600000002 L 459.61938387920804,315.4066503604086 L 459.6268359682646,315.3178591020544 L 459.6390919443193,315.2305203017756 L 459.6560174845219,315.14476803641 L 459.67747826602175,315.06073638279565 L 459.70333996596844,314.97855941777044 L 459.7334682615115,314.89837121817226 L 459.7677288298005,314.820305860839 L 459.8059873479849,314.7444974226087 L 459.84810949321434,314.67107998031906 L 459.8939609426383,314.60018761080823 L 459.9434073734062,314.531954390914 L 459.9963144626678,314.4665143974743 L 460.0525478875725,314.4040017073271 L 460.1119733252698,314.3445503973103 L 460.1744564529093,314.28829454426176 L 460.2398629476405,314.2353682250195 L 460.308058486613,314.18590551642137 L 460.37890874697626,314.14004049530524 L 460.4522794058799,314.09790723850915 L 460.5280361404733,314.05963982287096 L 460.6060446279062,314.0253723252286 L 460.68617054532797,313.99523882241994 L 460.76827956988825,313.96937339128294 L 460.8522373787365,313.9479101086555 L 460.9379096490223,313.9309830513756 L 461.0251620578951,313.9187262962811 L 461.11386028250456,313.9112739202099 L 461.20387000000017,313.90876 L 503.2998700000006,313.90875999999986 L 503.4529153893154,313.91422935093675 L 503.5844875734968,313.9298560678993 L 503.6957578182793,313.9544681471154 L 503.78789738939736,313.9868935848127 L 503.8620775525857,314.0259603772191 L 503.9194695735787,314.0704965205625 L 503.96124471811106,314.1193300110705 L 503.98857425191727,314.171288844971 L 504.0026294407319,314.2252010184919 L 504.0045815502894,314.27989452786085 L 503.9956018463245,314.3341973693058 L 503.97686159457163,314.38693753905443 L 503.9495320607654,314.43694303333467 L 503.91478451064035,314.4830418483742 L 503.873790209931,314.524061980401 L 503.8277204243719,314.55883142564267 L 503.7777464196976,314.5861781803272 L 503.7250394616428,314.6049302406822 L 503.6707708159418,314.6139156029357 L 503.6161117483294,314.6119622633154 L 503.56223352454,314.59789821804907 L 503.51030741030814,314.5705514633646 L 503.4615046713684,314.52874999548976 L 503.41699657345544,314.47132181065234 L 503.3779543823037,314.3970949050801 L 503.3455493636477,314.304897275001 L 503.32095278322214,314.1935569166427 L 503.3053359067614,314.0619018262331 L 503.29987000000017,313.90876 L 503.29987000000017,309.41275999999976 L 503.30238387920804,309.3227502825042 L 503.30983596826457,309.23405205789476 L 503.3220919443193,309.14679964902194 L 503.3390174845219,309.06112737873616 L 503.36047826602174,308.9771695698879 L 503.38633996596843,308.8950605453277 L 503.4164682615115,308.81493462790587 L 503.4507288298005,308.73692614047303 L 503.4889873479849,308.6611694058796 L 503.53110949321433,308.587798746976 L 503.57696094263827,308.51694848661276 L 503.6264073734062,308.44875294764023 L 503.6793144626678,308.38334645290905 L 503.73554788757247,308.32086332526956 L 503.7949733252698,308.26143788757224 L 503.8574564529093,308.20520446266755 L 503.9228629476405,308.152297373406 L 503.991058486613,308.10285094263804 L 504.06190874697626,308.0569994932141 L 504.1352794058799,308.01487734798474 L 504.2110361404733,307.9766188298003 L 504.2890446279062,307.94235826151134 L 504.36917054532796,307.91222996596827 L 504.45127956988824,307.8863682660216 L 504.5352373787365,307.8649074845217 L 504.6209096490223,307.84798194431914 L 504.7081620578951,307.8357259682644 L 504.79686028250455,307.8282738792078 L 504.88687000000016,307.82576 L 509.6591187500001,307.82576 L 519.1841187500002,307.82576 L 529.2198700000004,307.82576 L 529.3099796395919,307.82827387920787 L 529.3987708979461,307.8357259682644 L 529.4861096982249,307.84798194431914 L 529.5718619635904,307.8649074845217 L 529.6558936172047,307.8863682660216 L 529.73807058223,307.91222996596827 L 529.8182587818281,307.94235826151134 L 529.8963241391613,307.9766188298003 L 529.9721325773917,308.01487734798474 L 530.0455500196812,308.05699949321416 L 530.116442389192,308.1028509426381 L 530.1846756090862,308.15229737340604 L 530.2501156025259,308.2052044626676 L 530.312628292673,308.2614378875723 L 530.3720796026898,308.3208633252696 L 530.4283354557384,308.3833464529091 L 530.4812617749807,308.44875294764034 L 530.5307244835788,308.5169484866128 L 530.5765895046949,308.5877987469761 L 530.618722761491,308.6611694058797 L 530.6569901771292,308.73692614047314 L 530.6912576747715,308.81493462790604 L 530.7213911775801,308.8950605453278 L 530.7472566087172,308.9771695698881 L 530.7687198913445,309.06112737873633 L 530.7856469486245,309.1467996490221 L 530.7979037037189,309.2340520578949 L 530.8053560797902,309.3227502825044 L 530.8078700000001,309.41276 L 530.8078700000001,313.90876000000026 L 530.8024006490632,314.0619018262334 L 530.7867739321007,314.193556916643 L 530.7621618528846,314.3048972750012 L 530.7297364151873,314.39709490508034 L 530.6906696227809,314.4713218106525 L 530.6461334794376,314.52874999548993 L 530.5972999889295,314.5705514633648 L 530.545341155029,314.59789821804924 L 530.4914289815082,314.61196226331555 L 530.4367354721392,314.61391560293583 L 530.3824326306943,314.6049302406824 L 530.3296924609456,314.5861781803273 L 530.2796869666654,314.5588314256428 L 530.2335881516259,314.52406198040103 L 530.1925680195991,314.48304184837434 L 530.1577985743573,314.4369430333347 L 530.1304518196729,314.38693753905454 L 530.1116997593178,314.33419736930585 L 530.1027143970643,314.27989452786096 L 530.1046677366846,314.22520101849193 L 530.1187317819509,314.1712888449711 L 530.1460785366355,314.11933001107053 L 530.1878800045104,314.07049652056253 L 530.2453081893477,314.02596037721923 L 530.31953509492,313.9868935848128 L 530.4117327249991,313.9544681471155 L 530.5230730833573,313.92985606789944 L 530.654728173767,313.91422935093686 L 530.8078700000001,313.90876 L 572.9028700000001,313.90876 L 578.9868700000001,313.90876 L 621.0818699999999,313.90875999999986 L 621.2350118262331,313.91422935093675 L 621.3666669166427,313.9298560678993 L 621.4780072750009,313.9544681471154 L 621.5702049050801,313.9868935848127 L 621.6444318106522,314.0259603772191 L 621.7018599954897,314.0704965205625 L 621.7436614633646,314.1193300110705 L 621.7710082180491,314.171288844971 L 621.7850722633154,314.2252010184919 L 621.7870256029357,314.27989452786085 L 621.7780402406822,314.3341973693058 L 621.7592881803272,314.38693753905443 L 621.7319414256427,314.43694303333467 L 621.697171980401,314.4830418483742 L 621.6561518483743,314.524061980401 L 621.6100530333348,314.55883142564267 L 621.5600475390545,314.5861781803272 L 621.5073073693059,314.6049302406822 L 621.453004527861,314.6139156029357 L 621.398311018492,314.6119622633154 L 621.3443988449711,314.59789821804907 L 621.2924400110707,314.5705514633646 L 621.2436065205626,314.52874999548976 L 621.1990703772193,314.47132181065234 L 621.1600035848129,314.3970949050801 L 621.1275781471156,314.304897275001 L 621.1029660678995,314.1935569166427 L 621.087339350937,314.0619018262331 L 621.0818700000001,313.90876 L 621.0818700000003,309.41275999999976 L 621.0843839202103,309.3227502825042 L 621.0918362962814,309.23405205789476 L 621.1040930513759,309.14679964902194 L 621.1210201086558,309.06112737873616 L 621.1424833912832,308.9771695698879 L 621.1683488224202,308.8950605453277 L 621.1984823252288,308.81493462790587 L 621.2327498228711,308.73692614047303 L 621.2710172385093,308.6611694058796 L 621.3131504953054,308.587798746976 L 621.3590155164216,308.51694848661276 L 621.4084782250196,308.44875294764023 L 621.4614045442619,308.38334645290905 L 621.5176603973105,308.32086332526956 L 621.5771117073273,308.26143788757224 L 621.6396243974744,308.20520446266755 L 621.7050643909141,308.152297373406 L 621.7732976108083,308.10285094263804 L 621.8441899803191,308.0569994932141 L 621.9176074226086,308.01487734798474 L 621.993415860839,307.9766188298003 L 622.0714812181723,307.94235826151134 L 622.1516694177704,307.91222996596827 L 622.2338463827956,307.8863682660216 L 622.31787803641,307.8649074845217 L 622.4036303017755,307.84798194431914 L 622.4909691020542,307.8357259682644 L 622.5797603604085,307.8282738792078 L 622.6698700000001,307.82576 L 624.7686162500002,307.82576 L 634.2936162500002,307.82576 L 647.0028699999998,307.82576 L 647.0928797174954,307.82827387920787 L 647.1815779421049,307.8357259682644 L 647.2688303509777,307.84798194431914 L 647.3545026212636,307.8649074845217 L 647.4384604301118,307.8863682660216 L 647.5205694546721,307.91222996596827 L 647.6006953720938,307.94235826151134 L 647.6787038595268,307.9766188298003 L 647.7544605941202,308.01487734798474 L 647.8278312530239,308.05699949321416 L 647.8986815133871,308.1028509426381 L 647.9668770523596,308.15229737340604 L 648.0322835470909,308.2052044626676 L 648.0947666747304,308.2614378875723 L 648.1541921124277,308.3208633252696 L 648.2104255373324,308.3833464529091 L 648.263332626594,308.44875294764034 L 648.3127790573619,308.5169484866128 L 648.3586305067859,308.5877987469761 L 648.4007526520153,308.6611694058797 L 648.4390111701997,308.73692614047314 L 648.4732717384886,308.81493462790604 L 648.5034000340318,308.8950605453278 L 648.5292617339785,308.9771695698881 L 648.5507225154784,309.06112737873633 L 648.5676480556808,309.1467996490221 L 648.5799040317356,309.2340520578949 L 648.5873561207922,309.3227502825044 L 648.58987,309.41276 L 648.58987,313.90876000000026 L 648.5844040932387,314.0619018262334 L 648.5687872167781,314.193556916643 L 648.5441906363525,314.3048972750012 L 648.5117856176965,314.39709490508034 L 648.4727434265448,314.4713218106525 L 648.4282353286318,314.52874999548993 L 648.3794325896921,314.5705514633648 L 648.3275064754603,314.59789821804924 L 648.2736282516709,314.61196226331555 L 648.2189691840584,314.61391560293583 L 648.1647005383575,314.6049302406824 L 648.1119935803026,314.5861781803273 L 648.0620195756284,314.5588314256428 L 648.0159497900693,314.52406198040103 L 647.97495548936,314.48304184837434 L 647.9402079392349,314.4369430333347 L 647.9128784054287,314.38693753905454 L 647.8941381536758,314.33419736930585 L 647.885158449711,314.27989452786096 L 647.8871105592685,314.22520101849193 L 647.9011657480831,314.1712888449711 L 647.9284952818894,314.11933001107053 L 647.9702704264217,314.07049652056253 L 648.0276624474149,314.02596037721923 L 648.1018426106032,313.9868935848128 L 648.1939821817213,313.9544681471155 L 648.3052524265038,313.92985606789944 L 648.4368246106852,313.91422935093686 L 648.58987,313.90876 L 690.68587,313.90876 L 696.76887,313.90876 L 738.8638700000002,313.90875999999986 L 739.0170118262333,313.91422935093675 L 739.1486669166429,313.9298560678993 L 739.2600072750013,313.9544681471154 L 739.3522049050804,313.9868935848127 L 739.4264318106525,314.0259603772191 L 739.4838599954899,314.0704965205625 L 739.5256614633647,314.1193300110705 L 739.5530082180493,314.171288844971 L 739.5670722633156,314.2252010184919 L 739.5690256029359,314.27989452786085 L 739.5600402406824,314.3341973693058 L 739.5412881803272,314.38693753905443 L 739.5139414256428,314.43694303333467 L 739.479171980401,314.4830418483742 L 739.4381518483743,314.524061980401 L 739.3920530333347,314.55883142564267 L 739.3420475390545,314.5861781803272 L 739.2893073693059,314.6049302406822 L 739.235004527861,314.6139156029357 L 739.180311018492,314.6119622633154 L 739.1263988449712,314.59789821804907 L 739.0744400110706,314.5705514633646 L 739.0256065205625,314.52874999548976 L 738.9810703772192,314.47132181065234 L 738.9420035848128,314.3970949050801 L 738.9095781471156,314.304897275001 L 738.8849660678994,314.1935569166427 L 738.8693393509369,314.0619018262331 L 738.86387,313.90876 L 738.8638699999998,309.41275999999976 L 738.8663839202097,309.3227502825042 L 738.873836296281,309.23405205789476 L 738.8860930513755,309.14679964902194 L 738.9030201086554,309.06112737873616 L 738.9244833912828,308.9771695698879 L 738.9503488224199,308.8950605453277 L 738.9804823252284,308.81493462790587 L 739.0147498228708,308.73692614047303 L 739.053017238509,308.6611694058796 L 739.0951504953052,308.587798746976 L 739.1410155164212,308.51694848661276 L 739.1904782250194,308.44875294764023 L 739.2434045442617,308.38334645290905 L 739.2996603973103,308.32086332526956 L 739.3591117073271,308.26143788757224 L 739.4216243974743,308.20520446266755 L 739.4870643909139,308.152297373406 L 739.5552976108081,308.10285094263804 L 739.6261899803189,308.0569994932141 L 739.6996074226086,308.01487734798474 L 739.7754158608388,307.9766188298003 L 739.8534812181721,307.94235826151134 L 739.9336694177703,307.91222996596827 L 740.0158463827955,307.8863682660216 L 740.0998780364099,307.8649074845217 L 740.1856303017754,307.84798194431914 L 740.2729691020542,307.8357259682644 L 740.3617603604084,307.8282738792078 L 740.45187,307.82576 L 750.4876112500001,307.82576 L 760.0126112500002,307.82576 L 764.7848600000009,307.82576 L 764.8749661544147,307.82827387920787 L 764.9637472852523,307.8357259682644 L 765.0510698077009,307.84798194431914 L 765.1368001369476,307.8649074845217 L 765.2208046881797,307.8863682660216 L 765.3029498765842,307.91222996596827 L 765.3831021173485,307.94235826151134 L 765.4611278256596,307.9766188298003 L 765.5368934167046,308.01487734798474 L 765.610265305671,308.05699949321416 L 765.6811099077456,308.1028509426381 L 765.7492936381158,308.15229737340604 L 765.8146829119687,308.2052044626676 L 765.8771441444916,308.2614378875723 L 765.9365437508715,308.3208633252696 L 765.9927481462956,308.3833464529091 L 766.0456237459512,308.44875294764034 L 766.0950369650253,308.5169484866128 L 766.1408542187053,308.5877987469761 L 766.1829419221781,308.6611694058797 L 766.221166490631,308.73692614047314 L 766.2553943392513,308.81493462790604 L 766.2854918832261,308.8950605453278 L 766.3113255377424,308.9771695698881 L 766.3327617179876,309.06112737873633 L 766.3496668391488,309.1467996490221 L 766.3619073164131,309.2340520578949 L 766.3693495649678,309.3227502825044 L 766.37186,309.41276 L 766.3718599999991,313.90876000000026 L 766.3663940932379,314.0619018262334 L 766.3507772167773,314.193556916643 L 766.3261806363516,314.3048972750012 L 766.2937756176958,314.39709490508034 L 766.2547334265441,314.4713218106525 L 766.2102253286312,314.52874999548993 L 766.1614225896915,314.5705514633648 L 766.1094964754598,314.59789821804924 L 766.0556182516704,314.61196226331555 L 766.0009591840579,314.61391560293583 L 765.9466905383571,314.6049302406824 L 765.8939835803022,314.5861781803273 L 765.8440095756281,314.5588314256428 L 765.797939790069,314.52406198040103 L 765.7569454893597,314.48304184837434 L 765.7221979392347,314.4369430333347 L 765.6948684054285,314.38693753905454 L 765.6761281536757,314.33419736930585 L 765.6671484497108,314.27989452786096 L 765.6691005592684,314.22520101849193 L 765.6831557480831,314.1712888449711 L 765.7104852818893,314.11933001107053 L 765.7522604264217,314.07049652056253 L 765.8096524474148,314.02596037721923 L 765.8838326106031,313.9868935848128 L 765.9759721817212,313.9544681471155 L 766.0872424265037,313.92985606789944 L 766.2188146106851,313.91422935093686 L 766.37186,313.90876 L 808.46786,313.90876" fill="none" stroke="rgb(0,0,0)" stroke-width="0.5"/>
	<path d="M 51.724322,3.0817093 L 93.00897904577393,3.225690792882049 L 102.53001416925404,3.258895691480121 L 109.34028000000005,3.282646699999999 L 109.34028000000005,9.434204699999999 L 131.10222000000005,9.434204699999999 L 131.12562000000005,3.274617599999999 L 185.48730248837205,3.2604708470800947 L 195.01135316047558,3.2579923661816474 L 227.37749000000005,3.249569599999999 L 227.17905000000005,9.368058699999999 L 248.84182000000004,9.4342087 L 248.87492000000003,3.1503551 L 277.9673529074075,3.1503551 L 287.49235290740745,3.1503551 L 344.81945,3.1503551 L 344.81945,9.4342087 L 366.383,9.4342087 L 366.383,3.0180634 L 370.44793887037036,3.0180634 L 379.97293887037034,3.0180634 L 421.32652,3.0180634 L 421.32651999999996,26.32683783333334 L 421.32651999999996,35.851837833333335 L 421.32651999999996,39.993587 L 421.35304043626223,40.5862333902579 L 421.3762292451515,41.187377194595925 L 421.396155607856,41.797234949567425 L 421.41288870556394,42.41602319172578 L 421.42649771946367,43.043958457624335 L 421.43705183074337,43.68125728381647 L 421.4446202205912,44.32813620685555 L 421.44927207019555,44.98481176329493 L 421.4510765607446,45.65150048968797 L 421.45010287342654,46.32841892258805 L 421.44642018942966,47.01578359854852 L 421.4400976899422,47.71381105412276 L 421.43120455615235,48.42271782586412 L 421.41980996924843,49.14272045032597 L 421.4059831104186,49.87403546406166 L 421.3897931608512,50.61687940362458 L 421.3713093017344,51.371468805568085 L 421.3506007142564,52.138020206445525 L 421.3277365796056,52.91675014281028 L 421.30278607897003,53.70787515121571 L 421.2758183935381,54.511611768215175 L 421.2469027044979,55.32817653036204 L 421.2161081930378,56.15778597420968 L 421.18350404034607,57.00065663631145 L 421.1491594276108,57.85700505322071 L 421.11314353602035,58.72704776149084 L 421.0755255467629,59.61100129767518 L 421.0363746410267,60.509082198327114 L 420.99576,61.421507 L 420.99576000000013,125.75167000000006 L 421.020701016442,126.46694662552795 L 421.04372577719477,127.17629931813528 L 421.064813056296,127.88069230185745 L 421.08394162778313,128.5810898007299 L 421.10109026569364,129.27845603878802 L 421.116237744065,129.97375524006728 L 421.1293628369348,130.6679516286031 L 421.1404443183403,131.3620094284309 L 421.14946096231915,132.05689286358609 L 421.15639154290875,132.7535661581041 L 421.1612148341466,133.45299353602036 L 421.16390961007016,134.15613922137032 L 421.16445464471695,134.86396743818938 L 421.1628287121244,135.57744241051296 L 421.15901058632994,136.2975283623765 L 421.15297904137117,137.02518951781542 L 421.1447128512855,137.76139010086516 L 421.1341907901103,138.50709433556113 L 421.1213916318833,139.26326644593877 L 421.1062941506417,140.03087065603347 L 421.08887712042315,140.81087118988071 L 421.0691193152651,141.60423227151585 L 421.04699950920497,142.4119181249744 L 421.0224964762803,143.2348929742917 L 420.9955889905285,144.07412104350323 L 420.96625582598716,144.9305665566444 L 420.9344757566936,145.80519373775064 L 420.9002275566854,146.69896681085737 L 420.86349,147.61285 L 420.8653687579536,148.4761878820999 L 420.8860692564863,157.98860246818163 L 421.00381000000004,212.0935200000001 L 421.0122388334905,212.74997808397237 L 421.0237910127517,213.42731465988774 L 421.03806850424377,214.12381390339914 L 421.05467327442705,214.83775999015955 L 421.0732072897618,215.56743709582196 L 421.0932725167084,216.31112939603926 L 421.11447092172705,217.06712106646444 L 421.13640447127807,217.83369628275048 L 421.1586751318218,218.6091392205503 L 421.1808848698184,219.39173405551688 L 421.20263565172826,220.17976496330317 L 421.22352944401166,220.97151611956212 L 421.2431682131289,221.76527169994674 L 421.2611539255402,222.55931588010992 L 421.27708854770594,223.35193283570464 L 421.29057404608636,224.14140674238388 L 421.30121238714173,224.92602177580056 L 421.3086055373324,225.7040621116077 L 421.31235546311865,226.4738119254582 L 421.31206413096066,227.23355539300505 L 421.3073335073189,227.9815766899012 L 421.2977655586535,228.71615999179957 L 421.2829622514248,229.4355894743532 L 421.26252555209317,230.13814931321497 L 421.2360574271188,230.82212368403788 L 421.203159842962,231.48579676247488 L 421.16343476608307,232.12745272417894 L 421.1164841629423,232.745375744803 L 421.06191,233.33785 L 421.06191,237.6119355666667 L 421.06191,247.13693556666666 L 421.06191,270.11494 L 374.3766873103123,270.2349901550148 L 366.49413000000004,270.25525999999996 L 366.455364953008,266.6909630254163 L 366.42393000000004,263.80064 L 366.91205,264.33571 L 345.37391,264.33571 L 345.117,264.04605 L 345.1501,270.31336999999996 L 286.7677866249999,270.31336999999996 L 277.24278662499995,270.31336999999996 L 248.59123000000002,270.31336999999996 L 248.57473000000002,264.1150000000001 L 248.60748727910124,264.12604395588187 L 248.64145926729265,264.1286923842717 L 248.67625101849197,264.1237904711141 L 248.71146758661692,264.1121834023536 L 248.7467140255853,264.09471636393465 L 248.78159538931487,264.0722345418017 L 248.81571673172334,264.04558312189926 L 248.84868310672846,264.01560729017183 L 248.880099568248,263.9831522325639 L 248.90957117019968,263.9490631350199 L 248.93670296650131,263.9141851834844 L 248.96110001107058,263.8793635639018 L 248.98236735782527,263.84544346221656 L 249.0001100606831,263.8132700643733 L 249.01393317356187,263.78368855631635 L 249.02344175037928,263.75754412399033 L 249.02824084505312,263.7356819533396 L 249.0279355115011,263.71894723030874 L 249.022130803641,263.70818514084215 L 249.01043177539057,263.7042408708844 L 248.99244348066753,263.7079596063799 L 248.96777097338966,263.7201865332732 L 248.9360193074747,263.7417668375087 L 248.8967935368404,263.7735457050309 L 248.84969871540451,263.81636832178435 L 248.79433989708477,263.87107987371354 L 248.73032213579893,263.93852554676283 L 248.65725048546477,264.0195505268768 L 248.57473000000002,264.11499999999995 L 227.57437000000002,264.21439999999996 L 227.39921,263.87384999999995 L 227.39921,270.17708999999996 L 199.1581708397863,270.1907946422545 L 189.63339791021366,270.19541676698634 L 130.95885,270.2238899999999 L 130.958388215589,270.00175781171833 L 130.95708471401042,269.7644219348886 L 130.95506227274592,269.51364305670586 L 130.95244366927716,269.25118186436504 L 130.94935168108574,268.97879904506124 L 130.94590908565337,268.69825528598955 L 130.9422386604617,268.41131127434494 L 130.93846318299234,268.11972769732256 L 130.93470543072698,267.8252652421173 L 130.93108818114726,267.5296845959244 L 130.92773421173482,267.23474644593875 L 130.9247662999713,266.9422114793554 L 130.9223072233384,266.6538403833695 L 130.92047975931774,266.3713938451761 L 130.91940668539098,266.0966325519701 L 130.91921077903976,265.8313171909467 L 130.9200148177457,265.57720844930094 L 130.92194157899056,265.33606701422775 L 130.92511384025588,265.10965357292224 L 130.92965437902333,264.89972881257944 L 130.93568597277462,264.70805342039444 L 130.94333139899138,264.53638808356226 L 130.9527134351552,264.38649348927794 L 130.96395485874783,264.26013032473656 L 130.97717844725082,264.15905927713317 L 130.9925069781459,264.0850410336627 L 131.0100632289147,264.03983628152037 L 131.02996997703886,264.02520570790114 L 131.05235000000002,264.04291 L 131.05235000000002,264.04291 L 109.60887000000001,264.14832 L 109.60487,263.5004 L 109.60487,266.61390762917904 L 109.60487,270.44571 L 102.02378212499998,270.44571 L 51.726833,270.44571 L 51.72683299999998,247.13693556666666 L 51.72683299999997,237.6119355666667 L 51.726832999999964,233.2637200000003 L 51.72402823748408,232.17628843618053 L 51.72029944446263,231.14652718028645 L 51.71571724203532,230.17081707532108 L 51.71035225130179,229.2455389642874 L 51.70427509336174,228.36707369018842 L 51.69755638931483,227.5318020960271 L 51.690266760260755,226.73610502480645 L 51.682476827299176,225.97636331952947 L 51.67425721152977,225.24895782319913 L 51.66567853405222,224.55026937881846 L 51.6568114159662,223.8766788293904 L 51.64772647837138,223.22456701791802 L 51.63849434236745,222.59031478740425 L 51.62918562905407,221.97030298085213 L 51.61987095953093,221.3609124412646 L 51.61062095489769,220.75852401164468 L 51.60150623625404,220.15951853499536 L 51.592597424699655,219.56027685431962 L 51.583965141334204,218.9571798126205 L 51.57568000725737,218.34660825290095 L 51.56781264356882,217.72494301816397 L 51.56043367136824,217.08856495141256 L 51.5536137117553,216.43385489564972 L 51.547423385829674,215.7571936938784 L 51.54193331469105,215.05496218910167 L 51.53721411943909,214.32354122432247 L 51.53333642117348,213.5593116425438 L 51.53037084099389,212.75865428676863 L 51.528388,211.91795000000002 L 51.52838799999998,157.99438669999998 L 51.52838799999998,148.4693867 L 51.52838799999998,147.40307000000007 L 51.545802327360676,146.57296624830872 L 51.5624245356513,145.7972243146501 L 51.57824063659845,145.07054818114727 L 51.593236641928726,144.38764182992335 L 51.60739856336872,143.74320924310143 L 51.620712412645034,143.13195440280458 L 51.63316420148426,142.54858129115587 L 51.64473994161301,141.98779389027843 L 51.65542564475788,141.44429618229532 L 51.66520732264544,140.91279214932965 L 51.67407098700233,140.38798577350448 L 51.68200264955512,139.8645810369429 L 51.68898832203042,139.33728192176804 L 51.69501401615482,138.80079241010293 L 51.700065743654925,138.2498164840707 L 51.704129516257325,137.67905812579443 L 51.70719134568863,137.0832213173972 L 51.709237243675425,136.4570100410021 L 51.71025322194432,135.79512827873222 L 51.71022529222191,135.09228001271066 L 51.70913946623478,134.34316922506048 L 51.70698175570954,133.5424998979048 L 51.703738172372795,132.68497601336668 L 51.69939472795113,131.76530155356923 L 51.69393743417115,130.77818050063553 L 51.68735230275944,129.71831683668867 L 51.679625345442616,128.58041454385173 L 51.67074257394727,127.35917760424782 L 51.66069,126.04931 L 51.67723,61.294911 L 51.69052,54.465354999999995 L 51.72683,46.740452999999995 L 51.79297,42.044101 L 51.792972,40.985772 L 51.724322,39.927439 L 51.724322,35.851837833333335 L 51.724322,26.32683783333334 L 51.724322,3.0817093" fill="none" stroke="rgb(0,0,0)" stroke-width="0.5"/>
	<path d="M 421.32652,3.0180634 L 462.6112108301193,3.162046793766282 L 472.13224590510174,3.1952521034028427 L 478.94250999999997,3.2190034 L 478.94250999999997,9.3705614 L 500.70444999999995,9.3705614 L 500.72784999999993,3.210974399999999 L 555.0895337811169,3.196826517172196 L 564.6135843774518,3.1943478383949606 L 596.9797199999999,3.1859243999999993 L 596.7812799999999,9.3044134 L 618.44405,9.3705634 L 618.4771499999999,3.0867094 L 647.5695836574073,3.0867094 L 657.0945836574074,3.0867094 L 714.4216799999999,3.0867094 L 714.4216799999999,9.3705634 L 735.9852299999999,9.3705634 L 735.9852299999999,2.9544174 L 740.0501691203701,2.9544174 L 749.5751691203702,2.9544174 L 790.9287499999999,2.9544174 L 790.92875,26.263192833333335 L 790.92875,35.788192833333326 L 790.92875,39.929941 L 790.9552704362623,40.522587390257904 L 790.9784592451515,41.12373119459592 L 790.998385607856,41.73358894956743 L 791.015118705564,42.35237719172578 L 791.0287277194636,42.980312457624336 L 791.0392818307433,43.61761128381647 L 791.0468502205912,44.26449020685555 L 791.0515020701955,44.92116576329492 L 791.0533065607445,45.58785448968797 L 791.0523328734264,46.26477292258805 L 791.0486501894295,46.952137598548525 L 791.0423276899421,47.65016505412276 L 791.0334345561522,48.35907182586412 L 791.0220399692483,49.07907445032596 L 791.0082131104185,49.810389464061664 L 790.9920231608511,50.55323340362459 L 790.9735393017343,51.30782280556809 L 790.9528307142563,52.074374206445526 L 790.9299665796054,52.85310414281028 L 790.9050160789699,53.64422915121571 L 790.8780483935379,54.44796576821518 L 790.8491327044978,55.26453053036205 L 790.8183381930377,56.09413997420968 L 790.7857340403459,56.93701063631145 L 790.7513894276107,57.79335905322071 L 790.7153735360203,58.66340176149084 L 790.6777555467628,59.54735529767518 L 790.6386046410265,60.445436198327116 L 790.5979899999999,61.357861 L 790.5979899999996,125.68802000000008 L 790.6229310164415,126.403296625938 L 790.6459557771943,127.11264932141546 L 790.6670430562956,127.81704231292802 L 790.6861716277828,128.51743982697124 L 790.7033202656933,129.21480609004064 L 790.7184677440647,129.9101053286318 L 790.7315928369344,130.60430176924027 L 790.74267431834,131.2983596383616 L 790.7516909623189,131.99324316249132 L 790.7586215429085,132.689916568125 L 790.7634448341463,133.3893440817582 L 790.7661396100699,134.09248992988645 L 790.7666846447167,134.80031833900532 L 790.7650587121242,135.51379353561032 L 790.7612405863298,136.23387974619706 L 790.755209041371,136.96154119726106 L 790.7469428512853,137.6977421152979 L 790.7364207901102,138.44344672680307 L 790.7236216318831,139.19961925827218 L 790.7085241506416,139.96722393620075 L 790.691107120423,140.74722498708434 L 790.6713493152649,141.5405866374185 L 790.6492295092048,142.34827311369878 L 790.6247264762802,143.17124864242075 L 790.5978189905284,144.01047745007995 L 790.5684858259871,144.8669237631719 L 790.5367057566936,145.7415518081922 L 790.5024575566853,146.6353258116364 L 790.4657199999999,147.54921 L 790.4675987514257,148.41254488242066 L 790.4882992499572,157.92495946786084 L 790.6060400000009,212.02988000000008 L 790.6144688334914,212.68633808397234 L 790.6260210127524,213.36367465988772 L 790.6402985042444,214.06017390339912 L 790.6569032744276,214.77411999015953 L 790.6754372897624,215.50379709582194 L 790.6955025167089,216.24748939603924 L 790.7167009217275,217.00348106646442 L 790.7386344712784,217.77005628275046 L 790.760905131822,218.54549922055028 L 790.7831148698186,219.32809405551686 L 790.8048656517285,220.11612496330315 L 790.8257594440119,220.9078761195621 L 790.845398213129,221.70163169994672 L 790.8633839255403,222.4956758801099 L 790.879318547706,223.28829283570462 L 790.8928040460864,224.07776674238386 L 790.9034423871418,224.86238177580054 L 790.9108355373324,225.64042211160768 L 790.9145854631186,226.41017192545817 L 790.9142941309607,227.16991539300503 L 790.9095635073188,227.91793668990118 L 790.8999955586535,228.65251999179955 L 790.8851922514248,229.3719494743532 L 790.864755552093,230.07450931321495 L 790.8382874271186,230.75848368403786 L 790.8053898429619,231.42215676247486 L 790.765664766083,232.06381272417892 L 790.7187141629422,232.68173574480298 L 790.6641399999999,233.27420999999998 L 790.6641399999999,237.5482945666667 L 790.6641399999999,247.07329456666668 L 790.6641399999999,270.05129999999997 L 749.573466574313,270.156963878851 L 740.0506686632496,270.1814515710914 L 736.0963599999999,270.19161999999994 L 736.0261599999999,263.73699999999997 L 736.5142799999999,264.27207 L 714.9761399999999,264.27207 L 714.7192299999999,263.98240999999996 L 714.7523299999999,270.24972999999994 L 657.0945836574074,270.24972999999994 L 647.5695836574073,270.24972999999994 L 618.19346,270.24972999999994 L 618.17696,264.05135999999965 L 618.2097172791013,264.0624039558814 L 618.2436892672927,264.06505238427127 L 618.278481018492,264.06015047111373 L 618.313697586617,264.04854340235323 L 618.3489440255853,264.0310763639343 L 618.3838253893149,264.00859454180136 L 618.4179467317233,263.981943121899 L 618.4509131067284,263.9519672901716 L 618.482329568248,263.91951223256365 L 618.5118011701998,263.8854231350197 L 618.5389329665013,263.8505451834842 L 618.5633300110705,263.8157235639016 L 618.5845973578253,263.78180346221643 L 618.6023400606831,263.74963006437315 L 618.6161631735619,263.7200485563162 L 618.6256717503793,263.6939041239902 L 618.6304708450531,263.6720419533395 L 618.6301655115011,263.65530723030867 L 618.624360803641,263.64454514084207 L 618.6126617753906,263.6406008708843 L 618.5946734806676,263.64431960637984 L 618.5700009733897,263.6565465332731 L 618.5382493074748,263.6781268375086 L 618.4990235368404,263.7099057050309 L 618.4519287154045,263.75272832178433 L 618.3965698970848,263.80743987371346 L 618.3325521357989,263.8748855467628 L 618.2594804854648,263.9559105268768 L 618.17696,264.05135999999993 L 597.1766,264.15075999999993 L 597.00144,263.8102099999999 L 597.00144,270.11344999999994 L 564.6124712103493,270.1291675246894 L 555.0902981700934,270.1337883877626 L 500.5610799999999,270.16025000000013 L 500.5606182155889,269.93811781171854 L 500.5593147140103,269.7007819348888 L 500.5572922727458,269.450003056706 L 500.55467366927707,269.1875418643652 L 500.5515816810857,268.9151590450614 L 500.5481390856533,268.6346152859897 L 500.54446866046163,268.3476712743451 L 500.5406931829923,268.05608769732265 L 500.53693543072694,267.7616252421174 L 500.53331818114725,267.4660445959245 L 500.5299642117348,267.1711064459388 L 500.5269962999713,266.8785714793555 L 500.5245372233384,266.59020038336956 L 500.52270975931776,266.30775384517614 L 500.521636685391,266.03299255197015 L 500.5214407790398,265.76767719094676 L 500.52224481774573,265.5135684493009 L 500.5241715789906,265.27242701422773 L 500.5273438402559,265.0460135729222 L 500.5318843790234,264.8360888125794 L 500.53791597277467,264.6444134203944 L 500.5455613989914,264.47274808356224 L 500.5549434351553,264.3228534892779 L 500.5661848587479,264.19649032473654 L 500.5794084472509,264.09541927713315 L 500.59473697814593,264.0214010336627 L 500.6122932289147,263.97619628152034 L 500.6321999770389,263.9615657079011 L 500.65458000000007,263.97927 L 500.65458000000007,263.97927 L 479.21110000000004,264.08468 L 479.2071,263.43676 L 479.2071,270.38207 L 472.1334127314815,270.38207 L 462.6084127314815,270.38207 L 421.32906,270.38207 L 421.32905999999986,247.13693556666666 L 421.3290599999998,237.6119355666667 L 421.3290599999998,233.20008000000004 L 421.32625519291463,232.11264843618028 L 421.3225264660296,231.08288718028624 L 421.31794442986575,230.10717707532086 L 421.3125796949443,229.1818989642872 L 421.30650287178634,228.30343369018823 L 421.299784570913,227.46816209602693 L 421.2924954028454,226.67246502480629 L 421.2847059781048,225.9127233195293 L 421.2764869072122,225.185317823199 L 421.26790880068876,224.48662937881835 L 421.25904226905567,223.8130388293903 L 421.249957922834,223.1609270179179 L 421.24072637254494,222.52667478740418 L 421.23141822870963,221.90666298085205 L 421.22210410184914,221.2972724412645 L 421.2128546024847,220.6948840116446 L 421.2037403411374,220.09587853499528 L 421.1948319283283,219.49663685431958 L 421.1861999745787,218.89353981262045 L 421.1779150904096,218.2829682529009 L 421.1700478863422,217.66130301816392 L 421.1626689728976,217.02492495141252 L 421.155848960597,216.37021489564967 L 421.1496584599615,215.69355369387839 L 421.1441680815122,214.99132218910165 L 421.13944843577025,214.25990122432245 L 421.1355701332568,213.49567164254375 L 421.132603784493,212.6950142867686 L 421.13062,211.85431 L 421.1306200000003,157.99438669999998 L 421.13062000000036,148.4693867 L 421.13062000000036,147.33943000000014 L 421.1480321850018,146.50932524908782 L 421.1646525097383,145.73358238509175 L 421.18046697363593,145.0069053876749 L 421.19546157612064,144.32399823650016 L 421.2096223166184,143.67956491123056 L 421.22293519455513,143.06830939152906 L 421.2353862093569,142.48493565705857 L 421.2469613604496,141.92414768748213 L 421.2576466472592,141.38064946246266 L 421.2674280692117,140.8491449616631 L 421.27629162573305,140.32433816474645 L 421.28422331624927,139.80093305137567 L 421.29120914018625,139.2736336012137 L 421.29723509697004,138.7371437939235 L 421.3022871860266,138.18616760916808 L 421.3063514067818,137.61540902661037 L 421.3094137586618,137.01957202591333 L 421.31146024109233,136.39336058673993 L 421.31247685349956,135.73147868875313 L 421.31244959530943,135.0286303116159 L 421.3113644659478,134.2795194349912 L 421.3092074648407,133.47885003854196 L 421.3059645914142,132.6213261019312 L 421.30162184509413,131.70165160482185 L 421.2961652253065,130.71453052687687 L 421.2895807314773,129.65466684775922 L 421.28185436303255,128.51676454713188 L 421.2729721193981,127.29552760465783 L 421.26292,125.98566 L 421.27942,61.23126499999999 L 421.29272000000003,54.401709 L 421.32902,46.676807 L 421.39512,41.980455 L 421.39512,40.922126 L 421.32652,39.863793 L 421.32652,35.851837833333335 L 421.32652,26.32683783333334 L 421.32652,3.0180634" fill="none" stroke="rgb(0,0,0)" stroke-width="0.5"/>
	<path d="M 812.23151,4.3986759 L 841.0822552762738,4.171503257620132 L 850.5812602425735,4.096707475483147 L 841.0859297574264,4.1714743245168515 L 850.5849347237261,4.096678542379868 L 874.6843402762738,3.9069182576201316 L 879.4356799999999,3.8695058999999996" fill="none" stroke="rgb(0,0,0)" stroke-width="0.5"/>
</svg>
