<?xml version="1.0" ?>
<svg xmlns="http://www.w3.org/2000/svg" xmlns:cc="http://creativecommons.org/ns#" xmlns:dc="http://purl.org/dc/elements/1.1/" xmlns:ev="http://www.w3.org/2001/xml-events" xmlns:inkscape="http://www.inkscape.org/namespaces/inkscape" xmlns:rdf="http://www.w3.org/1999/02/22-rdf-syntax-ns#" xmlns:sodipodi="http://sodipodi.sourceforge.net/DTD/sodipodi-0.dtd" xmlns:svg="http://www.w3.org/2000/svg" xmlns:xlink="http://www.w3.org/1999/xlink" baseProfile="full" height="812.79999mm" id="svg932" inkscape:version="1.1 (c68e22c387, 2021-05-23)" sodipodi:docname="0p25in_Shelf.svg" version="1.1" viewBox="0 0 888.99999 812.79997" width="889mm">
	<defs/>
	<path d="M 76.700005,267.53189 L 164.52119950000002,267.53189 L 174.0461995,267.53189 L 349.6886045,267.53189 L 359.2136045,267.53189 L 447.034815,267.53189 L 447.034815,329.52736999999996 L 447.034815,339.05236999999994 L 447.034815,463.04333 L 447.034815,472.56833 L 447.034815,534.56381 L 359.2136045,534.56381 L 349.6886045,534.56381 L 174.0461995,534.56381 L 164.52119950000002,534.56381 L 76.700005,534.56381 L 76.700005,267.53189" fill="none" stroke="rgb(0,0,0)" stroke-width="0.5"/>
	<path d="M 76.699997,0.5 L 76.699997,62.49548 L 76.699997,72.02048 L 76.699997,196.01144000000002 L 76.699997,205.53644 L 76.699997,267.53192 L 164.52119950000002,267.53192 L 174.0461995,267.53192 L 349.6886045,267.53192 L 359.2136045,267.53192 L 447.034807,267.53192 L 447.034807,205.53644 L 447.034807,196.01144000000002 L 447.034807,72.02048 L 447.034807,62.49548 L 447.034807,0.5 L 359.2136045,0.5 L 349.6886045,0.5 L 174.0461995,0.5 L 164.52119950000002,0.5 L 76.699997,0.5" fill="none" stroke="rgb(0,0,0)" stroke-width="0.5"/>
	<path d="M 447.03482,0.5 L 447.03482,62.49548 L 447.03482,72.02048 L 447.03482,196.01144000000002 L 447.03482,205.53644 L 447.03482,267.53192 L 534.8560225,267.53192 L 544.3810225000001,267.53192 L 720.0234275,267.53192 L 729.5484275000001,267.53192 L 817.36963,267.53192 L 817.36963,205.53644 L 817.36963,196.01144000000002 L 817.36963,72.02048 L 817.36963,62.49548 L 817.36963,0.5 L 729.5484275000001,0.5 L 720.0234275,0.5 L 544.3810225000001,0.5 L 534.8560225,0.5 L 447.03482,0.5" fill="none" stroke="rgb(0,0,0)" stroke-width="0.5"/>
	<path d="M 447.03482,267.53189 L 447.03482,329.52736999999996 L 447.03482,339.05236999999994 L 447.03482,463.04333 L 447.03482,472.56833 L 447.03482,534.56381 L 534.8560225,534.56381 L 544.3810225000001,534.56381 L 720.0234275,534.56381 L 729.5484275000001,534.56381 L 817.36963,534.56381 L 817.36963,472.56833 L 817.36963,463.04333 L 817.36963,339.05236999999994 L 817.36963,329.52736999999996 L 817.36963,267.53189 L 729.5484275000001,267.53189 L 720.0234275,267.53189 L 544.3810225000001,267.53189 L 534.8560225,267.53189 L 447.03482,267.53189" fill="none" stroke="rgb(0,0,0)" stroke-width="0.5"/>
	<path d="M 76.699997,534.5639 L 76.699997,596.5593799999999 L 76.699997,606.08438 L 76.699997,730.07534 L 76.699997,739.6003400000001 L 76.699997,801.59582 L 164.52119950000002,801.59582 L 174.0461995,801.59582 L 349.6886045,801.59582 L 359.2136045,801.59582 L 447.034807,801.59582 L 447.034807,739.6003400000001 L 447.034807,730.07534 L 447.034807,606.08438 L 447.034807,596.5593799999999 L 447.034807,534.5639 L 359.2136045,534.5639 L 349.6886045,534.5639 L 174.0461995,534.5639 L 164.52119950000002,534.5639 L 76.699997,534.5639" fill="none" stroke="rgb(0,0,0)" stroke-width="0.5"/>
	<path d="M 447.03482,534.5639 L 447.03482,596.5593799999999 L 447.03482,606.08438 L 447.03482,730.07534 L 447.03482,739.6003400000001 L 447.03482,801.59582 L 534.8560225,801.59582 L 544.3810225000001,801.59582 L 720.0234275,801.59582 L 729.5484275000001,801.59582 L 817.36963,801.59582 L 817.36963,739.6003400000001 L 817.36963,730.07534 L 817.36963,606.08438 L 817.36963,596.5593799999999 L 817.36963,534.5639 L 729.5484275000001,534.5639 L 720.0234275,534.5639 L 544.3810225000001,534.5639 L 534.8560225,534.5639 L 447.03482,534.5639" fill="none" stroke="rgb(0,0,0)" stroke-width="0.5"/>
</svg>
