<?xml version="1.0" encoding="UTF-8" standalone="no"?>
<svg
   height="812.79999mm"
   viewBox="0 0 888.99999 812.79997"
   width="889mm"
   version="1.1"
   id="svg932"
   sodipodi:docname="0p25in_TypeTray_35by32.svg"
   inkscape:version="1.1 (c68e22c387, 2021-05-23)"
   xmlns:inkscape="http://www.inkscape.org/namespaces/inkscape"
   xmlns:sodipodi="http://sodipodi.sourceforge.net/DTD/sodipodi-0.dtd"
   xmlns="http://www.w3.org/2000/svg"
   xmlns:svg="http://www.w3.org/2000/svg"
   xmlns:rdf="http://www.w3.org/1999/02/22-rdf-syntax-ns#"
   xmlns:cc="http://creativecommons.org/ns#"
   xmlns:dc="http://purl.org/dc/elements/1.1/">
  <defs
     id="defs936" />
  <sodipodi:namedview
     pagecolor="#ffffff"
     bordercolor="#666666"
     borderopacity="1"
     objecttolerance="10"
     gridtolerance="10"
     guidetolerance="10"
     inkscape:pageopacity="0"
     inkscape:pageshadow="2"
     inkscape:window-width="1680"
     inkscape:window-height="987"
     id="namedview934"
     showgrid="false"
     inkscape:zoom="0.1767767"
     inkscape:cx="1137.0277"
     inkscape:cy="1383.1008"
     inkscape:window-x="-8"
     inkscape:window-y="18"
     inkscape:window-maximized="1"
     inkscape:current-layer="svg932"
     inkscape:document-rotation="0"
     inkscape:pagecheckerboard="0"
     inkscape:document-units="mm" />
  <!--
TypeTray - Type tray - allows only continuous walls

Created with Boxes.py (https://festi.info/boxes.py)
Creation date: 2021-08-20 16:58:03
Command line (remove spaces between dashes): boxes TypeTray - -FingerJoint_angle=90.0 - -FingerJoint_style=rectangular - -FingerJoint_surroundingspaces=0.5 - -FingerJoint_edge_width=1.0 - -FingerJoint_finger=8 - -FingerJoint_play=1 - -FingerJoint_space=8 - -FingerJoint_width=1 - -Stackable_angle=60 - -Stackable_height=2.0 - -Stackable_holedistance=1.0 - -Stackable_width=4.0 - -Hinge_grip_percentage=0 - -Hinge_outset=0 - -Hinge_pinwidth=0.5 - -Hinge_style=outset - -Hinge_axle=2 - -Hinge_grip_length=0 - -Hinge_hingestrength=1 - -CabinetHinge_bore=3.2 - -CabinetHinge_eyes_per_hinge=5 - -CabinetHinge_hinges=2 - -CabinetHinge_style=inside - -CabinetHinge_eye=1.5 - -CabinetHinge_play=0.05 - -CabinetHinge_spacing=2.0 - -Lid_angle=90.0 - -Lid_hole_width=0 - -Lid_second_pin=0 - -Lid_second_pin=1 - -Lid_spring=both - -Lid_style=rectangular - -Lid_surroundingspaces=2.0 - -Lid_edge_width=1.0 - -Lid_finger=3.0 - -Lid_play=0.05 - -Lid_space=2.0 - -Lid_width=1.0 - -Click_angle=5.0 - -Click_bottom_radius=0.1 - -Click_depth=3.0 - -RoundedTriangleEdge_height=150.0 - -RoundedTriangleEdge_r_hole=2.0 - -RoundedTriangleEdge_radius=30.0 - -RoundedTriangleEdge_outset=1 '- -sx=381*1' '- -sy=381*1' - -h=279 - -hi=0.0 - -outside=0 - -outside=1 - -bottom_edge=F - -top_edge=e - -gripheight=30 - -gripwidth=0 - -thickness=6.35 - -format=svg - -tabs=0.0 - -debug=0 - -labels=0 - -labels=1 - -reference=0 - -burn=3.175
Url: http://www.festi.info/TypeTray?FingerJoint_angle=90.0&FingerJoint_style=rectangular&FingerJoint_surroundingspaces=0.5&FingerJoint_edge_width=1.0&FingerJoint_finger=8&FingerJoint_play=1&FingerJoint_space=8&FingerJoint_width=1&Stackable_angle=60&Stackable_height=2.0&Stackable_holedistance=1.0&Stackable_width=4.0&Hinge_grip_percentage=0&Hinge_outset=0&Hinge_pinwidth=0.5&Hinge_style=outset&Hinge_axle=2&Hinge_grip_length=0&Hinge_hingestrength=1&CabinetHinge_bore=3.2&CabinetHinge_eyes_per_hinge=5&CabinetHinge_hinges=2&CabinetHinge_style=inside&CabinetHinge_eye=1.5&CabinetHinge_play=0.05&CabinetHinge_spacing=2.0&Lid_angle=90.0&Lid_hole_width=0&Lid_second_pin=0&Lid_second_pin=1&Lid_spring=both&Lid_style=rectangular&Lid_surroundingspaces=2.0&Lid_edge_width=1.0&Lid_finger=3.0&Lid_play=0.05&Lid_space=2.0&Lid_width=1.0&Click_angle=5.0&Click_bottom_radius=0.1&Click_depth=3.0&RoundedTriangleEdge_height=150.0&RoundedTriangleEdge_r_hole=2.0&RoundedTriangleEdge_radius=30.0&RoundedTriangleEdge_outset=1&sx=381*1&sy=381*1&h=279&hi=0.0&outside=0&outside=1&bottom_edge=F&top_edge=e&gripheight=30&gripwidth=0&thickness=6.35&format=svg&tabs=0.0&debug=0&labels=0&labels=1&reference=0&burn=3.175&render=1
SettingsUrl: http://www.festi.info/TypeTray?FingerJoint_angle=90.0&FingerJoint_style=rectangular&FingerJoint_surroundingspaces=0.5&FingerJoint_edge_width=1.0&FingerJoint_finger=8&FingerJoint_play=1&FingerJoint_space=8&FingerJoint_width=1&Stackable_angle=60&Stackable_height=2.0&Stackable_holedistance=1.0&Stackable_width=4.0&Hinge_grip_percentage=0&Hinge_outset=0&Hinge_pinwidth=0.5&Hinge_style=outset&Hinge_axle=2&Hinge_grip_length=0&Hinge_hingestrength=1&CabinetHinge_bore=3.2&CabinetHinge_eyes_per_hinge=5&CabinetHinge_hinges=2&CabinetHinge_style=inside&CabinetHinge_eye=1.5&CabinetHinge_play=0.05&CabinetHinge_spacing=2.0&Lid_angle=90.0&Lid_hole_width=0&Lid_second_pin=0&Lid_second_pin=1&Lid_spring=both&Lid_style=rectangular&Lid_surroundingspaces=2.0&Lid_edge_width=1.0&Lid_finger=3.0&Lid_play=0.05&Lid_space=2.0&Lid_width=1.0&Click_angle=5.0&Click_bottom_radius=0.1&Click_depth=3.0&RoundedTriangleEdge_height=150.0&RoundedTriangleEdge_r_hole=2.0&RoundedTriangleEdge_radius=30.0&RoundedTriangleEdge_outset=1&sx=381*1&sy=381*1&h=279&hi=0.0&outside=0&outside=1&bottom_edge=F&top_edge=e&gripheight=30&gripwidth=0&thickness=6.35&format=svg&tabs=0.0&debug=0&labels=0&labels=1&reference=0&burn=3.175
-->
  <title
     id="title903">TypeTray</title>
  <metadata
     id="metadata905">
    <rdf:RDF>
      <cc:Work>
        <dc:title>TypeTray</dc:title>
        <dc:date>2021-08-20 16:58:03</dc:date>
        <dc:source>http://www.festi.info/TypeTray?FingerJoint_angle=90.0&amp;FingerJoint_style=rectangular&amp;FingerJoint_surroundingspaces=0.5&amp;FingerJoint_edge_width=1.0&amp;FingerJoint_finger=8&amp;FingerJoint_play=1&amp;FingerJoint_space=8&amp;FingerJoint_width=1&amp;Stackable_angle=60&amp;Stackable_height=2.0&amp;Stackable_holedistance=1.0&amp;Stackable_width=4.0&amp;Hinge_grip_percentage=0&amp;Hinge_outset=0&amp;Hinge_pinwidth=0.5&amp;Hinge_style=outset&amp;Hinge_axle=2&amp;Hinge_grip_length=0&amp;Hinge_hingestrength=1&amp;CabinetHinge_bore=3.2&amp;CabinetHinge_eyes_per_hinge=5&amp;CabinetHinge_hinges=2&amp;CabinetHinge_style=inside&amp;CabinetHinge_eye=1.5&amp;CabinetHinge_play=0.05&amp;CabinetHinge_spacing=2.0&amp;Lid_angle=90.0&amp;Lid_hole_width=0&amp;Lid_second_pin=0&amp;Lid_second_pin=1&amp;Lid_spring=both&amp;Lid_style=rectangular&amp;Lid_surroundingspaces=2.0&amp;Lid_edge_width=1.0&amp;Lid_finger=3.0&amp;Lid_play=0.05&amp;Lid_space=2.0&amp;Lid_width=1.0&amp;Click_angle=5.0&amp;Click_bottom_radius=0.1&amp;Click_depth=3.0&amp;RoundedTriangleEdge_height=150.0&amp;RoundedTriangleEdge_r_hole=2.0&amp;RoundedTriangleEdge_radius=30.0&amp;RoundedTriangleEdge_outset=1&amp;sx=381*1&amp;sy=381*1&amp;h=279&amp;hi=0.0&amp;outside=0&amp;outside=1&amp;bottom_edge=F&amp;top_edge=e&amp;gripheight=30&amp;gripwidth=0&amp;thickness=6.35&amp;format=svg&amp;tabs=0.0&amp;debug=0&amp;labels=0&amp;labels=1&amp;reference=0&amp;burn=3.175&amp;render=1</dc:source>
        <dc:description>Type tray - allows only continuous walls

Created with Boxes.py (https://festi.info/boxes.py)
Command line: boxes TypeTray --FingerJoint_angle=90.0 --FingerJoint_style=rectangular --FingerJoint_surroundingspaces=0.5 --FingerJoint_edge_width=1.0 --FingerJoint_finger=8 --FingerJoint_play=1 --FingerJoint_space=8 --FingerJoint_width=1 --Stackable_angle=60 --Stackable_height=2.0 --Stackable_holedistance=1.0 --Stackable_width=4.0 --Hinge_grip_percentage=0 --Hinge_outset=0 --Hinge_pinwidth=0.5 --Hinge_style=outset --Hinge_axle=2 --Hinge_grip_length=0 --Hinge_hingestrength=1 --CabinetHinge_bore=3.2 --CabinetHinge_eyes_per_hinge=5 --CabinetHinge_hinges=2 --CabinetHinge_style=inside --CabinetHinge_eye=1.5 --CabinetHinge_play=0.05 --CabinetHinge_spacing=2.0 --Lid_angle=90.0 --Lid_hole_width=0 --Lid_second_pin=0 --Lid_second_pin=1 --Lid_spring=both --Lid_style=rectangular --Lid_surroundingspaces=2.0 --Lid_edge_width=1.0 --Lid_finger=3.0 --Lid_play=0.05 --Lid_space=2.0 --Lid_width=1.0 --Click_angle=5.0 --Click_bottom_radius=0.1 --Click_depth=3.0 --RoundedTriangleEdge_height=150.0 --RoundedTriangleEdge_r_hole=2.0 --RoundedTriangleEdge_radius=30.0 --RoundedTriangleEdge_outset=1 '--sx=381*1' '--sy=381*1' --h=279 --hi=0.0 --outside=0 --outside=1 --bottom_edge=F --top_edge=e --gripheight=30 --gripwidth=0 --thickness=6.35 --format=svg --tabs=0.0 --debug=0 --labels=0 --labels=1 --reference=0 --burn=3.175
Url: http://www.festi.info/TypeTray?FingerJoint_angle=90.0&amp;FingerJoint_style=rectangular&amp;FingerJoint_surroundingspaces=0.5&amp;FingerJoint_edge_width=1.0&amp;FingerJoint_finger=8&amp;FingerJoint_play=1&amp;FingerJoint_space=8&amp;FingerJoint_width=1&amp;Stackable_angle=60&amp;Stackable_height=2.0&amp;Stackable_holedistance=1.0&amp;Stackable_width=4.0&amp;Hinge_grip_percentage=0&amp;Hinge_outset=0&amp;Hinge_pinwidth=0.5&amp;Hinge_style=outset&amp;Hinge_axle=2&amp;Hinge_grip_length=0&amp;Hinge_hingestrength=1&amp;CabinetHinge_bore=3.2&amp;CabinetHinge_eyes_per_hinge=5&amp;CabinetHinge_hinges=2&amp;CabinetHinge_style=inside&amp;CabinetHinge_eye=1.5&amp;CabinetHinge_play=0.05&amp;CabinetHinge_spacing=2.0&amp;Lid_angle=90.0&amp;Lid_hole_width=0&amp;Lid_second_pin=0&amp;Lid_second_pin=1&amp;Lid_spring=both&amp;Lid_style=rectangular&amp;Lid_surroundingspaces=2.0&amp;Lid_edge_width=1.0&amp;Lid_finger=3.0&amp;Lid_play=0.05&amp;Lid_space=2.0&amp;Lid_width=1.0&amp;Click_angle=5.0&amp;Click_bottom_radius=0.1&amp;Click_depth=3.0&amp;RoundedTriangleEdge_height=150.0&amp;RoundedTriangleEdge_r_hole=2.0&amp;RoundedTriangleEdge_radius=30.0&amp;RoundedTriangleEdge_outset=1&amp;sx=381*1&amp;sy=381*1&amp;h=279&amp;hi=0.0&amp;outside=0&amp;outside=1&amp;bottom_edge=F&amp;top_edge=e&amp;gripheight=30&amp;gripwidth=0&amp;thickness=6.35&amp;format=svg&amp;tabs=0.0&amp;debug=0&amp;labels=0&amp;labels=1&amp;reference=0&amp;burn=3.175&amp;render=1
SettingsUrl: http://www.festi.info/TypeTray?FingerJoint_angle=90.0&amp;FingerJoint_style=rectangular&amp;FingerJoint_surroundingspaces=0.5&amp;FingerJoint_edge_width=1.0&amp;FingerJoint_finger=8&amp;FingerJoint_play=1&amp;FingerJoint_space=8&amp;FingerJoint_width=1&amp;Stackable_angle=60&amp;Stackable_height=2.0&amp;Stackable_holedistance=1.0&amp;Stackable_width=4.0&amp;Hinge_grip_percentage=0&amp;Hinge_outset=0&amp;Hinge_pinwidth=0.5&amp;Hinge_style=outset&amp;Hinge_axle=2&amp;Hinge_grip_length=0&amp;Hinge_hingestrength=1&amp;CabinetHinge_bore=3.2&amp;CabinetHinge_eyes_per_hinge=5&amp;CabinetHinge_hinges=2&amp;CabinetHinge_style=inside&amp;CabinetHinge_eye=1.5&amp;CabinetHinge_play=0.05&amp;CabinetHinge_spacing=2.0&amp;Lid_angle=90.0&amp;Lid_hole_width=0&amp;Lid_second_pin=0&amp;Lid_second_pin=1&amp;Lid_spring=both&amp;Lid_style=rectangular&amp;Lid_surroundingspaces=2.0&amp;Lid_edge_width=1.0&amp;Lid_finger=3.0&amp;Lid_play=0.05&amp;Lid_space=2.0&amp;Lid_width=1.0&amp;Click_angle=5.0&amp;Click_bottom_radius=0.1&amp;Click_depth=3.0&amp;RoundedTriangleEdge_height=150.0&amp;RoundedTriangleEdge_r_hole=2.0&amp;RoundedTriangleEdge_radius=30.0&amp;RoundedTriangleEdge_outset=1&amp;sx=381*1&amp;sy=381*1&amp;h=279&amp;hi=0.0&amp;outside=0&amp;outside=1&amp;bottom_edge=F&amp;top_edge=e&amp;gripheight=30&amp;gripwidth=0&amp;thickness=6.35&amp;format=svg&amp;tabs=0.0&amp;debug=0&amp;labels=0&amp;labels=1&amp;reference=0&amp;burn=3.175
</dc:description>
        <dc:format>image/svg+xml</dc:format>
        <dc:type
           rdf:resource="http://purl.org/dc/dcmitype/StillImage" />
      </cc:Work>
    </rdf:RDF>
  </metadata>
  <text
     alignment-baseline="hanging"
     font-size="4px"
     style="font-style:normal;font-weight:normal;font-family:sans-serif;fill:#ff0000;stroke-width:0.264583;stroke-linecap:round;stroke-linejoin:round;stroke-miterlimit:4;stroke-dasharray:none"
     text-anchor="middle"
     id="text917-6"
     x="360.32166"
     y="126.46867" />
  <g
     id="p-4-5-8"
     style="fill:none;stroke-width:0.264583;stroke-linecap:round;stroke-linejoin:round;stroke-miterlimit:4;stroke-dasharray:none"
     transform="translate(515.12028,789.95301)">
    <text
       alignment-baseline="hanging"
       font-size="4px"
       style="font-style:normal;font-weight:normal;font-family:sans-serif;fill:#ff0000;stroke-width:0.264583;stroke-miterlimit:4;stroke-dasharray:none"
       text-anchor="middle"
       transform="translate(594.2,544.375)"
       id="text927-6-8" />
  </g>
  <text
     alignment-baseline="hanging"
     font-size="4px"
     style="font-style:normal;font-weight:normal;font-family:sans-serif;fill:#ff0000;stroke-linecap:round;stroke-linejoin:round"
     text-anchor="middle"
     id="text1045"
     x="196.85001"
     y="198.02499" />
  <text
     alignment-baseline="hanging"
     font-size="4px"
     style="font-style:normal;font-weight:normal;font-family:sans-serif;fill:#ff0000;stroke-linecap:round;stroke-linejoin:round"
     text-anchor="middle"
     id="text1045-3"
     x="589.70349"
     y="198.02499" />
  <text
     alignment-baseline="hanging"
     font-size="4px"
     style="font-style:normal;font-weight:normal;font-family:sans-serif;fill:#ff0000;stroke-linecap:round;stroke-linejoin:round"
     text-anchor="middle"
     id="text1045-5"
     x="196.85001"
     y="588.16321" />
  <text
     alignment-baseline="hanging"
     font-size="4px"
     style="font-style:normal;font-weight:normal;font-family:sans-serif;fill:#ff0000;stroke-linecap:round;stroke-linejoin:round"
     text-anchor="middle"
     id="text1045-3-2"
     x="589.70349"
     y="588.16321" />
  <text
     alignment-baseline="hanging"
     font-size="4px"
     style="font-style:normal;font-weight:normal;font-family:sans-serif;fill:#ff0000;stroke-linecap:round;stroke-linejoin:round"
     text-anchor="middle"
     id="text873"
     x="175.68333"
     y="199.08334" />
  <path
     d="m 32.578019,410.65267 h 42.095 c 1.588,0 0,-1.588 0,0 v 4.496 c 0,0.876 0.711,1.587 1.588,1.587 h 24.333001 c 0.877,0 1.587,-0.711 1.587,-1.587 v -4.496 c 0,-1.588 -1.587,0 0,0 h 42.096 6.083 42.095 c 1.588,0 0,-1.588 0,0 v 4.496 c 0,0.876 0.711,1.587 1.588,1.587 h 24.333 c 0.877,0 1.588,-0.711 1.588,-1.587 v -4.496 c 0,-1.588 -1.588,0 0,0 h 42.095 6.083 42.096 c 1.587,0 0,-1.588 0,0 v 4.496 c 0,0.876 0.71,1.587 1.587,1.587 h 24.333 c 0.877,0 1.588,-0.711 1.588,-1.587 v -4.496 c 0,-1.588 -1.588,0 0,0 h 42.095 c 0.877,0 1.588,-0.711 1.588,-1.588 v -30.828 -30.828 c 0,-0.877 -0.711,-1.588 -1.588,-1.588 H 32.578019 c -0.877,0 -1.588,0.711 -1.588,1.588 v 30.828 30.828 c 0,0.877 0.711,1.588 1.588,1.588 z"
     stroke="#000000"
     stroke-width="3.17"
     id="path18619"
     style="fill:none;stroke-linecap:round;stroke-linejoin:round" />
  <path
     d="m 385.12782,410.65267 h 42.096 c 1.587,0 0,-1.588 0,0 v 4.496 c 0,0.876 0.711,1.587 1.587,1.587 h 24.334 c 0.876,0 1.587,-0.711 1.587,-1.587 v -4.496 c 0,-1.588 -1.587,0 0,0 h 42.095 c 0.877,0 1.588,-0.711 1.588,-1.588 v -30.828 -30.828 c 0,-0.877 -0.711,-1.588 -1.588,-1.588 h -111.699 c -0.876,0 -1.587,0.711 -1.587,1.588 v 30.828 30.828 c 0,0.877 0.711,1.588 1.587,1.588 z"
     stroke="#000000"
     stroke-width="3.17"
     id="path18622"
     style="fill:none;stroke-linecap:round;stroke-linejoin:round" />
  <path
     d="m 501.74043,410.65267 h 42.095 c 1.588,0 0,-1.588 0,0 v 4.496 c 0,0.876 0.711,1.587 1.588,1.587 h 24.333 c 0.876,0 1.587,-0.711 1.587,-1.587 v -4.496 c 0,-1.588 -1.587,0 0,0 h 42.096 c 0.876,0 1.587,-0.711 1.587,-1.588 v -30.828 -30.828 c 0,-0.877 -0.711,-1.588 -1.587,-1.588 h -111.699 c -0.877,0 -1.588,0.711 -1.588,1.588 v 30.828 30.828 c 0,0.877 0.711,1.588 1.588,1.588 z"
     stroke="#000000"
     stroke-width="3.17"
     id="path18625"
     style="fill:none;stroke-linecap:round;stroke-linejoin:round" />
  <path
     d="m 617.97787,410.65267 h 42.095 c 1.588,0 0,-1.588 0,0 v 4.496 c 0,0.876 0.711,1.587 1.588,1.587 h 24.333 c 0.877,0 1.587,-0.711 1.587,-1.587 v -4.496 c 0,-1.588 -1.587,0 0,0 h 42.096 c 0.877,0 1.587,-0.711 1.587,-1.588 v -30.828 -30.828 c 0,-0.877 -0.71,-1.588 -1.587,-1.588 h -111.699 c -0.877,0 -1.588,0.711 -1.588,1.588 v 30.828 30.828 c 0,0.877 0.711,1.588 1.588,1.588 z"
     stroke="#000000"
     stroke-width="3.17"
     id="path18628"
     style="fill:none;stroke-linecap:round;stroke-linejoin:round" />
  <path
     d="m 734.58949,410.65267 h 42.095 c 1.588,0 0,-1.588 0,0 v 4.496 c 0,0.876 0.711,1.587 1.588,1.587 h 24.333 c 0.877,0 1.588,-0.711 1.588,-1.587 v -4.496 c 0,-1.588 -1.588,0 0,0 h 42.095 c 0.877,0 1.587,-0.711 1.587,-1.588 v -30.828 -30.828 c 0,-0.877 -0.71,-1.588 -1.587,-1.588 h -111.699 c -0.877,0 -1.587,0.711 -1.587,1.588 v 30.828 30.828 c 0,0.877 0.71,1.588 1.587,1.588 z"
     stroke="#000000"
     stroke-width="3.17"
     id="path18631"
     style="fill:none;stroke-linecap:round;stroke-linejoin:round" />
  <path
     d="m 271.50912,339.99356 h 42.096 c 1.587,0 0,-1.588 0,0 v 4.496 c 0,0.876 0.71,1.587 1.587,1.587 h 24.333 c 0.877,0 1.588,-0.711 1.588,-1.587 v -4.496 c 0,-1.588 -1.588,0 0,0 h 42.095 6.083 42.096 c 1.587,0 0,-1.588 0,0 v 4.496 c 0,0.876 0.711,1.587 1.587,1.587 h 24.333 c 0.877,0 1.588,-0.711 1.588,-1.587 v -4.496 c 0,-1.588 -1.588,0 0,0 h 42.095 6.084 42.095 c 1.588,0 0,-1.588 0,0 v 4.496 c 0,0.876 0.711,1.587 1.588,1.587 h 24.333 c 0.876,0 1.587,-0.711 1.587,-1.587 v -4.496 c 0,-1.588 -1.587,0 0,0 h 42.096 c 0.876,0 1.587,-0.711 1.587,-1.588 v -30.82799 -30.82799 c 0,-0.87701 -0.711,-1.58801 -1.587,-1.58801 h -347.264 c -0.877,0 -1.587,0.711 -1.587,1.58801 v 30.82799 30.82799 c 0,0.877 0.71,1.588 1.587,1.588 z"
     stroke="#000000"
     stroke-width="3.17"
     id="path18634"
     style="fill:none;stroke-linecap:round;stroke-linejoin:round" />
  <path
     d="m 41.573852,482.84401 h 26.19 c 1.588,0 0,-1.587 0,0 v 4.496 c 0,0.877 0.711,1.587 1.588,1.587 h 24.333 c 0.877,0 1.587,-0.71 1.587,-1.587 v -4.496 c 0,-1.587 -1.587,0 0,0 h 26.190998 6.083 26.19001 c 1.588,0 0,-1.587 0,0 v 4.496 c 0,0.877 0.711,1.587 1.588,1.587 h 24.333 c 0.877,0 1.588,-0.71 1.588,-1.587 v -4.496 c 0,-1.587 -1.588,0 0,0 h 26.19 6.083 26.191 c 1.587,0 0,-1.587 0,0 v 4.496 c 0,0.877 0.71,1.587 1.587,1.587 h 24.333 c 0.877,0 1.588,-0.71 1.588,-1.587 v -4.496 c 0,-1.587 -1.588,0 0,0 h 26.19 6.083 c 0.877,0 1.588,-0.711 1.588,-1.587 v -30.829 -30.828 c 0,-0.877 -0.711,-1.588 -1.588,-1.588 h -6.083 -79.889 -6.083 -79.88901 -6.083 -79.888998 -6.082999 c -0.877,0 -1.588,0.711 -1.588,1.588 v 30.828 30.829 c 0,0.876 0.711,1.587 1.588,1.587 z"
     stroke="#000000"
     stroke-width="3.17"
     id="path18637"
     style="fill:none;stroke-linecap:round;stroke-linejoin:round" />
  <path
     d="m 302.79402,483.37318 h 26.191 c 1.587,0 0,-1.587 0,0 v 4.496 c 0,0.877 0.711,1.587 1.587,1.587 h 24.334 c 0.876,0 1.587,-0.71 1.587,-1.587 v -4.496 c 0,-1.587 -1.587,0 0,0 h 26.19 6.084 26.19 c 1.588,0 0,-1.587 0,0 v 4.496 c 0,0.877 0.711,1.587 1.588,1.587 h 24.333 c 0.877,0 1.587,-0.71 1.587,-1.587 v -4.496 c 0,-1.587 -1.587,0 0,0 h 26.191 6.083 26.19 c 1.588,0 0,-1.587 0,0 v 4.496 c 0,0.877 0.711,1.587 1.588,1.587 h 24.333 c 0.877,0 1.587,-0.71 1.587,-1.587 v -4.496 c 0,-1.587 -1.587,0 0,0 h 26.191 c 0.877,0 1.587,-0.711 1.587,-1.587 v -30.829 -30.828 c 0,-0.877 -0.71,-1.588 -1.587,-1.588 h -79.889 -6.083 -79.889 -6.084 -79.889 c -0.876,0 -1.587,0.711 -1.587,1.588 v 30.828 30.829 c 0,0.876 0.711,1.587 1.587,1.587 z"
     stroke="#000000"
     stroke-width="3.17"
     id="path18640"
     style="fill:none;stroke-linecap:round;stroke-linejoin:round" />
  <path
     d="m 559.25269,482.84401 h 26.19 c 1.588,0 0,-1.587 0,0 v 4.496 c 0,0.877 0.711,1.587 1.588,1.587 h 24.333 c 0.877,0 1.588,-0.71 1.588,-1.587 v -4.496 c 0,-1.587 -1.588,0 0,0 h 26.19 6.083 26.191 c 1.587,0 0,-1.587 0,0 v 4.496 c 0,0.877 0.71,1.587 1.587,1.587 h 24.333 c 0.877,0 1.588,-0.71 1.588,-1.587 v -4.496 c 0,-1.587 -1.588,0 0,0 h 26.19 6.084 26.19 c 1.587,0 0,-1.587 0,0 v 4.496 c 0,0.877 0.711,1.587 1.587,1.587 h 24.334 c 0.876,0 1.587,-0.71 1.587,-1.587 v -4.496 c 0,-1.587 -1.587,0 0,0 h 26.191 c 0.876,0 1.587,-0.711 1.587,-1.587 v -30.829 -30.828 c 0,-0.877 -0.711,-1.588 -1.587,-1.588 h -79.889 -6.084 -79.889 -6.083 -79.889 c -0.877,0 -1.587,0.711 -1.587,1.588 v 30.828 30.829 c 0,0.876 0.71,1.587 1.587,1.587 z"
     stroke="#000000"
     stroke-width="3.17"
     id="path18643"
     style="fill:none;stroke-linecap:round;stroke-linejoin:round" />
  <path
     d="m 9.256,339.06157 h 26.19 c 1.588,0 0,-1.587 0,0 v 4.496 c 0,0.877 0.711,1.587 1.588,1.587 h 24.333 c 0.877,0 1.587,-0.71 1.587,-1.587 v -4.496 c 0,-1.587 -1.587,0 0,0 h 26.190995 6.083 26.190005 c 1.588,0 0,-1.587 0,0 v 4.496 c 0,0.877 0.711,1.587 1.588,1.587 h 24.333 c 0.877,0 1.588,-0.71 1.588,-1.587 v -4.496 c 0,-1.587 -1.588,0 0,0 h 26.19 6.083 26.191 c 1.587,0 0,-1.587 0,0 v 4.496 c 0,0.877 0.71,1.587 1.587,1.587 h 24.333 c 0.877,0 1.588,-0.71 1.588,-1.587 v -4.496 c 0,-1.587 -1.588,0 0,0 h 26.19 6.083 c 0.877,0 1.588,-0.711 1.588,-1.587 v -30.82899 -30.828 c 0,-0.877 -0.711,-1.588 -1.588,-1.588 H 261.089 181.2 175.117 95.227995 89.144995 9.256 3.172 c -0.876,0 -1.587,0.711 -1.587,1.588 v 30.828 30.82899 c 0,0.876 0.711,1.587 1.587,1.587 z"
     stroke="#000000"
     stroke-width="3.17"
     id="path18646"
     style="fill:none;stroke-linecap:round;stroke-linejoin:round" />
  <path
     d="M 100.04019,179.613 H 89.460186 c -1.587,0 0,1.587 0,0 v -2.909 c 0,-1.587 -1.587,0 0,0 h 21.159004 c 1.587,0 0,-1.587 0,0 v 2.909 c 0,1.587 1.587,0 0,0 z"
     stroke="#0000ff"
     stroke-width="3.17"
     id="path18651"
     style="fill:none;stroke-linecap:round;stroke-linejoin:round" />
  <path
     d="m 335.60419,179.613 h -10.579 c -1.588,0 0,1.587 0,0 v -2.909 c 0,-1.587 -1.588,0 0,0 h 21.158 c 1.588,0 0,-1.587 0,0 v 2.909 c 0,1.587 1.588,0 0,0 z"
     stroke="#0000ff"
     stroke-width="3.17"
     id="path18653"
     style="fill:none;stroke-linecap:round;stroke-linejoin:round" />
  <path
     d="M 100.04019,93.641 H 89.460186 c -1.587,0 0,1.587 0,0 v -2.909 c 0,-1.587 -1.587,0 0,0 h 21.159004 c 1.587,0 0,-1.587 0,0 v 2.909 c 0,1.587 1.587,0 0,0 z"
     stroke="#0000ff"
     stroke-width="3.17"
     id="path18655"
     style="fill:none;stroke-linecap:round;stroke-linejoin:round" />
  <path
     d="m 335.60419,93.641 h -10.579 c -1.588,0 0,1.587 0,0 v -2.909 c 0,-1.587 -1.588,0 0,0 h 21.158 c 1.588,0 0,-1.587 0,0 v 2.909 c 0,1.587 1.588,0 0,0 z"
     stroke="#0000ff"
     stroke-width="3.17"
     id="path18657"
     style="fill:none;stroke-linecap:round;stroke-linejoin:round" />
  <path
     d="m 160.38519,221.145 v 10.579 c 0,1.587 1.587,0 0,0 h -2.908 c -1.588,0 0,1.587 0,0 v -21.158 c 0,-1.588 -1.588,0 0,0 h 2.908 c 1.587,0 0,-1.588 0,0 z"
     stroke="#0000ff"
     stroke-width="3.17"
     id="path18661"
     style="fill:none;stroke-linecap:round;stroke-linejoin:round" />
  <path
     d="m 160.38519,135.172 v 10.58 c 0,1.587 1.587,0 0,0 h -2.908 c -1.588,0 0,1.587 0,0 v -21.159 c 0,-1.587 -1.588,0 0,0 h 2.908 c 1.587,0 0,-1.587 0,0 v 10.58 z"
     stroke="#0000ff"
     stroke-width="3.17"
     id="path18663"
     style="fill:none;stroke-linecap:round;stroke-linejoin:round" />
  <path
     d="m 160.38519,49.2 v 10.579 c 0,1.588 1.587,0 0,0 h -2.908 c -1.588,0 0,1.588 0,0 V 38.621 c 0,-1.587 -1.588,0 0,0 h 2.908 c 1.587,0 0,-1.587 0,0 z"
     stroke="#0000ff"
     stroke-width="3.17"
     id="path18665"
     style="fill:none;stroke-linecap:round;stroke-linejoin:round" />
  <path
     d="m 278.16719,221.145 v 10.579 c 0,1.587 1.588,0 0,0 h -2.908 c -1.588,0 0,1.587 0,0 v -21.158 c 0,-1.588 -1.588,0 0,0 h 2.908 c 1.588,0 0,-1.588 0,0 z"
     stroke="#0000ff"
     stroke-width="3.17"
     id="path18667"
     style="fill:none;stroke-linecap:round;stroke-linejoin:round" />
  <path
     d="m 278.16719,135.172 v 10.58 c 0,1.587 1.588,0 0,0 h -2.908 c -1.588,0 0,1.587 0,0 v -21.159 c 0,-1.587 -1.588,0 0,0 h 2.908 c 1.588,0 0,-1.587 0,0 v 10.58 z"
     stroke="#0000ff"
     stroke-width="3.17"
     id="path18669"
     style="fill:none;stroke-linecap:round;stroke-linejoin:round" />
  <path
     d="m 278.16719,49.2 v 10.579 c 0,1.588 1.588,0 0,0 h -2.908 c -1.588,0 0,1.588 0,0 V 38.621 c 0,-1.587 -1.588,0 0,0 h 2.908 c 1.588,0 0,-1.587 0,0 z"
     stroke="#0000ff"
     stroke-width="3.17"
     id="path18671"
     style="fill:none;stroke-linecap:round;stroke-linejoin:round" />
  <path
     d="m 33.107186,555.84394 h 42.095 c 1.588,0 0,-1.588 0,0 v 4.496 c 0,0.876 0.711,1.587 1.588,1.587 h 24.333004 c 0.877,0 1.587,-0.711 1.587,-1.587 v -4.496 c 0,-1.588 -1.587,0 0,0 h 42.096 6.083 42.095 c 1.588,0 0,-1.588 0,0 v 4.496 c 0,0.876 0.711,1.587 1.588,1.587 h 24.333 c 0.877,0 1.588,-0.711 1.588,-1.587 v -4.496 c 0,-1.588 -1.588,0 0,0 h 42.095 6.083 42.096 c 1.587,0 0,-1.588 0,0 v 4.496 c 0,0.876 0.71,1.587 1.587,1.587 h 24.333 c 0.877,0 1.588,-0.711 1.588,-1.587 v -4.496 c 0,-1.588 -1.588,0 0,0 h 42.095 c 0.877,0 1.588,-0.711 1.588,-1.588 v -30.828 -30.828 c 0,-0.877 -0.711,-1.588 -1.588,-1.588 H 33.107186 c -0.877,0 -1.588,0.711 -1.588,1.588 v 30.828 30.828 c 0,0.877 0.711,1.588 1.588,1.588 z"
     stroke="#000000"
     stroke-width="3.17"
     id="path18619-4"
     style="fill:none;stroke-linecap:round;stroke-linejoin:round" />
  <path
     d="m 736.3838,555.2929 h 42.096 c 1.587,0 0,-1.588 0,0 v 4.496 c 0,0.876 0.711,1.587 1.587,1.587 h 24.334 c 0.876,0 1.587,-0.711 1.587,-1.587 v -4.496 c 0,-1.588 -1.587,0 0,0 h 42.095 c 0.877,0 1.588,-0.711 1.588,-1.588 v -30.828 -30.828 c 0,-0.877 -0.711,-1.588 -1.588,-1.588 h -111.699 c -0.876,0 -1.587,0.711 -1.587,1.588 v 30.828 30.828 c 0,0.877 0.711,1.588 1.587,1.588 z"
     stroke="#000000"
     stroke-width="3.17"
     id="path18622-3"
     style="fill:none;stroke-linecap:round;stroke-linejoin:round" />
  <path
     d="m 386.27463,555.84394 h 42.095 c 1.588,0 0,-1.588 0,0 v 4.496 c 0,0.876 0.711,1.587 1.588,1.587 h 24.333 c 0.876,0 1.587,-0.711 1.587,-1.587 v -4.496 c 0,-1.588 -1.587,0 0,0 h 42.096 c 0.876,0 1.587,-0.711 1.587,-1.588 v -30.828 -30.828 c 0,-0.877 -0.711,-1.588 -1.587,-1.588 h -111.699 c -0.877,0 -1.588,0.711 -1.588,1.588 v 30.828 30.828 c 0,0.877 0.711,1.588 1.588,1.588 z"
     stroke="#000000"
     stroke-width="3.17"
     id="path18625-7"
     style="fill:none;stroke-linecap:round;stroke-linejoin:round" />
  <path
     d="m 502.51207,555.84394 h 42.095 c 1.588,0 0,-1.588 0,0 v 4.496 c 0,0.876 0.711,1.587 1.588,1.587 h 24.333 c 0.877,0 1.587,-0.711 1.587,-1.587 v -4.496 c 0,-1.588 -1.587,0 0,0 h 42.096 c 0.877,0 1.587,-0.711 1.587,-1.588 v -30.828 -30.828 c 0,-0.877 -0.71,-1.588 -1.587,-1.588 h -111.699 c -0.877,0 -1.588,0.711 -1.588,1.588 v 30.828 30.828 c 0,0.877 0.711,1.588 1.588,1.588 z"
     stroke="#000000"
     stroke-width="3.17"
     id="path18628-1"
     style="fill:none;stroke-linecap:round;stroke-linejoin:round" />
  <path
     d="m 619.12369,555.84394 h 42.095 c 1.588,0 0,-1.588 0,0 v 4.496 c 0,0.876 0.711,1.587 1.588,1.587 h 24.333 c 0.877,0 1.588,-0.711 1.588,-1.587 v -4.496 c 0,-1.588 -1.588,0 0,0 h 42.095 c 0.877,0 1.587,-0.711 1.587,-1.588 v -30.828 -30.828 c 0,-0.877 -0.71,-1.588 -1.587,-1.588 h -111.699 c -0.877,0 -1.587,0.711 -1.587,1.588 v 30.828 30.828 c 0,0.877 0.71,1.588 1.587,1.588 z"
     stroke="#000000"
     stroke-width="3.17"
     id="path18631-5"
     style="fill:none;stroke-linecap:round;stroke-linejoin:round" />
  <path
     d="m 271.11224,629.05807 h 42.096 c 1.587,0 0,-1.588 0,0 v 4.496 c 0,0.876 0.71,1.587 1.587,1.587 h 24.333 c 0.877,0 1.588,-0.711 1.588,-1.587 v -4.496 c 0,-1.588 -1.588,0 0,0 h 42.095 6.083 42.096 c 1.587,0 0,-1.588 0,0 v 4.496 c 0,0.876 0.711,1.587 1.587,1.587 h 24.333 c 0.877,0 1.588,-0.711 1.588,-1.587 v -4.496 c 0,-1.588 -1.588,0 0,0 h 42.095 6.084 42.095 c 1.588,0 0,-1.588 0,0 v 4.496 c 0,0.876 0.711,1.587 1.588,1.587 h 24.333 c 0.876,0 1.587,-0.711 1.587,-1.587 v -4.496 c 0,-1.588 -1.587,0 0,0 h 42.096 c 0.876,0 1.587,-0.711 1.587,-1.588 v -30.828 -30.828 c 0,-0.877 -0.711,-1.588 -1.587,-1.588 h -347.264 c -0.877,0 -1.587,0.711 -1.587,1.588 v 30.828 30.828 c 0,0.877 0.71,1.588 1.587,1.588 z"
     stroke="#000000"
     stroke-width="3.17"
     id="path18634-4"
     style="fill:none;stroke-linecap:round;stroke-linejoin:round" />
  <path
     d="m 792.28743,9.256 v 26.19 c 0,1.588 1.587,0 0,0 h -4.496 c -0.877,0 -1.587,0.711 -1.587,1.588 v 24.333 c 0,0.877 0.71,1.587 1.587,1.587 h 4.496 c 1.587,0 0,-1.587 0,0 v 26.191 6.083 26.19 c 0,1.588 1.587,0 0,0 h -4.496 c -0.877,0 -1.587,0.711 -1.587,1.588 v 24.333 c 0,0.877 0.71,1.588 1.587,1.588 h 4.496 c 1.587,0 0,-1.588 0,0 v 26.19 6.083 26.191 c 0,1.587 1.587,0 0,0 h -4.496 c -0.877,0 -1.587,0.71 -1.587,1.587 v 24.333 c 0,0.877 0.71,1.588 1.587,1.588 h 4.496 c 1.587,0 0,-1.588 0,0 v 26.19 6.083 c 0,0.877 0.711,1.588 1.587,1.588 h 30.829 30.828 c 0.877,0 1.588,-0.711 1.588,-1.588 V 261.089 181.2 175.117 95.228 89.145 9.256 3.173 c 0,-0.877 -0.711,-1.588 -1.588,-1.588 h -30.828 -30.829 c -0.876,0 -1.587,0.711 -1.587,1.588 z"
     stroke="#000000"
     stroke-width="3.17"
     id="path18637-3"
     style="fill:none;stroke-linecap:round;stroke-linejoin:round" />
  <path
     d="m 623.19461,339.82149 h 26.191 c 1.587,0 0,-1.587 0,0 v 4.496 c 0,0.877 0.711,1.587 1.587,1.587 h 24.334 c 0.876,0 1.587,-0.71 1.587,-1.587 v -4.496 c 0,-1.587 -1.587,0 0,0 h 26.19 6.084 26.19 c 1.588,0 0,-1.587 0,0 v 4.496 c 0,0.877 0.711,1.587 1.588,1.587 h 24.333 c 0.877,0 1.587,-0.71 1.587,-1.587 v -4.496 c 0,-1.587 -1.587,0 0,0 h 26.191 6.083 26.19 c 1.588,0 0,-1.587 0,0 v 4.496 c 0,0.877 0.711,1.587 1.588,1.587 h 24.333 c 0.877,0 1.587,-0.71 1.587,-1.587 v -4.496 c 0,-1.587 -1.587,0 0,0 h 26.191 c 0.877,0 1.587,-0.711 1.587,-1.587 v -30.82899 -30.828 c 0,-0.877 -0.71,-1.588 -1.587,-1.588 h -79.889 -6.083 -79.889 -6.084 -79.889 c -0.876,0 -1.587,0.711 -1.587,1.588 v 30.828 30.82899 c 0,0.876 0.711,1.587 1.587,1.587 z"
     stroke="#000000"
     stroke-width="3.17"
     id="path18640-9"
     style="fill:none;stroke-linecap:round;stroke-linejoin:round" />
  <path
     d="m 622.48272,628.65524 h 26.19 c 1.588,0 0,-1.587 0,0 v 4.496 c 0,0.877 0.711,1.587 1.588,1.587 h 24.333 c 0.877,0 1.588,-0.71 1.588,-1.587 v -4.496 c 0,-1.587 -1.588,0 0,0 h 26.19 6.083 26.191 c 1.587,0 0,-1.587 0,0 v 4.496 c 0,0.877 0.71,1.587 1.587,1.587 h 24.333 c 0.877,0 1.588,-0.71 1.588,-1.587 v -4.496 c 0,-1.587 -1.588,0 0,0 h 26.19 6.084 26.19 c 1.587,0 0,-1.587 0,0 v 4.496 c 0,0.877 0.711,1.587 1.587,1.587 h 24.334 c 0.876,0 1.587,-0.71 1.587,-1.587 v -4.496 c 0,-1.587 -1.587,0 0,0 h 26.191 c 0.876,0 1.587,-0.711 1.587,-1.587 v -30.829 -30.828 c 0,-0.877 -0.711,-1.588 -1.587,-1.588 h -79.889 -6.084 -79.889 -6.083 -79.889 c -0.877,0 -1.587,0.711 -1.587,1.588 v 30.828 30.829 c 0,0.876 0.71,1.587 1.587,1.587 z"
     stroke="#000000"
     stroke-width="3.17"
     id="path18643-1"
     style="fill:none;stroke-linecap:round;stroke-linejoin:round" />
  <path
     d="m 9.256,628.12607 h 26.19 c 1.588,0 0,-1.587 0,0 v 4.496 c 0,0.877 0.711,1.587 1.588,1.587 h 24.333 c 0.877,0 1.587,-0.71 1.587,-1.587 v -4.496 c 0,-1.587 -1.587,0 0,0 h 26.191 6.083 26.19 c 1.588,0 0,-1.587 0,0 v 4.496 c 0,0.877 0.711,1.587 1.588,1.587 h 24.333 c 0.877,0 1.588,-0.71 1.588,-1.587 v -4.496 c 0,-1.587 -1.588,0 0,0 h 26.19 6.083 26.191 c 1.587,0 0,-1.587 0,0 v 4.496 c 0,0.877 0.71,1.587 1.587,1.587 h 24.333 c 0.877,0 1.588,-0.71 1.588,-1.587 v -4.496 c 0,-1.587 -1.588,0 0,0 h 26.19 6.083 c 0.877,0 1.588,-0.711 1.588,-1.587 v -30.829 -30.828 c 0,-0.877 -0.711,-1.588 -1.588,-1.588 H 261.089 181.2 175.117 95.228 89.145 9.256 3.172 c -0.876,0 -1.587,0.711 -1.587,1.588 v 30.828 30.829 c 0,0.876 0.711,1.587 1.587,1.587 z"
     stroke="#000000"
     stroke-width="3.17"
     id="path18646-3"
     style="fill:none;stroke-linecap:round;stroke-linejoin:round" />
  <path
     style="fill:none;stroke:#000000;stroke-width:0.265;stroke-linecap:butt;stroke-linejoin:miter;stroke-miterlimit:4;stroke-dasharray:none;stroke-opacity:1"
     d="M 31.519186,1.585 V 38.430729 H 43.36179 l -0.595313,-0.06615 V 60.52343 l 0.09598,-0.675619 -11.390376,-0.04961 -0.01654,64.754398 h 12.104687 l -0.897081,0.24037 v 21.85234 l 0.02182,-0.73895 H 31.323249 v 64.51488 l 11.882175,0.0702 -0.438947,-0.0234 0.02339,22.16218 0.02339,-0.88661 -11.291563,0.0234 V 268.949 h 57.877601 v -6.94531 l 0.0041,0.64792 21.443475,-0.10541 v 0 c -0.22869,-0.3331 -0.0935,4.11286 -0.0935,6.18098 l 96.44036,-0.0468 v -6.30324 l 0.17516,0.34055 21.00036,-0.0994 c 0.84464,-0.99512 0.30951,0.15006 0,0 l 0.0165,6.19837 h 96.55887 l -0.0331,-6.26732 0.25691,0.28966 h 21.53814 l -0.48812,-0.53507 0.0702,6.45462 57.56796,-0.14032 v -36.77709 h -11.64167 0.79375 v -21.76198 l 0.11578,0.63458 10.67402,-0.11693 -0.14032,-64.48067 h -10.84791 l -0.0331,-21.76198 11.01328,-0.0992 V 59.924797 l -10.99958,0.07016 -0.0468,-21.49808 H 404.1211 V 1.5213541 H 346.17742 V 7.9374996 H 324.61387 V 1.6536458 h -95.94453 l -0.0331,6.2838538 -21.66277,-0.066146 0.19844,-6.1184893 -96.25187,0.025048 -0.0234,6.159587 H 89.134703 V 1.7859374 Z"
     id="path27680"
     sodipodi:nodetypes="ccccccccccccccccccccccccccccccccccccccccccccccccccccccccccccccccccc" />
  <path
     d="m 477.98519,179.96865 h -10.58 c -1.587,0 0,1.587 0,0 v -2.909 c 0,-1.587 -1.587,0 0,0 h 21.159 c 1.587,0 0,-1.587 0,0 v 2.909 c 0,1.587 1.587,0 0,0 z"
     stroke="#0000ff"
     stroke-width="3.17"
     id="path18651-6"
     style="fill:none;stroke-linecap:round;stroke-linejoin:round" />
  <path
     d="m 713.54919,179.96865 h -10.579 c -1.588,0 0,1.587 0,0 v -2.909 c 0,-1.587 -1.588,0 0,0 h 21.158 c 1.588,0 0,-1.587 0,0 v 2.909 c 0,1.587 1.588,0 0,0 z"
     stroke="#0000ff"
     stroke-width="3.17"
     id="path18653-9"
     style="fill:none;stroke-linecap:round;stroke-linejoin:round" />
  <path
     d="m 477.98519,93.996649 h -10.58 c -1.587,0 0,1.587 0,0 v -2.909 c 0,-1.587 -1.587,0 0,0 h 21.159 c 1.587,0 0,-1.587 0,0 v 2.909 c 0,1.587 1.587,0 0,0 z"
     stroke="#0000ff"
     stroke-width="3.17"
     id="path18655-8"
     style="fill:none;stroke-linecap:round;stroke-linejoin:round" />
  <path
     d="m 713.54919,93.996649 h -10.579 c -1.588,0 0,1.587 0,0 v -2.909 c 0,-1.587 -1.588,0 0,0 h 21.158 c 1.588,0 0,-1.587 0,0 v 2.909 c 0,1.587 1.588,0 0,0 z"
     stroke="#0000ff"
     stroke-width="3.17"
     id="path18657-1"
     style="fill:none;stroke-linecap:round;stroke-linejoin:round" />
  <path
     d="m 538.33019,221.50065 v 10.579 c 0,1.587 1.587,0 0,0 h -2.908 c -1.588,0 0,1.587 0,0 v -21.158 c 0,-1.588 -1.588,0 0,0 h 2.908 c 1.587,0 0,-1.588 0,0 z"
     stroke="#0000ff"
     stroke-width="3.17"
     id="path18661-8"
     style="fill:none;stroke-linecap:round;stroke-linejoin:round" />
  <path
     d="m 538.33019,135.52765 v 10.58 c 0,1.587 1.587,0 0,0 h -2.908 c -1.588,0 0,1.587 0,0 v -21.159 c 0,-1.587 -1.588,0 0,0 h 2.908 c 1.587,0 0,-1.587 0,0 v 10.58 z"
     stroke="#0000ff"
     stroke-width="3.17"
     id="path18663-0"
     style="fill:none;stroke-linecap:round;stroke-linejoin:round" />
  <path
     d="m 538.33019,49.555649 v 10.579 c 0,1.588 1.587,0 0,0 h -2.908 c -1.588,0 0,1.588 0,0 v -21.158 c 0,-1.587 -1.588,0 0,0 h 2.908 c 1.587,0 0,-1.587 0,0 z"
     stroke="#0000ff"
     stroke-width="3.17"
     id="path18665-8"
     style="fill:none;stroke-linecap:round;stroke-linejoin:round" />
  <path
     d="m 656.11219,221.50065 v 10.579 c 0,1.587 1.588,0 0,0 h -2.908 c -1.588,0 0,1.587 0,0 v -21.158 c 0,-1.588 -1.588,0 0,0 h 2.908 c 1.588,0 0,-1.588 0,0 z"
     stroke="#0000ff"
     stroke-width="3.17"
     id="path18667-6"
     style="fill:none;stroke-linecap:round;stroke-linejoin:round" />
  <path
     d="m 656.11219,135.52765 v 10.58 c 0,1.587 1.588,0 0,0 h -2.908 c -1.588,0 0,1.587 0,0 v -21.159 c 0,-1.587 -1.588,0 0,0 h 2.908 c 1.588,0 0,-1.587 0,0 v 10.58 z"
     stroke="#0000ff"
     stroke-width="3.17"
     id="path18669-6"
     style="fill:none;stroke-linecap:round;stroke-linejoin:round" />
  <path
     d="m 656.11219,49.555649 v 10.579 c 0,1.588 1.588,0 0,0 h -2.908 c -1.588,0 0,1.588 0,0 v -21.158 c 0,-1.587 -1.588,0 0,0 h 2.908 c 1.588,0 0,-1.587 0,0 z"
     stroke="#0000ff"
     stroke-width="3.17"
     id="path18671-5"
     style="fill:none;stroke-linecap:round;stroke-linejoin:round" />
  <path
     style="fill:none;stroke:#000000;stroke-width:0.265;stroke-linecap:butt;stroke-linejoin:miter;stroke-miterlimit:4;stroke-dasharray:none;stroke-opacity:1"
     d="M 409.46419,1.9406452 V 38.786369 h 11.8426 l -0.59531,-0.0661 v 22.15886 l 0.096,-0.67562 -11.39038,-0.0496 -0.0165,64.754401 h 12.10469 l -0.89708,0.24037 v 21.85234 l 0.0218,-0.73895 h -11.36172 v 64.51488 l 11.88218,0.0702 -0.43895,-0.0234 0.0234,22.16218 0.0234,-0.88661 -11.29156,0.0234 v 37.18199 h 57.8776 v -6.94531 l 0.004,0.64792 21.44348,-0.10541 v 0 c -0.22869,-0.3331 -0.0935,4.11286 -0.0935,6.18098 l 96.44035,-0.0468 v -6.30324 l 0.17516,0.34055 21.00036,-0.0994 c 0.84464,-0.99512 0.30951,0.15006 0,0 l 0.0165,6.19837 h 96.55887 l -0.0331,-6.26732 0.25691,0.28966 h 21.53814 l -0.48812,-0.53507 0.0702,6.45462 57.56796,-0.14032 v -36.77709 h -11.64167 0.79375 v -21.76198 l 0.11578,0.63458 10.67402,-0.11693 -0.14032,-64.48067 h -10.84791 l -0.0331,-21.76198 11.01328,-0.0992 V 60.280499 l -10.99958,0.0702 -0.0468,-21.49808 H 782.0661 V 1.8769992 h -57.94368 v 6.41615 h -21.56355 v -6.283858 h -95.94453 l -0.0331,6.283858 -21.66277,-0.0662 0.19844,-6.11849 -96.25187,0.0251 -0.0234,6.15959 H 467.0797 v -6.15157 z"
     id="path27680-9"
     sodipodi:nodetypes="ccccccccccccccccccccccccccccccccccccccccccccccccccccccccccccccccccc" />
</svg>
