<?xml version="1.0" encoding="UTF-8" standalone="no"?>
<svg
   height="812.79999mm"
   viewBox="0 0 888.99999 812.79997"
   width="889mm"
   version="1.1"
   id="svg932"
   sodipodi:docname="0p25in_Shelf.svg"
   inkscape:version="1.1 (c68e22c387, 2021-05-23)"
   xmlns:inkscape="http://www.inkscape.org/namespaces/inkscape"
   xmlns:sodipodi="http://sodipodi.sourceforge.net/DTD/sodipodi-0.dtd"
   xmlns="http://www.w3.org/2000/svg"
   xmlns:svg="http://www.w3.org/2000/svg"
   xmlns:rdf="http://www.w3.org/1999/02/22-rdf-syntax-ns#"
   xmlns:cc="http://creativecommons.org/ns#"
   xmlns:dc="http://purl.org/dc/elements/1.1/">
  <defs
     id="defs936" />
  <sodipodi:namedview
     pagecolor="#ffffff"
     bordercolor="#666666"
     borderopacity="1"
     objecttolerance="10"
     gridtolerance="10"
     guidetolerance="10"
     inkscape:pageopacity="0"
     inkscape:pageshadow="2"
     inkscape:window-width="1680"
     inkscape:window-height="987"
     id="namedview934"
     showgrid="false"
     inkscape:zoom="0.3535534"
     inkscape:cx="989.94947"
     inkscape:cy="349.31074"
     inkscape:window-x="-8"
     inkscape:window-y="18"
     inkscape:window-maximized="1"
     inkscape:current-layer="svg932"
     inkscape:document-rotation="0"
     inkscape:pagecheckerboard="0"
     inkscape:document-units="mm" />
  <!--
TypeTray - Type tray - allows only continuous walls

Created with Boxes.py (https://festi.info/boxes.py)
Creation date: 2021-08-20 16:58:03
Command line (remove spaces between dashes): boxes TypeTray - -FingerJoint_angle=90.0 - -FingerJoint_style=rectangular - -FingerJoint_surroundingspaces=0.5 - -FingerJoint_edge_width=1.0 - -FingerJoint_finger=8 - -FingerJoint_play=1 - -FingerJoint_space=8 - -FingerJoint_width=1 - -Stackable_angle=60 - -Stackable_height=2.0 - -Stackable_holedistance=1.0 - -Stackable_width=4.0 - -Hinge_grip_percentage=0 - -Hinge_outset=0 - -Hinge_pinwidth=0.5 - -Hinge_style=outset - -Hinge_axle=2 - -Hinge_grip_length=0 - -Hinge_hingestrength=1 - -CabinetHinge_bore=3.2 - -CabinetHinge_eyes_per_hinge=5 - -CabinetHinge_hinges=2 - -CabinetHinge_style=inside - -CabinetHinge_eye=1.5 - -CabinetHinge_play=0.05 - -CabinetHinge_spacing=2.0 - -Lid_angle=90.0 - -Lid_hole_width=0 - -Lid_second_pin=0 - -Lid_second_pin=1 - -Lid_spring=both - -Lid_style=rectangular - -Lid_surroundingspaces=2.0 - -Lid_edge_width=1.0 - -Lid_finger=3.0 - -Lid_play=0.05 - -Lid_space=2.0 - -Lid_width=1.0 - -Click_angle=5.0 - -Click_bottom_radius=0.1 - -Click_depth=3.0 - -RoundedTriangleEdge_height=150.0 - -RoundedTriangleEdge_r_hole=2.0 - -RoundedTriangleEdge_radius=30.0 - -RoundedTriangleEdge_outset=1 '- -sx=381*1' '- -sy=381*1' - -h=279 - -hi=0.0 - -outside=0 - -outside=1 - -bottom_edge=F - -top_edge=e - -gripheight=30 - -gripwidth=0 - -thickness=6.35 - -format=svg - -tabs=0.0 - -debug=0 - -labels=0 - -labels=1 - -reference=0 - -burn=3.175
Url: http://www.festi.info/TypeTray?FingerJoint_angle=90.0&FingerJoint_style=rectangular&FingerJoint_surroundingspaces=0.5&FingerJoint_edge_width=1.0&FingerJoint_finger=8&FingerJoint_play=1&FingerJoint_space=8&FingerJoint_width=1&Stackable_angle=60&Stackable_height=2.0&Stackable_holedistance=1.0&Stackable_width=4.0&Hinge_grip_percentage=0&Hinge_outset=0&Hinge_pinwidth=0.5&Hinge_style=outset&Hinge_axle=2&Hinge_grip_length=0&Hinge_hingestrength=1&CabinetHinge_bore=3.2&CabinetHinge_eyes_per_hinge=5&CabinetHinge_hinges=2&CabinetHinge_style=inside&CabinetHinge_eye=1.5&CabinetHinge_play=0.05&CabinetHinge_spacing=2.0&Lid_angle=90.0&Lid_hole_width=0&Lid_second_pin=0&Lid_second_pin=1&Lid_spring=both&Lid_style=rectangular&Lid_surroundingspaces=2.0&Lid_edge_width=1.0&Lid_finger=3.0&Lid_play=0.05&Lid_space=2.0&Lid_width=1.0&Click_angle=5.0&Click_bottom_radius=0.1&Click_depth=3.0&RoundedTriangleEdge_height=150.0&RoundedTriangleEdge_r_hole=2.0&RoundedTriangleEdge_radius=30.0&RoundedTriangleEdge_outset=1&sx=381*1&sy=381*1&h=279&hi=0.0&outside=0&outside=1&bottom_edge=F&top_edge=e&gripheight=30&gripwidth=0&thickness=6.35&format=svg&tabs=0.0&debug=0&labels=0&labels=1&reference=0&burn=3.175&render=1
SettingsUrl: http://www.festi.info/TypeTray?FingerJoint_angle=90.0&FingerJoint_style=rectangular&FingerJoint_surroundingspaces=0.5&FingerJoint_edge_width=1.0&FingerJoint_finger=8&FingerJoint_play=1&FingerJoint_space=8&FingerJoint_width=1&Stackable_angle=60&Stackable_height=2.0&Stackable_holedistance=1.0&Stackable_width=4.0&Hinge_grip_percentage=0&Hinge_outset=0&Hinge_pinwidth=0.5&Hinge_style=outset&Hinge_axle=2&Hinge_grip_length=0&Hinge_hingestrength=1&CabinetHinge_bore=3.2&CabinetHinge_eyes_per_hinge=5&CabinetHinge_hinges=2&CabinetHinge_style=inside&CabinetHinge_eye=1.5&CabinetHinge_play=0.05&CabinetHinge_spacing=2.0&Lid_angle=90.0&Lid_hole_width=0&Lid_second_pin=0&Lid_second_pin=1&Lid_spring=both&Lid_style=rectangular&Lid_surroundingspaces=2.0&Lid_edge_width=1.0&Lid_finger=3.0&Lid_play=0.05&Lid_space=2.0&Lid_width=1.0&Click_angle=5.0&Click_bottom_radius=0.1&Click_depth=3.0&RoundedTriangleEdge_height=150.0&RoundedTriangleEdge_r_hole=2.0&RoundedTriangleEdge_radius=30.0&RoundedTriangleEdge_outset=1&sx=381*1&sy=381*1&h=279&hi=0.0&outside=0&outside=1&bottom_edge=F&top_edge=e&gripheight=30&gripwidth=0&thickness=6.35&format=svg&tabs=0.0&debug=0&labels=0&labels=1&reference=0&burn=3.175
-->
  <title
     id="title903">TypeTray</title>
  <metadata
     id="metadata905">
    <rdf:RDF>
      <cc:Work>
        <dc:title>TypeTray</dc:title>
        <dc:date>2021-08-20 16:58:03</dc:date>
        <dc:source>http://www.festi.info/TypeTray?FingerJoint_angle=90.0&amp;FingerJoint_style=rectangular&amp;FingerJoint_surroundingspaces=0.5&amp;FingerJoint_edge_width=1.0&amp;FingerJoint_finger=8&amp;FingerJoint_play=1&amp;FingerJoint_space=8&amp;FingerJoint_width=1&amp;Stackable_angle=60&amp;Stackable_height=2.0&amp;Stackable_holedistance=1.0&amp;Stackable_width=4.0&amp;Hinge_grip_percentage=0&amp;Hinge_outset=0&amp;Hinge_pinwidth=0.5&amp;Hinge_style=outset&amp;Hinge_axle=2&amp;Hinge_grip_length=0&amp;Hinge_hingestrength=1&amp;CabinetHinge_bore=3.2&amp;CabinetHinge_eyes_per_hinge=5&amp;CabinetHinge_hinges=2&amp;CabinetHinge_style=inside&amp;CabinetHinge_eye=1.5&amp;CabinetHinge_play=0.05&amp;CabinetHinge_spacing=2.0&amp;Lid_angle=90.0&amp;Lid_hole_width=0&amp;Lid_second_pin=0&amp;Lid_second_pin=1&amp;Lid_spring=both&amp;Lid_style=rectangular&amp;Lid_surroundingspaces=2.0&amp;Lid_edge_width=1.0&amp;Lid_finger=3.0&amp;Lid_play=0.05&amp;Lid_space=2.0&amp;Lid_width=1.0&amp;Click_angle=5.0&amp;Click_bottom_radius=0.1&amp;Click_depth=3.0&amp;RoundedTriangleEdge_height=150.0&amp;RoundedTriangleEdge_r_hole=2.0&amp;RoundedTriangleEdge_radius=30.0&amp;RoundedTriangleEdge_outset=1&amp;sx=381*1&amp;sy=381*1&amp;h=279&amp;hi=0.0&amp;outside=0&amp;outside=1&amp;bottom_edge=F&amp;top_edge=e&amp;gripheight=30&amp;gripwidth=0&amp;thickness=6.35&amp;format=svg&amp;tabs=0.0&amp;debug=0&amp;labels=0&amp;labels=1&amp;reference=0&amp;burn=3.175&amp;render=1</dc:source>
        <dc:description>Type tray - allows only continuous walls

Created with Boxes.py (https://festi.info/boxes.py)
Command line: boxes TypeTray --FingerJoint_angle=90.0 --FingerJoint_style=rectangular --FingerJoint_surroundingspaces=0.5 --FingerJoint_edge_width=1.0 --FingerJoint_finger=8 --FingerJoint_play=1 --FingerJoint_space=8 --FingerJoint_width=1 --Stackable_angle=60 --Stackable_height=2.0 --Stackable_holedistance=1.0 --Stackable_width=4.0 --Hinge_grip_percentage=0 --Hinge_outset=0 --Hinge_pinwidth=0.5 --Hinge_style=outset --Hinge_axle=2 --Hinge_grip_length=0 --Hinge_hingestrength=1 --CabinetHinge_bore=3.2 --CabinetHinge_eyes_per_hinge=5 --CabinetHinge_hinges=2 --CabinetHinge_style=inside --CabinetHinge_eye=1.5 --CabinetHinge_play=0.05 --CabinetHinge_spacing=2.0 --Lid_angle=90.0 --Lid_hole_width=0 --Lid_second_pin=0 --Lid_second_pin=1 --Lid_spring=both --Lid_style=rectangular --Lid_surroundingspaces=2.0 --Lid_edge_width=1.0 --Lid_finger=3.0 --Lid_play=0.05 --Lid_space=2.0 --Lid_width=1.0 --Click_angle=5.0 --Click_bottom_radius=0.1 --Click_depth=3.0 --RoundedTriangleEdge_height=150.0 --RoundedTriangleEdge_r_hole=2.0 --RoundedTriangleEdge_radius=30.0 --RoundedTriangleEdge_outset=1 '--sx=381*1' '--sy=381*1' --h=279 --hi=0.0 --outside=0 --outside=1 --bottom_edge=F --top_edge=e --gripheight=30 --gripwidth=0 --thickness=6.35 --format=svg --tabs=0.0 --debug=0 --labels=0 --labels=1 --reference=0 --burn=3.175
Url: http://www.festi.info/TypeTray?FingerJoint_angle=90.0&amp;FingerJoint_style=rectangular&amp;FingerJoint_surroundingspaces=0.5&amp;FingerJoint_edge_width=1.0&amp;FingerJoint_finger=8&amp;FingerJoint_play=1&amp;FingerJoint_space=8&amp;FingerJoint_width=1&amp;Stackable_angle=60&amp;Stackable_height=2.0&amp;Stackable_holedistance=1.0&amp;Stackable_width=4.0&amp;Hinge_grip_percentage=0&amp;Hinge_outset=0&amp;Hinge_pinwidth=0.5&amp;Hinge_style=outset&amp;Hinge_axle=2&amp;Hinge_grip_length=0&amp;Hinge_hingestrength=1&amp;CabinetHinge_bore=3.2&amp;CabinetHinge_eyes_per_hinge=5&amp;CabinetHinge_hinges=2&amp;CabinetHinge_style=inside&amp;CabinetHinge_eye=1.5&amp;CabinetHinge_play=0.05&amp;CabinetHinge_spacing=2.0&amp;Lid_angle=90.0&amp;Lid_hole_width=0&amp;Lid_second_pin=0&amp;Lid_second_pin=1&amp;Lid_spring=both&amp;Lid_style=rectangular&amp;Lid_surroundingspaces=2.0&amp;Lid_edge_width=1.0&amp;Lid_finger=3.0&amp;Lid_play=0.05&amp;Lid_space=2.0&amp;Lid_width=1.0&amp;Click_angle=5.0&amp;Click_bottom_radius=0.1&amp;Click_depth=3.0&amp;RoundedTriangleEdge_height=150.0&amp;RoundedTriangleEdge_r_hole=2.0&amp;RoundedTriangleEdge_radius=30.0&amp;RoundedTriangleEdge_outset=1&amp;sx=381*1&amp;sy=381*1&amp;h=279&amp;hi=0.0&amp;outside=0&amp;outside=1&amp;bottom_edge=F&amp;top_edge=e&amp;gripheight=30&amp;gripwidth=0&amp;thickness=6.35&amp;format=svg&amp;tabs=0.0&amp;debug=0&amp;labels=0&amp;labels=1&amp;reference=0&amp;burn=3.175&amp;render=1
SettingsUrl: http://www.festi.info/TypeTray?FingerJoint_angle=90.0&amp;FingerJoint_style=rectangular&amp;FingerJoint_surroundingspaces=0.5&amp;FingerJoint_edge_width=1.0&amp;FingerJoint_finger=8&amp;FingerJoint_play=1&amp;FingerJoint_space=8&amp;FingerJoint_width=1&amp;Stackable_angle=60&amp;Stackable_height=2.0&amp;Stackable_holedistance=1.0&amp;Stackable_width=4.0&amp;Hinge_grip_percentage=0&amp;Hinge_outset=0&amp;Hinge_pinwidth=0.5&amp;Hinge_style=outset&amp;Hinge_axle=2&amp;Hinge_grip_length=0&amp;Hinge_hingestrength=1&amp;CabinetHinge_bore=3.2&amp;CabinetHinge_eyes_per_hinge=5&amp;CabinetHinge_hinges=2&amp;CabinetHinge_style=inside&amp;CabinetHinge_eye=1.5&amp;CabinetHinge_play=0.05&amp;CabinetHinge_spacing=2.0&amp;Lid_angle=90.0&amp;Lid_hole_width=0&amp;Lid_second_pin=0&amp;Lid_second_pin=1&amp;Lid_spring=both&amp;Lid_style=rectangular&amp;Lid_surroundingspaces=2.0&amp;Lid_edge_width=1.0&amp;Lid_finger=3.0&amp;Lid_play=0.05&amp;Lid_space=2.0&amp;Lid_width=1.0&amp;Click_angle=5.0&amp;Click_bottom_radius=0.1&amp;Click_depth=3.0&amp;RoundedTriangleEdge_height=150.0&amp;RoundedTriangleEdge_r_hole=2.0&amp;RoundedTriangleEdge_radius=30.0&amp;RoundedTriangleEdge_outset=1&amp;sx=381*1&amp;sy=381*1&amp;h=279&amp;hi=0.0&amp;outside=0&amp;outside=1&amp;bottom_edge=F&amp;top_edge=e&amp;gripheight=30&amp;gripwidth=0&amp;thickness=6.35&amp;format=svg&amp;tabs=0.0&amp;debug=0&amp;labels=0&amp;labels=1&amp;reference=0&amp;burn=3.175
</dc:description>
        <dc:format>image/svg+xml</dc:format>
        <dc:type
           rdf:resource="http://purl.org/dc/dcmitype/StillImage" />
      </cc:Work>
    </rdf:RDF>
  </metadata>
  <text
     alignment-baseline="hanging"
     font-size="4px"
     style="font-style:normal;font-weight:normal;font-family:sans-serif;fill:#ff0000;stroke-width:0.264583;stroke-linecap:round;stroke-linejoin:round;stroke-miterlimit:4;stroke-dasharray:none"
     text-anchor="middle"
     id="text917-6"
     x="360.32166"
     y="126.46867" />
  <g
     id="p-4-5-8"
     style="fill:none;stroke-width:0.264583;stroke-linecap:round;stroke-linejoin:round;stroke-miterlimit:4;stroke-dasharray:none"
     transform="translate(515.12028,789.95301)">
    <text
       alignment-baseline="hanging"
       font-size="4px"
       style="font-style:normal;font-weight:normal;font-family:sans-serif;fill:#ff0000;stroke-width:0.264583;stroke-miterlimit:4;stroke-dasharray:none"
       text-anchor="middle"
       transform="translate(594.2,544.375)"
       id="text927-6-8" />
  </g>
  <text
     alignment-baseline="hanging"
     font-size="4px"
     style="font-style:normal;font-weight:normal;font-family:sans-serif;fill:#ff0000;stroke-linecap:round;stroke-linejoin:round"
     text-anchor="middle"
     id="text1045"
     x="196.85001"
     y="198.02499" />
  <text
     alignment-baseline="hanging"
     font-size="4px"
     style="font-style:normal;font-weight:normal;font-family:sans-serif;fill:#ff0000;stroke-linecap:round;stroke-linejoin:round"
     text-anchor="middle"
     id="text1045-3"
     x="589.70349"
     y="198.02499" />
  <text
     alignment-baseline="hanging"
     font-size="4px"
     style="font-style:normal;font-weight:normal;font-family:sans-serif;fill:#ff0000;stroke-linecap:round;stroke-linejoin:round"
     text-anchor="middle"
     id="text1045-5"
     x="196.85001"
     y="588.16321" />
  <text
     alignment-baseline="hanging"
     font-size="4px"
     style="font-style:normal;font-weight:normal;font-family:sans-serif;fill:#ff0000;stroke-linecap:round;stroke-linejoin:round"
     text-anchor="middle"
     id="text1045-3-2"
     x="589.70349"
     y="588.16321" />
  <text
     alignment-baseline="hanging"
     font-size="4px"
     style="font-style:normal;font-weight:normal;font-family:sans-serif;fill:#ff0000;stroke-linecap:round;stroke-linejoin:round"
     text-anchor="middle"
     id="text873"
     x="175.68333"
     y="199.08334" />
  <path
     d="m 418.61433,313.13446 h 42.096 c 1.587,0 0,-1.588 0,0 v 4.496 c 0,0.876 0.71,1.587 1.587,1.587 h 24.333 c 0.877,0 1.588,-0.711 1.588,-1.587 v -4.496 c 0,-1.588 -1.588,0 0,0 h 42.095 6.083 42.096 c 1.587,0 0,-1.588 0,0 v 4.496 c 0,0.876 0.711,1.587 1.587,1.587 h 24.333 c 0.877,0 1.588,-0.711 1.588,-1.587 v -4.496 c 0,-1.588 -1.588,0 0,0 h 42.095 6.084 42.095 c 1.588,0 0,-1.588 0,0 v 4.496 c 0,0.876 0.711,1.587 1.588,1.587 h 24.333 c 0.876,0 1.587,-0.711 1.587,-1.587 v -4.496 c 0,-1.588 -1.587,0 0,0 h 42.096 c 0.876,0 1.587,-0.711 1.587,-1.588 v -30.82799 -0.82823 c 0,-0.87701 -0.711,-1.58801 -1.587,-1.58801 h -347.264 c -0.877,0 -1.587,0.711 -1.587,1.58801 v 0.82823 30.82799 c 0,0.877 0.71,1.588 1.587,1.588 z"
     stroke="#000000"
     stroke-width="3.17"
     id="path18634"
     style="fill:none;stroke-linecap:round;stroke-linejoin:round"
     sodipodi:nodetypes="sssssssssccssssssssccsssssssssscsssscss" />
  <path
     d="m 64.942708,313.70735 h 42.096002 c 1.587,0 0,-1.588 0,0 v 4.496 c 0,0.876 0.71,1.587 1.587,1.587 h 24.333 c 0.877,0 1.588,-0.711 1.588,-1.587 v -4.496 c 0,-1.588 -1.588,0 0,0 h 42.09501 6.083 42.096 c 1.587,0 0,-1.588 0,0 v 4.496 c 0,0.876 0.711,1.587 1.587,1.587 h 24.333 c 0.877,0 1.588,-0.711 1.588,-1.587 v -4.496 c 0,-1.588 -1.588,0 0,0 h 42.095 6.084 42.095 c 1.588,0 0,-1.588 0,0 v 4.496 c 0,0.876 0.711,1.587 1.588,1.587 h 24.333 c 0.876,0 1.587,-0.711 1.587,-1.587 v -4.496 c 0,-1.588 -1.587,0 0,0 h 42.096 c 0.876,0 1.587,-0.711 1.587,-1.588 v -30.82799 -0.82823 c 0,-0.87701 -0.711,-1.58801 -1.587,-1.58801 H 64.942708 c -0.877,0 -1.587,0.711 -1.587,1.58801 v 0.82823 30.82799 c 0,0.877 0.71,1.588 1.587,1.588 z"
     stroke="#000000"
     stroke-width="3.17"
     id="path18634-5"
     style="fill:none;stroke-linecap:round;stroke-linejoin:round"
     sodipodi:nodetypes="sssssssssccssssssssccsssssssssscsssscss" />
  <path
     d="m 454.92712,321.20592 h -42.096 c -1.587,0 0,1.588 0,0 v -4.496 c 0,-0.876 -0.71,-1.587 -1.587,-1.587 h -24.33299 c -0.877,0 -1.588,0.711 -1.588,1.587 v 4.496 c 0,1.588 1.588,0 0,0 h -42.095 -6.083 -42.096 c -1.587,0 0,1.588 0,0 v -4.496 c 0,-0.876 -0.711,-1.587 -1.587,-1.587 h -24.333 c -0.877,0 -1.588,0.711 -1.588,1.587 v 4.496 c 0,1.588 1.588,0 0,0 h -42.095 -6.084 -42.095 c -1.588,0 0,1.588 0,0 v -4.496 c 0,-0.876 -0.711,-1.587 -1.588,-1.587 h -24.333 c -0.876,0 -1.587,0.711 -1.587,1.587 v 4.496 c 0,1.588 1.587,0 0,0 h -42.096 c -0.876,0 -1.587,0.711 -1.587,1.588 v 20.82769 0.82823 c 0,0.87701 0.711,1.58801 1.587,1.58801 h 347.26399 c 0.877,0 1.587,-0.711 1.587,-1.58801 v -0.82823 -20.82769 c 0,-0.877 -0.71,-1.588 -1.587,-1.588 z"
     stroke="#000000"
     stroke-width="3.17"
     id="path18634-5-7"
     style="fill:none;stroke-linecap:round;stroke-linejoin:round"
     sodipodi:nodetypes="sssssssssccssssssssccsssssssssscsssscss" />
  <path
     d="m 808.84204,320.64395 h -42.096 c -1.587,0 0,1.588 0,0 v -4.496 c 0,-0.876 -0.71,-1.587 -1.587,-1.587 h -24.33299 c -0.877,0 -1.588,0.711 -1.588,1.587 v 4.496 c 0,1.588 1.588,0 0,0 h -42.095 -6.083 -42.096 c -1.587,0 0,1.588 0,0 v -4.496 c 0,-0.876 -0.711,-1.587 -1.587,-1.587 h -24.333 c -0.877,0 -1.588,0.711 -1.588,1.587 v 4.496 c 0,1.588 1.588,0 0,0 h -42.095 -6.084 -42.095 c -1.588,0 0,1.588 0,0 v -4.496 c 0,-0.876 -0.711,-1.587 -1.588,-1.587 h -24.333 c -0.876,0 -1.587,0.711 -1.587,1.587 v 4.496 c 0,1.588 1.587,0 0,0 h -42.096 c -0.876,0 -1.587,0.711 -1.587,1.588 v 20.82769 0.82823 c 0,0.87701 0.711,1.58801 1.587,1.58801 h 347.26399 c 0.877,0 1.587,-0.711 1.587,-1.58801 v -0.82823 -20.82769 c 0,-0.877 -0.71,-1.588 -1.587,-1.588 z"
     stroke="#000000"
     stroke-width="3.17"
     id="path18634-5-7-5"
     style="fill:none;stroke-linecap:round;stroke-linejoin:round"
     sodipodi:nodetypes="sssssssssccssssssssccsssssssssscsssscss" />
  <path
     style="fill:none;stroke:#000000;stroke-width:0.265;stroke-linecap:butt;stroke-linejoin:miter;stroke-miterlimit:4;stroke-dasharray:none;stroke-opacity:1"
     d="M 62.950082,4.5784186 V 41.424148 h 11.842604 l -0.595313,-0.06615 v 22.158851 l 0.09598,-0.675619 -11.390376,-0.04961 -0.01654,64.7544 h 12.104687 l -0.897081,0.24037 v 21.85234 l 0.02182,-0.73895 H 62.754145 v 64.51488 l 11.882175,0.0702 -0.438947,-0.0234 0.02339,22.16218 0.02339,-0.88661 -11.291563,0.0234 v 37.18199 h 57.8776 v -6.94531 l 0.004,0.64792 21.44348,-0.10541 v 0 c -0.22869,-0.3331 -0.0935,4.11286 -0.0935,6.18098 l 96.44036,-0.0468 v -6.30324 l 0.17516,0.34055 21.00036,-0.0994 c 0.84464,-0.99512 0.30951,0.15006 0,0 l 0.0165,6.19837 h 96.55887 l -0.0331,-6.26732 0.25691,0.28966 h 21.53814 l -0.48812,-0.53507 0.0702,6.45462 57.56796,-0.14032 v -36.77709 h -11.64167 0.79375 v -21.76198 l 0.11578,0.63458 10.67402,-0.11693 -0.14032,-64.48067 h -10.84791 l -0.0331,-21.76198 11.01328,-0.0992 V 62.918216 l -10.99958,0.07016 -0.0468,-21.49808 H 435.552 V 4.5147727 H 377.60832 V 10.930918 H 356.04477 V 4.6470644 h -95.94453 l -0.0331,6.2838536 -21.66277,-0.06615 0.19844,-6.1184891 -96.25187,0.025048 -0.0234,6.1595871 H 120.5656 V 4.779356 Z"
     id="path27680"
     sodipodi:nodetypes="ccccccccccccccccccccccccccccccccccccccccccccccccccccccccccccccccccc" />
  <path
     style="fill:none;stroke:#000000;stroke-width:0.265;stroke-linecap:butt;stroke-linejoin:miter;stroke-miterlimit:4;stroke-dasharray:none;stroke-opacity:1"
     d="M 440.89509,4.9340638 V 41.779788 h 11.8426 l -0.59531,-0.0661 v 22.15886 l 0.096,-0.67562 -11.39038,-0.0496 -0.0165,64.754402 h 12.10469 l -0.89708,0.24037 v 21.85234 l 0.0218,-0.73895 h -11.36172 v 64.51488 l 11.88218,0.0702 -0.43895,-0.0234 0.0234,22.16218 0.0234,-0.88661 -11.29156,0.0234 v 37.18199 h 57.8776 v -6.94531 l 0.004,0.64792 21.44348,-0.10541 v 0 c -0.22869,-0.3331 -0.0935,4.11286 -0.0935,6.18098 l 96.44035,-0.0468 v -6.30324 l 0.17516,0.34055 21.00036,-0.0994 c 0.84464,-0.99512 0.30951,0.15006 0,0 l 0.0165,6.19837 h 96.55887 l -0.0331,-6.26732 0.25691,0.28966 h 21.53814 l -0.48812,-0.53507 0.0702,6.45462 57.56796,-0.14032 v -36.77709 h -11.64167 0.79375 v -21.76198 l 0.11578,0.63458 10.67402,-0.11693 -0.14032,-64.48067 h -10.84791 l -0.0331,-21.76198 11.01328,-0.0992 V 63.273918 l -10.99958,0.0702 -0.0468,-21.49808 H 813.497 V 4.8704178 H 755.55332 V 11.286568 H 733.98977 V 5.0027098 h -95.94453 l -0.0331,6.2838582 -21.66277,-0.0662 0.19844,-6.1184902 -96.25187,0.0251 -0.0234,6.1595902 H 498.5106 V 5.1349978 Z"
     id="path27680-9"
     sodipodi:nodetypes="ccccccccccccccccccccccccccccccccccccccccccccccccccccccccccccccccccc" />
  <path
     style="fill:none;stroke:#000000;stroke-width:0.205043px;stroke-linecap:butt;stroke-linejoin:miter;stroke-opacity:1"
     d="M 62.950082,4.5784186 H 7.6521644"
     id="path35735" />
  <path
     style="fill:none;stroke:#000000;stroke-width:0.264583px;stroke-linecap:butt;stroke-linejoin:miter;stroke-opacity:1"
     d="m 813.497,4.8704178 67.20417,-0.52917"
     id="path35737" />
</svg>
