<?xml version="1.0" encoding="UTF-8" standalone="no"?>
<svg
   height="812.79999mm"
   viewBox="0 0 888.99999 812.79997"
   width="889mm"
   version="1.1"
   id="svg932"
   sodipodi:docname="0p25in_TypeTray_35by32.svg"
   inkscape:version="1.1 (c68e22c387, 2021-05-23)"
   xmlns:inkscape="http://www.inkscape.org/namespaces/inkscape"
   xmlns:sodipodi="http://sodipodi.sourceforge.net/DTD/sodipodi-0.dtd"
   xmlns="http://www.w3.org/2000/svg"
   xmlns:svg="http://www.w3.org/2000/svg"
   xmlns:rdf="http://www.w3.org/1999/02/22-rdf-syntax-ns#"
   xmlns:cc="http://creativecommons.org/ns#"
   xmlns:dc="http://purl.org/dc/elements/1.1/">
  <defs
     id="defs936" />
  <sodipodi:namedview
     pagecolor="#ffffff"
     bordercolor="#666666"
     borderopacity="1"
     objecttolerance="10"
     gridtolerance="10"
     guidetolerance="10"
     inkscape:pageopacity="0"
     inkscape:pageshadow="2"
     inkscape:window-width="1920"
     inkscape:window-height="1017"
     id="namedview934"
     showgrid="false"
     inkscape:zoom="0.1767767"
     inkscape:cx="1699.8847"
     inkscape:cy="992.77789"
     inkscape:window-x="1672"
     inkscape:window-y="-8"
     inkscape:window-maximized="1"
     inkscape:current-layer="svg932"
     inkscape:document-rotation="0"
     inkscape:pagecheckerboard="0"
     inkscape:document-units="mm" />
  <!--
TypeTray - Type tray - allows only continuous walls

Created with Boxes.py (https://festi.info/boxes.py)
Creation date: 2021-08-20 16:58:03
Command line (remove spaces between dashes): boxes TypeTray - -FingerJoint_angle=90.0 - -FingerJoint_style=rectangular - -FingerJoint_surroundingspaces=0.5 - -FingerJoint_edge_width=1.0 - -FingerJoint_finger=8 - -FingerJoint_play=1 - -FingerJoint_space=8 - -FingerJoint_width=1 - -Stackable_angle=60 - -Stackable_height=2.0 - -Stackable_holedistance=1.0 - -Stackable_width=4.0 - -Hinge_grip_percentage=0 - -Hinge_outset=0 - -Hinge_pinwidth=0.5 - -Hinge_style=outset - -Hinge_axle=2 - -Hinge_grip_length=0 - -Hinge_hingestrength=1 - -CabinetHinge_bore=3.2 - -CabinetHinge_eyes_per_hinge=5 - -CabinetHinge_hinges=2 - -CabinetHinge_style=inside - -CabinetHinge_eye=1.5 - -CabinetHinge_play=0.05 - -CabinetHinge_spacing=2.0 - -Lid_angle=90.0 - -Lid_hole_width=0 - -Lid_second_pin=0 - -Lid_second_pin=1 - -Lid_spring=both - -Lid_style=rectangular - -Lid_surroundingspaces=2.0 - -Lid_edge_width=1.0 - -Lid_finger=3.0 - -Lid_play=0.05 - -Lid_space=2.0 - -Lid_width=1.0 - -Click_angle=5.0 - -Click_bottom_radius=0.1 - -Click_depth=3.0 - -RoundedTriangleEdge_height=150.0 - -RoundedTriangleEdge_r_hole=2.0 - -RoundedTriangleEdge_radius=30.0 - -RoundedTriangleEdge_outset=1 '- -sx=381*1' '- -sy=381*1' - -h=279 - -hi=0.0 - -outside=0 - -outside=1 - -bottom_edge=F - -top_edge=e - -gripheight=30 - -gripwidth=0 - -thickness=6.35 - -format=svg - -tabs=0.0 - -debug=0 - -labels=0 - -labels=1 - -reference=0 - -burn=3.175
Url: http://www.festi.info/TypeTray?FingerJoint_angle=90.0&FingerJoint_style=rectangular&FingerJoint_surroundingspaces=0.5&FingerJoint_edge_width=1.0&FingerJoint_finger=8&FingerJoint_play=1&FingerJoint_space=8&FingerJoint_width=1&Stackable_angle=60&Stackable_height=2.0&Stackable_holedistance=1.0&Stackable_width=4.0&Hinge_grip_percentage=0&Hinge_outset=0&Hinge_pinwidth=0.5&Hinge_style=outset&Hinge_axle=2&Hinge_grip_length=0&Hinge_hingestrength=1&CabinetHinge_bore=3.2&CabinetHinge_eyes_per_hinge=5&CabinetHinge_hinges=2&CabinetHinge_style=inside&CabinetHinge_eye=1.5&CabinetHinge_play=0.05&CabinetHinge_spacing=2.0&Lid_angle=90.0&Lid_hole_width=0&Lid_second_pin=0&Lid_second_pin=1&Lid_spring=both&Lid_style=rectangular&Lid_surroundingspaces=2.0&Lid_edge_width=1.0&Lid_finger=3.0&Lid_play=0.05&Lid_space=2.0&Lid_width=1.0&Click_angle=5.0&Click_bottom_radius=0.1&Click_depth=3.0&RoundedTriangleEdge_height=150.0&RoundedTriangleEdge_r_hole=2.0&RoundedTriangleEdge_radius=30.0&RoundedTriangleEdge_outset=1&sx=381*1&sy=381*1&h=279&hi=0.0&outside=0&outside=1&bottom_edge=F&top_edge=e&gripheight=30&gripwidth=0&thickness=6.35&format=svg&tabs=0.0&debug=0&labels=0&labels=1&reference=0&burn=3.175&render=1
SettingsUrl: http://www.festi.info/TypeTray?FingerJoint_angle=90.0&FingerJoint_style=rectangular&FingerJoint_surroundingspaces=0.5&FingerJoint_edge_width=1.0&FingerJoint_finger=8&FingerJoint_play=1&FingerJoint_space=8&FingerJoint_width=1&Stackable_angle=60&Stackable_height=2.0&Stackable_holedistance=1.0&Stackable_width=4.0&Hinge_grip_percentage=0&Hinge_outset=0&Hinge_pinwidth=0.5&Hinge_style=outset&Hinge_axle=2&Hinge_grip_length=0&Hinge_hingestrength=1&CabinetHinge_bore=3.2&CabinetHinge_eyes_per_hinge=5&CabinetHinge_hinges=2&CabinetHinge_style=inside&CabinetHinge_eye=1.5&CabinetHinge_play=0.05&CabinetHinge_spacing=2.0&Lid_angle=90.0&Lid_hole_width=0&Lid_second_pin=0&Lid_second_pin=1&Lid_spring=both&Lid_style=rectangular&Lid_surroundingspaces=2.0&Lid_edge_width=1.0&Lid_finger=3.0&Lid_play=0.05&Lid_space=2.0&Lid_width=1.0&Click_angle=5.0&Click_bottom_radius=0.1&Click_depth=3.0&RoundedTriangleEdge_height=150.0&RoundedTriangleEdge_r_hole=2.0&RoundedTriangleEdge_radius=30.0&RoundedTriangleEdge_outset=1&sx=381*1&sy=381*1&h=279&hi=0.0&outside=0&outside=1&bottom_edge=F&top_edge=e&gripheight=30&gripwidth=0&thickness=6.35&format=svg&tabs=0.0&debug=0&labels=0&labels=1&reference=0&burn=3.175
-->
  <title
     id="title903">TypeTray</title>
  <metadata
     id="metadata905">
    <rdf:RDF>
      <cc:Work>
        <dc:title>TypeTray</dc:title>
        <dc:date>2021-08-20 16:58:03</dc:date>
        <dc:source>http://www.festi.info/TypeTray?FingerJoint_angle=90.0&amp;FingerJoint_style=rectangular&amp;FingerJoint_surroundingspaces=0.5&amp;FingerJoint_edge_width=1.0&amp;FingerJoint_finger=8&amp;FingerJoint_play=1&amp;FingerJoint_space=8&amp;FingerJoint_width=1&amp;Stackable_angle=60&amp;Stackable_height=2.0&amp;Stackable_holedistance=1.0&amp;Stackable_width=4.0&amp;Hinge_grip_percentage=0&amp;Hinge_outset=0&amp;Hinge_pinwidth=0.5&amp;Hinge_style=outset&amp;Hinge_axle=2&amp;Hinge_grip_length=0&amp;Hinge_hingestrength=1&amp;CabinetHinge_bore=3.2&amp;CabinetHinge_eyes_per_hinge=5&amp;CabinetHinge_hinges=2&amp;CabinetHinge_style=inside&amp;CabinetHinge_eye=1.5&amp;CabinetHinge_play=0.05&amp;CabinetHinge_spacing=2.0&amp;Lid_angle=90.0&amp;Lid_hole_width=0&amp;Lid_second_pin=0&amp;Lid_second_pin=1&amp;Lid_spring=both&amp;Lid_style=rectangular&amp;Lid_surroundingspaces=2.0&amp;Lid_edge_width=1.0&amp;Lid_finger=3.0&amp;Lid_play=0.05&amp;Lid_space=2.0&amp;Lid_width=1.0&amp;Click_angle=5.0&amp;Click_bottom_radius=0.1&amp;Click_depth=3.0&amp;RoundedTriangleEdge_height=150.0&amp;RoundedTriangleEdge_r_hole=2.0&amp;RoundedTriangleEdge_radius=30.0&amp;RoundedTriangleEdge_outset=1&amp;sx=381*1&amp;sy=381*1&amp;h=279&amp;hi=0.0&amp;outside=0&amp;outside=1&amp;bottom_edge=F&amp;top_edge=e&amp;gripheight=30&amp;gripwidth=0&amp;thickness=6.35&amp;format=svg&amp;tabs=0.0&amp;debug=0&amp;labels=0&amp;labels=1&amp;reference=0&amp;burn=3.175&amp;render=1</dc:source>
        <dc:description>Type tray - allows only continuous walls

Created with Boxes.py (https://festi.info/boxes.py)
Command line: boxes TypeTray --FingerJoint_angle=90.0 --FingerJoint_style=rectangular --FingerJoint_surroundingspaces=0.5 --FingerJoint_edge_width=1.0 --FingerJoint_finger=8 --FingerJoint_play=1 --FingerJoint_space=8 --FingerJoint_width=1 --Stackable_angle=60 --Stackable_height=2.0 --Stackable_holedistance=1.0 --Stackable_width=4.0 --Hinge_grip_percentage=0 --Hinge_outset=0 --Hinge_pinwidth=0.5 --Hinge_style=outset --Hinge_axle=2 --Hinge_grip_length=0 --Hinge_hingestrength=1 --CabinetHinge_bore=3.2 --CabinetHinge_eyes_per_hinge=5 --CabinetHinge_hinges=2 --CabinetHinge_style=inside --CabinetHinge_eye=1.5 --CabinetHinge_play=0.05 --CabinetHinge_spacing=2.0 --Lid_angle=90.0 --Lid_hole_width=0 --Lid_second_pin=0 --Lid_second_pin=1 --Lid_spring=both --Lid_style=rectangular --Lid_surroundingspaces=2.0 --Lid_edge_width=1.0 --Lid_finger=3.0 --Lid_play=0.05 --Lid_space=2.0 --Lid_width=1.0 --Click_angle=5.0 --Click_bottom_radius=0.1 --Click_depth=3.0 --RoundedTriangleEdge_height=150.0 --RoundedTriangleEdge_r_hole=2.0 --RoundedTriangleEdge_radius=30.0 --RoundedTriangleEdge_outset=1 '--sx=381*1' '--sy=381*1' --h=279 --hi=0.0 --outside=0 --outside=1 --bottom_edge=F --top_edge=e --gripheight=30 --gripwidth=0 --thickness=6.35 --format=svg --tabs=0.0 --debug=0 --labels=0 --labels=1 --reference=0 --burn=3.175
Url: http://www.festi.info/TypeTray?FingerJoint_angle=90.0&amp;FingerJoint_style=rectangular&amp;FingerJoint_surroundingspaces=0.5&amp;FingerJoint_edge_width=1.0&amp;FingerJoint_finger=8&amp;FingerJoint_play=1&amp;FingerJoint_space=8&amp;FingerJoint_width=1&amp;Stackable_angle=60&amp;Stackable_height=2.0&amp;Stackable_holedistance=1.0&amp;Stackable_width=4.0&amp;Hinge_grip_percentage=0&amp;Hinge_outset=0&amp;Hinge_pinwidth=0.5&amp;Hinge_style=outset&amp;Hinge_axle=2&amp;Hinge_grip_length=0&amp;Hinge_hingestrength=1&amp;CabinetHinge_bore=3.2&amp;CabinetHinge_eyes_per_hinge=5&amp;CabinetHinge_hinges=2&amp;CabinetHinge_style=inside&amp;CabinetHinge_eye=1.5&amp;CabinetHinge_play=0.05&amp;CabinetHinge_spacing=2.0&amp;Lid_angle=90.0&amp;Lid_hole_width=0&amp;Lid_second_pin=0&amp;Lid_second_pin=1&amp;Lid_spring=both&amp;Lid_style=rectangular&amp;Lid_surroundingspaces=2.0&amp;Lid_edge_width=1.0&amp;Lid_finger=3.0&amp;Lid_play=0.05&amp;Lid_space=2.0&amp;Lid_width=1.0&amp;Click_angle=5.0&amp;Click_bottom_radius=0.1&amp;Click_depth=3.0&amp;RoundedTriangleEdge_height=150.0&amp;RoundedTriangleEdge_r_hole=2.0&amp;RoundedTriangleEdge_radius=30.0&amp;RoundedTriangleEdge_outset=1&amp;sx=381*1&amp;sy=381*1&amp;h=279&amp;hi=0.0&amp;outside=0&amp;outside=1&amp;bottom_edge=F&amp;top_edge=e&amp;gripheight=30&amp;gripwidth=0&amp;thickness=6.35&amp;format=svg&amp;tabs=0.0&amp;debug=0&amp;labels=0&amp;labels=1&amp;reference=0&amp;burn=3.175&amp;render=1
SettingsUrl: http://www.festi.info/TypeTray?FingerJoint_angle=90.0&amp;FingerJoint_style=rectangular&amp;FingerJoint_surroundingspaces=0.5&amp;FingerJoint_edge_width=1.0&amp;FingerJoint_finger=8&amp;FingerJoint_play=1&amp;FingerJoint_space=8&amp;FingerJoint_width=1&amp;Stackable_angle=60&amp;Stackable_height=2.0&amp;Stackable_holedistance=1.0&amp;Stackable_width=4.0&amp;Hinge_grip_percentage=0&amp;Hinge_outset=0&amp;Hinge_pinwidth=0.5&amp;Hinge_style=outset&amp;Hinge_axle=2&amp;Hinge_grip_length=0&amp;Hinge_hingestrength=1&amp;CabinetHinge_bore=3.2&amp;CabinetHinge_eyes_per_hinge=5&amp;CabinetHinge_hinges=2&amp;CabinetHinge_style=inside&amp;CabinetHinge_eye=1.5&amp;CabinetHinge_play=0.05&amp;CabinetHinge_spacing=2.0&amp;Lid_angle=90.0&amp;Lid_hole_width=0&amp;Lid_second_pin=0&amp;Lid_second_pin=1&amp;Lid_spring=both&amp;Lid_style=rectangular&amp;Lid_surroundingspaces=2.0&amp;Lid_edge_width=1.0&amp;Lid_finger=3.0&amp;Lid_play=0.05&amp;Lid_space=2.0&amp;Lid_width=1.0&amp;Click_angle=5.0&amp;Click_bottom_radius=0.1&amp;Click_depth=3.0&amp;RoundedTriangleEdge_height=150.0&amp;RoundedTriangleEdge_r_hole=2.0&amp;RoundedTriangleEdge_radius=30.0&amp;RoundedTriangleEdge_outset=1&amp;sx=381*1&amp;sy=381*1&amp;h=279&amp;hi=0.0&amp;outside=0&amp;outside=1&amp;bottom_edge=F&amp;top_edge=e&amp;gripheight=30&amp;gripwidth=0&amp;thickness=6.35&amp;format=svg&amp;tabs=0.0&amp;debug=0&amp;labels=0&amp;labels=1&amp;reference=0&amp;burn=3.175
</dc:description>
        <dc:format>image/svg+xml</dc:format>
        <dc:type
           rdf:resource="http://purl.org/dc/dcmitype/StillImage" />
      </cc:Work>
    </rdf:RDF>
  </metadata>
  <text
     alignment-baseline="hanging"
     font-size="4px"
     style="font-style:normal;font-weight:normal;font-family:sans-serif;fill:#ff0000;stroke-width:0.264583;stroke-linecap:round;stroke-linejoin:round;stroke-miterlimit:4;stroke-dasharray:none"
     text-anchor="middle"
     id="text917-6"
     x="360.32166"
     y="126.46867" />
  <g
     id="p-4-5-8"
     style="fill:none;stroke-width:0.264583;stroke-linecap:round;stroke-linejoin:round;stroke-miterlimit:4;stroke-dasharray:none"
     transform="translate(515.12028,789.95301)">
    <text
       alignment-baseline="hanging"
       font-size="4px"
       style="font-style:normal;font-weight:normal;font-family:sans-serif;fill:#ff0000;stroke-width:0.264583;stroke-miterlimit:4;stroke-dasharray:none"
       text-anchor="middle"
       transform="translate(594.2,544.375)"
       id="text927-6-8" />
  </g>
  <text
     alignment-baseline="hanging"
     font-size="4px"
     style="font-style:normal;font-weight:normal;font-family:sans-serif;fill:#ff0000;stroke-linecap:round;stroke-linejoin:round"
     text-anchor="middle"
     id="text1045"
     x="196.85001"
     y="198.02499" />
  <text
     alignment-baseline="hanging"
     font-size="4px"
     style="font-style:normal;font-weight:normal;font-family:sans-serif;fill:#ff0000;stroke-linecap:round;stroke-linejoin:round"
     text-anchor="middle"
     id="text1045-3"
     x="589.70349"
     y="198.02499" />
  <text
     alignment-baseline="hanging"
     font-size="4px"
     style="font-style:normal;font-weight:normal;font-family:sans-serif;fill:#ff0000;stroke-linecap:round;stroke-linejoin:round"
     text-anchor="middle"
     id="text1045-5"
     x="196.85001"
     y="588.16321" />
  <text
     alignment-baseline="hanging"
     font-size="4px"
     style="font-style:normal;font-weight:normal;font-family:sans-serif;fill:#ff0000;stroke-linecap:round;stroke-linejoin:round"
     text-anchor="middle"
     id="text1045-3-2"
     x="589.70349"
     y="588.16321" />
  <text
     alignment-baseline="hanging"
     font-size="4px"
     style="font-style:normal;font-weight:normal;font-family:sans-serif;fill:#ff0000;stroke-linecap:round;stroke-linejoin:round"
     text-anchor="middle"
     id="text873"
     x="175.68333"
     y="199.08334" />
  <path
     d="m 718.88063,406.53672 h 39.09499 c 1.588,0 0,-1.588 0,0 v 4.496 c 0,0.876 0.711,1.587 1.588,1.587 h 24.333 c 0.877,0 1.588,-0.711 1.588,-1.587 v -4.496 c 0,-1.588 -1.588,0 0,0 h 42.095 c 0.877,0 1.587,-0.711 1.587,-1.588 v -30.828 -30.828 c 0,-0.877 -0.71,-1.588 -1.587,-1.588 H 718.88063 c -0.877,0 -1.50206,0.71512 -1.587,1.588 v 30.828 30.828 c 0,0.877 0.71,1.588 1.587,1.588 z"
     stroke="#000000"
     stroke-width="3.17"
     id="path18631"
     style="fill:none;stroke-linecap:round;stroke-linejoin:round"
     sodipodi:nodetypes="ssssssssssscsssscss" />
  <path
     d="m 605.60471,407.06559 h 39.09499 c 1.588,0 0,-1.588 0,0 v 4.496 c 0,0.876 0.711,1.587 1.588,1.587 h 24.333 c 0.877,0 1.588,-0.711 1.588,-1.587 v -4.496 c 0,-1.588 -1.588,0 0,0 h 42.095 c 0.877,0 1.587,-0.711 1.587,-1.588 v -30.828 -30.828 c 0,-0.877 -0.71,-1.588 -1.587,-1.588 H 605.60471 c -0.877,0 -1.50206,0.71512 -1.587,1.588 v 30.828 30.828 c 0,0.877 0.71,1.588 1.587,1.588 z"
     stroke="#000000"
     stroke-width="3.17"
     id="path18631-7"
     style="fill:none;stroke-linecap:round;stroke-linejoin:round"
     sodipodi:nodetypes="ssssssssssscsssscss" />
  <path
     d="m 492.46076,406.65499 h 39.09499 c 1.588,0 0,-1.588 0,0 v 4.496 c 0,0.876 0.711,1.587 1.588,1.587 h 24.333 c 0.877,0 1.588,-0.711 1.588,-1.587 v -4.496 c 0,-1.588 -1.588,0 0,0 h 42.095 c 0.877,0 1.587,-0.711 1.587,-1.588 v -30.828 -30.828 c 0,-0.877 -0.71,-1.588 -1.587,-1.588 H 492.46076 c -0.877,0 -1.50206,0.71512 -1.587,1.588 v 30.828 30.828 c 0,0.877 0.71,1.588 1.587,1.588 z"
     stroke="#000000"
     stroke-width="3.17"
     id="path18631-5"
     style="fill:none;stroke-linecap:round;stroke-linejoin:round"
     sodipodi:nodetypes="ssssssssssscsssscss" />
  <path
     d="m 379.18484,407.18386 h 39.09499 c 1.588,0 0,-1.588 0,0 v 4.496 c 0,0.876 0.711,1.587 1.588,1.587 h 24.333 c 0.877,0 1.588,-0.711 1.588,-1.587 v -4.496 c 0,-1.588 -1.588,0 0,0 h 42.095 c 0.877,0 1.587,-0.711 1.587,-1.588 v -30.828 -30.828 c 0,-0.877 -0.71,-1.588 -1.587,-1.588 H 379.18484 c -0.877,0 -1.50206,0.71512 -1.587,1.588 v 30.828 30.828 c 0,0.877 0.71,1.588 1.587,1.588 z"
     stroke="#000000"
     stroke-width="3.17"
     id="path18631-7-3"
     style="fill:none;stroke-linecap:round;stroke-linejoin:round"
     sodipodi:nodetypes="ssssssssssscsssscss" />
  <path
     d="m 704.22132,551.13173 h 39.09499 c 1.588,0 0,-1.588 0,0 v 4.496 c 0,0.876 0.711,1.587 1.588,1.587 h 24.333 c 0.877,0 1.588,-0.711 1.588,-1.587 v -4.496 c 0,-1.588 -1.588,0 0,0 h 42.095 c 0.877,0 1.587,-0.711 1.587,-1.588 v -30.828 -30.828 c 0,-0.877 -0.71,-1.588 -1.587,-1.588 H 704.22132 c -0.877,0 -1.50206,0.71512 -1.587,1.588 v 30.828 30.828 c 0,0.877 0.71,1.588 1.587,1.588 z"
     stroke="#000000"
     stroke-width="3.17"
     id="path18631-1"
     style="fill:none;stroke-linecap:round;stroke-linejoin:round"
     sodipodi:nodetypes="ssssssssssscsssscss" />
  <path
     d="m 590.9454,551.6606 h 39.09499 c 1.588,0 0,-1.588 0,0 v 4.496 c 0,0.876 0.711,1.587 1.588,1.587 h 24.333 c 0.877,0 1.588,-0.711 1.588,-1.587 v -4.496 c 0,-1.588 -1.588,0 0,0 h 42.095 c 0.877,0 1.587,-0.711 1.587,-1.588 v -30.828 -30.828 c 0,-0.877 -0.71,-1.588 -1.587,-1.588 H 590.9454 c -0.877,0 -1.50206,0.71512 -1.587,1.588 v 30.828 30.828 c 0,0.877 0.71,1.588 1.587,1.588 z"
     stroke="#000000"
     stroke-width="3.17"
     id="path18631-7-8"
     style="fill:none;stroke-linecap:round;stroke-linejoin:round"
     sodipodi:nodetypes="ssssssssssscsssscss" />
  <path
     d="m 477.80145,551.25 h 39.09499 c 1.588,0 0,-1.588 0,0 v 4.496 c 0,0.876 0.711,1.587 1.588,1.587 h 24.333 c 0.877,0 1.588,-0.711 1.588,-1.587 v -4.496 c 0,-1.588 -1.588,0 0,0 h 42.095 c 0.877,0 1.587,-0.711 1.587,-1.588 v -30.828 -30.828 c 0,-0.877 -0.71,-1.588 -1.587,-1.588 H 477.80145 c -0.877,0 -1.50206,0.71512 -1.587,1.588 v 30.828 30.828 c 0,0.877 0.71,1.588 1.587,1.588 z"
     stroke="#000000"
     stroke-width="3.17"
     id="path18631-5-7"
     style="fill:none;stroke-linecap:round;stroke-linejoin:round"
     sodipodi:nodetypes="ssssssssssscsssscss" />
  <path
     d="m 364.52553,551.77887 h 39.09499 c 1.588,0 0,-1.588 0,0 v 4.496 c 0,0.876 0.711,1.587 1.588,1.587 h 24.333 c 0.877,0 1.588,-0.711 1.588,-1.587 v -4.496 c 0,-1.588 -1.588,0 0,0 h 42.095 c 0.877,0 1.587,-0.711 1.587,-1.588 v -30.828 -30.828 c 0,-0.877 -0.71,-1.588 -1.587,-1.588 H 364.52553 c -0.877,0 -1.50206,0.71512 -1.587,1.588 v 30.828 30.828 c 0,0.877 0.71,1.588 1.587,1.588 z"
     stroke="#000000"
     stroke-width="3.17"
     id="path18631-7-3-1"
     style="fill:none;stroke-linecap:round;stroke-linejoin:round"
     sodipodi:nodetypes="ssssssssssscsssscss" />
  <path
     d="m 30.894222,406.34963 h 39.09552 c 1.587,0 0,-1.588 0,0 v 4.496 c 0,0.876 0.71,1.587 1.587,1.587 h 24.333003 c 0.877,0 1.588,-0.711 1.588,-1.587 v -4.496 c 0,-1.588 -1.588,0 0,0 h 42.094995 6.083 42.096 c 1.587,0 0,-1.588 0,0 v 4.496 c 0,0.876 0.711,1.587 1.587,1.587 h 24.333 c 0.877,0 1.588,-0.711 1.588,-1.587 v -4.496 c 0,-1.588 -1.588,0 0,0 h 42.095 6.084 42.095 c 1.588,0 0,-1.588 0,0 v 4.496 c 0,0.876 0.711,1.587 1.588,1.587 h 24.333 c 0.876,0 1.587,-0.711 1.587,-1.587 v -4.496 c 0,-1.588 -1.587,0 0,0 h 39.09617 c 0.876,0 1.50206,-0.71512 1.587,-1.588 v -30.82799 -30.82799 c 0,-0.87701 -0.711,-1.58801 -1.587,-1.58801 H 30.894222 c -0.877,0 -1.587,0.711 -1.587,1.58801 v 30.82799 30.82799 c 0,0.877 0.71,1.588 1.587,1.588 z"
     stroke="#000000"
     stroke-width="3.17"
     id="path18634"
     style="fill:none;stroke-linecap:round;stroke-linejoin:round"
     sodipodi:nodetypes="sssssssssccssssssssccsssssssssscsssscss" />
  <path
     d="m 42.322207,478.72806 h 26.19 c 1.588,0 0,-1.587 0,0 v 4.496 c 0,0.877 0.711,1.587 1.588,1.587 h 24.333 c 0.877,0 1.587,-0.71 1.587,-1.587 v -4.496 c 0,-1.587 -1.587,0 0,0 h 26.190993 6.083 26.19001 c 1.588,0 0,-1.587 0,0 v 4.496 c 0,0.877 0.711,1.587 1.588,1.587 h 24.333 c 0.877,0 1.588,-0.71 1.588,-1.587 v -4.496 c 0,-1.587 -1.588,0 0,0 h 26.19 6.083 26.191 c 1.587,0 0,-1.587 0,0 v 4.496 c 0,0.877 0.71,1.587 1.587,1.587 h 24.333 c 0.877,0 1.588,-0.71 1.588,-1.587 v -4.496 c 0,-1.587 -1.588,0 0,0 h 26.19 6.083 c 0.877,0 1.588,-0.711 1.588,-1.587 v -30.829 -30.828 c 0,-0.877 -0.711,-1.588 -1.588,-1.588 h -6.083 -79.889 -6.083 -79.88901 -6.083 -79.888993 -6.082999 c -0.877,0 -1.588,0.711 -1.588,1.588 v 30.828 30.829 c 0,0.876 0.711,1.587 1.588,1.587 z"
     stroke="#000000"
     stroke-width="3.17"
     id="path18637"
     style="fill:none;stroke-linecap:round;stroke-linejoin:round" />
  <path
     d="m 303.54237,479.25723 h 26.191 c 1.587,0 0,-1.587 0,0 v 4.496 c 0,0.877 0.711,1.587 1.587,1.587 h 24.334 c 0.876,0 1.587,-0.71 1.587,-1.587 v -4.496 c 0,-1.587 -1.587,0 0,0 h 26.19 6.084 26.19 c 1.588,0 0,-1.587 0,0 v 4.496 c 0,0.877 0.711,1.587 1.588,1.587 h 24.333 c 0.877,0 1.587,-0.71 1.587,-1.587 v -4.496 c 0,-1.587 -1.587,0 0,0 h 26.191 6.083 26.19 c 1.588,0 0,-1.587 0,0 v 4.496 c 0,0.877 0.711,1.587 1.588,1.587 h 24.333 c 0.877,0 1.587,-0.71 1.587,-1.587 v -4.496 c 0,-1.587 -1.587,0 0,0 h 26.191 c 0.877,0 1.587,-0.711 1.587,-1.587 v -30.829 -30.828 c 0,-0.877 -0.71,-1.588 -1.587,-1.588 h -79.889 -6.083 -79.889 -6.084 -79.889 c -0.876,0 -1.587,0.711 -1.587,1.588 v 30.828 30.829 c 0,0.876 0.711,1.587 1.587,1.587 z"
     stroke="#000000"
     stroke-width="3.17"
     id="path18640"
     style="fill:none;stroke-linecap:round;stroke-linejoin:round" />
  <path
     d="m 560.00104,478.72806 h 26.19 c 1.588,0 0,-1.587 0,0 v 4.496 c 0,0.877 0.711,1.587 1.588,1.587 h 24.333 c 0.877,0 1.588,-0.71 1.588,-1.587 v -4.496 c 0,-1.587 -1.588,0 0,0 h 26.19 6.083 26.191 c 1.587,0 0,-1.587 0,0 v 4.496 c 0,0.877 0.71,1.587 1.587,1.587 h 24.333 c 0.877,0 1.588,-0.71 1.588,-1.587 v -4.496 c 0,-1.587 -1.588,0 0,0 h 26.19 6.084 26.19 c 1.587,0 0,-1.587 0,0 v 4.496 c 0,0.877 0.711,1.587 1.587,1.587 h 24.334 c 0.876,0 1.587,-0.71 1.587,-1.587 v -4.496 c 0,-1.587 -1.587,0 0,0 h 26.191 c 0.876,0 1.587,-0.711 1.587,-1.587 v -30.829 -30.828 c 0,-0.877 -0.711,-1.588 -1.587,-1.588 h -79.889 -6.084 -79.889 -6.083 -79.889 c -0.877,0 -1.587,0.711 -1.587,1.588 v 30.828 30.829 c 0,0.876 0.71,1.587 1.587,1.587 z"
     stroke="#000000"
     stroke-width="3.17"
     id="path18643"
     style="fill:none;stroke-linecap:round;stroke-linejoin:round" />
  <path
     d="m 10.004355,334.94562 h 26.19 c 1.588,0 0,-1.587 0,0 v 4.496 c 0,0.877 0.711,1.587 1.588,1.587 h 24.333 c 0.877,0 1.587,-0.71 1.587,-1.587 v -4.496 c 0,-1.587 -1.587,0 0,0 h 26.190995 6.083 26.19 c 1.588,0 0,-1.587 0,0 v 4.496 c 0,0.877 0.711,1.587 1.588,1.587 h 24.333 c 0.877,0 1.588,-0.71 1.588,-1.587 v -4.496 c 0,-1.587 -1.588,0 0,0 h 26.19 6.083 26.191 c 1.587,0 0,-1.587 0,0 v 4.496 c 0,0.877 0.71,1.587 1.587,1.587 h 24.333 c 0.877,0 1.588,-0.71 1.588,-1.587 v -4.496 c 0,-1.587 -1.588,0 0,0 h 26.19 6.083 c 0.877,0 1.588,-0.711 1.588,-1.587 v -30.82899 -30.828 c 0,-0.877 -0.711,-1.588 -1.588,-1.588 h -6.083 -79.889 -6.083 -79.889 -6.083 -79.888995 -6.0840003 c -0.876,0 -1.587,0.711 -1.587,1.588 v 30.828 30.82899 c 0,0.876 0.711,1.587 1.587,1.587 z"
     stroke="#000000"
     stroke-width="3.17"
     id="path18646"
     style="fill:none;stroke-linecap:round;stroke-linejoin:round" />
  <path
     d="M 100.04019,179.613 H 89.460186 c -1.587,0 0,1.587 0,0 v -2.909 c 0,-1.587 -1.587,0 0,0 h 21.159004 c 1.587,0 0,-1.587 0,0 v 2.909 c 0,1.587 1.587,0 0,0 z"
     stroke="#0000ff"
     stroke-width="3.17"
     id="path18651"
     style="fill:none;stroke-linecap:round;stroke-linejoin:round" />
  <path
     d="m 335.60419,179.613 h -10.579 c -1.588,0 0,1.587 0,0 v -2.909 c 0,-1.587 -1.588,0 0,0 h 21.158 c 1.588,0 0,-1.587 0,0 v 2.909 c 0,1.587 1.588,0 0,0 z"
     stroke="#0000ff"
     stroke-width="3.17"
     id="path18653"
     style="fill:none;stroke-linecap:round;stroke-linejoin:round" />
  <path
     d="M 100.04019,93.641 H 89.460186 c -1.587,0 0,1.587 0,0 v -2.909 c 0,-1.587 -1.587,0 0,0 h 21.159004 c 1.587,0 0,-1.587 0,0 v 2.909 c 0,1.587 1.587,0 0,0 z"
     stroke="#0000ff"
     stroke-width="3.17"
     id="path18655"
     style="fill:none;stroke-linecap:round;stroke-linejoin:round" />
  <path
     d="m 335.60419,93.641 h -10.579 c -1.588,0 0,1.587 0,0 v -2.909 c 0,-1.587 -1.588,0 0,0 h 21.158 c 1.588,0 0,-1.587 0,0 v 2.909 c 0,1.587 1.588,0 0,0 z"
     stroke="#0000ff"
     stroke-width="3.17"
     id="path18657"
     style="fill:none;stroke-linecap:round;stroke-linejoin:round" />
  <path
     d="m 160.38519,221.145 v 10.579 c 0,1.587 1.587,0 0,0 h -2.908 c -1.588,0 0,1.587 0,0 v -21.158 c 0,-1.588 -1.588,0 0,0 h 2.908 c 1.587,0 0,-1.588 0,0 z"
     stroke="#0000ff"
     stroke-width="3.17"
     id="path18661"
     style="fill:none;stroke-linecap:round;stroke-linejoin:round" />
  <path
     d="m 160.38519,135.172 v 10.58 c 0,1.587 1.587,0 0,0 h -2.908 c -1.588,0 0,1.587 0,0 v -21.159 c 0,-1.587 -1.588,0 0,0 h 2.908 c 1.587,0 0,-1.587 0,0 v 10.58 z"
     stroke="#0000ff"
     stroke-width="3.17"
     id="path18663"
     style="fill:none;stroke-linecap:round;stroke-linejoin:round" />
  <path
     d="m 160.38519,49.2 v 10.579 c 0,1.588 1.587,0 0,0 h -2.908 c -1.588,0 0,1.588 0,0 V 38.621 c 0,-1.587 -1.588,0 0,0 h 2.908 c 1.587,0 0,-1.587 0,0 z"
     stroke="#0000ff"
     stroke-width="3.17"
     id="path18665"
     style="fill:none;stroke-linecap:round;stroke-linejoin:round" />
  <path
     d="m 278.16719,221.145 v 10.579 c 0,1.587 1.588,0 0,0 h -2.908 c -1.588,0 0,1.587 0,0 v -21.158 c 0,-1.588 -1.588,0 0,0 h 2.908 c 1.588,0 0,-1.588 0,0 z"
     stroke="#0000ff"
     stroke-width="3.17"
     id="path18667"
     style="fill:none;stroke-linecap:round;stroke-linejoin:round" />
  <path
     d="m 278.16719,135.172 v 10.58 c 0,1.587 1.588,0 0,0 h -2.908 c -1.588,0 0,1.587 0,0 v -21.159 c 0,-1.587 -1.588,0 0,0 h 2.908 c 1.588,0 0,-1.587 0,0 v 10.58 z"
     stroke="#0000ff"
     stroke-width="3.17"
     id="path18669"
     style="fill:none;stroke-linecap:round;stroke-linejoin:round" />
  <path
     d="m 278.16719,49.2 v 10.579 c 0,1.588 1.588,0 0,0 h -2.908 c -1.588,0 0,1.588 0,0 V 38.621 c 0,-1.587 -1.588,0 0,0 h 2.908 c 1.588,0 0,-1.587 0,0 z"
     stroke="#0000ff"
     stroke-width="3.17"
     id="path18671"
     style="fill:none;stroke-linecap:round;stroke-linejoin:round" />
  <path
     d="M 783.82076,8.9914167 V 35.181417 c 0,1.588 1.587,0 0,0 h -4.496 c -0.877,0 -1.587,0.711 -1.587,1.588 v 24.333 c 0,0.877 0.71,1.587 1.587,1.587 h 4.496 c 1.587,0 0,-1.587 0,0 v 26.191 6.083 26.190003 c 0,1.588 1.587,0 0,0 h -4.496 c -0.877,0 -1.587,0.711 -1.587,1.588 v 24.333 c 0,0.877 0.71,1.588 1.587,1.588 h 4.496 c 1.587,0 0,-1.588 0,0 v 26.19 6.083 26.191 c 0,1.587 1.587,0 0,0 h -4.496 c -0.877,0 -1.587,0.71 -1.587,1.587 v 24.333 c 0,0.877 0.71,1.588 1.587,1.588 h 4.496 c 1.587,0 0,-1.588 0,0 v 26.19 6.083 c 0,0.877 0.711,1.588 1.587,1.588 h 30.829 30.828 c 0.877,0 1.588,-0.711 1.588,-1.588 v -6.083 -79.889 -6.083 -79.889003 -6.083 -79.8890003 -6.083 c 0,-0.877 -0.711,-1.588 -1.588,-1.588 h -30.828 -30.829 c -0.876,0 -1.587,0.711 -1.587,1.588 z"
     stroke="#000000"
     stroke-width="3.17"
     id="path18637-3"
     style="fill:none;stroke-linecap:round;stroke-linejoin:round" />
  <path
     d="m 617.58195,336.07972 h 26.191 c 1.587,0 0,-1.587 0,0 v 4.496 c 0,0.877 0.711,1.587 1.587,1.587 h 24.334 c 0.876,0 1.587,-0.71 1.587,-1.587 v -4.496 c 0,-1.587 -1.587,0 0,0 h 26.19 6.084 26.19 c 1.588,0 0,-1.587 0,0 v 4.496 c 0,0.877 0.711,1.587 1.588,1.587 h 24.333 c 0.877,0 1.587,-0.71 1.587,-1.587 v -4.496 c 0,-1.587 -1.587,0 0,0 h 26.191 6.083 26.19 c 1.588,0 0,-1.587 0,0 v 4.496 c 0,0.877 0.711,1.587 1.588,1.587 h 24.333 c 0.877,0 1.587,-0.71 1.587,-1.587 v -4.496 c 0,-1.587 -1.587,0 0,0 h 26.191 c 0.877,0 1.587,-0.711 1.587,-1.587 v -30.82899 -30.828 c 0,-0.877 -0.71,-1.588 -1.587,-1.588 h -79.889 -6.083 -79.889 -6.084 -79.889 c -0.876,0 -1.587,0.711 -1.587,1.588 v 30.828 30.82899 c 0,0.876 0.711,1.587 1.587,1.587 z"
     stroke="#000000"
     stroke-width="3.17"
     id="path18640-9"
     style="fill:none;stroke-linecap:round;stroke-linejoin:round" />
  <path
     d="m 623.23107,624.53929 h 26.19 c 1.588,0 0,-1.587 0,0 v 4.496 c 0,0.877 0.711,1.587 1.588,1.587 h 24.333 c 0.877,0 1.588,-0.71 1.588,-1.587 v -4.496 c 0,-1.587 -1.588,0 0,0 h 26.19 6.083 26.191 c 1.587,0 0,-1.587 0,0 v 4.496 c 0,0.877 0.71,1.587 1.587,1.587 h 24.333 c 0.877,0 1.588,-0.71 1.588,-1.587 v -4.496 c 0,-1.587 -1.588,0 0,0 h 26.19 6.084 26.19 c 1.587,0 0,-1.587 0,0 v 4.496 c 0,0.877 0.711,1.587 1.587,1.587 h 24.334 c 0.876,0 1.587,-0.71 1.587,-1.587 v -4.496 c 0,-1.587 -1.587,0 0,0 h 26.191 c 0.876,0 1.587,-0.711 1.587,-1.587 v -30.829 -30.828 c 0,-0.877 -0.711,-1.588 -1.587,-1.588 h -79.889 -6.084 -79.889 -6.083 -79.889 c -0.877,0 -1.587,0.711 -1.587,1.588 v 30.828 30.829 c 0,0.876 0.71,1.587 1.587,1.587 z"
     stroke="#000000"
     stroke-width="3.17"
     id="path18643-1"
     style="fill:none;stroke-linecap:round;stroke-linejoin:round" />
  <path
     d="m 10.004355,624.01012 h 26.19 c 1.588,0 0,-1.587 0,0 v 4.496 c 0,0.877 0.711,1.587 1.588,1.587 h 24.333 c 0.877,0 1.587,-0.71 1.587,-1.587 v -4.496 c 0,-1.587 -1.587,0 0,0 h 26.191 6.083 26.189995 c 1.588,0 0,-1.587 0,0 v 4.496 c 0,0.877 0.711,1.587 1.588,1.587 h 24.333 c 0.877,0 1.588,-0.71 1.588,-1.587 v -4.496 c 0,-1.587 -1.588,0 0,0 h 26.19 6.083 26.191 c 1.587,0 0,-1.587 0,0 v 4.496 c 0,0.877 0.71,1.587 1.587,1.587 h 24.333 c 0.877,0 1.588,-0.71 1.588,-1.587 v -4.496 c 0,-1.587 -1.588,0 0,0 h 26.19 6.083 c 0.877,0 1.588,-0.711 1.588,-1.587 v -30.829 -30.828 c 0,-0.877 -0.711,-1.588 -1.588,-1.588 h -6.083 -79.889 -6.083 -79.888995 -6.083 -79.889 -6.0840003 c -0.876,0 -1.587,0.711 -1.587,1.588 v 30.828 30.829 c 0,0.876 0.711,1.587 1.587,1.587 z"
     stroke="#000000"
     stroke-width="3.17"
     id="path18646-3"
     style="fill:none;stroke-linecap:round;stroke-linejoin:round" />
  <path
     style="fill:none;stroke:#000000;stroke-width:0.265;stroke-linecap:butt;stroke-linejoin:miter;stroke-miterlimit:4;stroke-dasharray:none;stroke-opacity:1"
     d="M 31.519186,1.585 V 38.430729 H 46.362102 L 45.76679,38.364579 V 60.52343 l 0.09598,-0.675619 -14.390688,-0.04961 -0.01654,64.754399 h 15.105 l -0.897082,0.24037 v 21.85234 l 0.02182,-0.73895 h -14.36203 v 64.51488 l 14.882487,0.0702 -0.438946,-0.0234 0.02339,22.16218 0.02339,-0.88661 -14.291875,0.0234 V 268.949 h 57.877601 v -6.94531 l 0.0041,0.64792 21.443475,-0.10541 v 0 c -0.22869,-0.3331 -0.0935,4.11286 -0.0935,6.18098 l 96.44036,-0.0468 v -6.30324 l 0.17516,0.34055 21.00036,-0.0994 c 0.84464,-0.99512 0.30951,0.15006 0,0 l 0.0165,6.19837 h 96.55887 l -0.0331,-6.26732 0.25691,0.28966 h 21.53814 l -0.48812,-0.53507 0.0702,6.45462 57.56796,-0.14032 v -36.77709 h -14.64137 0.79375 v -21.76198 l 0.11578,0.63458 13.67372,-0.11693 -0.14032,-64.48067 h -13.84761 l -0.0331,-21.76198 14.01298,-0.0992 V 59.924797 l -13.99928,0.07016 -0.0468,-21.49808 H 404.1211 V 1.5213541 H 346.17742 V 7.9374996 H 324.61387 V 1.6536458 h -95.94453 l -0.0331,6.2838538 -21.66277,-0.066146 0.19844,-6.1184893 -96.25187,0.025048 -0.0234,6.159587 H 89.134703 V 1.7859374 Z"
     id="path27680"
     sodipodi:nodetypes="ccccccccccccccccccccccccccccccccccccccccccccccccccccccccccccccccccc" />
  <path
     d="m 472.6421,179.54935 h -10.58 c -1.587,0 0,1.587 0,0 v -2.909 c 0,-1.587 -1.587,0 0,0 h 21.159 c 1.587,0 0,-1.587 0,0 v 2.909 c 0,1.587 1.587,0 0,0 z"
     stroke="#0000ff"
     stroke-width="3.17"
     id="path18651-0"
     style="fill:none;stroke-linecap:round;stroke-linejoin:round" />
  <path
     d="m 708.2061,179.54935 h -10.579 c -1.588,0 0,1.587 0,0 v -2.909 c 0,-1.587 -1.588,0 0,0 h 21.158 c 1.588,0 0,-1.587 0,0 v 2.909 c 0,1.587 1.588,0 0,0 z"
     stroke="#0000ff"
     stroke-width="3.17"
     id="path18653-9"
     style="fill:none;stroke-linecap:round;stroke-linejoin:round" />
  <path
     d="m 472.6421,93.577349 h -10.58 c -1.587,0 0,1.587 0,0 v -2.90899 c 0,-1.58701 -1.587,0 0,0 h 21.159 c 1.587,0 0,-1.58701 0,0 v 2.90899 c 0,1.587 1.587,0 0,0 z"
     stroke="#0000ff"
     stroke-width="3.17"
     id="path18655-6"
     style="fill:none;stroke-linecap:round;stroke-linejoin:round" />
  <path
     d="m 708.2061,93.577349 h -10.579 c -1.588,0 0,1.587 0,0 v -2.90899 c 0,-1.58701 -1.588,0 0,0 h 21.158 c 1.588,0 0,-1.58701 0,0 v 2.90899 c 0,1.587 1.588,0 0,0 z"
     stroke="#0000ff"
     stroke-width="3.17"
     id="path18657-4"
     style="fill:none;stroke-linecap:round;stroke-linejoin:round" />
  <path
     d="m 532.9871,221.08136 v 10.579 c 0,1.587 1.587,0 0,0 h -2.908 c -1.588,0 0,1.587 0,0 v -21.158 c 0,-1.588 -1.588,0 0,0 h 2.908 c 1.587,0 0,-1.588 0,0 z"
     stroke="#0000ff"
     stroke-width="3.17"
     id="path18661-3"
     style="fill:none;stroke-linecap:round;stroke-linejoin:round" />
  <path
     d="m 532.9871,135.10835 v 10.58 c 0,1.587 1.587,0 0,0 h -2.908 c -1.588,0 0,1.587 0,0 v -21.159 c 0,-1.58699 -1.588,0 0,0 h 2.908 c 1.587,0 0,-1.58699 0,0 v 10.58001 z"
     stroke="#0000ff"
     stroke-width="3.17"
     id="path18663-6"
     style="fill:none;stroke-linecap:round;stroke-linejoin:round" />
  <path
     d="m 532.9871,49.136359 v 10.579 c 0,1.588 1.587,0 0,0 h -2.908 c -1.588,0 0,1.588 0,0 V 38.557354 c 0,-1.587 -1.588,0 0,0 h 2.908 c 1.587,0 0,-1.587 0,0 z"
     stroke="#0000ff"
     stroke-width="3.17"
     id="path18665-2"
     style="fill:none;stroke-linecap:round;stroke-linejoin:round" />
  <path
     d="m 650.7691,221.08136 v 10.579 c 0,1.587 1.588,0 0,0 h -2.908 c -1.588,0 0,1.587 0,0 v -21.158 c 0,-1.588 -1.588,0 0,0 h 2.908 c 1.588,0 0,-1.588 0,0 z"
     stroke="#0000ff"
     stroke-width="3.17"
     id="path18667-1"
     style="fill:none;stroke-linecap:round;stroke-linejoin:round" />
  <path
     d="m 650.7691,135.10835 v 10.58 c 0,1.587 1.588,0 0,0 h -2.908 c -1.588,0 0,1.587 0,0 v -21.159 c 0,-1.58699 -1.588,0 0,0 h 2.908 c 1.588,0 0,-1.58699 0,0 v 10.58001 z"
     stroke="#0000ff"
     stroke-width="3.17"
     id="path18669-3"
     style="fill:none;stroke-linecap:round;stroke-linejoin:round" />
  <path
     d="m 650.7691,49.136359 v 10.579 c 0,1.588 1.588,0 0,0 h -2.908 c -1.588,0 0,1.588 0,0 V 38.557354 c 0,-1.587 -1.588,0 0,0 h 2.908 c 1.588,0 0,-1.587 0,0 z"
     stroke="#0000ff"
     stroke-width="3.17"
     id="path18671-1"
     style="fill:none;stroke-linecap:round;stroke-linejoin:round" />
  <path
     style="fill:none;stroke:#000000;stroke-width:0.265;stroke-linecap:butt;stroke-linejoin:miter;stroke-miterlimit:4;stroke-dasharray:none;stroke-opacity:1"
     d="M 404.1211,1.5213541 V 38.367083 h 14.84291 l -0.59531,-0.06615 v 22.158856 l 0.096,-0.67562 -14.39069,-0.0496 -0.0165,64.754401 h 15.105 l -0.89708,0.24036 v 21.85235 l 0.0218,-0.73895 H 403.9252 v 64.51488 l 14.88249,0.0702 -0.43895,-0.0234 0.0234,22.16218 0.0234,-0.88661 -14.29187,0.0234 v 37.18198 h 57.8776 v -6.94531 l 0.004,0.64792 21.44347,-0.10541 v 0 c -0.22869,-0.3331 -0.0935,4.11286 -0.0935,6.18098 l 96.44036,-0.0468 v -6.30324 l 0.17516,0.34055 21.00036,-0.0994 c 0.84464,-0.99512 0.30951,0.15006 0,0 l 0.0165,6.19837 h 96.55887 l -0.0331,-6.26732 0.25691,0.28966 h 21.53814 l -0.48812,-0.53507 0.0702,6.45462 57.56796,-0.14032 V 231.7775 h -14.64137 0.79375 v -21.76198 l 0.11578,0.63459 13.67372,-0.11694 -0.14032,-64.48066 h -13.84761 l -0.0331,-21.76198 14.01298,-0.0992 V 59.861159 l -13.99928,0.0702 -0.0468,-21.498078 h 14.37674 V 1.4577081 h -57.94364 v 6.416146 h -21.56355 v -6.283854 h -95.94453 l -0.0331,6.283854 -21.66277,-0.06615 0.19844,-6.11849 -96.25187,0.02505 -0.0234,6.159587 h -21.76194 v -6.151562 z"
     id="path27680-4"
     sodipodi:nodetypes="ccccccccccccccccccccccccccccccccccccccccccccccccccccccccccccccccccc" />
  <path
     d="m 271.30269,335.44146 h 39.09552 c 1.587,0 0,-1.588 0,0 v 4.496 c 0,0.876 0.71,1.587 1.587,1.587 h 24.333 c 0.877,0 1.588,-0.711 1.588,-1.587 v -4.496 c 0,-1.588 -1.588,0 0,0 h 42.095 6.083 42.096 c 1.587,0 0,-1.588 0,0 v 4.496 c 0,0.876 0.711,1.587 1.587,1.587 h 24.333 c 0.877,0 1.588,-0.711 1.588,-1.587 v -4.496 c 0,-1.588 -1.588,0 0,0 h 42.095 6.084 42.095 c 1.588,0 0,-1.588 0,0 v 4.496 c 0,0.876 0.711,1.587 1.588,1.587 h 24.333 c 0.876,0 1.587,-0.711 1.587,-1.587 v -4.496 c 0,-1.588 -1.587,0 0,0 h 39.09617 c 0.876,0 1.50206,-0.71512 1.587,-1.588 v -30.82799 -30.82799 c 0,-0.87701 -0.711,-1.58801 -1.587,-1.58801 H 271.30269 c -0.877,0 -1.587,0.711 -1.587,1.58801 v 30.82799 30.82799 c 0,0.877 0.71,1.588 1.587,1.588 z"
     stroke="#000000"
     stroke-width="3.17"
     id="path18634-2"
     style="fill:none;stroke-linecap:round;stroke-linejoin:round"
     sodipodi:nodetypes="sssssssssccssssssssccsssssssssscsssscss" />
  <path
     d="m 21.674842,553.36687 h 39.09552 c 1.587,0 0,-1.588 0,0 v 4.496 c 0,0.876 0.71,1.587 1.587,1.587 h 24.333 c 0.877,0 1.588,-0.711 1.588,-1.587 v -4.496 c 0,-1.588 -1.588,0 0,0 h 42.094998 6.083 42.096 c 1.587,0 0,-1.588 0,0 v 4.496 c 0,0.876 0.711,1.587 1.587,1.587 h 24.333 c 0.877,0 1.588,-0.711 1.588,-1.587 v -4.496 c 0,-1.588 -1.588,0 0,0 h 42.095 6.084 42.095 c 1.588,0 0,-1.588 0,0 v 4.496 c 0,0.876 0.711,1.587 1.588,1.587 h 24.333 c 0.876,0 1.587,-0.711 1.587,-1.587 v -4.496 c 0,-1.588 -1.587,0 0,0 h 39.09617 c 0.876,0 1.50206,-0.71512 1.587,-1.588 v -30.82799 -30.82799 c 0,-0.87701 -0.711,-1.58801 -1.587,-1.58801 H 21.674842 c -0.877,0 -1.587,0.711 -1.587,1.58801 v 30.82799 30.82799 c 0,0.877 0.71,1.588 1.587,1.588 z"
     stroke="#000000"
     stroke-width="3.17"
     id="path18634-2-9"
     style="fill:none;stroke-linecap:round;stroke-linejoin:round"
     sodipodi:nodetypes="sssssssssccssssssssccsssssssssscsssscss" />
  <path
     d="m 273.55816,627.4502 h 39.09552 c 1.587,0 0,-1.588 0,0 v 4.496 c 0,0.876 0.71,1.587 1.587,1.587 h 24.333 c 0.877,0 1.588,-0.711 1.588,-1.587 v -4.496 c 0,-1.588 -1.588,0 0,0 h 42.095 6.083 42.096 c 1.587,0 0,-1.588 0,0 v 4.496 c 0,0.876 0.711,1.587 1.587,1.587 h 24.333 c 0.877,0 1.588,-0.711 1.588,-1.587 v -4.496 c 0,-1.588 -1.588,0 0,0 h 42.095 6.084 42.095 c 1.588,0 0,-1.588 0,0 v 4.496 c 0,0.876 0.711,1.587 1.588,1.587 h 24.333 c 0.876,0 1.587,-0.711 1.587,-1.587 v -4.496 c 0,-1.588 -1.587,0 0,0 h 39.09617 c 0.876,0 1.50206,-0.71512 1.587,-1.588 v -30.82799 -30.82799 c 0,-0.87701 -0.711,-1.58801 -1.587,-1.58801 H 273.55816 c -0.877,0 -1.587,0.711 -1.587,1.58801 v 30.82799 30.82799 c 0,0.877 0.71,1.588 1.587,1.588 z"
     stroke="#000000"
     stroke-width="3.17"
     id="path18634-2-0"
     style="fill:none;stroke-linecap:round;stroke-linejoin:round"
     sodipodi:nodetypes="sssssssssccssssssssccsssssssssscsssscss" />
</svg>
