<?xml version="1.0" ?>
<svg xmlns="http://www.w3.org/2000/svg" xmlns:cc="http://creativecommons.org/ns#" xmlns:dc="http://purl.org/dc/elements/1.1/" xmlns:ev="http://www.w3.org/2001/xml-events" xmlns:inkscape="http://www.inkscape.org/namespaces/inkscape" xmlns:rdf="http://www.w3.org/1999/02/22-rdf-syntax-ns#" xmlns:sodipodi="http://sodipodi.sourceforge.net/DTD/sodipodi-0.dtd" xmlns:svg="http://www.w3.org/2000/svg" xmlns:xlink="http://www.w3.org/1999/xlink" baseProfile="full" height="812.79999mm" id="svg932" inkscape:version="1.1 (c68e22c387, 2021-05-23)" sodipodi:docname="0p25in_Shelf.svg" version="1.1" viewBox="0 0 888.99999 812.79997" width="889mm">
	<defs/>
	<path d="M 418.61433,313.13446 L 450.5695799999998,313.13446 L 460.0945799999998,313.13446 L 460.71033,313.13446 L 460.86337538931485,313.1289906490631 L 460.99494757349623,313.1133639321005 L 461.1062178182787,313.0887518528845 L 461.19835738939685,313.0563264151872 L 461.27253755258516,313.0172596227807 L 461.3299295735782,312.97272347943743 L 461.3717047181106,312.92388998892943 L 461.3990342519168,312.8719311550289 L 461.4130894407315,312.81801898150803 L 461.41504155028906,312.76332547213906 L 461.4060618463242,312.70902263069416 L 461.3873215945713,312.65628246094553 L 461.3599920607651,312.6062769666653 L 461.32524451064006,312.56017815162573 L 461.2842502099307,312.51915801959905 L 461.23818042437165,312.4843885743573 L 461.1882064196974,312.45704181967284 L 461.13549946164255,312.4382897593178 L 461.08123081594164,312.4293043970643 L 461.02657174832916,312.43125773668464 L 460.97269352453975,312.44532178195095 L 460.9207674103079,312.47266853663547 L 460.87196467136823,312.5144700045103 L 460.82745657345527,312.57189818934773 L 460.7884143823035,312.64612509491997 L 460.75600936364754,312.7383227249991 L 460.73141278322197,312.84966308335737 L 460.71579590676123,312.981318173767 L 460.71033,313.13446000000016 L 460.71033,317.63045999999997 L 460.7128404350322,317.7204697174956 L 460.72028268358684,317.80916794210503 L 460.7325231608512,317.89642035097785 L 460.7494282820124,317.98209262126363 L 460.7708644622576,318.0660504301119 L 460.79669811677394,318.14815945467217 L 460.8267956607487,318.2282853720939 L 460.861023509369,318.3062938595268 L 460.899248077822,318.38205059412024 L 460.94133578129487,318.45542125302387 L 460.9871530349748,318.52627151338714 L 461.036566254049,318.5944670523596 L 461.08944185370456,318.65987354709085 L 461.14564624912873,318.72235667473035 L 461.2050458555087,318.78178211242766 L 461.26750708803155,318.83801553733235 L 461.3328963618845,318.8909226265939 L 461.40108009225474,318.94036905736186 L 461.47192469432946,318.9862205067858 L 461.5452965832958,319.0283426520152 L 461.621062174341,319.06660117019965 L 461.6990878826521,319.1008617384886 L 461.7792401234164,319.1309900340317 L 461.861385311821,319.1568517339784 L 461.94538986305315,319.17831251547824 L 462.0311201922999,319.1952380556808 L 462.1184427147486,319.20749403173556 L 462.20722384558627,319.2149461207921 L 462.29733000000016,319.21745999999996 L 486.63032999999996,319.21745999999996 L 486.7204396395916,319.2149461207921 L 486.8092308979458,319.20749403173556 L 486.8965696982246,319.1952380556808 L 486.9823219635901,319.17831251547824 L 487.0663536172044,319.1568517339784 L 487.1485305822297,319.1309900340317 L 487.2287187818278,319.1008617384886 L 487.30678413916104,319.06660117019965 L 487.3825925773914,319.0283426520152 L 487.45601001968095,318.9862205067858 L 487.52690238919183,318.94036905736186 L 487.595135609086,318.8909226265939 L 487.6605756025257,318.83801553733235 L 487.7230882926729,318.78178211242766 L 487.78253960268967,318.72235667473035 L 487.8387954557382,318.65987354709085 L 487.89172177498045,318.5944670523596 L 487.94118448357864,318.52627151338714 L 487.9870495046947,318.45542125302387 L 488.0291827614908,318.38205059412024 L 488.067450177129,318.3062938595268 L 488.10171767477135,318.2282853720939 L 488.13185117758,318.14815945467217 L 488.157716608717,318.0660504301119 L 488.1791798913444,317.98209262126363 L 488.19610694862433,317.89642035097785 L 488.2083637037188,317.80916794210503 L 488.21581607979,317.7204697174956 L 488.2183299999999,317.63045999999997 L 488.21833,313.13446 L 488.2128606490631,312.98131817376685 L 488.1972339321005,312.84966308335726 L 488.1726218528845,312.73832272499897 L 488.1401964151872,312.64612509491985 L 488.1011296227807,312.5718981893476 L 488.0565934794374,312.5144700045102 L 488.0077599889294,312.47266853663535 L 487.9558011550289,312.4453217819509 L 487.901888981508,312.4312577366846 L 487.84719547213905,312.42930439706424 L 487.79289263069415,312.43828975931774 L 487.74015246094547,312.4570418196728 L 487.6901469666653,312.4843885743573 L 487.64404815162567,312.519158019599 L 487.603028019599,312.56017815162573 L 487.56825857435723,312.6062769666653 L 487.5409118196728,312.65628246094553 L 487.5221597593177,312.70902263069416 L 487.5131743970642,312.7633254721391 L 487.5151277366845,312.8180189815081 L 487.52919178195083,312.87193115502896 L 487.5565385366353,312.9238899889295 L 487.5983400045102,312.9727234794375 L 487.6557681893476,313.01725962278084 L 487.7299950949198,313.05632641518724 L 487.8221927249989,313.08875185288457 L 487.9335330833572,313.11336393210064 L 488.0651881737668,313.1289906490632 L 488.2183299999999,313.1344600000001 L 510.03329875000014,313.13446000000005 L 519.5582987500002,313.13446000000005 L 530.31333,313.13446 L 536.3963299999999,313.13446 L 578.4923299999999,313.13446 L 578.6453753893147,313.1289906490631 L 578.7769475734962,313.1133639321005 L 578.8882178182787,313.0887518528845 L 578.9803573893968,313.0563264151872 L 579.0545375525851,313.0172596227807 L 579.1119295735782,312.97272347943743 L 579.1537047181106,312.92388998892943 L 579.1810342519168,312.8719311550289 L 579.1950894407314,312.81801898150803 L 579.197041550289,312.76332547213906 L 579.1880618463241,312.70902263069416 L 579.1693215945712,312.65628246094553 L 579.141992060765,312.6062769666653 L 579.1072445106399,312.56017815162573 L 579.0662502099307,312.51915801959905 L 579.0201804243716,312.4843885743573 L 578.9702064196973,312.45704181967284 L 578.9174994616425,312.4382897593178 L 578.8632308159415,312.4293043970643 L 578.8085717483291,312.43125773668464 L 578.7546935245397,312.44532178195095 L 578.7027674103078,312.47266853663547 L 578.6539646713682,312.5144700045103 L 578.6094565734552,312.57189818934773 L 578.5704143823034,312.64612509491997 L 578.5380093636475,312.7383227249991 L 578.5134127832218,312.84966308335737 L 578.4977959067612,312.981318173767 L 578.4923299999999,313.13446000000016 L 578.4923299999999,317.63045999999997 L 578.4948438792078,317.7204697174956 L 578.5022959682643,317.80916794210503 L 578.5145519443191,317.89642035097785 L 578.5314774845216,317.98209262126363 L 578.5529382660214,318.0660504301119 L 578.5787999659682,318.14815945467217 L 578.6089282615113,318.2282853720939 L 578.6431888298002,318.3062938595268 L 578.6814473479847,318.38205059412024 L 578.7235694932141,318.45542125302387 L 578.769420942638,318.52627151338714 L 578.818867373406,318.5944670523596 L 578.8717744626675,318.65987354709085 L 578.9280078875722,318.72235667473035 L 578.9874333252695,318.78178211242766 L 579.0499164529091,318.83801553733235 L 579.1153229476404,318.8909226265939 L 579.1835184866128,318.94036905736186 L 579.2543687469761,318.9862205067858 L 579.3277394058797,319.0283426520152 L 579.4034961404732,319.06660117019965 L 579.4815046279061,319.1008617384886 L 579.5616305453278,319.1309900340317 L 579.6437395698881,319.1568517339784 L 579.7276973787364,319.17831251547824 L 579.8133696490222,319.1952380556808 L 579.900622057895,319.20749403173556 L 579.9893202825045,319.2149461207921 L 580.0793300000001,319.21745999999996 L 604.4123299999999,319.21745999999996 L 604.5024396395914,319.2149461207921 L 604.5912308979457,319.20749403173556 L 604.6785696982245,319.1952380556808 L 604.76432196359,319.17831251547824 L 604.8483536172043,319.1568517339784 L 604.9305305822295,319.1309900340317 L 605.0107187818277,319.1008617384886 L 605.0887841391609,319.06660117019965 L 605.1645925773913,319.0283426520152 L 605.2380100196808,318.9862205067858 L 605.3089023891916,318.94036905736186 L 605.3771356090858,318.8909226265939 L 605.4425756025255,318.83801553733235 L 605.5050882926727,318.78178211242766 L 605.5645396026895,318.72235667473035 L 605.6207954557381,318.65987354709085 L 605.6737217749803,318.5944670523596 L 605.7231844835784,318.52627151338714 L 605.7690495046945,318.45542125302387 L 605.8111827614906,318.38205059412024 L 605.8494501771288,318.3062938595268 L 605.8837176747711,318.2282853720939 L 605.9138511775798,318.14815945467217 L 605.9397166087167,318.0660504301119 L 605.9611798913442,317.98209262126363 L 605.978106948624,317.89642035097785 L 605.9903637037186,317.80916794210503 L 605.9978160797897,317.7204697174956 L 606.0003299999996,317.63045999999997 L 606.0003299999998,313.13446 L 605.994860649063,312.98131817376685 L 605.9792339321004,312.84966308335726 L 605.9546218528843,312.73832272499897 L 605.922196415187,312.64612509491985 L 605.8831296227806,312.5718981893476 L 605.8385934794373,312.5144700045102 L 605.7897599889293,312.47266853663535 L 605.7378011550287,312.4453217819509 L 605.6838889815078,312.4312577366846 L 605.6291954721389,312.42930439706424 L 605.574892630694,312.43828975931774 L 605.5221524609453,312.4570418196728 L 605.4721469666652,312.4843885743573 L 605.4260481516255,312.519158019599 L 605.3850280195988,312.56017815162573 L 605.3502585743571,312.6062769666653 L 605.3229118196726,312.65628246094553 L 605.3041597593175,312.70902263069416 L 605.295174397064,312.7633254721391 L 605.2971277366843,312.8180189815081 L 605.3111917819506,312.87193115502896 L 605.3385385366352,312.9238899889295 L 605.38034000451,312.9727234794375 L 605.4377681893474,313.01725962278084 L 605.5119950949195,313.05632641518724 L 605.6041927249986,313.08875185288457 L 605.715533083357,313.11336393210064 L 605.8471881737665,313.1289906490632 L 606.0003299999996,313.1344600000001 L 625.1427962500002,313.13446000000005 L 634.6677962500003,313.13446000000005 L 648.0953299999999,313.13446 L 654.1793299999998,313.13446 L 696.2743299999998,313.13446 L 696.4274718262329,313.1289906490631 L 696.5591269166426,313.1133639321005 L 696.6704672750009,313.0887518528845 L 696.76266490508,313.0563264151872 L 696.8368918106522,313.0172596227807 L 696.8943199954896,312.97272347943743 L 696.9361214633645,312.92388998892943 L 696.963468218049,312.8719311550289 L 696.9775322633153,312.81801898150803 L 696.9794856029356,312.76332547213906 L 696.9705002406822,312.70902263069416 L 696.9517481803271,312.65628246094553 L 696.9244014256426,312.6062769666653 L 696.889631980401,312.56017815162573 L 696.8486118483743,312.51915801959905 L 696.8025130333347,312.4843885743573 L 696.7525075390545,312.45704181967284 L 696.6997673693058,312.4382897593178 L 696.645464527861,312.4293043970643 L 696.590771018492,312.43125773668464 L 696.5368588449712,312.44532178195095 L 696.4849000110706,312.47266853663547 L 696.4360665205627,312.5144700045103 L 696.3915303772194,312.57189818934773 L 696.352463584813,312.64612509491997 L 696.3200381471157,312.7383227249991 L 696.2954260678997,312.84966308335737 L 696.2797993509372,312.981318173767 L 696.2743300000003,313.13446000000016 L 696.2743299999998,317.63045999999997 L 696.2768439202098,317.7204697174956 L 696.284296296281,317.80916794210503 L 696.2965530513754,317.89642035097785 L 696.3134801086554,317.98209262126363 L 696.3349433912828,318.0660504301119 L 696.3608088224198,318.14815945467217 L 696.3909423252285,318.2282853720939 L 696.4252098228708,318.3062938595268 L 696.463477238509,318.38205059412024 L 696.5056104953051,318.45542125302387 L 696.5514755164212,318.52627151338714 L 696.6009382250193,318.5944670523596 L 696.6538645442615,318.65987354709085 L 696.7101203973101,318.72235667473035 L 696.7695717073269,318.78178211242766 L 696.8320843974741,318.83801553733235 L 696.8975243909138,318.8909226265939 L 696.9657576108079,318.94036905736186 L 697.0366499803188,318.9862205067858 L 697.1100674226083,319.0283426520152 L 697.1858758608387,319.06660117019965 L 697.2639412181718,319.1008617384886 L 697.34412941777,319.1309900340317 L 697.4263063827952,319.1568517339784 L 697.5103380364095,319.17831251547824 L 697.596090301775,319.1952380556808 L 697.6834291020539,319.20749403173556 L 697.772220360408,319.2149461207921 L 697.8623299999996,319.21745999999996 L 722.1953299999998,319.21745999999996 L 722.2853397174954,319.2149461207921 L 722.3740379421048,319.20749403173556 L 722.4612903509777,319.1952380556808 L 722.5469626212634,319.17831251547824 L 722.6309204301117,319.1568517339784 L 722.713029454672,319.1309900340317 L 722.7931553720938,319.1008617384886 L 722.8711638595266,319.06660117019965 L 722.9469205941201,319.0283426520152 L 723.0202912530236,318.9862205067858 L 723.0911415133869,318.94036905736186 L 723.1593370523594,318.8909226265939 L 723.2247435470907,318.83801553733235 L 723.2872266747302,318.78178211242766 L 723.3466521124275,318.72235667473035 L 723.4028855373322,318.65987354709085 L 723.4557926265937,318.5944670523596 L 723.5052390573617,318.52627151338714 L 723.5510905067856,318.45542125302387 L 723.593212652015,318.38205059412024 L 723.6314711701995,318.3062938595268 L 723.6657317384885,318.2282853720939 L 723.6958600340315,318.14815945467217 L 723.7217217339783,318.0660504301119 L 723.7431825154781,317.98209262126363 L 723.7601080556806,317.89642035097785 L 723.7723640317354,317.80916794210503 L 723.7798161207919,317.7204697174956 L 723.7823299999998,317.63045999999997 L 723.7823299999998,313.13446 L 723.7768640932385,312.98131817376685 L 723.7612472167779,312.84966308335726 L 723.7366506363522,312.73832272499897 L 723.7042456176963,312.64612509491985 L 723.6652034265445,312.5718981893476 L 723.6206953286315,312.5144700045102 L 723.5718925896919,312.47266853663535 L 723.51996647546,312.4453217819509 L 723.4660882516706,312.4312577366846 L 723.4114291840582,312.42930439706424 L 723.3571605383573,312.43828975931774 L 723.3044535803025,312.4570418196728 L 723.2544795756282,312.4843885743573 L 723.2084097900691,312.519158019599 L 723.1674154893599,312.56017815162573 L 723.1326679392348,312.6062769666653 L 723.1053384054286,312.65628246094553 L 723.0865981536758,312.70902263069416 L 723.0776184497109,312.7633254721391 L 723.0795705592685,312.8180189815081 L 723.0936257480831,312.87193115502896 L 723.1209552818895,312.9238899889295 L 723.1627304264218,312.9727234794375 L 723.220122447415,313.01725962278084 L 723.2943026106033,313.05632641518724 L 723.3864421817215,313.08875185288457 L 723.4977124265039,313.11336393210064 L 723.6292846106853,313.1289906490632 L 723.7823300000002,313.1344600000001 L 750.8617912500001,313.13446000000005 L 760.3867912500002,313.13446 L 765.8783299999998,313.13446 L 765.9683397174954,313.13194607979005 L 766.0570379421048,313.1244937037189 L 766.1442903509777,313.11223694862434 L 766.2299626212634,313.09530989134447 L 766.3139204301117,313.073846608717 L 766.396029454672,313.04798117758 L 766.4761553720938,313.0178476747714 L 766.5541638595266,312.983580177129 L 766.6299205941201,312.9453127614908 L 766.7032912530236,312.9031795046947 L 766.7741415133869,312.85731448357865 L 766.8423370523594,312.8078517749805 L 766.9077435470907,312.7549254557382 L 766.9702266747302,312.69866960268973 L 767.0296521124275,312.6392182926729 L 767.0858855373322,312.5767056025257 L 767.1387926265937,312.511265609086 L 767.1882390573617,312.44303238919184 L 767.2340905067856,312.37214001968096 L 767.276212652015,312.2987225773914 L 767.3144711701995,312.22291413916105 L 767.3487317384885,312.1448487818279 L 767.3788600340315,312.0646605822297 L 767.4047217339782,311.9824836172044 L 767.4261825154781,311.8984519635901 L 767.4431080556806,311.8126996982246 L 767.4553640317354,311.7253608979458 L 767.4628161207919,311.6365696395916 L 767.4653299999998,311.54645999999997 L 767.4653299999998,303.5223449999999 L 767.4653299999998,293.99734499999994 L 767.4653299999998,280.71846999999997 L 767.4653299999998,279.89023999999995 L 767.4628161207919,279.8001293611874 L 767.4553640317354,279.71133717249575 L 767.4431080556806,279.62399750830286 L 767.4261825154781,279.5382444429865 L 767.4047217339782,279.4542120509246 L 767.3788600340315,279.3720344064947 L 767.3487317384885,279.29184558407474 L 767.3144711701995,279.21377965804254 L 767.276212652015,279.1379707027758 L 767.2340905067856,279.0645527926524 L 767.1882390573617,278.9936600020501 L 767.1387926265937,278.9254264053467 L 767.0858855373322,278.85998607691994 L 767.0296521124276,278.79747309114765 L 766.9702266747303,278.7380215224077 L 766.9077435470907,278.68176544507776 L 766.8423370523595,278.6288389335357 L 766.774141513387,278.5793760621592 L 766.7032912530237,278.53351090532624 L 766.6299205941202,278.4913775374145 L 766.5541638595267,278.45311003280176 L 766.4761553720939,278.41884246586585 L 766.3960294546721,278.3887089109846 L 766.3139204301118,278.36284344253573 L 766.2299626212637,278.34138013489707 L 766.1442903509778,278.32445306244637 L 766.057037942105,278.3121962995615 L 765.9683397174956,278.3047439206202 L 765.87833,278.30223000000024 L 418.61432999999977,278.30222999999995 L 418.5242238455859,278.3047439206199 L 418.4354427147482,278.3121962995612 L 418.3481201922996,278.32445306244614 L 418.26238986305276,278.34138013489684 L 418.17838531182065,278.3628434425355 L 418.09624012341607,278.3887089109844 L 418.0160878826518,278.41884246586574 L 417.93806217434064,278.45311003280165 L 417.8622965832955,278.4913775374144 L 417.7889246943292,278.5335109053262 L 417.71808009225447,278.57937606215916 L 417.64989636188426,278.62883893353563 L 417.5845070880313,278.6817654450777 L 417.52204585550845,278.7380215224077 L 417.4626462491285,278.79747309114765 L 417.40644185370434,278.85998607691994 L 417.35356625404876,278.9254264053467 L 417.3041530349746,278.99366000205015 L 417.25833578129465,279.0645527926525 L 417.2162480778218,279.13797070277593 L 417.1780235093688,279.21377965804265 L 417.14379566074854,279.29184558407485 L 417.1136981167738,279.37203440649483 L 417.0878644622574,279.4542120509247 L 417.0664282820122,279.5382444429867 L 417.0495231608511,279.62399750830303 L 417.03728268358674,279.711337172496 L 417.0298404350321,279.8001293611876 L 417.0273299999999,279.8902400000002 L 417.0273299999998,280.71846999999997 L 417.0273299999998,293.99734499999994 L 417.0273299999998,303.5223449999999 L 417.0273299999998,311.54645999999997 L 417.029840435032,311.6365696395916 L 417.0372826835866,311.7253608979458 L 417.049523160851,311.8126996982246 L 417.06642828201217,311.8984519635901 L 417.08786446225736,311.9824836172045 L 417.1136981167737,312.0646605822297 L 417.1437956607485,312.1448487818279 L 417.17802350936876,312.2229141391611 L 417.2162480778218,312.29872257739146 L 417.25833578129465,312.372140019681 L 417.3041530349746,312.44303238919184 L 417.35356625404876,312.5112656090861 L 417.40644185370434,312.57670560252575 L 417.4626462491285,312.6392182926729 L 417.52204585550845,312.6986696026898 L 417.58450708803133,312.75492545573826 L 417.64989636188426,312.8078517749806 L 417.7180800922545,312.8573144835787 L 417.78892469432924,312.9031795046948 L 417.8622965832956,312.9453127614909 L 417.93806217434076,312.9835801771291 L 418.0160878826519,313.0178476747715 L 418.0962401234162,313.04798117758014 L 418.17838531182076,313.07384660871713 L 418.26238986305293,313.0953098913446 L 418.3481201922997,313.1122369486245 L 418.4354427147484,313.12449370371905 L 418.52422384558605,313.1319460797902 L 418.61432999999994,313.13446000000016 L 418.61433,313.13446" fill="none" stroke="rgb(0,0,0)" stroke-width="0.5"/>
	<path d="M 64.942708,313.70735 L 107.03871,313.70735 L 107.19175538931485,313.7018806490631 L 107.32332757349624,313.68625393210056 L 107.43459781827873,313.66164185288454 L 107.52673738939686,313.6292164151872 L 107.60091755258517,313.59014962278076 L 107.65830957357825,313.54561347943746 L 107.70008471811063,313.49677998892946 L 107.72741425191685,313.44482115502893 L 107.74146944073148,313.39090898150806 L 107.74342155028907,313.3362154721391 L 107.73444184632417,313.2819126306942 L 107.71570159457133,313.22917246094556 L 107.68837206076512,313.1791669666653 L 107.65362451064006,313.13306815162576 L 107.61263020993073,313.0920480195991 L 107.56656042437166,313.0572785743573 L 107.51658641969743,313.02993181967287 L 107.46387946164258,313.0111797593178 L 107.40961081594165,313.00219439706433 L 107.3549517483292,313.0041477366847 L 107.30107352453979,313.018211781951 L 107.24914741030797,313.0455585366355 L 107.20034467136828,313.08736000451034 L 107.1558365734553,313.14478818934776 L 107.11679438230355,313.21901509492 L 107.0843893636476,313.3112127249991 L 107.05979278322201,313.4225530833574 L 107.04417590676132,313.55420817376705 L 107.03871000000008,313.7073500000002 L 107.03871,318.20335 L 107.04122043503219,318.2933597174956 L 107.04866268358685,318.38205794210506 L 107.0609031608512,318.4693103509779 L 107.07780828201238,318.55498262126366 L 107.09924446225757,318.6389404301119 L 107.12507811677395,318.7210494546722 L 107.1551756607487,318.80117537209395 L 107.18940350936897,318.87918385952685 L 107.22762807782196,318.9549405941203 L 107.26971578129483,319.0283112530239 L 107.31553303497478,319.0991615133872 L 107.36494625404895,319.16735705235965 L 107.41782185370454,319.2327635470909 L 107.4740262491287,319.2952466747304 L 107.53342585550863,319.3546721124277 L 107.59588708803149,319.4109055373324 L 107.66127636188445,319.46381262659395 L 107.7294600922547,319.5132590573619 L 107.80030469432941,319.5591105067858 L 107.87367658329575,319.60123265201526 L 107.94944217434089,319.6394911701997 L 108.02746788265202,319.67375173848865 L 108.1076201234163,319.7038800340317 L 108.1897653118209,319.7297417339784 L 108.27376986305302,319.75120251547827 L 108.35950019229982,319.76812805568085 L 108.44682271474846,319.7803840317356 L 108.53560384558614,319.7878361207921 L 108.62571000000001,319.79035 L 132.95871,319.79035 L 133.0488196395916,319.7878361207921 L 133.1376108979458,319.7803840317356 L 133.2249496982246,319.76812805568085 L 133.31070196359013,319.75120251547827 L 133.39473361720448,319.7297417339784 L 133.4769105822297,319.7038800340317 L 133.55709878182788,319.67375173848865 L 133.63516413916108,319.6394911701997 L 133.71097257739143,319.60123265201526 L 133.78439001968098,319.5591105067858 L 133.85528238919184,319.5132590573619 L 133.92351560908605,319.46381262659395 L 133.98895560252572,319.4109055373324 L 134.0514682926729,319.3546721124277 L 134.1109196026897,319.2952466747304 L 134.1671754557382,319.2327635470909 L 134.2201017749805,319.16735705235965 L 134.26956448357862,319.0991615133872 L 134.3154295046947,319.0283112530239 L 134.35756276149078,318.9549405941203 L 134.39583017712897,318.87918385952685 L 134.43009767477136,318.80117537209395 L 134.46023117758,318.7210494546722 L 134.486096608717,318.6389404301119 L 134.50755989134439,318.55498262126366 L 134.52448694862431,318.4693103509779 L 134.5367437037188,318.38205794210506 L 134.54419607978997,318.2933597174956 L 134.5467099999999,318.20335 L 134.54671,313.70735 L 134.5412406490631,313.5542081737669 L 134.52561393210053,313.4225530833573 L 134.50100185288449,313.311212724999 L 134.46857641518716,313.2190150949198 L 134.42950962278076,313.14478818934765 L 134.38497347943743,313.08736000451023 L 134.33613998892943,313.0455585366354 L 134.28418115502888,313.01821178195087 L 134.23026898150803,313.00414773668456 L 134.17557547213906,313.0021943970643 L 134.12127263069414,313.0111797593177 L 134.06853246094548,313.0299318196728 L 134.01852696666526,313.05727857435727 L 133.9724281516257,313.09204801959896 L 133.93140801959896,313.1330681516257 L 133.89663857435724,313.17916696666526 L 133.86929181967275,313.2291724609455 L 133.85053975931766,313.28191263069414 L 133.8415543970642,313.33621547213903 L 133.8435077366845,313.390908981508 L 133.8575717819508,313.4448211550289 L 133.88491853663527,313.4967799889294 L 133.92672000451014,313.5456134794374 L 133.98414818934756,313.5901496227807 L 134.05837509491974,313.6292164151871 L 134.15057272499885,313.66164185288443 L 134.26191308335711,313.68625393210044 L 134.3935681737667,313.701880649063 L 134.54670999999985,313.7073499999999 L 156.11837874999992,313.70734999999996 L 165.6433787499999,313.70734999999996 L 176.64172,313.70735 L 182.72472,313.70735 L 224.82072,313.70735 L 224.97376538931485,313.7018806490631 L 225.10533757349623,313.68625393210056 L 225.21660781827873,313.66164185288454 L 225.30874738939684,313.6292164151872 L 225.38292755258516,313.59014962278076 L 225.44031957357825,313.54561347943746 L 225.4820947181106,313.49677998892946 L 225.50942425191684,313.44482115502893 L 225.52347944073148,313.39090898150806 L 225.52543155028906,313.3362154721391 L 225.51645184632414,313.2819126306942 L 225.4977115945713,313.22917246094556 L 225.47038206076508,313.1791669666653 L 225.43563451064003,313.13306815162576 L 225.39464020993069,313.0920480195991 L 225.34857042437164,313.0572785743573 L 225.2985964196974,313.02993181967287 L 225.24588946164255,313.0111797593178 L 225.1916208159416,313.00219439706433 L 225.13696174832916,313.0041477366847 L 225.08308352453975,313.018211781951 L 225.0311574103079,313.0455585366355 L 224.98235467136823,313.08736000451034 L 224.93784657345523,313.14478818934776 L 224.8988043823035,313.21901509492 L 224.86639936364753,313.3112127249991 L 224.84180278322194,313.4225530833574 L 224.82618590676125,313.55420817376705 L 224.82072,313.7073500000002 L 224.82072,318.20335 L 224.82323387920783,318.2933597174956 L 224.83068596826436,318.38205794210506 L 224.84294194431916,318.4693103509779 L 224.85986748452171,318.55498262126366 L 224.88132826602157,318.6389404301119 L 224.90718996596826,318.7210494546722 L 224.9373182615113,318.80117537209395 L 224.9715788298003,318.87918385952685 L 225.00983734798473,318.9549405941203 L 225.05195949321413,319.0283112530239 L 225.09781094263803,319.0991615133872 L 225.147257373406,319.16735705235965 L 225.20016446266754,319.2327635470909 L 225.2563978875722,319.2952466747304 L 225.31582332526952,319.3546721124277 L 225.37830645290902,319.4109055373324 L 225.44371294764025,319.46381262659395 L 225.51190848661273,319.5132590573619 L 225.582758746976,319.5591105067858 L 225.6561294058796,319.60123265201526 L 225.73188614047305,319.6394911701997 L 225.8098946279059,319.67375173848865 L 225.89002054532767,319.7038800340317 L 225.9721295698879,319.7297417339784 L 226.05608737873615,319.75120251547827 L 226.1417596490219,319.76812805568085 L 226.22901205789475,319.7803840317356 L 226.31771028250418,319.7878361207921 L 226.40771999999976,319.79035 L 250.74071999999998,319.79035 L 250.8308296395916,319.7878361207921 L 250.91962089794578,319.7803840317356 L 251.0069596982246,319.76812805568085 L 251.09271196359012,319.75120251547827 L 251.17674361720447,319.7297417339784 L 251.25892058222968,319.7038800340317 L 251.33910878182786,319.67375173848865 L 251.4171741391611,319.6394911701997 L 251.49298257739144,319.60123265201526 L 251.566400019681,319.5591105067858 L 251.63729238919183,319.5132590573619 L 251.70552560908604,319.46381262659395 L 251.7709656025257,319.4109055373324 L 251.8334782926729,319.3546721124277 L 251.89292960268972,319.2952466747304 L 251.94918545573825,319.2327635470909 L 252.0021117749805,319.16735705235965 L 252.05157448357866,319.0991615133872 L 252.09743950469473,319.0283112530239 L 252.13957276149083,318.9549405941203 L 252.177840177129,318.87918385952685 L 252.2121076747714,318.80117537209395 L 252.24224117758004,318.7210494546722 L 252.26810660871703,318.6389404301119 L 252.28956989134446,318.55498262126366 L 252.30649694862439,318.4693103509779 L 252.3187537037189,318.38205794210506 L 252.32620607979007,318.2933597174956 L 252.32872,318.20335 L 252.32871999999998,313.70735 L 252.32325064906308,313.5542081737669 L 252.3076239321005,313.4225530833573 L 252.28301185288447,313.311212724999 L 252.25058641518714,313.2190150949198 L 252.21151962278074,313.14478818934765 L 252.16698347943742,313.08736000451023 L 252.11814998892942,313.0455585366354 L 252.0661911550289,313.01821178195087 L 252.01227898150805,313.00414773668456 L 251.95758547213907,313.0021943970643 L 251.90328263069415,313.0111797593177 L 251.8505424609455,313.0299318196728 L 251.8005369666653,313.05727857435727 L 251.75443815162572,313.09204801959896 L 251.713418019599,313.1330681516257 L 251.67864857435728,313.17916696666526 L 251.65130181967282,313.2291724609455 L 251.63254975931773,313.28191263069414 L 251.62356439706426,313.33621547213903 L 251.6255177366846,313.390908981508 L 251.6395817819509,313.4448211550289 L 251.6669285366354,313.4967799889294 L 251.70873000451027,313.5456134794374 L 251.7661581893477,313.5901496227807 L 251.8403850949199,313.6292164151871 L 251.932582724999,313.66164185288443 L 252.0439230833573,313.68625393210044 L 252.17557817376692,313.701880649063 L 252.32872000000006,313.7073499999999 L 271.2278762499999,313.70734999999996 L 280.7528762499999,313.70734999999996 L 294.42372,313.70735 L 300.50772,313.70735 L 342.60272,313.70735 L 342.7558618262331,313.7018806490631 L 342.8875169166427,313.68625393210056 L 342.998857275001,313.66164185288454 L 343.09105490508017,313.6292164151872 L 343.16528181065235,313.59014962278076 L 343.22270999548977,313.54561347943746 L 343.2645114633646,313.49677998892946 L 343.29185821804913,313.44482115502893 L 343.30592226331544,313.39090898150806 L 343.3078756029358,313.3362154721391 L 343.2988902406823,313.2819126306942 L 343.28013818032724,313.22917246094556 L 343.2527914256428,313.1791669666653 L 343.2180219804011,313.13306815162576 L 343.17700184837435,313.0920480195991 L 343.1309030333348,313.0572785743573 L 343.0808975390546,313.02993181967287 L 343.028157369306,313.0111797593178 L 342.973854527861,313.00219439706433 L 342.9191610184921,313.0041477366847 L 342.86524884497123,313.018211781951 L 342.81329001107076,313.0455585366355 L 342.76445652056276,313.08736000451034 L 342.71992037721947,313.14478818934776 L 342.68085358481306,313.21901509492 L 342.64842814711574,313.3112127249991 L 342.6238160678997,313.4225530833574 L 342.6081893509372,313.55420817376705 L 342.6027200000003,313.7073500000002 L 342.60272,318.20335 L 342.6052339202099,318.2933597174956 L 342.6126862962811,318.38205794210506 L 342.62494305137557,318.4693103509779 L 342.6418701086555,318.55498262126366 L 342.66333339128295,318.6389404301119 L 342.68919882241994,318.7210494546722 L 342.71933232522855,318.80117537209395 L 342.7535998228709,318.87918385952685 L 342.7918672385091,318.9549405941203 L 342.8340004953052,319.0283112530239 L 342.87986551642126,319.0991615133872 L 342.92932822501945,319.16735705235965 L 342.9822545442617,319.2327635470909 L 343.0385103973102,319.2952466747304 L 343.097961707327,319.3546721124277 L 343.16047439747416,319.4109055373324 L 343.22591439091383,319.46381262659395 L 343.29414761080807,319.5132590573619 L 343.3650399803189,319.5591105067858 L 343.43845742260845,319.60123265201526 L 343.51426586083875,319.6394911701997 L 343.592331218172,319.67375173848865 L 343.67251941777016,319.7038800340317 L 343.7546963827954,319.7297417339784 L 343.8387280364097,319.75120251547827 L 343.9244803017752,319.76812805568085 L 344.011819102054,319.7803840317356 L 344.10061036040815,319.7878361207921 L 344.19071999999977,319.79035 L 368.52372,319.79035 L 368.61372971749563,319.7878361207921 L 368.7024279421051,319.7803840317356 L 368.7896803509779,319.76812805568085 L 368.8753526212637,319.75120251547827 L 368.95931043011194,319.7297417339784 L 369.0414194546722,319.7038800340317 L 369.121545372094,319.67375173848865 L 369.1995538595269,319.6394911701997 L 369.2753105941203,319.60123265201526 L 369.3486812530239,319.5591105067858 L 369.4195315133872,319.5132590573619 L 369.4877270523597,319.46381262659395 L 369.5531335470909,319.4109055373324 L 369.6156166747304,319.3546721124277 L 369.6750421124277,319.2952466747304 L 369.7312755373324,319.2327635470909 L 369.784182626594,319.16735705235965 L 369.8336290573619,319.0991615133872 L 369.87948050678585,319.0283112530239 L 369.9216026520153,318.9549405941203 L 369.9598611701997,318.87918385952685 L 369.9941217384887,318.80117537209395 L 370.02425003403175,318.7210494546722 L 370.05011173397844,318.6389404301119 L 370.0715725154783,318.55498262126366 L 370.0884980556809,318.4693103509779 L 370.1007540317356,318.38205794210506 L 370.10820612079215,318.2933597174956 L 370.11072,318.20335 L 370.11072,313.70735 L 370.1052540932388,313.5542081737669 L 370.0896372167781,313.4225530833573 L 370.0650406363525,313.311212724999 L 370.03263561769654,313.2190150949198 L 369.9935934265448,313.14478818934765 L 369.9490853286318,313.08736000451023 L 369.9002825896921,313.0455585366354 L 369.8483564754603,313.01821178195087 L 369.7944782516709,313.00414773668456 L 369.73981918405843,313.0021943970643 L 369.6855505383575,313.0111797593177 L 369.6328435803027,313.0299318196728 L 369.5828695756285,313.05727857435727 L 369.53679979006944,313.09204801959896 L 369.4958054893601,313.1330681516257 L 369.46105793923505,313.17916696666526 L 369.43372840542884,313.2291724609455 L 369.414988153676,313.28191263069414 L 369.4060084497111,313.33621547213903 L 369.40796055926876,313.390908981508 L 369.4220157480834,313.4448211550289 L 369.44934528188963,313.4967799889294 L 369.49112042642207,313.5456134794374 L 369.54851244741513,313.5901496227807 L 369.6226926106035,313.6292164151871 L 369.71483218172165,313.66164185288443 L 369.8261024265042,313.68625393210044 L 369.95767461068556,313.701880649063 L 370.11072000000047,313.7073499999999 L 396.9468712499999,313.70734999999996 L 406.4718712499999,313.70735 L 412.20672,313.70735 L 412.2967297174956,313.7048360797901 L 412.3854279421051,313.6973837037189 L 412.4726803509779,313.6851269486244 L 412.5583526212637,313.6681998913445 L 412.64231043011193,313.64673660871705 L 412.7244194546722,313.62087117758006 L 412.80454537209397,313.59073767477145 L 412.88255385952687,313.55647017712903 L 412.9583105941203,313.51820276149084 L 413.0316812530239,313.47606950469475 L 413.1025315133872,313.4302044835787 L 413.17072705235967,313.38074177498055 L 413.2361335470909,313.32781545573823 L 413.2986166747304,313.27155960268976 L 413.3580421124277,313.21210829267295 L 413.4142755373324,313.1495956025257 L 413.46718262659397,313.08415560908605 L 413.5166290573619,313.01592238919187 L 413.56248050678585,312.945030019681 L 413.6046026520153,312.87161257739143 L 413.6428611701997,312.7958041391611 L 413.67712173848867,312.7177387818279 L 413.70725003403174,312.6375505822297 L 413.73311173397843,312.55537361720445 L 413.7545725154783,312.47134196359013 L 413.77149805568087,312.38558969822463 L 413.7837540317356,312.2982508979458 L 413.79120612079214,312.2094596395916 L 413.79372,312.11935 L 413.79372,304.09523499999995 L 413.79372,294.57023499999997 L 413.79372,281.29136 L 413.79372,280.46313 L 413.7912061207922,280.3730193611874 L 413.7837540317356,280.2842271724958 L 413.77149805568087,280.1968875083029 L 413.7545725154783,280.11113444298655 L 413.73311173397843,280.02710205092455 L 413.70725003403174,279.9449244064947 L 413.67712173848867,279.86473558407477 L 413.6428611701997,279.78666965804257 L 413.6046026520153,279.71086070277585 L 413.5624805067859,279.6374427926524 L 413.51662905736197,279.5665500020501 L 413.467182626594,279.49831640534666 L 413.41427553733246,279.4328760769199 L 413.35804211242777,279.3703630911476 L 413.29861667473045,279.31091152240765 L 413.23613354709096,279.2546554450777 L 413.1707270523598,279.2017289335356 L 413.10253151338725,279.1522660621592 L 413.03168125302403,279.10640090532615 L 412.9583105941204,279.0642675374144 L 412.882553859527,279.0260000328017 L 412.80454537209414,278.99173246586577 L 412.72441945467233,278.9615989109845 L 412.6423104301121,278.9357334425356 L 412.55835262126385,278.9142701348969 L 412.47268035097807,278.8973430624462 L 412.38542794210525,278.8850862995613 L 412.2967297174958,278.87763392062 L 412.20672000000025,278.87512000000004 L 374.7514685,278.87512000000004 L 365.2264685,278.87512000000004 L 287.14196549999997,278.87512000000004 L 277.6169655,278.87512000000004 L 199.53246249999995,278.87512 L 190.00746249999997,278.87512 L 111.92295949999996,278.87512 L 102.39795949999996,278.87512 L 64.942708,278.87512 L 64.85260184558612,278.8776339206199 L 64.76382071474845,278.88508629956124 L 64.6764981922998,278.89734306244617 L 64.59076786305302,278.91427013489687 L 64.5067633118209,278.93573344253554 L 64.4246181234163,278.96159891098443 L 64.34446588265202,278.9917324658657 L 64.26644017434089,279.0260000328016 L 64.19067458329575,279.06426753741437 L 64.1173026943294,279.10640090532615 L 64.0464580922547,279.15226606215913 L 63.978274361884445,279.20172893353555 L 63.91288508803148,279.2546554450776 L 63.850423855508616,279.3109115224076 L 63.79102424912869,279.37036309114757 L 63.73481985370452,279.43287607691985 L 63.681944254048936,279.4983164053466 L 63.63253103497476,279.56655000205 L 63.586713781294826,279.63744279265234 L 63.544626077821945,279.71086070277573 L 63.50640150936895,279.7866696580424 L 63.472173660748666,279.86473558407465 L 63.44207611677392,279.9449244064946 L 63.41624246225754,280.02710205092444 L 63.39480628201235,280.1111344429864 L 63.37790116085116,280.1968875083027 L 63.36566068358682,280.2842271724956 L 63.35821843503214,280.3730193611872 L 63.35570799999995,280.46312999999975 L 63.35570799999999,281.29136 L 63.35570799999999,294.57023499999997 L 63.35570799999999,304.09523499999995 L 63.35570799999999,312.11935 L 63.35821843503218,312.2094596395916 L 63.36566068358685,312.2982508979458 L 63.377901160851195,312.38558969822463 L 63.394806282012375,312.47134196359013 L 63.41624246225757,312.5553736172045 L 63.44207611677395,312.6375505822297 L 63.472173660748695,312.7177387818279 L 63.50640150936897,312.79580413916113 L 63.54462607782196,312.8716125773915 L 63.58671378129484,312.94503001968104 L 63.632531034974775,313.01592238919187 L 63.68194425404895,313.0841556090861 L 63.734819853704536,313.1495956025258 L 63.7910242491287,313.21210829267295 L 63.85042385550862,313.2715596026898 L 63.91288508803149,313.3278154557383 L 63.97827436188445,313.3807417749806 L 64.0464580922547,313.43020448357873 L 64.11730269432941,313.4760695046948 L 64.19067458329575,313.51820276149095 L 64.26644017434089,313.55647017712914 L 64.34446588265202,313.5907376747715 L 64.4246181234163,313.62087117758017 L 64.5067633118209,313.64673660871716 L 64.59076786305302,313.6681998913446 L 64.67649819229982,313.68512694862454 L 64.76382071474846,313.6973837037191 L 64.85260184558614,313.70483607979025 L 64.94270800000001,313.7073500000002" fill="none" stroke="rgb(0,0,0)" stroke-width="0.5"/>
	<path d="M 454.92712,321.20592 L 412.83112,321.20592 L 412.67807461068514,321.2113893509369 L 412.54650242650376,321.22701606789946 L 412.4352321817213,321.25162814711547 L 412.34309261060315,321.2840535848128 L 412.26891244741483,321.32312037721925 L 412.21152042642177,321.36765652056255 L 412.1697452818894,321.41649001107055 L 412.1424157480832,321.4684488449711 L 412.1283605592685,321.52236101849195 L 412.12640844971094,321.5770545278609 L 412.1353881536758,321.6313573693058 L 412.1541284054287,321.68409753905445 L 412.1814579392349,321.7341030333347 L 412.21620548935994,321.78020184837425 L 412.2571997900693,321.82122198040094 L 412.30326957562835,321.8559914256427 L 412.3532435803026,321.88333818032714 L 412.40595053835744,321.9020902406822 L 412.46021918405836,321.9110756029357 L 412.51487825167084,321.90912226331534 L 412.56875647546025,321.89505821804903 L 412.6206825896921,321.8677114633645 L 412.66948532863177,321.82590999548967 L 412.71399342654473,321.76848181065225 L 412.7530356176965,321.69425490508 L 412.78544063635246,321.6020572750009 L 412.810037216778,321.4907169166426 L 412.82565409323877,321.35906182623296 L 412.83112,321.2059199999998 L 412.83112,316.70992 L 412.8286095649678,316.6199102825044 L 412.82116731641315,316.53121205789495 L 412.8089268391488,316.44395964902213 L 412.7920217179876,316.35828737873635 L 412.7705855377424,316.2743295698881 L 412.74475188322606,316.1922205453278 L 412.7146543392513,316.11209462790606 L 412.680426490631,316.03408614047316 L 412.64220192217806,315.95832940587974 L 412.6001142187052,315.8849587469761 L 412.5542969650253,315.81410848661284 L 412.5048837459511,315.74591294764036 L 412.4520081462955,315.6805064529091 L 412.3958037508714,315.61802332526963 L 412.33640414449144,315.5585978875723 L 412.2739429119686,315.50236446266763 L 412.20855363811563,315.44945737340606 L 412.1403699077454,315.4000109426381 L 412.0695253056707,315.3541594932142 L 411.9961534167044,315.31203734798476 L 411.92038782565925,315.27377882980034 L 411.84236211734816,315.23951826151136 L 411.7622098765839,315.2093899659683 L 411.6800646881793,315.1835282660216 L 411.5960601369472,315.16206748452174 L 411.51032980770043,315.14514194431916 L 411.4230072852518,315.1328859682644 L 411.3342261544141,315.1254338792079 L 411.2441200000003,315.12292 L 406.4718712499999,315.12292 L 396.9468712499999,315.12292 L 386.91113,315.12292 L 386.8210203604084,315.1254338792079 L 386.7322291020542,315.1328859682644 L 386.6448903017754,315.14514194431916 L 386.5591380364099,315.16206748452174 L 386.4751063827955,315.1835282660216 L 386.3929294177703,315.2093899659683 L 386.3127412181721,315.23951826151136 L 386.2346758608389,315.27377882980034 L 386.1588674226085,315.31203734798476 L 386.08544998031897,315.3541594932142 L 386.0145576108081,315.4000109426381 L 385.94632439091384,315.44945737340606 L 385.8808843974742,315.50236446266763 L 385.818371707327,315.5585978875723 L 385.75892039731013,315.61802332526963 L 385.7026645442616,315.6805064529091 L 385.64973822501935,315.74591294764036 L 385.60027551642116,315.81410848661284 L 385.5544104953051,315.8849587469761 L 385.51227723850894,315.95832940587974 L 385.47400982287076,316.03408614047316 L 385.43974232522834,316.11209462790606 L 385.40960882241967,316.1922205453278 L 385.3837433912827,316.2743295698881 L 385.3622801086552,316.35828737873635 L 385.3453530513753,316.44395964902213 L 385.33309629628076,316.53121205789495 L 385.32564392020953,316.6199102825044 L 385.3231299999996,316.70992 L 385.32313,321.20592 L 385.3285993509369,321.35906182623313 L 385.34422606789946,321.4907169166427 L 385.36883814711547,321.602057275001 L 385.4012635848128,321.6942549050802 L 385.4403303772192,321.76848181065236 L 385.48486652056255,321.8259099954898 L 385.53370001107055,321.8677114633646 L 385.5856588449711,321.89505821804914 L 385.6395710184919,321.90912226331545 L 385.69426452786087,321.91107560293574 L 385.74856736930576,321.9020902406823 L 385.80130753905445,321.8833381803272 L 385.85131303333463,321.85599142564274 L 385.8974118483742,321.82122198040105 L 385.9384319804009,321.7802018483743 L 385.97320142564257,321.73410303333475 L 386.0005481803271,321.6840975390545 L 386.0193002406821,321.6313573693059 L 386.02828560293557,321.577054527861 L 386.0263322633152,321.522361018492 L 386.0122682180489,321.46844884497114 L 385.9849214633644,321.4164900110706 L 385.9431199954895,321.3676565205626 L 385.8856918106521,321.3231203772193 L 385.81146490507984,321.2840535848129 L 385.7192672750007,321.2516281471156 L 385.6079269166424,321.22701606789957 L 385.47627182623273,321.211389350937 L 385.3231299999996,321.2059200000001 L 343.22812999999996,321.20592 L 337.14512999999994,321.20592 L 295.04912999999993,321.20592 L 294.8960846106851,321.2113893509369 L 294.7645124265037,321.22701606789946 L 294.6532421817212,321.25162814711547 L 294.5611026106031,321.2840535848128 L 294.48692244741477,321.32312037721925 L 294.4295304264217,321.36765652056255 L 294.3877552818893,321.41649001107055 L 294.3604257480831,321.4684488449711 L 294.34637055926845,321.52236101849195 L 294.3444184497109,321.5770545278609 L 294.35339815367576,321.6313573693058 L 294.37213840542864,321.68409753905445 L 294.39946793923485,321.7341030333347 L 294.4342154893599,321.78020184837425 L 294.47520979006924,321.82122198040094 L 294.5212795756283,321.8559914256427 L 294.57125358030254,321.88333818032714 L 294.6239605383574,321.9020902406822 L 294.6782291840583,321.9110756029357 L 294.7328882516708,321.90912226331534 L 294.7867664754602,321.89505821804903 L 294.838692589692,321.8677114633645 L 294.8874953286317,321.82590999548967 L 294.93200342654467,321.76848181065225 L 294.97104561769646,321.69425490508 L 295.0034506363524,321.6020572750009 L 295.02804721677796,321.4907169166426 L 295.0436640932387,321.35906182623296 L 295.04912999999993,321.2059199999998 L 295.04912999999993,316.70992 L 295.04661612079207,316.6199102825044 L 295.03916403173554,316.53121205789495 L 295.0269080556808,316.44395964902213 L 295.0099825154782,316.35828737873635 L 294.98852173397836,316.2743295698881 L 294.96266003403167,316.1922205453278 L 294.9325317384886,316.11209462790606 L 294.8982711701996,316.03408614047316 L 294.86001265201514,315.95832940587974 L 294.8178905067858,315.8849587469761 L 294.77203905736184,315.81410848661284 L 294.72259262659384,315.74591294764036 L 294.66968553733227,315.6805064529091 L 294.61345211242764,315.61802332526963 L 294.55402667473027,315.5585978875723 L 294.49154354709077,315.50236446266763 L 294.42613705235954,315.44945737340606 L 294.357941513387,315.4000109426381 L 294.28709125302373,315.3541594932142 L 294.2137205941201,315.31203734798476 L 294.1379638595266,315.27377882980034 L 294.0599553720938,315.23951826151136 L 293.979829454672,315.2093899659683 L 293.8977204301117,315.1835282660216 L 293.81376262126344,315.16206748452174 L 293.72809035097765,315.14514194431916 L 293.6408379421048,315.1328859682644 L 293.5521397174953,315.1254338792079 L 293.4621299999997,315.12292 L 280.7528762499999,315.12292 L 271.2278762499999,315.12292 L 269.1291299999999,315.12292 L 269.0390203604083,315.1254338792079 L 268.9502291020541,315.1328859682644 L 268.8628903017753,315.14514194431916 L 268.7771380364098,315.16206748452174 L 268.69310638279546,315.1835282660216 L 268.6109294177702,315.2093899659683 L 268.53074121817207,315.23951826151136 L 268.45267586083884,315.27377882980034 L 268.3768674226085,315.31203734798476 L 268.30344998031893,315.3541594932142 L 268.23255761080804,315.4000109426381 L 268.16432439091386,315.44945737340606 L 268.0988843974742,315.50236446266763 L 268.03637170732696,315.5585978875723 L 267.9769203973102,315.61802332526963 L 267.9206645442617,315.6805064529091 L 267.8677382250194,315.74591294764036 L 267.81827551642124,315.81410848661284 L 267.77241049530517,315.8849587469761 L 267.7302772385091,315.95832940587974 L 267.6920098228709,316.03408614047316 L 267.6577423252285,316.11209462790606 L 267.62760882241986,316.1922205453278 L 267.60174339128287,316.2743295698881 L 267.5802801086555,316.35828737873635 L 267.56335305137554,316.44395964902213 L 267.55109629628106,316.53121205789495 L 267.5436439202099,316.6199102825044 L 267.54112999999995,316.70992 L 267.5411299999999,321.20592 L 267.5465993509368,321.35906182623313 L 267.56222606789936,321.4907169166427 L 267.5868381471154,321.602057275001 L 267.6192635848127,321.6942549050802 L 267.65833037721916,321.76848181065236 L 267.70286652056245,321.8259099954898 L 267.75170001107045,321.8677114633646 L 267.803658844971,321.89505821804914 L 267.85757101849185,321.90912226331545 L 267.9122645278608,321.91107560293574 L 267.9665673693057,321.9020902406823 L 268.0193075390544,321.8833381803272 L 268.0693130333346,321.85599142564274 L 268.1154118483742,321.82122198040105 L 268.1564319804009,321.7802018483743 L 268.19120142564265,321.73410303333475 L 268.2185481803271,321.6840975390545 L 268.2373002406822,321.6313573693059 L 268.2462856029357,321.577054527861 L 268.24433226331536,321.522361018492 L 268.23026821804905,321.46844884497114 L 268.2029214633646,321.4164900110706 L 268.1611199954897,321.3676565205626 L 268.10369181065226,321.3231203772193 L 268.0294649050801,321.2840535848129 L 267.937267275001,321.2516281471156 L 267.8259269166427,321.22701606789957 L 267.6942718262331,321.211389350937 L 267.54112999999995,321.2059200000001 L 225.4461299999999,321.20592 L 219.3621299999999,321.20592 L 177.2671299999999,321.20592 L 177.11398817376676,321.2113893509369 L 176.98233308335713,321.22701606789946 L 176.87099272499887,321.25162814711547 L 176.77879509491973,321.2840535848128 L 176.70456818934755,321.32312037721925 L 176.6471400045101,321.36765652056255 L 176.60533853663526,321.41649001107055 L 176.57799178195077,321.4684488449711 L 176.56392773668446,321.52236101849195 L 176.56197439706412,321.5770545278609 L 176.5709597593176,321.6313573693058 L 176.58971181967266,321.68409753905445 L 176.61705857435715,321.7341030333347 L 176.65182801959887,321.78020184837425 L 176.69284815162558,321.82122198040094 L 176.73894696666514,321.8559914256427 L 176.78895246094535,321.88333818032714 L 176.84169263069398,321.9020902406822 L 176.8959954721389,321.9110756029357 L 176.95068898150788,321.90912226331534 L 177.00460115502872,321.89505821804903 L 177.05655998892922,321.8677114633645 L 177.10539347943725,321.82590999548967 L 177.14992962278055,321.76848181065225 L 177.18899641518695,321.69425490508 L 177.22142185288425,321.6020572750009 L 177.2460339321003,321.4907169166426 L 177.26166064906283,321.35906182623296 L 177.26712999999972,321.2059199999998 L 177.2671299999999,316.70992 L 177.26461607978996,316.6199102825044 L 177.2571637037188,316.53121205789495 L 177.24490694862428,316.44395964902213 L 177.22797989134435,316.35828737873635 L 177.20651660871695,316.2743295698881 L 177.18065117757996,316.1922205453278 L 177.15051767477132,316.11209462790606 L 177.11625017712893,316.03408614047316 L 177.07798276149074,315.95832940587974 L 177.03584950469465,315.8849587469761 L 176.98998448357858,315.81410848661284 L 176.94052177498045,315.74591294764036 L 176.8875954557382,315.6805064529091 L 176.8313396026897,315.61802332526963 L 176.77188829267288,315.5585978875723 L 176.70937560252568,315.50236446266763 L 176.64393560908604,315.44945737340606 L 176.57570238919183,315.4000109426381 L 176.504810019681,315.3541594932142 L 176.43139257739145,315.31203734798476 L 176.3555841391611,315.27377882980034 L 176.2775187818279,315.23951826151136 L 176.19733058222974,315.2093899659683 L 176.11515361720453,315.1835282660216 L 176.0311219635902,315.16206748452174 L 175.94536969822468,315.14514194431916 L 175.8580308979459,315.1328859682644 L 175.76923963959172,315.1254338792079 L 175.67913000000013,315.12292 L 165.6433787499999,315.12292 L 156.11837874999992,315.12292 L 151.3461299999999,315.12292 L 151.2561202825043,315.1254338792079 L 151.16742205789487,315.1328859682644 L 151.080169649022,315.14514194431916 L 150.9944973787362,315.16206748452174 L 150.91053956988796,315.1835282660216 L 150.8284305453277,315.2093899659683 L 150.74830462790592,315.23951826151136 L 150.67029614047308,315.27377882980034 L 150.5945394058796,315.31203734798476 L 150.521168746976,315.3541594932142 L 150.45031848661273,315.4000109426381 L 150.38212294764026,315.44945737340606 L 150.31671645290902,315.50236446266763 L 150.2542333252695,315.5585978875723 L 150.19480788757218,315.61802332526963 L 150.13857446266752,315.6805064529091 L 150.08566737340598,315.74591294764036 L 150.036220942638,315.81410848661284 L 149.99036949321408,315.8849587469761 L 149.94824734798468,315.95832940587974 L 149.90998882980026,316.03408614047316 L 149.87572826151128,316.11209462790606 L 149.8455999659682,316.1922205453278 L 149.81973826602152,316.2743295698881 L 149.79827748452166,316.35828737873635 L 149.7813519443191,316.44395964902213 L 149.76909596826434,316.53121205789495 L 149.7616438792078,316.6199102825044 L 149.75912999999997,316.70992 L 149.7591299999999,321.20592 L 149.76459590676114,321.35906182623313 L 149.78021278322186,321.4907169166427 L 149.80480936364745,321.602057275001 L 149.83721438230342,321.6942549050802 L 149.87625657345515,321.76848181065236 L 149.92076467136815,321.8259099954898 L 149.96956741030783,321.8677114633646 L 150.02149352453966,321.89505821804914 L 150.07537174832908,321.90912226331545 L 150.13003081594152,321.91107560293574 L 150.18429946164247,321.9020902406823 L 150.2370064196973,321.8833381803272 L 150.28698042437156,321.85599142564274 L 150.3330502099306,321.82122198040105 L 150.37404451063995,321.7802018483743 L 150.408792060765,321.73410303333475 L 150.43612159457123,321.6840975390545 L 150.45486184632406,321.6313573693059 L 150.46384155028898,321.577054527861 L 150.4618894407314,321.522361018492 L 150.44783425191676,321.46844884497114 L 150.42050471811052,321.4164900110706 L 150.37872957357817,321.3676565205626 L 150.32133755258508,321.3231203772193 L 150.24715738939676,321.2840535848129 L 150.15501781827865,321.2516281471156 L 150.04374757349615,321.22701606789957 L 149.91217538931477,321.211389350937 L 149.7591299999999,321.2059200000001 L 107.66312999999991,321.20592 L 107.57312028250432,321.2084339202099 L 107.48442205789486,321.2158862962811 L 107.397169649022,321.22814305137564 L 107.31149737873622,321.2450701086555 L 107.22753956988798,321.26653339128296 L 107.14543054532773,321.29239882241995 L 107.06530462790593,321.32253232522856 L 106.98729614047308,321.356799822871 L 106.91153940587962,321.39506723850917 L 106.83816874697601,321.43720049530526 L 106.76731848661274,321.48306551642133 L 106.69912294764025,321.53252822501946 L 106.63371645290903,321.5854545442618 L 106.57123332526952,321.64171039731025 L 106.5118078875722,321.70116170732706 L 106.45557446266753,321.7636743974743 L 106.40266737340599,321.82911439091396 L 106.35322094263802,321.89734761080814 L 106.3073694932141,321.968239980319 L 106.2652473479847,322.0416574226086 L 106.22698882980028,322.11746586083893 L 106.1927282615113,322.1955312181721 L 106.16259996596824,322.2757194177703 L 106.13673826602154,322.35789638279556 L 106.1152774845217,322.4419280364099 L 106.09835194431915,322.5276803017754 L 106.08609596826437,322.6150191020542 L 106.07864387920785,322.7038103604084 L 106.07613,322.79392 L 106.07612999999999,325.8178850000001 L 106.07612999999995,335.3428850000001 L 106.0761299999999,343.62161000000003 L 106.0761299999999,344.44984000000005 L 106.07864387920775,344.5399506388126 L 106.08609596826429,344.62874282750425 L 106.09835194431906,344.71608249169714 L 106.11527748452161,344.8018355570135 L 106.13673826602147,344.8858679490755 L 106.16259996596817,344.96804559350534 L 106.19272826151123,345.04823441592526 L 106.22698882980022,345.1263003419575 L 106.26524734798464,345.20210929722424 L 106.30736949321405,345.27552720734764 L 106.35322094263798,345.34641999794997 L 106.40266737340593,345.4146535946534 L 106.45557446266749,345.4800939230802 L 106.51180788757216,345.54260690885246 L 106.57123332526947,345.60205847759244 L 106.63371645290898,345.6583145549224 L 106.6991229476402,345.7112410664645 L 106.7673184866127,345.76070393784096 L 106.83816874697597,345.80656909467393 L 106.91153940587958,345.8487024625857 L 106.98729614047303,345.88696996719847 L 107.06530462790589,345.9212375341344 L 107.14543054532767,345.9513710890157 L 107.22753956988792,345.9772365574646 L 107.31149737873618,345.9986998651033 L 107.39716964902195,346.015626937554 L 107.4844220578948,346.0278837004389 L 107.57312028250425,346.0353360793803 L 107.66312999999984,346.0378500000002 L 145.11837874999992,346.0378500000002 L 154.6433787499999,346.0378500000002 L 232.7278762499999,346.03785000000016 L 242.25287624999987,346.03785000000016 L 320.33737374999987,346.0378500000001 L 329.86237374999985,346.0378500000001 L 407.9468712499999,346.03785000000005 L 417.4718712499999,346.03785000000005 L 454.9271199999999,346.03785000000005 L 455.0172261544138,346.0353360793801 L 455.10600728525145,346.0278837004388 L 455.1933298077001,346.01562693755386 L 455.2790601369469,345.99869986510316 L 455.363064688179,345.9772365574645 L 455.4452098765836,345.9513710890156 L 455.52536211734787,345.9212375341343 L 455.603387825659,345.8869699671984 L 455.67915341670414,345.84870246258566 L 455.7525253056705,345.8065690946739 L 455.8233699077452,345.7607039378409 L 455.8915536381154,345.7112410664645 L 455.9569429119684,345.6583145549224 L 456.0194041444912,345.60205847759244 L 456.07880375087115,345.54260690885246 L 456.1350081462953,345.4800939230802 L 456.1878837459509,345.41465359465343 L 456.23729696502505,345.34641999795 L 456.283114218705,345.2755272073477 L 456.3252019221779,345.2021092972243 L 456.36342649063084,345.12630034195763 L 456.3976543392511,345.0482344159254 L 456.4277518832259,344.96804559350545 L 456.45358553774224,344.8858679490756 L 456.47502171798743,344.80183555701365 L 456.49192683914856,344.7160824916973 L 456.5041673164129,344.6287428275044 L 456.51160956496756,344.53995063881285 L 456.51411999999976,344.4498400000003 L 456.5141199999999,343.62161000000003 L 456.5141199999999,335.3428850000001 L 456.5141199999999,325.8178850000001 L 456.5141199999999,322.79392 L 456.51160956496767,322.7038103604084 L 456.50416731641303,322.6150191020542 L 456.4919268391487,322.5276803017754 L 456.4750217179875,322.4419280364099 L 456.4535855377423,322.3578963827955 L 456.42775188322594,322.2757194177703 L 456.3976543392512,322.1955312181721 L 456.3634264906309,322.1174658608389 L 456.32520192217794,322.0416574226085 L 456.28311421870507,321.96823998031897 L 456.23729696502517,321.89734761080814 L 456.18788374595096,321.8291143909139 L 456.1350081462954,321.76367439747423 L 456.07880375087126,321.70116170732706 L 456.0194041444913,321.6417103973102 L 455.9569429119685,321.5854545442617 L 455.8915536381155,321.5325282250194 L 455.8233699077453,321.4830655164213 L 455.7525253056706,321.4372004953052 L 455.67915341670425,321.39506723850906 L 455.6033878256591,321.35679982287087 L 455.52536211734804,321.3225323252285 L 455.44520987658376,321.29239882241984 L 455.3630646881792,321.26653339128285 L 455.27906013694707,321.2450701086554 L 455.1933298077003,321.22814305137547 L 455.1060072852517,321.2158862962809 L 455.017226154414,321.20843392020976 L 454.9271200000002,321.2059199999998 L 454.92712,321.20592" fill="none" stroke="rgb(0,0,0)" stroke-width="0.5"/>
	<path d="M 808.84204,320.64395 L 808.8420399999993,320.64394999999985 L 808.9321461544132,320.6464639202098 L 809.020927285251,320.65391629628095 L 809.1082498076996,320.6661730513755 L 809.1939801369465,320.6831001086554 L 809.2779846881787,320.7045633912829 L 809.3601298765833,320.73042882241987 L 809.4402821173477,320.76056232522853 L 809.5183078256588,320.7948298228709 L 809.594073416704,320.8330972385091 L 809.6674453056704,320.87523049530523 L 809.7382899077452,320.9210955164213 L 809.8064736381154,320.97055822501943 L 809.8718629119684,321.02348454426175 L 809.9343241444914,321.0797403973102 L 809.9937237508713,321.1391917073271 L 810.0499281462954,321.20170439747426 L 810.1028037459511,321.2671443909139 L 810.1522169650253,321.33537761080817 L 810.1980342187053,321.406269980319 L 810.2401219221781,321.47968742260855 L 810.2783464906312,321.5554958608389 L 810.3125743392515,321.63356121817213 L 810.3426718832262,321.7137494177703 L 810.3685055377426,321.7959263827955 L 810.3899417179878,321.8799580364099 L 810.406846839149,321.9657103017754 L 810.4190873164133,322.0530491020542 L 810.4265295649681,322.1418403604084 L 810.4290400000002,322.23195000000004 L 810.4290400000002,325.25591500000013 L 810.4290400000002,334.7809150000001 L 810.4290400000002,343.05964000000006 L 810.4290399999998,343.88786999999985 L 810.4265295649676,343.9779806388124 L 810.419087316413,344.06677282750405 L 810.4068468391487,344.154112491697 L 810.3899417179875,344.23986555701333 L 810.3685055377423,344.32389794907533 L 810.342671883226,344.4060755935052 L 810.3125743392512,344.4862644159252 L 810.278346490631,344.5643303419574 L 810.240121922178,344.6401392972241 L 810.1980342187052,344.71355720734755 L 810.1522169650252,344.7844499979499 L 810.1028037459511,344.85268359465334 L 810.0499281462955,344.9181239230801 L 809.9937237508714,344.9806369088524 L 809.9343241444915,345.04008847759235 L 809.8718629119686,345.0963445549223 L 809.8064736381157,345.1492710664644 L 809.7382899077454,345.19873393784087 L 809.6674453056708,345.24459909467384 L 809.5940734167044,345.28673246258563 L 809.5183078256592,345.3249999671984 L 809.4402821173481,345.3592675341343 L 809.3601298765839,345.3894010890156 L 809.2779846881793,345.4152665574645 L 809.1939801369472,345.4367298651032 L 809.1082498077004,345.4536569375539 L 809.0209272852518,345.4659137004388 L 808.9321461544141,345.4733660793801 L 808.8420400000002,345.4758800000001 L 771.3867912500002,345.4758800000001 L 761.8617912500001,345.4758800000001 L 683.7772937500002,345.47588000000013 L 674.2522937500001,345.47588000000013 L 596.1677962500003,345.4758800000002 L 586.6427962500002,345.4758800000002 L 508.5582987500002,345.47588000000025 L 499.0332987500002,345.47588000000025 L 461.57804999999996,345.47588000000025 L 461.4880402825044,345.4733660793803 L 461.39934205789496,345.46591370043893 L 461.31208964902214,345.453656937554 L 461.22641737873636,345.4367298651033 L 461.1424595698881,345.41526655746463 L 461.0603505453279,345.38940108901573 L 460.98022462790607,345.3592675341344 L 460.90221614047323,345.3249999671985 L 460.8264594058798,345.28673246258575 L 460.7530887469762,345.24459909467396 L 460.68223848661296,345.198733937841 L 460.6140429476404,345.1492710664645 L 460.54863645290925,345.09634455492244 L 460.48615332526975,345.04008847759246 L 460.42672788757244,344.9806369088525 L 460.37049446266775,344.9181239230802 L 460.3175873734062,344.8526835946534 L 460.26814094263824,344.78444999795 L 460.2222894932143,344.71355720734766 L 460.18016734798493,344.64013929722427 L 460.1419088298005,344.56433034195754 L 460.10764826151154,344.4862644159253 L 460.07751996596846,344.40607559350536 L 460.0516582660218,344.3238979490755 L 460.0301974845219,344.2398655570135 L 460.01327194431934,344.15411249169716 L 460.0010159682646,344.0667728275043 L 459.993563879208,343.97798063881265 L 459.9910500000002,343.8878700000001 L 459.9910500000002,343.05964000000006 L 459.9910500000002,335.3428850000001 L 459.9910500000002,325.8178850000001 L 459.9910500000002,322.23195000000004 L 459.99356387920807,322.1418403604084 L 460.0010159682646,322.0530491020542 L 460.01327194431934,321.9657103017754 L 460.0301974845219,321.8799580364099 L 460.0516582660218,321.7959263827956 L 460.07751996596846,321.7137494177703 L 460.10764826151154,321.63356121817213 L 460.1419088298005,321.55549586083896 L 460.18016734798493,321.4796874226086 L 460.22228949321436,321.40626998031905 L 460.2681409426383,321.33537761080817 L 460.31758737340624,321.267144390914 L 460.3704944626678,321.2017043974743 L 460.4267278875725,321.1391917073271 L 460.4861533252698,321.0797403973103 L 460.5486364529093,321.0234845442618 L 460.61404294764054,320.9705582250195 L 460.682238486613,320.92109551642136 L 460.7530887469763,320.8752304953053 L 460.8264594058799,320.8330972385092 L 460.90221614047334,320.794829822871 L 460.98022462790624,320.7605623252286 L 461.060350545328,320.73042882242 L 461.1424595698883,320.704563391283 L 461.2264173787365,320.68310010865554 L 461.3120896490223,320.66617305137567 L 461.3993420578951,320.6539162962811 L 461.4880402825046,320.64646392020995 L 461.5780500000002,320.64395 L 503.67404999999974,320.64395000000013 L 503.82709538931465,320.649419350937 L 503.95866757349603,320.6650460678996 L 504.06993781827856,320.6896581471156 L 504.1620773893967,320.72208358481294 L 504.2362575525851,320.76115037721934 L 504.29364957357814,320.80568652056263 L 504.3354247181106,320.85452001107063 L 504.3627542519168,320.90647884497116 L 504.37680944073145,320.96039101849203 L 504.3787615502891,321.015084527861 L 504.3697818463242,321.0693873693059 L 504.35104159457137,321.12212753905453 L 504.32371206076516,321.1721330333348 L 504.2889645106401,321.21823184837433 L 504.24797020993077,321.2592519804011 L 504.20190042437173,321.29402142564277 L 504.15192641969753,321.3213681803272 L 504.0992194616427,321.3401202406823 L 504.0449508159418,321.34910560293577 L 503.9902917483293,321.3471522633155 L 503.9364135245399,321.33308821804917 L 503.8844874103081,321.30574146336465 L 503.8356846713684,321.2639399954898 L 503.7911765734554,321.2065118106524 L 503.75213438230367,321.1322849050802 L 503.71972936364773,321.04008727500104 L 503.6951327832221,320.92874691664275 L 503.6795159067614,320.79709182623316 L 503.6740500000002,320.64395 L 503.6740500000002,316.14795000000004 L 503.67656387920806,316.05794028250443 L 503.6840159682646,315.969242057895 L 503.69627194431934,315.88198964902216 L 503.7131974845219,315.7963173787364 L 503.73465826602177,315.7123595698881 L 503.76051996596846,315.63025054532784 L 503.79064826151154,315.5501246279061 L 503.8249088298005,315.4721161404732 L 503.8631673479849,315.39635940587976 L 503.90528949321435,315.32298874697614 L 503.9511409426383,315.25213848661286 L 504.00058737340623,315.1839429476404 L 504.0534944626678,315.11853645290915 L 504.1097278875725,315.05605332526966 L 504.1691533252698,314.99662788757234 L 504.2316364529093,314.94039446266765 L 504.29704294764053,314.8874873734061 L 504.365238486613,314.83804094263814 L 504.4360887469763,314.7921894932142 L 504.5094594058799,314.7500673479848 L 504.58521614047334,314.71180882980036 L 504.66322462790623,314.6775482615114 L 504.743350545328,314.6474199659683 L 504.82545956988827,314.6215582660216 L 504.9094173787365,314.60009748452177 L 504.9950896490223,314.5831719443192 L 505.0823420578951,314.57091596826444 L 505.1710402825046,314.5634638792079 L 505.2610500000002,314.56095000000005 L 510.03329875000014,314.56095000000005 L 519.5582987500002,314.56095000000005 L 529.5940499999999,314.56095000000005 L 529.6841596395916,314.5634638792079 L 529.7729508979457,314.57091596826444 L 529.8602896982246,314.5831719443192 L 529.9460419635901,314.60009748452177 L 530.0300736172045,314.6215582660216 L 530.1122505822296,314.6474199659683 L 530.1924387818278,314.6775482615114 L 530.2705041391611,314.71180882980036 L 530.3463125773915,314.7500673479848 L 530.4197300196811,314.7921894932142 L 530.4906223891919,314.83804094263814 L 530.5588556090861,314.8874873734061 L 530.6242956025258,314.94039446266765 L 530.6868082926729,314.99662788757234 L 530.7462596026897,315.05605332526966 L 530.8025154557383,315.11853645290915 L 530.8554417749806,315.1839429476404 L 530.9049044835788,315.25213848661286 L 530.9507695046948,315.32298874697614 L 530.9929027614909,315.39635940587976 L 531.0311701771292,315.4721161404732 L 531.0654376747715,315.5501246279061 L 531.0955711775802,315.63025054532784 L 531.1214366087172,315.7123595698881 L 531.1428998913445,315.7963173787364 L 531.1598269486245,315.88198964902216 L 531.172083703719,315.969242057895 L 531.1795360797902,316.05794028250443 L 531.1820500000001,316.14795000000004 L 531.1820500000001,320.64394999999985 L 531.1765806490632,320.797091826233 L 531.1609539321007,320.92874691664264 L 531.1363418528846,321.04008727500093 L 531.1039164151873,321.13228490508004 L 531.0648496227809,321.2065118106523 L 531.0203134794376,321.2639399954897 L 530.9714799889296,321.30574146336454 L 530.919521155029,321.33308821804906 L 530.8656089815082,321.34715226331537 L 530.8109154721392,321.3491056029357 L 530.7566126306943,321.3401202406822 L 530.7038724609456,321.32136818032717 L 530.6538669666654,321.2940214256427 L 530.6077681516259,321.25925198040096 L 530.5667480195991,321.2182318483743 L 530.5319785743574,321.1721330333347 L 530.5046318196729,321.1221275390545 L 530.4858797593179,321.06938736930584 L 530.4768943970644,321.01508452786095 L 530.4788477366847,320.960391018492 L 530.492911781951,320.9064788449711 L 530.5202585366355,320.8545200110706 L 530.5620600045104,320.8056865205626 L 530.6194881893477,320.7611503772193 L 530.69371509492,320.7220835848128 L 530.7859127249991,320.6896581471155 L 530.8972530833573,320.6650460678995 L 531.028908173767,320.6494193509369 L 531.1820500000001,320.64395 L 573.2770500000001,320.64395 L 579.3610500000001,320.64395 L 621.4560500000003,320.64395000000013 L 621.6091918262334,320.649419350937 L 621.740846916643,320.6650460678996 L 621.8521872750014,320.6896581471156 L 621.9443849050805,320.72208358481294 L 622.0186118106526,320.76115037721934 L 622.07603999549,320.80568652056263 L 622.1178414633648,320.85452001107063 L 622.1451882180494,320.90647884497116 L 622.1592522633157,320.96039101849203 L 622.161205602936,321.015084527861 L 622.1522202406825,321.0693873693059 L 622.1334681803273,321.12212753905453 L 622.1061214256429,321.1721330333348 L 622.0713519804011,321.21823184837433 L 622.0303318483744,321.2592519804011 L 621.9842330333348,321.29402142564277 L 621.9342275390546,321.3213681803272 L 621.881487369306,321.3401202406823 L 621.827184527861,321.34910560293577 L 621.7724910184921,321.3471522633155 L 621.7185788449713,321.33308821804917 L 621.6666200110707,321.30574146336465 L 621.6177865205626,321.2639399954898 L 621.5732503772193,321.2065118106524 L 621.5341835848129,321.1322849050802 L 621.5017581471157,321.04008727500104 L 621.4771460678995,320.92874691664275 L 621.461519350937,320.79709182623316 L 621.4560500000001,320.64395 L 621.4560499999999,316.14795000000004 L 621.4585639202098,316.05794028250443 L 621.466016296281,315.969242057895 L 621.4782730513756,315.88198964902216 L 621.4952001086555,315.7963173787364 L 621.5166633912829,315.7123595698881 L 621.54252882242,315.63025054532784 L 621.5726623252285,315.5501246279061 L 621.6069298228709,315.4721161404732 L 621.6451972385091,315.39635940587976 L 621.6873304953053,315.32298874697614 L 621.7331955164213,315.25213848661286 L 621.7826582250195,315.1839429476404 L 621.8355845442618,315.11853645290915 L 621.8918403973104,315.05605332526966 L 621.9512917073272,314.99662788757234 L 622.0138043974744,314.94039446266765 L 622.079244390914,314.8874873734061 L 622.1474776108082,314.83804094263814 L 622.218369980319,314.7921894932142 L 622.2917874226086,314.7500673479848 L 622.367595860839,314.71180882980036 L 622.4456612181722,314.6775482615114 L 622.5258494177704,314.6474199659683 L 622.6080263827956,314.6215582660216 L 622.69205803641,314.60009748452177 L 622.7778103017755,314.5831719443192 L 622.8651491020543,314.57091596826444 L 622.9539403604085,314.5634638792079 L 623.0440500000001,314.56095000000005 L 625.1427962500002,314.56095000000005 L 634.6677962500003,314.56095000000005 L 647.3770500000003,314.56095000000005 L 647.4670597174959,314.5634638792079 L 647.5557579421053,314.57091596826444 L 647.6430103509781,314.5831719443192 L 647.7286826212639,314.60009748452177 L 647.8126404301121,314.6215582660216 L 647.8947494546724,314.6474199659683 L 647.9748753720942,314.6775482615114 L 648.052883859527,314.71180882980036 L 648.1286405941205,314.7500673479848 L 648.202011253024,314.7921894932142 L 648.2728615133873,314.83804094263814 L 648.3410570523598,314.8874873734061 L 648.406463547091,314.94039446266765 L 648.4689466747305,314.99662788757234 L 648.5283721124279,315.05605332526966 L 648.5846055373324,315.11853645290915 L 648.637512626594,315.1839429476404 L 648.686959057362,315.25213848661286 L 648.7328105067859,315.32298874697614 L 648.7749326520153,315.39635940587976 L 648.8131911701997,315.4721161404732 L 648.8474517384888,315.5501246279061 L 648.8775800340318,315.63025054532784 L 648.9034417339785,315.7123595698881 L 648.9249025154784,315.7963173787364 L 648.9418280556808,315.88198964902216 L 648.9540840317356,315.969242057895 L 648.9615361207922,316.05794028250443 L 648.96405,316.14795000000004 L 648.96405,320.64394999999985 L 648.9585840932388,320.797091826233 L 648.9429672167781,320.92874691664264 L 648.9183706363525,321.04008727500093 L 648.8859656176966,321.13228490508004 L 648.8469234265448,321.2065118106523 L 648.8024153286318,321.2639399954897 L 648.7536125896921,321.30574146336454 L 648.7016864754603,321.33308821804906 L 648.6478082516709,321.34715226331537 L 648.5931491840585,321.3491056029357 L 648.5388805383575,321.3401202406822 L 648.4861735803026,321.32136818032717 L 648.4361995756284,321.2940214256427 L 648.3901297900693,321.25925198040096 L 648.34913548936,321.2182318483743 L 648.314387939235,321.1721330333347 L 648.2870584054288,321.1221275390545 L 648.2683181536759,321.06938736930584 L 648.259338449711,321.01508452786095 L 648.2612905592686,320.960391018492 L 648.2753457480832,320.9064788449711 L 648.3026752818894,320.8545200110706 L 648.3444504264218,320.8056865205626 L 648.4018424474149,320.7611503772193 L 648.4760226106032,320.7220835848128 L 648.5681621817213,320.6896581471155 L 648.6794324265038,320.6650460678995 L 648.8110046106852,320.6494193509369 L 648.96405,320.64395 L 691.06005,320.64395 L 697.14305,320.64395 L 739.2380500000003,320.64395000000013 L 739.3911918262334,320.649419350937 L 739.522846916643,320.6650460678996 L 739.6341872750013,320.6896581471156 L 739.7263849050804,320.72208358481294 L 739.8006118106525,320.76115037721934 L 739.8580399954899,320.80568652056263 L 739.8998414633647,320.85452001107063 L 739.9271882180493,320.90647884497116 L 739.9412522633156,320.96039101849203 L 739.9432056029359,321.015084527861 L 739.9342202406824,321.0693873693059 L 739.9154681803273,321.12212753905453 L 739.8881214256428,321.1721330333348 L 739.853351980401,321.21823184837433 L 739.8123318483744,321.2592519804011 L 739.7662330333347,321.29402142564277 L 739.7162275390546,321.3213681803272 L 739.6634873693059,321.3401202406823 L 739.609184527861,321.34910560293577 L 739.5544910184921,321.3471522633155 L 739.5005788449712,321.33308821804917 L 739.4486200110706,321.30574146336465 L 739.3997865205625,321.2639399954898 L 739.3552503772192,321.2065118106524 L 739.3161835848128,321.1322849050802 L 739.2837581471156,321.04008727500104 L 739.2591460678995,320.92874691664275 L 739.2435193509369,320.79709182623316 L 739.23805,320.64395 L 739.2380500000007,316.14795000000004 L 739.2405639202107,316.05794028250443 L 739.2480162962818,315.969242057895 L 739.2602730513762,315.88198964902216 L 739.2772001086561,315.7963173787364 L 739.2986633912834,315.7123595698881 L 739.3245288224205,315.63025054532784 L 739.354662325229,315.5501246279061 L 739.3889298228713,315.4721161404732 L 739.4271972385095,315.39635940587976 L 739.4693304953056,315.32298874697614 L 739.5151955164216,315.25213848661286 L 739.5646582250198,315.1839429476404 L 739.6175845442621,315.11853645290915 L 739.6738403973105,315.05605332526966 L 739.7332917073272,314.99662788757234 L 739.7958043974744,314.94039446266765 L 739.8612443909141,314.8874873734061 L 739.9294776108082,314.83804094263814 L 740.0003699803191,314.7921894932142 L 740.0737874226087,314.7500673479848 L 740.149595860839,314.71180882980036 L 740.2276612181722,314.6775482615114 L 740.3078494177704,314.6474199659683 L 740.3900263827956,314.6215582660216 L 740.4740580364099,314.60009748452177 L 740.5598103017754,314.5831719443192 L 740.6471491020542,314.57091596826444 L 740.7359403604084,314.5634638792079 L 740.82605,314.56095000000005 L 750.8617912500001,314.56095000000005 L 760.3867912500002,314.56095000000005 L 765.15904,314.56095000000005 L 765.2491461544139,314.5634638792079 L 765.3379272852516,314.57091596826444 L 765.4252498077002,314.5831719443192 L 765.510980136947,314.60009748452177 L 765.5949846881791,314.6215582660216 L 765.6771298765836,314.6474199659683 L 765.7572821173479,314.6775482615114 L 765.8353078256591,314.71180882980036 L 765.9110734167042,314.7500673479848 L 765.9844453056705,314.7921894932142 L 766.0552899077453,314.83804094263814 L 766.1234736381156,314.8874873734061 L 766.1888629119685,314.94039446266765 L 766.2513241444914,314.99662788757234 L 766.3107237508713,315.05605332526966 L 766.3669281462954,315.11853645290915 L 766.4198037459511,315.1839429476404 L 766.4692169650252,315.25213848661286 L 766.5150342187052,315.32298874697614 L 766.557121922178,315.39635940587976 L 766.595346490631,315.4721161404732 L 766.6295743392512,315.5501246279061 L 766.659671883226,315.63025054532784 L 766.6855055377424,315.7123595698881 L 766.7069417179877,315.7963173787364 L 766.7238468391488,315.88198964902216 L 766.7360873164131,315.969242057895 L 766.7435295649678,316.05794028250443 L 766.74604,316.14795000000004 L 766.74604,320.64394999999985 L 766.7405740932387,320.797091826233 L 766.7249572167781,320.92874691664264 L 766.7003606363525,321.04008727500093 L 766.6679556176965,321.13228490508004 L 766.6289134265447,321.2065118106523 L 766.5844053286318,321.2639399954897 L 766.5356025896921,321.30574146336454 L 766.4836764754602,321.33308821804906 L 766.4297982516708,321.34715226331537 L 766.3751391840584,321.3491056029357 L 766.3208705383574,321.3401202406822 L 766.2681635803026,321.32136818032717 L 766.2181895756283,321.2940214256427 L 766.1721197900692,321.25925198040096 L 766.13112548936,321.2182318483743 L 766.0963779392349,321.1721330333347 L 766.0690484054287,321.1221275390545 L 766.0503081536758,321.06938736930584 L 766.0413284497109,321.01508452786095 L 766.0432805592685,320.960391018492 L 766.0573357480831,320.9064788449711 L 766.0846652818893,320.8545200110706 L 766.1264404264217,320.8056865205626 L 766.1838324474148,320.7611503772193 L 766.2580126106031,320.7220835848128 L 766.3501521817212,320.6896581471155 L 766.4614224265038,320.6650460678995 L 766.5929946106852,320.6494193509369 L 766.74604,320.64395 L 808.84204,320.64395" fill="none" stroke="rgb(0,0,0)" stroke-width="0.5"/>
	<path d="M 59.949642,4.5784186 L 101.98454931513302,4.717761196633444 L 111.50504782871418,4.749320942303435 L 120.5656,4.779356 L 120.5656,10.930913999999998 L 142.32754000000006,10.930913999999998 L 142.35094000000007,4.771326899999998 L 195.9626992007453,4.757375302545733 L 205.4867306978572,4.754896826637268 L 238.60281000000006,4.746278899999998 L 238.40437000000006,10.864767999999998 L 260.06714000000005,10.930917999999998 L 260.10024000000004,4.6470644 L 289.94278478240744,4.6470644 L 299.4677847824074,4.6470644 L 356.04477,4.6470644 L 356.04477,10.930918 L 377.60831900000005,10.930918 L 377.60831900000005,4.5147727 L 383.9234154953704,4.5147727 L 393.4484154953704,4.5147727 L 435.55201900000003,4.5147727 L 435.552019,27.707449916666672 L 435.552019,37.23244991666667 L 435.552019,41.490296 L 435.57853943626225,42.082942390257905 L 435.6017282451515,42.68408619459592 L 435.621654607856,43.29394394956743 L 435.63838770556396,43.91273219172578 L 435.6519967194637,44.54066745762434 L 435.6625508307434,45.177966283816474 L 435.67011922059123,45.82484520685555 L 435.67477107019556,46.481520763294924 L 435.6765755607446,47.14820948968797 L 435.67560187342656,47.82512792258805 L 435.6719191894297,48.512492598548526 L 435.6655966899422,49.21052005412276 L 435.65670355615237,49.91942682586412 L 435.64530896924845,50.63942945032596 L 435.63148211041863,51.370744464061666 L 435.6152921608512,52.11358840362459 L 435.5968083017344,52.86817780556809 L 435.57609971425643,53.63472920644553 L 435.5532355796056,54.41345914281028 L 435.52828507897004,55.20458415121571 L 435.5013173935381,56.00832076821518 L 435.47240170449794,56.82488553036205 L 435.44160719303784,57.65449497420968 L 435.4090030403461,58.49736563631145 L 435.3746584276108,59.35371405322071 L 435.33864253602036,60.22375676149084 L 435.3010245467629,61.10771029767518 L 435.26187364102674,62.00579119832712 L 435.22125900000003,62.918216 L 435.22125900000015,127.2483799999999 L 435.246200016442,127.9636566255278 L 435.2692247771948,128.67300931813514 L 435.290312056296,129.3774023018573 L 435.30944062778315,130.07779980072976 L 435.32658926569366,130.7751660387879 L 435.34173674406503,131.47046524006717 L 435.3548618369348,132.164661628603 L 435.3659433183403,132.8587194284308 L 435.37495996231917,133.55360286358598 L 435.38189054290876,134.25027615810401 L 435.38671383414663,134.94970353602028 L 435.3894086100702,135.65284922137025 L 435.38995364471697,136.3606774381893 L 435.3883277121244,137.07415241051288 L 435.38450958632995,137.79423836237643 L 435.3784780413712,138.52189951781537 L 435.3702118512855,139.2581001008651 L 435.35968979011034,140.00380433556109 L 435.3468906318833,140.7599764459387 L 435.3317931506417,141.52758065603342 L 435.31437612042316,142.30758118988064 L 435.2946183152651,143.1009422715158 L 435.272498509205,143.90862812497434 L 435.2479954762803,144.73160297429166 L 435.22108799052853,145.57083104350318 L 435.1917548259872,146.42727655664436 L 435.1599747566936,147.3019037377506 L 435.12572655668544,148.19567681085732 L 435.088989,149.10955999999996 L 435.0906014163899,149.85050704345358 L 435.11132708701354,159.37448885654644 L 435.22930900000006,213.59023000000005 L 435.23773783349054,214.24668808397232 L 435.2492900127517,214.9240246598877 L 435.2635675042438,215.6205239033991 L 435.28017227442706,216.3344699901595 L 435.2987062897618,217.0641470958219 L 435.3187715167084,217.8078393960392 L 435.33996992172706,218.5638310664644 L 435.3619034712781,219.33040628275043 L 435.3841741318218,220.10584922055025 L 435.4063838698184,220.88844405551683 L 435.42813465172827,221.67647496330312 L 435.4490284440117,222.46822611956208 L 435.4686672131289,223.2619816999467 L 435.4866529255402,224.05602588010987 L 435.50258754770596,224.8486428357046 L 435.5160730460864,225.63811674238383 L 435.52671138714175,226.42273177580051 L 435.53410453733244,227.20077211160765 L 435.53785446311866,227.97052192545814 L 435.5375631309607,228.730265393005 L 435.5328325073189,229.47828668990115 L 435.5232645586535,230.21286999179952 L 435.5084612514248,230.93229947435316 L 435.4880245520932,231.63485931321492 L 435.4615564271188,232.31883368403783 L 435.428658842962,232.98250676247483 L 435.3889337660831,233.6241627241789 L 435.3419831629423,234.24208574480295 L 435.287409,234.83455999999995 L 435.287409,238.99254598333337 L 435.287409,248.51754598333335 L 435.287409,271.61164999999994 L 377.71944900000005,271.7519699999999 L 377.64924900000005,265.29734999999994 L 378.13736900000004,265.83241999999996 L 374.7514685,265.83241999999996 L 365.2264685,265.83241999999996 L 356.59922900000004,265.83241999999996 L 356.34231900000003,265.54275999999993 L 356.375419,271.8100799999999 L 287.14196549999997,271.8100799999999 L 277.6169655,271.8100799999999 L 259.816549,271.8100799999999 L 259.8000489999997,265.6117099999996 L 259.83280627910096,265.62275395588136 L 259.8667782672924,265.62540238427124 L 259.9015700184917,265.6205004711137 L 259.93678658661673,265.6088934023532 L 259.9720330255851,265.59142636393426 L 260.00691438931466,265.56894454180133 L 260.0410357317231,265.542293121899 L 260.0740021067283,265.51231729017155 L 260.10541856824784,265.4798622325636 L 260.1348901701996,265.4457731350197 L 260.1620219665012,265.4108951834842 L 260.1864190110705,265.37607356390157 L 260.2076863578252,265.3421534622164 L 260.22542906068304,265.3099800643731 L 260.2392521735618,265.2803985563162 L 260.24876075037923,265.25425412399017 L 260.2535598450531,265.23239195333946 L 260.25325451150104,265.21565723030864 L 260.24744980364096,265.20489514084204 L 260.23575077539056,265.2009508708843 L 260.2177624806675,265.2046696063798 L 260.19308997338965,265.2168965332731 L 260.1613383074747,265.2384768375086 L 260.1221125368404,265.2702557050309 L 260.0750177154045,265.3130783217843 L 260.01965889708475,265.36778987371343 L 259.95564113579894,265.4352355467628 L 259.8825694854648,265.51626052687675 L 259.800049,265.6117099999999 L 238.799689,265.7111099999999 L 238.624529,265.3705599999999 L 238.624529,271.6737999999999 L 199.53234896478628,271.6927704188749 L 190.00757603521365,271.6973925436068 L 142.1841690000001,271.7206000000001 L 142.1837072155891,271.4984678117185 L 142.18240371401052,271.2611319348888 L 142.180381272746,271.010353056706 L 142.17776266927723,270.74789186436516 L 142.17467068108581,270.47550904506136 L 142.17122808565344,270.19496528598967 L 142.16755766046174,269.90802127434506 L 142.16378218299238,269.6164376973226 L 142.16002443072702,269.3219752421174 L 142.15640718114727,269.02639459592444 L 142.15305321173483,268.73145644593876 L 142.15008529997132,268.4389214793555 L 142.14762622333842,268.15055038336953 L 142.14579875931776,267.8681038451761 L 142.144725685391,267.5933425519701 L 142.14452977903974,267.3280271909467 L 142.14533381774572,267.0739184493009 L 142.14726057899054,266.8327770142277 L 142.15043284025586,266.6063635729222 L 142.15497337902335,266.3964388125794 L 142.16100497277463,266.2047634203944 L 142.16865039899136,266.0330980835622 L 142.1780324351552,265.8832034892779 L 142.1892738587478,265.7568403247365 L 142.2024974472508,265.6557692771331 L 142.2178259781459,265.58175103366267 L 142.2353822289147,265.5365462815203 L 142.25528897703884,265.5219157079011 L 142.277669,265.53961999999996 L 142.277669,265.53961999999996 L 120.834189,265.64502999999996 L 120.83018899999999,264.99710999999996 L 120.83018899999999,271.94241999999997 L 111.92295949999996,271.94241999999997 L 102.39795949999996,271.94241999999997 L 59.952152999999996,271.94241999999997 L 59.952152999999974,248.63364545 L 59.95215299999997,239.10864545 L 59.95215299999996,234.7604299999998 L 59.949348237484074,233.67299843618005 L 59.94561944446263,232.643237180286 L 59.941037242035314,231.66752707532066 L 59.93567225130179,230.74224896428703 L 59.92959509336173,229.86378369018806 L 59.92287638931483,229.02851209602676 L 59.91558676026075,228.23281502480614 L 59.90779682729917,227.4730733195292 L 59.89957721152977,226.7456678231989 L 59.890998534052216,226.04697937881824 L 59.8821314159662,225.37338882939022 L 59.87304647837138,224.72127701791783 L 59.86381434236745,224.0870247874041 L 59.85450562905407,223.46701298085196 L 59.845190959530925,222.85762244126445 L 59.83594095489769,222.25523401164455 L 59.826826236254036,221.65622853499525 L 59.81791742469965,221.05698685431955 L 59.8092851413342,220.45388981262042 L 59.801000007257365,219.84331825290087 L 59.79313264356882,219.22165301816392 L 59.785753671368234,218.58527495141252 L 59.77893371175529,217.93056489564967 L 59.77274338582967,217.25390369387839 L 59.76725331469105,216.55167218910165 L 59.76253411943909,215.82025122432245 L 59.75865642117348,215.05602164254375 L 59.755690840993886,214.2553642867686 L 59.753707999999996,213.41466 L 59.753707999999975,159.49109635 L 59.753707999999975,149.96609635000002 L 59.753707999999975,148.89978000000002 L 59.77112232736067,148.0696762483087 L 59.7877445356513,147.29393431465007 L 59.80356063659845,146.56725818114725 L 59.81855664192872,145.88435182992333 L 59.832718563368715,145.2399192431014 L 59.84603241264503,144.62866440280456 L 59.85848420148426,144.04529129115585 L 59.87005994161301,143.4845038902784 L 59.88074564475787,142.9410061822953 L 59.89052732264544,142.40950214932963 L 59.89939098700233,141.88469577350446 L 59.90732264955512,141.3612910369429 L 59.914308322030415,140.83399192176802 L 59.92033401615482,140.2975024101029 L 59.92538574365492,139.7465264840707 L 59.92944951625732,139.1757681257944 L 59.932511345688624,138.57993131739718 L 59.93455724367542,137.9537200410021 L 59.93557322194432,137.2918382787322 L 59.9355452922219,136.58899001271064 L 59.93445946623478,135.83987922506049 L 59.93230175570954,135.03920989790478 L 59.92905817237279,134.1816860133667 L 59.92471472795113,133.26201155356924 L 59.91925743417114,132.27489050063554 L 59.91267230275944,131.21502683668868 L 59.90494534544261,130.07712454385174 L 59.89606257394727,128.8558876042478 L 59.88601,127.54602 L 59.90255,62.791619999999995 L 59.915839999999996,55.962064 L 59.952149999999996,48.237162 L 60.01828999999999,43.54081 L 60.018291999999995,42.482481 L 59.949642,41.424148 L 59.949642,37.348547249999996 L 59.949642,27.82354725 L 59.949642,4.5784186" fill="none" stroke="rgb(0,0,0)" stroke-width="0.5"/>
	<path d="M 436.62998,4.4623159 L 478.6644534799398,4.608842454888528 L 488.1857475011053,4.642032412927801 L 494.2455,4.6631559 L 494.2455,10.814715 L 516.0074399999999,10.814715 L 516.0308399999999,4.6551259 L 572.6427014998749,4.640421806069182 L 582.1668114163971,4.637948059347035 L 612.28271,4.6301258999999995 L 612.08427,10.748615 L 633.74704,10.814815 L 633.78014,4.5309659 L 666.6226061574071,4.5309659 L 676.1476061574072,4.5309659 L 729.7247,4.5309659 L 729.7247,10.814815 L 751.28825,10.814815 L 751.28825,4.3986759 L 760.6030166203699,4.3986759 L 770.12801662037,4.3986759 L 812.23151,4.3986759 L 812.2315099999995,27.707449916666686 L 812.2315099999993,37.23244991666666 L 812.2315099999992,41.37419500000004 L 812.2580304362615,41.966841207716634 L 812.2812192451507,42.5679848757637 L 812.3011456078553,43.17784253700442 L 812.3178787055633,43.79663072430198 L 812.3314877194631,44.424565970519524 L 812.3420418307428,45.06186480852026 L 812.3496102205906,45.70874377116736 L 812.3542620701951,46.36541939132398 L 812.3560665607441,47.03210820185332 L 812.3550928734261,47.70902673561854 L 812.3514101894292,48.39639152548282 L 812.3450876899418,49.09441910430934 L 812.336194556152,49.803326004961264 L 812.3247999692481,50.52332876030179 L 812.3109731104183,51.25464390319407 L 812.2947831608509,51.9974879665013 L 812.2762993017342,52.752077483086644 L 812.2555907142562,53.51862898581329 L 812.2327265796054,54.297359007544394 L 812.2077760789698,55.08848408114314 L 812.1808083935379,55.89222073947272 L 812.1518927044978,56.708785515396286 L 812.1210981930377,57.538394941777035 L 812.088494040346,58.38126555147813 L 812.0541494276107,59.23761387736275 L 812.0181335360202,60.107656452294066 L 811.9805155467628,60.99160980913527 L 811.9413646410266,61.88969048074952 L 811.9007499999999,62.802115 L 811.9007500000001,127.13227999999994 L 811.9256919812211,127.84755662552784 L 811.9487175739064,128.55690931813518 L 811.9698055619338,129.26130230185734 L 811.9889347291813,129.9616998007298 L 812.0060838595269,130.65906603878793 L 812.0212317368487,131.3543652400672 L 812.0343571450245,132.04856162860304 L 812.0454388679323,132.74261942843083 L 812.0544556894502,133.43750286358602 L 812.0613863934561,134.13417615810405 L 812.0662097638279,134.83360353602032 L 812.0689045844438,135.5367492213703 L 812.0694496391816,136.24457743818934 L 812.0678237119193,136.95805241051292 L 812.0640055865349,137.67813836237647 L 812.0579740469063,138.4057995178154 L 812.0497078769117,139.14200010086515 L 812.0391858604288,139.88770433556112 L 812.0263867813358,140.64387644593873 L 812.0112894235106,141.41148065603346 L 811.9938725708311,142.19148118988068 L 811.9741150071753,142.98484227151584 L 811.9519955164212,143.79252812497438 L 811.9274928824469,144.6155029742917 L 811.9005858891303,145.45473104350322 L 811.8712533203493,146.3111765566444 L 811.8394739599819,147.18580373775063 L 811.8052265919061,148.07957681085736 L 811.7684899999999,148.99346 L 811.7703686257277,149.85679864732725 L 811.7910676509774,159.36921413057658 L 811.9087999999996,213.4741300000001 L 811.9172288679318,214.13058808397236 L 811.928781145598,214.80792465988773 L 811.943058792078,215.50442390339913 L 811.9596637664517,216.21836999015954 L 811.9781980277991,216.94804709582195 L 811.9982635352,217.69173939603925 L 812.0194622477343,218.44773106646443 L 812.041396124482,219.21430628275047 L 812.063667124523,219.9897492205503 L 812.0858772069373,220.77234405551687 L 812.1076283308046,221.56037496330316 L 812.128522455205,222.35212611956212 L 812.1481615392183,223.14588169994673 L 812.1661475419245,223.9399258801099 L 812.1820824224034,224.73254283570463 L 812.195568139735,225.52201674238387 L 812.2062066529992,226.30663177580055 L 812.2135999212758,227.0846721116077 L 812.217349903645,227.85442192545818 L 812.2170585591864,228.61416539300504 L 812.2123278469801,229.3621866899012 L 812.2027597261059,230.09676999179956 L 812.1879561556439,230.8161994743532 L 812.1675190946737,231.51875931321496 L 812.1410505022756,232.20273368403787 L 812.1081523375291,232.86640676247487 L 812.0684265595145,233.50806272417893 L 812.0214751273114,234.125985744803 L 811.9668999999999,234.71846 L 811.9668999999999,238.99254598333337 L 811.9668999999999,248.51754598333335 L 811.9668999999999,271.49555 L 770.1258852671086,271.5924853076916 L 760.6040642495733,271.61454501766787 L 751.39938,271.63586999999995 L 751.32918,265.18125 L 751.8172999999999,265.71632 L 730.2791599999999,265.71632 L 730.02225,265.42665999999997 L 730.05535,271.69397999999995 L 676.1476061574072,271.69397999999995 L 666.6226061574071,271.69397999999995 L 633.49648,271.69397999999995 L 633.4799800000001,265.49560999999966 L 633.5127372791013,265.5066539558814 L 633.5467092672927,265.5093023842713 L 633.5815010184921,265.50440047111374 L 633.616717586617,265.49279340235324 L 633.6519640255854,265.4753263639343 L 633.686845389315,265.45284454180137 L 633.7209667317234,265.426193121899 L 633.7539331067285,265.3962172901716 L 633.7853495682481,265.36376223256366 L 633.8148211701998,265.32967313501973 L 633.8419529665014,265.2947951834842 L 633.8663500110706,265.2599735639016 L 633.8876173578253,265.22605346221644 L 633.9053600606832,265.19388006437316 L 633.9191831735619,265.1642985563162 L 633.9286917503794,265.1381541239902 L 633.9334908450531,265.1162919533395 L 633.9331855115012,265.0995572303087 L 633.9273808036411,265.0887951408421 L 633.9156817753907,265.08485087088434 L 633.8976934806676,265.08856960637985 L 633.8730209733898,265.1007965332731 L 633.8412693074748,265.1223768375086 L 633.8020435368404,265.1541557050309 L 633.7549487154046,265.19697832178434 L 633.6995898970848,265.2516898737135 L 633.635572135799,265.3191355467628 L 633.5625004854649,265.4001605268768 L 633.4799800000001,265.49560999999994 L 612.4796200000001,265.59500999999995 L 612.3044600000001,265.25445999999994 L 612.3044600000001,271.55769999999995 L 582.165615067434,271.5723255980675 L 572.643549315566,271.5769464090764 L 515.8640999999999,271.60450000000014 L 515.8636382155889,271.38236781171855 L 515.8623347140103,271.14503193488883 L 515.8603122727459,270.894253056706 L 515.8576936692771,270.6317918643652 L 515.8546016810857,270.3594090450614 L 515.8511590856533,270.0788652859897 L 515.8474886604616,269.7919212743451 L 515.8437131829924,269.50033769732266 L 515.839955430727,269.20587524211743 L 515.8363381811472,268.9102945959245 L 515.8329842117348,268.6153564459388 L 515.8300162999714,268.3228214793555 L 515.8275572233384,268.0344503833696 L 515.8257297593177,267.75200384517615 L 515.824656685391,267.47724255197016 L 515.8244607790398,267.21192719094677 L 515.8252648177457,266.95781844930093 L 515.8271915789906,266.71667701422774 L 515.8303638402559,266.49026357292223 L 515.8349043790233,266.28033881257943 L 515.8409359727747,266.0886634203944 L 515.8485813989914,265.91699808356225 L 515.8579634351553,265.76710348927793 L 515.8692048587478,265.64074032473656 L 515.8824284472508,265.53966927713316 L 515.8977569781459,265.4656510336627 L 515.9153132289148,265.42044628152036 L 515.9352199770389,265.4058157079011 L 515.9576000000001,265.42352 L 515.9576000000001,265.42352 L 494.51412000000005,265.52893 L 494.51012000000003,264.88101 L 494.51012000000003,271.82632 L 488.18678523148134,271.82632 L 478.66178523148136,271.82632 L 436.63252,271.82632 L 436.63252000000017,248.51754598333335 L 436.6325200000002,238.99254598333337 L 436.6325200000002,234.64433000000005 L 436.62971519291506,233.5568984361803 L 436.62598646603,232.52713718028625 L 436.6214044298661,231.55142707532087 L 436.6160396949446,230.6261489642872 L 436.6099628717866,229.74768369018824 L 436.60324457091326,228.91241209602694 L 436.5959554028457,228.1167150248063 L 436.588165978105,227.35697331952932 L 436.5799469072124,226.629567823199 L 436.5713688006889,225.93087937881836 L 436.5625022690558,225.25728882939032 L 436.5534179228341,224.60517701791792 L 436.5441863725451,223.9709247874042 L 436.5348782287097,223.35091298085206 L 436.5255641018492,222.74152244126452 L 436.5163146024848,222.13913401164461 L 436.50720034113743,221.5401285349953 L 436.4982919283284,220.9408868543196 L 436.48965997457873,220.33778981262046 L 436.48137509040964,219.7272182529009 L 436.47350788634225,219.10555301816393 L 436.46612897289765,218.46917495141253 L 436.459308960597,217.81446489564968 L 436.45311845996144,217.1378036938784 L 436.44762808151216,216.43557218910166 L 436.4429084357702,215.70415122432246 L 436.4390301332568,214.93992164254377 L 436.436063784493,214.13926428676862 L 436.43408,213.29856 L 436.4340799999999,159.37499795 L 436.4340799999999,149.84999795000002 L 436.4340799999999,148.78368000000006 L 436.4514921850013,147.9535762483087 L 436.46811250973786,147.17783431465008 L 436.48392697363556,146.45115818114726 L 436.49892157612027,145.76825182992334 L 436.51308231661807,145.12381924310142 L 436.5263951945548,144.51256440280457 L 436.5388462093566,143.92919129115586 L 436.5504213604493,143.36840389027842 L 436.56110664725895,142.8249061822953 L 436.5708880692115,142.29340214932964 L 436.57975162573285,141.76859577350447 L 436.58768331624907,141.24519103694288 L 436.5946691401861,140.71789192176803 L 436.6006950969699,140.18140241010292 L 436.60574718602646,139.63042648407068 L 436.6098114067817,139.05966812579442 L 436.61287375866164,138.4638313173972 L 436.61492024109225,137.83762004100208 L 436.6159368534995,137.1757382787322 L 436.61590959530935,136.47289001271065 L 436.6148244659477,135.72377922506047 L 436.6126674648407,134.9231098979048 L 436.60942459141415,134.06558601336667 L 436.6050818450941,133.14591155356922 L 436.59962522530645,132.15879050063552 L 436.5930407314773,131.09892683668866 L 436.58531436303247,129.96102454385172 L 436.5764321193981,128.73978760424782 L 436.56638,127.42992 L 436.58288,62.67551499999999 L 436.59618,55.84596499999999 L 436.63248,48.121064999999994 L 436.69858,43.424704999999996 L 436.69858,42.366375 L 436.62998,41.308045 L 436.62998,37.23244991666667 L 436.62998,27.707449916666672 L 436.62998,4.4623159" fill="none" stroke="rgb(0,0,0)" stroke-width="0.5"/>
	<path d="M 59.949642,4.5784186 L 9.563183200000001,4.5784186 L 4.6517244,4.5784186" fill="none" stroke="rgb(0,0,0)" stroke-width="0.5"/>
	<path d="M 812.23151,4.3986759 L 841.0822552762738,4.171503257620132 L 850.5812602425735,4.096707475483147 L 841.0859297574264,4.1714743245168515 L 850.5849347237261,4.096678542379868 L 874.6843402762738,3.9069182576201316 L 879.4356799999999,3.8695058999999996" fill="none" stroke="rgb(0,0,0)" stroke-width="0.5"/>
</svg>
